<svg version="1.1" xmlns="http://www.w3.org/2000/svg" viewBox="0 0 32 32">
<title>300</title>
<path d="M27.551 15.036c0 0.95-0.088 1.879-0.257 2.781l-1.842-1.075c-0.315-5.594-4.951-10.033-10.624-10.033-1.96 0-3.797 0.53-5.374 1.455l-5.005-5.819c2.331-1.484 5.098-2.344 8.065-2.344 8.304 0 15.036 6.732 15.036 15.036zM18.144 25.754l-7.479 6.246v-11.643l1.773-1.079 1.157-3.084-4.858 2.622v2.93l-2.313 2.313v-7.21c0-4.791 3.884-8.675 8.675-8.675 4.501 0 8.202 3.428 8.633 7.817l-5.587 3.827v5.937z"></path>
</svg>
