<svg version="1.1" xmlns="http://www.w3.org/2000/svg" viewBox="0 0 32 32">
<title>ada</title>
<path d="M13.453 13.76c-0.82 0-1.558-0.454-1.926-1.186-0.534-1.062-0.106-2.36 0.955-2.896 0.301-0.151 0.632-0.23 0.968-0.23 0.815-0.003 1.561 0.456 1.927 1.185 0.535 1.062 0.106 2.361-0.955 2.895-0.3 0.152-0.632 0.232-0.969 0.232zM10.924 18.168c-0.042 0-0.083-0.001-0.125-0.003-1.185-0.069-2.096-1.090-2.028-2.276 0.067-1.182 1.080-2.1 2.274-2.030 1.186 0.066 2.095 1.088 2.028 2.274-0.065 1.142-1.011 2.035-2.149 2.035zM13.469 22.561c-0.42 0-0.83-0.122-1.18-0.353-0.479-0.313-0.813-0.803-0.928-1.363-0.118-0.563-0.008-1.139 0.307-1.621 0.399-0.608 1.077-0.975 1.804-0.974 0.42 0 0.829 0.123 1.18 0.353 0.48 0.312 0.814 0.803 0.928 1.364 0.119 0.563 0.009 1.139-0.308 1.621-0.398 0.609-1.076 0.975-1.804 0.973zM18.551 22.551c-0.815 0.002-1.56-0.457-1.925-1.186-0.26-0.514-0.302-1.098-0.122-1.645s0.564-0.99 1.077-1.25c0.3-0.152 0.632-0.231 0.969-0.231 0.815-0.003 1.561 0.457 1.925 1.186 0.534 1.061 0.106 2.36-0.955 2.895-0.301 0.151-0.633 0.23-0.969 0.23zM21.083 18.146c-0.043 0-0.084-0.003-0.124-0.004-1.187-0.067-2.097-1.089-2.029-2.274 0.067-1.183 1.081-2.101 2.275-2.031 0.571 0.031 1.105 0.289 1.485 0.716 0.382 0.426 0.577 0.987 0.542 1.558-0.064 1.142-1.008 2.035-2.148 2.035zM18.529 13.751c-0.418 0-0.827-0.122-1.18-0.354-0.995-0.652-1.272-1.991-0.62-2.985 0.398-0.608 1.076-0.974 1.803-0.973 0.42 0 0.828 0.122 1.18 0.353 0.994 0.651 1.272 1.99 0.621 2.985-0.4 0.609-1.074 0.975-1.804 0.975zM11.295 5.747c0.268 0.531 0.054 1.18-0.476 1.446-0.531 0.268-1.178 0.055-1.446-0.476s-0.055-1.179 0.476-1.447c0.53-0.266 1.178-0.054 1.445 0.477zM4.773 14.949c0.594 0.034 1.047 0.543 1.014 1.136s-0.543 1.048-1.136 1.015c-0.594-0.035-1.046-0.543-1.014-1.137 0.034-0.593 0.543-1.047 1.136-1.014zM9.477 25.201c0.156-0.239 0.401-0.406 0.681-0.464s0.571-0.003 0.809 0.154c0.497 0.325 0.636 0.993 0.31 1.491-0.326 0.498-0.993 0.636-1.491 0.311-0.497-0.327-0.635-0.994-0.309-1.492zM20.706 26.252c-0.268-0.53-0.054-1.178 0.475-1.445 0.533-0.268 1.18-0.054 1.446 0.476 0.268 0.531 0.054 1.18-0.477 1.446-0.255 0.129-0.55 0.151-0.821 0.062s-0.496-0.283-0.624-0.538zM27.227 17.050c-0.595-0.034-1.047-0.543-1.013-1.136 0.016-0.285 0.144-0.553 0.357-0.743s0.493-0.288 0.778-0.272c0.594 0.033 1.049 0.542 1.015 1.137s-0.544 1.047-1.137 1.014zM22.524 6.798c-0.21 0.325-0.577 0.512-0.963 0.491s-0.731-0.247-0.904-0.593c-0.173-0.345-0.148-0.757 0.066-1.079 0.156-0.239 0.401-0.406 0.681-0.464s0.57-0.003 0.809 0.154c0.497 0.327 0.636 0.994 0.311 1.491zM8.941 2.443c0.173 0.344 0.035 0.763-0.308 0.936-0.165 0.083-0.357 0.098-0.532 0.039s-0.321-0.183-0.404-0.349c-0.173-0.343-0.035-0.762 0.309-0.935s0.762-0.035 0.936 0.308zM0.736 15.338c0.184 0.010 0.357 0.093 0.48 0.231s0.186 0.319 0.176 0.503c-0.022 0.384-0.351 0.68-0.735 0.655-0.184-0.010-0.357-0.093-0.48-0.231s-0.186-0.319-0.175-0.503c0.022-0.384 0.351-0.677 0.735-0.656zM7.795 28.894c0.101-0.155 0.26-0.263 0.441-0.301s0.37-0.001 0.524 0.101c0.322 0.212 0.411 0.644 0.199 0.965-0.211 0.322-0.642 0.411-0.964 0.201-0.322-0.212-0.412-0.644-0.2-0.966zM23.060 29.557c-0.173-0.345-0.035-0.764 0.309-0.937 0.165-0.084 0.356-0.098 0.531-0.040s0.32 0.183 0.403 0.348c0.083 0.165 0.098 0.356 0.040 0.531s-0.183 0.321-0.348 0.404c-0.343 0.173-0.762 0.036-0.936-0.307zM31.265 16.663c-0.384-0.022-0.679-0.352-0.656-0.736 0.010-0.185 0.094-0.358 0.232-0.481s0.32-0.186 0.505-0.175c0.383 0.020 0.677 0.351 0.653 0.735-0.020 0.383-0.35 0.677-0.733 0.657zM24.207 3.105c-0.212 0.322-0.644 0.412-0.965 0.201s-0.411-0.643-0.2-0.965c0.101-0.154 0.26-0.263 0.441-0.3s0.369-0.001 0.523 0.101c0.322 0.211 0.412 0.642 0.201 0.964zM9.152 10.606c0.584 0.383 0.748 1.168 0.364 1.753-0.184 0.281-0.472 0.478-0.801 0.547s-0.672 0.003-0.952-0.182c-0.586-0.383-0.748-1.168-0.365-1.754 0.384-0.584 1.169-0.749 1.754-0.364zM7.906 19.236c0.625-0.315 1.387-0.063 1.702 0.561 0.314 0.625 0.063 1.387-0.562 1.702-0.624 0.315-1.386 0.063-1.701-0.561-0.315-0.625-0.064-1.387 0.561-1.702zM14.663 24.631c0.040-0.698 0.639-1.232 1.336-1.194 0.7 0.039 1.233 0.639 1.193 1.337-0.019 0.336-0.17 0.65-0.421 0.874s-0.581 0.339-0.916 0.32c-0.698-0.040-1.232-0.638-1.192-1.337zM22.85 21.395c-0.584-0.385-0.748-1.17-0.366-1.755 0.384-0.584 1.169-0.747 1.753-0.364 0.586 0.383 0.748 1.168 0.365 1.753-0.383 0.586-1.169 0.749-1.752 0.366zM24.095 12.764c-0.624 0.315-1.387 0.064-1.701-0.561s-0.065-1.387 0.561-1.701c0.625-0.316 1.387-0.064 1.703 0.561 0.314 0.624 0.062 1.387-0.563 1.701zM17.248 7.369c-0.040 0.698-0.639 1.233-1.339 1.193-0.698-0.040-1.232-0.639-1.192-1.337s0.638-1.233 1.336-1.194c0.7 0.040 1.234 0.638 1.195 1.338zM4.435 8.333c0.41 0.268 0.523 0.819 0.255 1.228-0.129 0.197-0.331 0.334-0.561 0.382s-0.47 0.002-0.667-0.127c-0.409-0.268-0.524-0.819-0.255-1.228s0.818-0.524 1.227-0.255zM3.581 22.186c0.21-0.106 0.454-0.124 0.677-0.051s0.408 0.233 0.514 0.443c0.22 0.438 0.044 0.971-0.394 1.192-0.437 0.22-0.97 0.045-1.19-0.392-0.22-0.437-0.044-0.971 0.393-1.192zM15.055 29.854c0.013-0.235 0.119-0.455 0.294-0.612s0.406-0.237 0.641-0.224c0.489 0.027 0.863 0.447 0.835 0.936-0.013 0.235-0.118 0.455-0.294 0.612s-0.406 0.237-0.641 0.224c-0.235-0.013-0.455-0.119-0.612-0.295s-0.237-0.407-0.223-0.641zM27.565 23.667c-0.409-0.269-0.523-0.818-0.255-1.228 0.269-0.409 0.819-0.524 1.228-0.255 0.408 0.269 0.523 0.818 0.255 1.228-0.129 0.197-0.331 0.334-0.561 0.382s-0.471 0.002-0.667-0.127zM28.421 9.814c-0.438 0.22-0.971 0.043-1.192-0.394-0.106-0.21-0.124-0.454-0.050-0.677s0.233-0.408 0.443-0.514c0.437-0.22 0.97-0.045 1.191 0.392s0.044 0.972-0.392 1.192zM16.856 2.146c-0.028 0.489-0.447 0.863-0.936 0.836s-0.863-0.447-0.836-0.936c0.029-0.49 0.447-0.864 0.936-0.836 0.489 0.028 0.863 0.447 0.836 0.936z"></path>
</svg>
