<!-- Generated by IcoMoon.io -->
<svg version="1.1" xmlns="http://www.w3.org/2000/svg" viewBox="0 0 32 32">
<title>adx</title>
<path d="M16 0c1.933 1.91 3.864 3.822 5.794 5.736-1.019 1.010-2.038 2.020-3.059 3.029-0.914-0.91-1.821-1.827-2.734-2.736-0.913 0.91-1.82 1.825-2.733 2.736-1.021-1.009-2.041-2.019-3.060-3.029 1.929-1.914 3.86-3.826 5.794-5.736zM10.207 26.256c1.026-1.001 2.037-2.016 3.059-3.021 0.912 0.91 1.821 1.825 2.733 2.736 0.914-0.91 1.822-1.825 2.735-2.736l3.059 3.027c-1.928 1.916-3.859 3.829-5.794 5.737-1.929-1.915-3.872-3.819-5.793-5.744z"></path>
<path d="M6.073 9.816c1.232-1.223 2.467-2.445 3.703-3.664 2.078 2.048 4.152 4.1 6.224 6.156 2.078-2.049 4.152-4.101 6.224-6.156 1.237 1.218 2.471 2.438 3.703 3.661v0.029c-2.063 2.055-4.132 4.104-6.206 6.148 2.067 2.052 4.136 4.103 6.206 6.152v0.023c-1.231 1.227-2.466 2.451-3.703 3.671-2.081-2.048-4.144-4.112-6.223-6.161-2.081 2.048-4.143 4.114-6.223 6.161-1.238-1.22-2.473-2.444-3.705-3.67v-0.021c2.066-2.054 4.135-4.106 6.206-6.155-2.068-2.050-4.137-4.1-6.206-6.149z"></path>
</svg>
