<!-- Generated by IcoMoon.io -->
<svg version="1.1" xmlns="http://www.w3.org/2000/svg" viewBox="0 0 32 32">
<title>ae</title>
<path d="M6.599 8.467c0.33-0.055 0.711-0.087 1.099-0.087 0.991 0 1.934 0.206 2.789 0.578l-0.045-0.018c1.635 0.706 2.933 1.992 4.040 3.353 1.189 1.45 2.159 3.058 3.233 4.591 0.853 1.203 1.747 2.4 2.864 3.373 0.628 0.54 1.333 1.001 2.128 1.264 1.136 0.377 2.391 0.312 3.515-0.071 1.38-0.493 2.495-1.445 3.185-2.668l0.015-0.029c0.684 0 1.37 0.005 2.054 0-0.698 1.724-1.946 3.104-3.524 3.951l-0.041 0.020c-0.688 0.37-1.487 0.649-2.333 0.793l-0.047 0.007c-1.178 0.161-2.405 0.124-3.533-0.28-1.296-0.437-2.41-1.288-3.357-2.259-2.517-2.572-4.037-5.923-6.488-8.548-0.651-0.68-1.382-1.304-2.238-1.712-0.653-0.317-1.42-0.502-2.23-0.502-0.333 0-0.659 0.031-0.974 0.091l0.032-0.005c-1.527 0.257-2.828 1.074-3.708 2.23l-0.010 0.014c-0.725 0.946-1.162 2.146-1.162 3.448 0 0.531 0.073 1.044 0.208 1.531l-0.010-0.040c0.464 1.649 1.592 2.974 3.070 3.691l0.035 0.015c1.4 0.669 3.097 0.792 4.533 0.163 0.835-0.355 1.563-0.923 2.209-1.555 0.62-0.627 1.194-1.304 1.714-2.021l0.035-0.050c0.032-0.042 0.068-0.081 0.104-0.12 0.355 0.548 0.731 1.081 1.090 1.627-1.035 1.346-2.21 2.638-3.704 3.478-0.628 0.36-1.357 0.636-2.132 0.786l-0.045 0.007c-3.439 0.577-6.838-1.222-8.294-4.39-1.299-2.864-0.687-6.233 1.535-8.459 1.147-1.157 2.659-1.95 4.349-2.193l0.041-0.005z"></path>
<path d="M20.934 9.238c0.971-0.54 2.13-0.858 3.364-0.858 0.357 0 0.708 0.027 1.051 0.078l-0.039-0.005c0.893 0.116 1.703 0.37 2.443 0.742l-0.044-0.020c2.010 0.973 3.561 2.864 4.076 5.041 0.137 0.528 0.215 1.133 0.215 1.757 0 0.337-0.023 0.669-0.067 0.994l0.004-0.038c-3.029-0.005-6.058-0.005-9.087 0-0.005-0.615 0-1.231 0-1.846h7.212c-0.238-1.418-0.966-2.633-2.001-3.492l-0.009-0.008c-1.411-1.174-3.403-1.668-5.178-1.155-0.858 0.259-1.632 0.741-2.304 1.326-0.889 0.773-1.633 1.695-2.322 2.645-0.355-0.548-0.739-1.084-1.108-1.627 1.051-1.371 2.254-2.694 3.794-3.535z"></path>
</svg>
