<!-- Generated by IcoMoon.io -->
<svg version="1.1" xmlns="http://www.w3.org/2000/svg" viewBox="0 0 32 32">
<title>aeon</title>
<path d="M24.014 3.592c-0.623-1.387-1.534-2.365-2.716-2.778-3.15-1.099-7.287 2.138-10.338 7.624 0.607-0.144 1.218-0.271 1.832-0.382 3.952-2.641 7.982-4.189 11.223-4.464zM7.986 28.408c0.623 1.387 1.534 2.365 2.716 2.778 3.149 1.099 7.286-2.139 10.338-7.624-0.607 0.144-1.218 0.271-1.832 0.382-3.952 2.641-7.981 4.189-11.222 4.464z"></path>
<path d="M15.031 7.723c5.85-0.685 11.183 0.105 14.556 1.872 0.131-1.307-0.118-2.456-0.798-3.347-2.216-2.905-8.288-2.124-14.43 1.561 0.224-0.031 0.448-0.059 0.672-0.085zM16.969 24.277c-5.85 0.685-11.183-0.104-14.556-1.872-0.131 1.308 0.118 2.457 0.797 3.347 2.216 2.906 8.288 2.124 14.43-1.56-0.222 0.031-0.446 0.059-0.671 0.085zM11.843 16.628c-0.82 0.284-1.238 1.372-0.552 1.916s1.837 0.292 2.373-0.244c0.536-0.536 0.86-1.852 0.86-1.852s-1.86-0.103-2.68 0.181zM18.505 13.514c-0.891 0.631-0.977 1.94-0.977 1.94s0.969 0.087 2.262-0.055c1.293-0.142 1.522-1.19 1.207-1.837s-1.6-0.678-2.491-0.047z"></path>
<path d="M31.974 14.13c-0.495-4.229-8.048-6.82-16.871-5.788s-15.573 5.299-15.078 9.528c0.495 4.229 8.049 6.82 16.871 5.787s15.573-5.298 15.078-9.527zM23.913 14.904c-0.588 1.85-3.447 2.197-3.447 2.197-1.146 0.158-3.248 0.137-3.248 0.137-0.147 1.303 0.662 1.493 2.092 1.514s3.206-0.799 3.206-0.799l-0.441 2.271c0 0-1.756 0.473-3.059 0.452s-3.038 0.042-4.096-1.587c-1.059 1.188-2.42 1.671-4.239 1.682s-3.122-1.073-2.617-3.395c0.504-2.323 3.542-2.575 3.542-2.575 1.545-0.21 3.29-0.147 3.29-0.147 0.221-1.419-1.124-1.503-2.502-1.493s-2.796 0.778-2.796 0.778l0.389-2.239c0 0 1.482-0.347 3.374-0.494s3.3 0.578 3.753 1.608c1.114-1.22 3.163-1.966 4.993-1.619s2.397 1.861 1.807 3.71z"></path>
</svg>
