<svg version="1.1" xmlns="http://www.w3.org/2000/svg" viewBox="0 0 32 32">
<title>aidoc</title>
<path d="M12.944 17.618h6.112v11.326c0 1.688-1.368 3.056-3.056 3.056s-3.056-1.368-3.056-3.056v-11.326zM16 0c1.688 0 3.056 1.368 3.056 3.056v8.27c0 1.688-1.368 3.056-3.056 3.056h-3.056v-11.326c0-1.688 1.368-3.056 3.056-3.056zM3.056 12.944h11.326v6.112h-11.326c-1.688 0-3.056-1.368-3.056-3.056s1.368-3.056 3.056-3.056zM20.674 12.944h8.27c1.688 0 3.056 1.368 3.056 3.056s-1.368 3.056-3.056 3.056h-11.326v-3.056c0-1.688 1.368-3.056 3.056-3.056zM14.382 19.056v9.888c0 0.894 0.724 1.618 1.618 1.618s1.618-0.724 1.618-1.618v-9.888h-3.236zM16 1.438c-0.894 0-1.618 0.724-1.618 1.618v9.888h1.618c0.894 0 1.618-0.724 1.618-1.618v-8.27c0-0.894-0.724-1.618-1.618-1.618zM3.056 14.382c-0.894 0-1.618 0.724-1.618 1.618s0.724 1.618 1.618 1.618h9.888v-3.236h-9.888zM20.674 14.382c-0.894 0-1.618 0.724-1.618 1.618v1.618h9.888c0.894 0 1.618-0.724 1.618-1.618s-0.724-1.618-1.618-1.618h-8.27z"></path>
</svg>
