<!-- Generated by IcoMoon.io -->
<svg version="1.1" xmlns="http://www.w3.org/2000/svg" viewBox="0 0 32 32">
<title>aion</title>
<path d="M23.209 4.096c-2.189-1.344-4.711-2.055-7.294-2.055-2.373 0-4.715 0.606-6.774 1.751l-0.992-1.783c2.362-1.314 5.048-2.009 7.766-2.009 2.96 0 5.852 0.815 8.363 2.357l-1.069 1.739zM29.53 12.21c-0.536-1.932-1.463-3.697-2.753-5.246l1.307-1.089c1.446 1.736 2.484 3.714 3.085 5.88l-1.639 0.455zM26.25 28.215l-1.319-1.558c3.141-2.66 4.943-6.544 4.943-10.657h2.041c-0 4.713-2.065 9.165-5.665 12.215zM15.915 32c-3.712 0-7.329-1.3-10.186-3.66l1.3-1.573c2.491 2.059 5.647 3.192 8.885 3.192 2.264 0 4.424-0.525 6.419-1.56l0.94 1.812c-2.255 1.17-4.8 1.788-7.358 1.788zM2.689 24.703c-1.704-2.585-2.604-5.594-2.604-8.702 0-4.327 1.713-8.368 4.824-11.378l1.183 1.223c-2.777 2.686-4.306 6.293-4.306 10.155 0 2.774 0.804 5.46 2.324 7.766l-1.42 0.936z"></path>
<path d="M15.915 26.417c-5.744 0-10.417-4.673-10.417-10.417s4.673-10.417 10.417-10.417c5.744 0 10.417 4.673 10.417 10.417s-4.673 10.417-10.417 10.417zM15.915 7.624c-4.619 0-8.377 3.758-8.377 8.376s3.758 8.376 8.377 8.376 8.377-3.757 8.377-8.376c0-4.619-3.758-8.376-8.377-8.376z"></path>
</svg>
