<!-- Generated by IcoMoon.io -->
<svg version="1.1" xmlns="http://www.w3.org/2000/svg" viewBox="0 0 32 32">
<title>amp</title>
<path d="M15.219 15.977c0-1.465-1.187-2.652-2.652-2.652s-2.652 1.188-2.652 2.652c0 1.465 1.187 2.652 2.652 2.652s2.652-1.187 2.652-2.652z"></path>
<path d="M20.742 13.325c-0.010 0-0.019 0.001-0.029 0.002l0.002-0.002c-2.069 0-3.746-1.677-3.746-3.746 0-1.465-1.188-2.652-2.652-2.652s-2.652 1.188-2.652 2.652c0 1.465 1.188 2.652 2.652 2.652 0.009 0 0.019-0.001 0.029-0.001l-0.001 0.001c2.069 0 3.746 1.677 3.746 3.746s-1.677 3.746-3.746 3.746c-1.465 0-2.652 1.187-2.652 2.652s1.188 2.652 2.652 2.652 2.652-1.187 2.652-2.652c0-2.069 1.677-3.746 3.746-3.746 1.465 0 2.652-1.188 2.652-2.652s-1.188-2.652-2.652-2.652z"></path>
<path d="M16 0c-8.837 0-16 7.164-16 16s7.164 16 16 16 16-7.163 16-16c0-8.836-7.163-16-16-16zM16 28.14c-6.705 0-12.14-5.435-12.14-12.14s5.436-12.14 12.14-12.14c6.705 0 12.14 5.435 12.14 12.14s-5.435 12.14-12.14 12.14z"></path>
</svg>
