<svg version="1.1" xmlns="http://www.w3.org/2000/svg" viewBox="0 0 32 32">
<title>anc</title>
<path d="M15.984 0c-8.828 0-15.984 7.157-15.984 15.984s7.157 15.984 15.984 15.984 15.984-7.156 15.984-15.984c0-8.827-7.156-15.984-15.984-15.984zM15.984 27.825c-3.252 0-6.198-1.312-8.338-3.434l1.276-2.316h14.146l1.266 2.304c-2.141 2.13-5.091 3.446-8.35 3.446zM20.647 17.649l1.142 2.088h-11.592l1.138-2.088zM12.611 15.31l3.373-6.188 3.384 6.188zM25.932 22.41l-9.948-18.266-9.958 18.249c-1.191-1.847-1.883-4.047-1.883-6.408 0-6.539 5.301-11.841 11.841-11.841s11.841 5.301 11.841 11.841c0 2.369-0.696 4.575-1.894 6.425z"></path>
</svg>
