<svg version="1.1" xmlns="http://www.w3.org/2000/svg" viewBox="0 0 32 32">
<title>ant</title>
<path d="M0.433 9.667c1.511-1.267 3.067-2.389 4.667-3.367 1.622-0.956 3.145-1.772 4.567-2.45s2.656-1.205 3.7-1.583c1.045-0.4 1.744-0.656 2.1-0.767l0.533-0.167 0.533 0.167c0.356 0.111 1.067 0.367 2.133 0.767 1.044 0.378 2.272 0.906 3.683 1.583s2.928 1.506 4.55 2.483c1.622 0.978 3.178 2.1 4.667 3.367l0.433 0.333-0.1 0.534c-0.067 0.333-0.311 1.289-0.733 2.867s-1.145 3.356-2.167 5.333c-0.622 1.289-1.333 2.489-2.133 3.6s-1.644 2.133-2.533 3.067c-1.133 1.156-2.35 2.15-3.65 2.983s-2.683 1.517-4.15 2.050l-0.533 0.2-0.533-0.2c-1.445-0.534-2.817-1.217-4.117-2.050s-2.528-1.828-3.683-2.983c-0.889-0.933-1.733-1.95-2.533-3.050s-1.511-2.306-2.133-3.617c-1-1.933-1.717-3.705-2.15-5.317s-0.683-2.594-0.75-2.95l-0.1-0.533zM13.5 9.933c-0.8 0-1.55 0.089-2.25 0.267s-1.317 0.423-1.85 0.733l0.367-0.1 0.8-0.167c0.133 0.156 0.261 0.267 0.383 0.333s0.206 0.111 0.25 0.133c0.822-0.178 1.411-0.423 1.767-0.733zM8.067 23.1c-0.111-0.133-0.217-0.261-0.317-0.383s-0.194-0.25-0.283-0.383c0.089 0.133 0.183 0.267 0.283 0.4s0.206 0.256 0.317 0.367zM2.033 10.867c0.133 0.6 0.4 1.556 0.8 2.867s0.989 2.722 1.767 4.233c0.4 0.8 0.822 1.561 1.267 2.283s0.923 1.406 1.434 2.050c2.089-0.222 3.261-0.778 3.517-1.667l0.383-1.333v-0.3l-0.066-0.333-0.267-0.733c-0.178-0.489-0.383-0.733-0.617-0.733s-0.605-0.111-1.117-0.333c-0.133 0-0.256 0.011-0.367 0.034s-0.222 0.056-0.333 0.1c-0.489 0.267-0.667 0.583-0.533 0.95l0.2 0.55c-0.6-0.111-1.194-0.494-1.783-1.15s-0.828-1.583-0.717-2.783c0.111-1.2 0.656-2.106 1.633-2.717l1.466-0.917c-0.066-0.267-0.083-0.455-0.050-0.567l0.050-0.167c1.511-0.933 2.923-1.6 4.233-2 1.311-0.422 2.45-0.7 3.417-0.833s1.728-0.178 2.284-0.133l0.833 0.067-1.167 1.167h0.367c1.222 0.044 2.367 0.322 3.433 0.833 1.067 0.489 2 1.156 2.8 2s1.433 1.822 1.9 2.933c0.466 1.089 0.711 2.267 0.733 3.533 0.733-1.489 1.289-2.855 1.667-4.1s0.633-2.178 0.767-2.8v-0.1c-1.378-1.133-2.811-2.144-4.3-3.033-1.511-0.889-2.922-1.645-4.233-2.267s-2.455-1.111-3.433-1.467c-0.978-0.378-1.645-0.622-2-0.733-0.444 0.133-1.167 0.389-2.167 0.767-0.978 0.378-2.117 0.878-3.417 1.5s-2.683 1.356-4.15 2.2c-1.444 0.867-2.855 1.867-4.233 3z"></path>
</svg>
