<!-- Generated by IcoMoon.io -->
<svg version="1.1" xmlns="http://www.w3.org/2000/svg" viewBox="0 0 32 32">
<title>apis</title>
<path d="M29.45 9.526l-13.446-7.237-13.455 7.237-0.952-1.771 14.407-7.755 14.398 7.755z"></path>
<path d="M15.957 31.999l-14.388-7.67v-16.593l2.016 1.319v14.068l12.362 6.596z"></path>
<path d="M15.809 8.671v0c2.638 0 5.126 1.074 6.831 2.949l0.264 0.283 1.856-0.952-0.631-0.688c-2.082-2.29-5.116-3.599-8.311-3.609h-0.009c-3.185 0-6.219 1.31-8.311 3.599l-0.594 0.65 1.847 0.961 0.236-0.254c1.715-1.866 4.193-2.94 6.822-2.94z"></path>
<path d="M28.414 9.018v13.927l-1.225 0.66 1.206-0.65-1.677 0.914-10.77 5.851 0.009 2.28 14.473-7.858v-16.405z"></path>
</svg>
