<!-- Generated by IcoMoon.io -->
<svg version="1.1" xmlns="http://www.w3.org/2000/svg" viewBox="0 0 32 32">
<title>apt</title>
<path d="M0 16c0-8.837 7.163-16 16-16s16 7.163 16 16v16h-16c-8.837 0-16-7.163-16-16zM16 30.197h14.197v-14.197c0-7.841-6.356-14.197-14.197-14.197s-14.197 6.356-14.197 14.197c0 7.841 6.356 14.197 14.197 14.197zM21.634 21.634h-5.634c-3.111 0-5.634-2.522-5.634-5.634s2.522-5.634 5.634-5.634c3.111 0 5.634 2.522 5.634 5.634v5.634zM9.465 16c0 3.609 2.926 6.535 6.535 6.535h6.535v-6.535c0-3.609-2.926-6.535-6.535-6.535s-6.535 2.926-6.535 6.535zM20.732 20.732v-4.732c0-2.614-2.119-4.732-4.732-4.732s-4.732 2.119-4.732 4.732 2.119 4.732 4.732 4.732h4.732z"></path>
</svg>
