<svg version="1.1" xmlns="http://www.w3.org/2000/svg" viewBox="0 0 32 32">
<title>arn</title>
<path d="M16 0c-5.27 0-9.645 0.993-13.121 2.989l-0.011 0.006c-0.68 0.396-1.137 1.133-1.137 1.976 0 0.050 0.002 0.099 0.004 0.141l0.685 11.103c0.3 4.86 2.886 9.289 6.971 11.938l5.356 3.474c0.36 0.236 0.79 0.373 1.252 0.373s0.893-0.137 1.244-0.368l5.365-3.479c4.085-2.649 6.671-7.078 6.971-11.938l0.685-11.103-0 0.007c0.003-0.049 0.005-0.098 0.005-0.147 0-0.843-0.457-1.58-1.148-1.982-3.476-1.996-7.852-2.989-13.121-2.989zM24.212 12.303c0.26 0.266 0.421 0.63 0.421 1.031 0 0.001 0 0.001 0 0.002v-0c0 0.423-0.178 0.804-0.462 1.073l3.85 7.103-0.591 0.32-3.839-7.083c-0.131 0.042-0.281 0.066-0.437 0.066-0.105 0-0.207-0.011-0.306-0.031l0.010 0.002-5.655 10.358c0.117 0.151 0.206 0.33 0.257 0.524l0.002 0.010 9.038-2.381 0.174 0.65-9.203 2.426c-0.125 0.546-0.552 0.977-1.096 1.107v4.063h-0.672v-4.059c-0.561-0.127-1.001-0.572-1.12-1.136-2.008-0.486-3.693-0.895-5.053-1.225l-0.005-0.001-0.001-0-0.004-0.001c-2.106-0.511-3.434-0.833-3.983-0.963l0.15-0.654c0.897 0.212 3.894 0.937 8.914 2.158 0.056-0.205 0.148-0.384 0.27-0.538l-0.002 0.003-5.758-10.415c-0.161 0.065-0.347 0.103-0.542 0.103-0 0-0.001 0-0.001 0h0c-0.065 0-0.129-0.005-0.192-0.013l-3.884 6.944-0.587-0.328 3.835-6.856c-0.393-0.266-0.651-0.716-0.651-1.226 0-0.489 0.237-0.922 0.603-1.191l-4.729-8.554 0.588-0.325 4.762 8.614c0.077-0.014 0.165-0.022 0.256-0.022 0.221 0 0.431 0.049 0.619 0.136l-0.009-0.004 6.293-11.25c0.096-0.17 0.252-0.296 0.439-0.349l0.005-0.001c0.060-0.018 0.13-0.028 0.202-0.028 0.132 0 0.257 0.035 0.364 0.096l-0.004-0.002c0.123 0.070 0.221 0.169 0.287 0.289l0.002 0.004 6.044 11.15c0.104-0.026 0.222-0.041 0.345-0.041 0.176 0 0.344 0.031 0.5 0.087l-0.010-0.003 4.795-8.782 0.59 0.322-4.817 8.823zM16.673 24.711l5.573-10.208c-0.347-0.271-0.57-0.692-0.57-1.167 0-0.457 0.207-0.866 0.533-1.137l-6.033-11.131c-0.006-0.011-0.015-0.020-0.026-0.027-0.020-0.011-0.039-0.010-0.051-0.006s-0.029 0.012-0.040 0.032l-6.342 11.338-0.002-0.003c0.208 0.254 0.332 0.578 0.332 0.932 0 0.001 0 0.001 0 0.002v-0c0 0.001 0 0.001 0 0.002 0 0.381-0.145 0.728-0.381 0.989l5.736 10.376c0.191-0.090 0.403-0.14 0.628-0.14h-0c0.001 0 0.001 0 0.002 0 0.234 0 0.455 0.055 0.643 0.148zM16.007 8.092c0.427 0 0.794 0.374 0.794 0.802v2.939l4.273 2.672-0.525 1.071-3.748-1.338v2.939l1.039 0.802v0.802l-1.864-0.534-1.864 0.534v-0.802l1.1-0.802v-2.939l-3.821 1.271-0.463-1.003 4.284-2.672v-2.939c0-0.428 0.367-0.802 0.794-0.802z"></path>
</svg>
