<!-- Generated by IcoMoon.io -->
<svg version="1.1" xmlns="http://www.w3.org/2000/svg" viewBox="0 0 32 32">
<title>awc</title>
<path d="M0 31.392l9.496-25.982c1.205-3.034 3.451-4.751 6.438-4.8v-0.001c0.022 0 0.044 0 0.067 0s0.044-0 0.067-0v0.001c2.986 0.050 5.233 1.767 6.438 4.8l9.496 25.982-5.88-2.042-8.111-22.195c-0.494-1.228-1.064-1.67-2.008-1.689-0.945 0.019-1.515 0.461-2.008 1.689l-8.112 22.195-5.88 2.042zM20.131 21.498c0 2.27-1.825 4.109-4.076 4.109s-4.076-1.84-4.076-4.109 1.825-4.109 4.076-4.109c2.251 0 4.076 1.84 4.076 4.109z"></path>
</svg>
