<svg version="1.1" xmlns="http://www.w3.org/2000/svg" viewBox="0 0 32 32">
<title>bc</title>
<path d="M1.448 0.513c0 0 3.825 0.985 3.825 6.664v17.138c0 6.706-3.825 7.092-3.825 7.092v0.571l6.25-0.3v-31.379l-6.25-0.299zM25.329 7.641c0.085 4.557-1.755 6.336-1.755 6.336s4.517-1.456 4.431-6.635c-0.085-5.18-6.186-6.507-6.186-6.507s3.425 2.25 3.511 6.807zM24.912 15.668c0 0 2.703 2.406 2.833 7.528s-2.833 7.648-2.833 7.648 5.704-1.605 5.639-7.706c-0.064-6.1-5.639-7.47-5.639-7.47z"></path>
<path d="M23.103 16.781c-1.027-0.856-3.939-1.841-3.939-1.841s1.927-0.963 2.804-2.355c0.878-1.391 1.563-3.938 0.921-6.614s-2.997-5.351-5.736-5.736c-2.74-0.386-3.902 0.064-7.228 0.107v31.307c0 0 5.044 0.371 7.763 0.35s6.892-1.884 7.662-6.956-1.22-7.406-2.247-8.262zM12.764 2.954c0.492-0.471 3.039-1.306 5.458 0.364s3.046 6.557 1.049 9.154c-1.998 2.597-6.978 1.912-6.978 1.912s-0.021-10.959 0.471-11.43zM22.724 25.186c-1.156 4.466-4.666 4.595-6.507 4.523s-3.61-0.043-3.81-5.223-0.114-7.948-0.114-7.948c0 0 5.479-0.214 7.349 0.599s4.238 3.582 3.082 8.048z"></path>
</svg>
