<svg version="1.1" xmlns="http://www.w3.org/2000/svg" viewBox="0 0 32 32">
<title>bch</title>
<path d="M16.023 6.132c-0.813-0.001-1.639 0.099-2.464 0.309v-0c-5.273 1.346-8.457 6.708-7.109 11.976s6.715 8.448 11.989 7.101c5.274-1.346 8.457-6.708 7.109-11.976-1.137-4.445-5.136-7.403-9.526-7.41zM0 6.177v19.69h9.097c-3.102-2.174-5.129-5.773-5.129-9.845s2.027-7.671 5.129-9.845zM22.903 6.177c3.102 2.174 5.129 5.773 5.129 9.845s-2.027 7.672-5.129 9.845h9.097v-19.69zM15.737 9.425l0.489 1.909c0.892-0.17 1.589-0.17 2.268 0.106 0.878 0.356 1.081 1.312 1.122 1.542s0.053 0.69-0.073 1.021c-0.126 0.331-0.539 0.736-0.539 0.736s0.603-0.025 1.083 0.175c0.479 0.2 0.913 0.658 1.096 1.443s0.222 1.602-0.361 2.278c-0.569 0.66-1.285 0.944-1.621 1.078l-0.025 0.010c-0.16 0.064-0.438 0.16-0.738 0.255l0.489 1.912-1.178 0.301-0.481-1.881-0.898 0.229 0.481 1.881-1.178 0.301-0.481-1.882-2.319 0.592-0.119-1.476 0.705-0.18c0.237-0.061 0.33-0.108 0.405-0.226s0.061-0.268 0.031-0.383l-1.246-4.871c-0.078-0.305-0.124-0.381-0.304-0.502s-0.516-0.058-0.702-0.010l-0.681 0.174-0.313-1.223 2.318-0.591-0.483-1.887 1.179-0.301 0.482 1.887 0.897-0.229-0.482-1.887zM16.254 12.815c-0.418-0.002-0.709 0.063-1.034 0.141-0.37 0.089-0.736 0.217-0.736 0.217l0.581 2.272c0 0 0.555-0.124 0.98-0.25s0.857-0.341 1.141-0.607c0.284-0.266 0.398-0.6 0.278-1.026s-0.5-0.716-1.022-0.741c-0.063-0.003-0.125-0.005-0.188-0.005zM17.512 16.198c-0.273 0.002-0.546 0.028-0.814 0.078-0.594 0.111-1.333 0.34-1.333 0.34l0.646 2.525c0 0 0.786-0.183 1.299-0.355s1.019-0.441 1.251-0.659c0.231-0.217 0.497-0.532 0.35-1.109s-0.595-0.721-0.843-0.775c-0.124-0.027-0.318-0.046-0.556-0.045z"></path>
</svg>
