<svg version="1.1" xmlns="http://www.w3.org/2000/svg" viewBox="0 0 32 32">
<title>bcn</title>
<path d="M26.855 13.701c0 0 2.984-1.835 2.984-5.076s-3.138-7.373-8.077-7.373h-13.873v9.053h-7.889v3.858h7.889v5.119h-7.889v3.858h7.889v7.608h12.844c6.071 0 11.267-3.311 11.267-9.331 0-6.018-5.145-7.716-5.145-7.716zM19.55 5.315c2.573 0 5.196 1.234 5.196 4.038s-2.778 4.218-5.351 4.218h-6.225v-8.257zM20.419 25.893h-7.248v-8.952h7.203c4.784 0 6.764 1.98 6.764 4.887s-3.477 4.064-6.719 4.064z"></path>
</svg>
