<svg version="1.1" xmlns="http://www.w3.org/2000/svg" viewBox="0 0 32 32">
<title>bta</title>
<path d="M5.556 19.194v-19.194h-4.075c-0.818 0-1.481 0.663-1.481 1.48v4.009h4.014v7.257h-4.014v17.774c0 0.817 0.663 1.48 1.481 1.48h12.894c-5.156-1.969-8.819-6.958-8.819-12.805zM29.481 28.324l-5.151-5.151c0.862-1.096 1.38-2.475 1.38-3.978 0-3.562-2.887-6.449-6.449-6.449h-4.907v-7.257h4.907c5.783 0 10.726 3.584 12.739 8.65v-12.659c0-0.818-0.663-1.48-1.481-1.48h-17.706v19.194c0 3.562 2.887 6.449 6.449 6.449 1.503 0 2.882-0.518 3.978-1.38l5.151 5.151c-1.245 1.112-2.682 1.989-4.241 2.586h6.37c0.818 0 1.481-0.663 1.481-1.481v-6.267c-0.595 1.494-1.447 2.872-2.519 4.071z"></path>
</svg>
