<svg version="1.1" xmlns="http://www.w3.org/2000/svg" viewBox="0 0 32 32">
<title>btcd</title>
<path d="M2.891 4.537c0 0 3.992-4.537 12.009-4.537s16.205 7.608 16.205 16.444c0 8.836-7.028 15.556-14.636 15.556s-15.574-5.493-15.574-14.294c0-8.802 7.744-12.453 12.196-12.35 4.604 0.106 9.16 3.838 9.689 8.051 0.462 3.683-1.614 6.494-2.547 7.358s-3.548 2.047-5.868 1.433c-2.32-0.614-3.412-2.434-3.616-3.389s-0.339-3.175 1.519-4.242c1.858-1.068 3.121 0.263 3.382 0.922s-0.114 1.638-0.841 1.809c-0.728 0.171-1.376-0.092-1.763-0.421 0 0-0.057 1.59 1.495 1.863s2.516-0.614 2.968-1.313c0.452-0.699 1.297-2.985-0.716-5.109s-5.518-1.97-7.506-0.503c-1.987 1.467-3.997 4.177-3.156 8.134s4.447 7.643 9.808 7.688c5.362 0.045 11.366-4.23 11.867-11.303s-4.344-12.077-7.824-13.533c-3.48-1.456-6.481-2.051-10.235-1.32s-5.731 2.32-6.858 3.059z"></path>
</svg>
