<svg version="1.1" xmlns="http://www.w3.org/2000/svg" viewBox="0 0 32 32">
<title>bth</title>
<path d="M5.476 17.316l10.43 6.052 10.649-6.052-10.556 14.684-10.524-14.684zM26.020 15.981l-10.108 5.724-10.456-5.821-0.011 0.005 0.005-0.008-0.005-0.003 0.011-0.006 10.435-15.871 10.129 15.981zM18.619 12.696c-0.275-0.208-0.667-0.292-0.667-0.292s0.331-0.193 0.467-0.386c0.136-0.193 0.203-0.492 0.215-0.648s0.038-0.807-0.467-1.181c-0.391-0.29-0.838-0.405-1.439-0.443v-0.595h-0.806v0.579h-0.614v-0.579h-0.806v0.579h-1.586v0.841h0.466c0.127 0 0.353 0.014 0.449 0.122s0.113 0.165 0.113 0.375l0 3.353c0 0.079-0.015 0.178-0.083 0.242s-0.136 0.079-0.298 0.079h-0.482l-0.166 0.973h1.586v0.575h0.806v-0.575h0.614v0.575h0.806v-0.597c0.208-0.012 0.403-0.028 0.516-0.043 0.23-0.030 0.75-0.091 1.236-0.432s0.595-0.875 0.606-1.412c0.012-0.538-0.192-0.905-0.467-1.113zM15.343 10.627s0.25-0.023 0.496-0.019c0.246 0.004 0.462 0.011 0.786 0.114s0.514 0.354 0.521 0.65c0.007 0.297-0.118 0.494-0.338 0.62s-0.525 0.194-0.811 0.205c-0.286 0.011-0.653 0-0.653 0v-1.57zM17.153 14.524c-0.185 0.105-0.556 0.199-0.915 0.226s-0.896 0.016-0.896 0.016v-1.788s0.514-0.027 0.915 0c0.401 0.027 0.737 0.132 0.888 0.211s0.416 0.249 0.416 0.658c0 0.409-0.223 0.573-0.408 0.678z"></path>
</svg>
