<svg version="1.1" xmlns="http://www.w3.org/2000/svg" viewBox="0 0 32 32">
<title>btu</title>
<path d="M15.974 0.026h0.051c8.822 0 15.974 7.152 15.974 15.974 0 8.734-7.010 15.831-15.71 15.972l-0.315 0.002c-8.822 0-15.974-7.152-15.974-15.974s7.152-15.974 15.974-15.974zM15.974 1.091c-8.234 0-14.909 6.675-14.909 14.909 0 8.152 6.543 14.776 14.663 14.907l0.298 0.002c8.234 0 14.909-6.675 14.909-14.909 0-8.152-6.543-14.776-14.663-14.908l-0.298-0.002z"></path>
<path d="M5.556 14.221c-0.196 1.215-0.198 2.46 0.006 3.674 0.342-0.632 0.729-1.239 1.129-1.836-0.405-0.596-0.783-1.209-1.136-1.838zM18.239 9.65c-0.666 0.161-1.323 0.363-1.964 0.602l0.027 0.011c-0.571 0.155-1.105 0.442-1.651 0.674-0.046 0.372-0.201 0.743-0.505 0.977-0.4 0.335-0.995 0.386-1.454 0.144-0.546 0.366-1.087 0.743-1.583 1.176-0.567 0.447-1.091 0.947-1.591 1.467-0.416 0.431-0.802 0.889-1.174 1.357 0.409 0.514 0.833 1.017 1.298 1.482l-0.003 0.011c0.498 0.489 1.001 0.976 1.551 1.407 0.436 0.364 0.898 0.693 1.366 1.013 0.414-0.274 0.978-0.292 1.405-0.038 0.434 0.244 0.681 0.741 0.666 1.232 0.531 0.25 1.066 0.493 1.619 0.691 0.651 0.245 1.318 0.449 1.995 0.614 0.636 0.158 1.283 0.27 1.932 0.363 0.253-0.625 0.481-1.261 0.66-1.913l0.009-0.004c0.182-0.682 0.342-1.37 0.451-2.067 0.086-0.53 0.14-1.064 0.184-1.6-0.343-0.15-0.63-0.436-0.752-0.793-0.246-0.645 0.114-1.419 0.751-1.67-0.042-0.544-0.095-1.088-0.187-1.625-0.103-0.697-0.268-1.383-0.452-2.061-0.182-0.617-0.39-1.224-0.628-1.82-0.662 0.090-1.321 0.204-1.969 0.368zM14.402 5.458c-0.657 0.113-1.311 0.267-1.935 0.506-1.12 0.397-2.159 1.004-3.091 1.737-0.525 0.441-1.030 0.912-1.461 1.447-0.783 0.931-1.42 1.997-1.826 3.142 0.411 0.919 0.895 1.806 1.45 2.647 0.743-0.914 1.579-1.752 2.46-2.528 0.56-0.437 1.102-0.905 1.71-1.274l-0.001-0.014c0.093-0.061 0.184-0.125 0.275-0.192 0.002-0.274 0.070-0.55 0.227-0.777 0.375-0.591 1.235-0.77 1.819-0.385 0.098-0.045 0.198-0.091 0.297-0.135 0.603-0.298 1.237-0.525 1.861-0.772 1.124-0.371 2.279-0.654 3.447-0.848-0.448-0.873-0.951-1.717-1.531-2.51-1.219-0.226-2.475-0.233-3.7-0.044zM13.332 4.314c1.813-0.434 3.723-0.423 5.539-0.015 0.011 0.016 0.032 0.046 0.044 0.062 0.431 0.587 0.849 1.185 1.219 1.813 0.332 0.546 0.622 1.114 0.903 1.687 0.748-0.044 1.499-0.079 2.248-0.035 0.574 0.015 1.144 0.083 1.716 0.135l0.068 0.004c0.699 0.776 1.296 1.642 1.777 2.569-0.199 0.602-0.417 1.196-0.669 1.778-0.42-1.112-1.023-2.147-1.766-3.075-0.936-0.104-1.881-0.119-2.822-0.080 0.425 1.122 0.744 2.283 0.963 3.463 0.111 0.681 0.206 1.366 0.246 2.056-0.080 0.352 0.284 0.499 0.386 0.792 0.253 0.531 0.086 1.2-0.36 1.575-0.006 0.070-0.017 0.208-0.022 0.276-0.020 0.302-0.043 0.603-0.080 0.904-0.043 0.411-0.111 0.818-0.177 1.227-0.218 1.197-0.551 2.372-0.985 3.509 0.924 0.043 1.849 0.022 2.769-0.063 0.819-0.981 1.471-2.104 1.895-3.311 0.225-0.61 0.369-1.245 0.485-1.883 0.316 0.602 0.616 1.212 0.884 1.837l0.030 0.067c-0.554 1.734-1.486 3.365-2.759 4.667-1.283 0.008-2.569 0.088-3.849-0.024-0.308 0.574-0.597 1.159-0.937 1.717-0.593 0.231-1.204 0.414-1.827 0.542l-0.143 0.031c0.553-0.779 1.056-1.594 1.49-2.445-1.17-0.186-2.325-0.465-3.443-0.858-0.644-0.227-1.278-0.484-1.893-0.779-0.129-0.063-0.259-0.124-0.389-0.184-0.371 0.165-0.814 0.178-1.177-0.014-0.406-0.203-0.684-0.624-0.722-1.073-0.049-0.036-0.147-0.108-0.196-0.144-0.603-0.391-1.168-0.835-1.723-1.291-0.912-0.782-1.756-1.64-2.516-2.568-0.55 0.829-1.021 1.708-1.438 2.61 0.423 1.17 1.091 2.241 1.888 3.192 0.987 0.085 1.98 0.108 2.969 0.040 0.009 0.021 0.025 0.061 0.032 0.082 0.166 0.407 0.341 0.81 0.529 1.209-0.665 0.047-1.33 0.091-1.996 0.076-0.681-0.009-1.358-0.058-2.036-0.122-0.038-0.005-0.115-0.014-0.153-0.019-1.561-1.671-2.646-3.784-3.055-6.035-0.295-1.591-0.273-3.244 0.083-4.825 0.434-1.963 1.379-3.807 2.71-5.314 1.631-1.859 3.849-3.2 6.261-3.763z"></path>
</svg>
