<svg version="1.1" xmlns="http://www.w3.org/2000/svg" viewBox="0 0 32 32">
<title>cfi</title>
<path d="M15.312 15.999l4.271 4.346c1.139 1.158 2.653 1.796 4.263 1.796s3.123-0.637 4.262-1.796c2.355-2.396 2.355-6.294 0.001-8.691-1.139-1.159-2.653-1.797-4.263-1.797s-3.124 0.638-4.263 1.797l-4.271 4.345zM23.846 24.292c-2.18 0-4.23-0.863-5.771-2.431l-5.761-5.862 5.761-5.861c1.541-1.567 3.591-2.431 5.771-2.431s4.23 0.864 5.77 2.431c3.177 3.232 3.177 8.492 0 11.724-1.541 1.567-3.59 2.431-5.771 2.431z"></path>
<path d="M8.153 24.292c-2.18 0-4.23-0.863-5.77-2.431-3.177-3.232-3.177-8.492 0-11.724 1.541-1.567 3.59-2.431 5.77-2.431s4.23 0.863 5.77 2.431l0.272 0.277-1.508 1.515-0.272-0.277c-1.139-1.159-2.652-1.797-4.263-1.797s-3.124 0.638-4.263 1.797c-2.355 2.397-2.355 6.294 0 8.691 1.139 1.158 2.653 1.796 4.263 1.796s3.123-0.637 4.263-1.796l0.272-0.277 1.508 1.515-0.272 0.279c-1.542 1.567-3.591 2.431-5.77 2.431z"></path>
</svg>
