<svg version="1.1" xmlns="http://www.w3.org/2000/svg" viewBox="0 0 32 32">
<title>clo</title>
<path d="M6.606 10.96l2.105 2.714c-0.277 0.498-0.442 1.108-0.442 1.717h-6.925v-14.289c0-0.831 0.887-1.384 1.663-0.941l12.907 7.144-2.603 4.541c-0.388-0.166-0.775-0.222-1.219-0.222s-0.832 0.111-1.219 0.222l-2.050-2.658 1.661 0.222c0.333 0.055 0.72-0.055 0.997-0.277s0.443-0.554 0.498-0.942c0.057-0.775-0.442-1.44-1.219-1.551l-4.985-0.609c-0.333-0.055-0.721 0.055-0.997 0.277-0.277 0.277-0.443 0.609-0.499 0.942l-0.61 4.984c-0.11 0.775 0.443 1.495 1.164 1.606 0.776 0.055 1.441-0.443 1.551-1.219zM11.481 19.212c0.222 0.055 0.388 0.055 0.61 0.055s0.499 0 0.775-0.055l3.047 5.427-12.907 7.2c-0.775 0.443-1.663-0.111-1.663-0.942v-14.289h7.091c0.167 0.443 0.388 0.886 0.665 1.274l-2.438 3.157-0.222-1.662c-0.11-0.775-0.775-1.329-1.551-1.218-0.775 0.055-1.329 0.775-1.219 1.495l0.61 4.984c0 0.388 0.222 0.72 0.499 0.941s0.664 0.332 0.997 0.277l4.985-0.609c0.777-0.111 1.33-0.775 1.219-1.551 0-0.388-0.222-0.72-0.498-0.942s-0.609-0.332-0.997-0.277l-1.661 0.221zM30.149 15.889l-13.351-8.197-2.548 4.652c0.775 0.498 1.329 1.329 1.551 2.215h3.379l-1.219-1.219c-0.277-0.277-0.387-0.609-0.387-0.997s0.11-0.72 0.387-0.997c0.555-0.554 1.441-0.554 1.939 0l3.545 3.544c0.277 0.277 0.388 0.609 0.388 0.997s-0.167 0.72-0.388 0.997l-3.545 3.544c-0.554 0.554-1.441 0.554-1.939 0-0.554-0.554-0.554-1.44 0-1.938l1.164-1.163h-3.767c-0.332 0.609-0.887 1.163-1.496 1.495l2.88 5.427 13.295-6.48c0.775-0.388 0.832-1.44 0.112-1.883z"></path>
</svg>
