<svg version="1.1" xmlns="http://www.w3.org/2000/svg" viewBox="0 0 32 32">
<title>crm</title>
<path d="M18.344 32c4.244 0.006 8.315-1.682 11.314-4.686-0.184-0.183-1.656-1.655-1.839-1.839-2.511 2.517-5.921 3.93-9.475 3.926 0 0.521 0 2.34 0 2.6zM20.606 0.159c-0.002 0-0.011 0-0.012 0-0.746-0.106-1.497-0.159-2.25-0.159 0 0.26 0 2.34 0 2.601 3.548-0.003 6.951 1.407 9.46 3.917 0.183-0.183 1.655-1.655 1.839-1.839-1.454-1.457-3.176-2.618-5.070-3.42-1.269-0.537-2.603-0.908-3.966-1.1z"></path>
<path d="M20.606 0.159c-0.002 0-0.011 0-0.012 0-0.746-0.106-1.497-0.159-2.25-0.159 0 0.26 0 2.34 0 2.601 3.548-0.003 6.951 1.407 9.46 3.917 0.183-0.183 1.655-1.655 1.839-1.839-1.454-1.457-3.176-2.618-5.070-3.42-1.269-0.537-2.603-0.908-3.966-1.1z"></path>
<path d="M8.169 16.003c-0.002-5.618 4.551-10.174 10.169-10.175 2.694 0 5.28 1.068 7.188 2.972 0.183-0.183 1.655-1.655 1.839-1.839-4.994-4.986-13.085-4.979-18.070 0.015-4.986 4.994-4.98 13.084 0.014 18.070 4.994 4.985 13.081 4.98 18.067-0.012-0.183-0.183-1.655-1.655-1.839-1.839-1.907 1.911-4.494 2.982-7.193 2.978-5.618 0.002-10.174-4.551-10.175-10.169z"></path>
<path d="M8.883 6.518c-0.121-0.122-0.735-0.735-1.839-1.839-0.006 0.008-0.009 0.011-0.011 0.012-6.248 6.239-6.255 16.361-0.016 22.609 0.006 0.006 0.012 0.012 0.016 0.018 0.184-0.184 1.656-1.656 1.839-1.841-2.52-2.51-3.935-5.921-3.93-9.478-0.002-3.56 1.418-6.972 3.941-9.482z"></path>
<path d="M8.883 6.518c-0.121-0.122-0.735-0.735-1.839-1.839-0.006 0.008-0.009 0.011-0.011 0.012-6.248 6.239-6.255 16.361-0.016 22.609 0.006 0.006 0.012 0.012 0.016 0.018 0.184-0.184 1.656-1.656 1.839-1.841-2.52-2.51-3.935-5.921-3.93-9.478-0.002-3.56 1.418-6.972 3.941-9.482zM20.818 18.489c-1.391 1.367-3.624 1.349-4.991-0.041-1.368-1.389-1.349-3.624 0.040-4.991 1.388-1.367 3.621-1.349 4.988 0.039 0.183-0.184 1.649-1.656 1.832-1.841-2.384-2.397-6.261-2.409-8.66-0.025s-2.409 6.261-0.025 8.66c2.381 2.396 6.252 2.411 8.653 0.033-0.368-0.368-1.47-1.467-1.836-1.835z"></path>
<path d="M18.344 9.112v-2.601c-0.008 0-0.011 0-0.011 0-2.51 0-4.914 0.996-6.689 2.769-0.002 0-0.011 0.009-0.012 0.011-3.708 3.701-3.716 9.709-0.015 13.417 1.782 1.787 4.203 2.789 6.726 2.787 0-0.261 0-2.343 0-2.604-3.806-0.041-6.858-3.156-6.818-6.962 0.039-3.744 3.062-6.771 6.807-6.816 0.002 0 0.005 0 0.011 0z"></path>
</svg>
