<svg version="1.1" xmlns="http://www.w3.org/2000/svg" viewBox="0 0 32 32">
<title>crpt</title>
<path d="M26.281 6.045l-0.857 0.855c-2.141-1.771-4.773-2.687-7.527-2.687-6.242 0-11.382 4.824-11.81 10.992h-1.224c0.429-6.901 6.12-12.214 13.034-12.214 3.060 0 5.997 1.099 8.383 3.053h0.001zM17.897 7.328c0.001 0 0.001 0 0.002 0 2.904 0 5.479 1.408 7.079 3.579l0.017 0.024 0.857-0.854c-1.838-2.419-4.716-3.967-7.955-3.97h-0.001c-5.508 0-9.974 4.459-9.974 9.894 0 5.495 4.467 9.953 9.974 9.953 3.121 0 6.058-1.466 7.955-3.969l-0.857-0.855c-1.617 2.195-4.192 3.604-7.096 3.604-0.001 0-0.001 0-0.002 0h0c-4.834 0-8.75-3.909-8.75-8.733 0-4.763 3.916-8.671 8.75-8.671v-0.001zM27.26 6.962l-0.857 0.854c0.306 0.306 0.551 0.61 0.796 0.916l0.856-0.854c-0.245-0.306-0.49-0.61-0.795-0.916zM4.803 16.855c0.428 6.901 6.119 12.213 13.033 12.213 3.060 0 6.058-1.099 8.383-3.053l-0.856-0.854c-2.141 1.77-4.773 2.687-7.527 2.687-6.242 0-11.382-4.824-11.81-10.992h-1.223zM26.402 24.244l0.857 0.855c0.306-0.306 0.55-0.611 0.795-0.917l-0.856-0.855c-0.245 0.305-0.49 0.61-0.796 0.916zM17.897 30.779c-8.138 0-14.808-6.657-14.808-14.78s6.669-14.778 14.808-14.778c4.406 0 8.567 1.955 11.382 5.375l0.856-0.855c-3.059-3.666-7.527-5.741-12.238-5.741-8.811 0-16.032 7.145-16.032 16 0 8.793 7.159 16 16.032 16 4.773 0 9.179-2.076 12.238-5.741l-0.856-0.854c-2.815 3.481-6.976 5.374-11.382 5.374v0.001z"></path>
</svg>
