<svg version="1.1" xmlns="http://www.w3.org/2000/svg" viewBox="0 0 32 32">
<title>dnt</title>
<path d="M29.263 20.509c-1.209-0.067-0.538-1.981-1.075-4.164-0.638-2.418 0.302-4.097 1.545-4.030 0.437 0.033 1.007 0.269 1.612 0.672-0.235-1.108-0.638-2.149-1.142-2.989-1.108-1.847-3.526-4.534-6.549-6.649v20.25c0 1.142-0.94 2.049-2.048 2.049-0.806 0-1.511-0.47-1.847-1.175-1.209 0.739-2.62 1.175-4.164 1.175-4.399 0-7.959-3.56-7.959-7.959s3.56-7.959 7.959-7.959c1.444 0 2.787 0.403 3.963 1.075v-7.858c0-0.638 0.269-1.209 0.739-1.578-3.929-1.813-8.328-2.183-12.090 1.142-6.313 5.608-9.47 13.433-6.313 21.224 0.067 0.168 0.134 0.336 0.201 0.47 0.101-0.201 0.202-0.336 0.37-0.504 1.645-1.679 3.459 1.746 7.321 3.728 2.451 1.243 3.862 2.888 4.399 4.433 3.593 0.436 7.287-0.134 10.242-1.847 3.862-2.217 6.112-6.246 6.918-10.344-0.773 0.605-1.578 0.873-2.082 0.84zM16.099 4.591c0.907-0.034 1.746 1.041 1.78 1.545s-0.772 0.302-1.645 0.604c-0.974 0.336-1.679 0.034-1.713-0.47s0.638-1.646 1.578-1.679z"></path>
<path d="M14.117 20.643c1.948 1.108 4.299 0.672 4.735-1.814 0.235-1.444 0.101-3.694-1.175-4.399-4.232-2.418-7.791 3.795-3.56 6.213z"></path>
</svg>
