<svg version="1.1" xmlns="http://www.w3.org/2000/svg" viewBox="0 0 32 32">
<title>edg</title>
<path d="M21.501 32h-16.269c-0.822 0-1.489-0.256-2-0.767s-0.767-1.178-0.767-2v-22.133c0.022-0.6 0.244-1.139 0.667-1.617s0.922-0.739 1.5-0.783c0.489-0.067 0.972-0.095 1.45-0.084s0.972 0.017 1.484 0.017h0.333v-1.9c0-0.622 0.183-1.178 0.55-1.667s0.861-0.811 1.483-0.967c0.067-0.022 0.133-0.039 0.2-0.050s0.133-0.028 0.2-0.050h16.769c0.134 0.022 0.256 0.050 0.367 0.083s0.233 0.072 0.366 0.117c0.534 0.222 0.95 0.561 1.25 1.017s0.45 0.994 0.45 1.616v21.9c-0.022 0.667-0.239 1.25-0.65 1.75s-0.95 0.772-1.617 0.817c-0.441 0.067-0.887 0.094-1.334 0.084-0.445-0.011-0.878-0.017-1.3-0.017h-0.467v2.034c-0.022 0.444-0.139 0.85-0.35 1.216s-0.506 0.672-0.884 0.917c-0.267 0.156-0.511 0.267-0.734 0.333s-0.456 0.111-0.7 0.134zM4.199 18.333v10.834c0 0.378 0.089 0.65 0.267 0.817s0.445 0.25 0.8 0.25h15.969c0.378 0 0.65-0.083 0.817-0.25s0.25-0.439 0.25-0.817v-21.7c0-0.311-0.089-0.555-0.267-0.733s-0.433-0.267-0.767-0.267h-16.036c-0.333 0-0.589 0.089-0.767 0.267s-0.267 0.422-0.267 0.733zM24.101 25.6h2.9c0.222 0 0.411-0.089 0.567-0.267s0.233-0.389 0.233-0.633v-21.967c0-0.267-0.089-0.489-0.267-0.667s-0.4-0.267-0.667-0.267h-16.135c-0.334 0-0.589 0.089-0.767 0.267s-0.267 0.433-0.267 0.767v1.8h11.635c0.8 0 1.461 0.261 1.983 0.783s0.784 1.183 0.784 1.983zM13.266 25.7c-0.178 0-0.334-0.039-0.467-0.117s-0.244-0.194-0.334-0.35c-0.574-0.949-1.146-1.899-1.717-2.85-0.567-0.945-1.15-1.895-1.75-2.85-0.044-0.111-0.1-0.222-0.167-0.333l-0.2-0.334c-0.133-0.178-0.194-0.361-0.183-0.55s0.072-0.394 0.183-0.616c0.467-0.711 0.911-1.428 1.334-2.15s0.856-1.44 1.3-2.15c0.2-0.356 0.4-0.7 0.6-1.034l0.6-1 0.784-0.466c0.522-0.311 0.783-0.156 0.783 0.466 0.644 1.044 1.277 2.094 1.9 3.15 0.62 1.052 1.242 2.102 1.867 3.15 0.134 0.2 0.2 0.405 0.2 0.616s-0.067 0.428-0.2 0.65c-0.62 1.040-1.242 2.079-1.867 3.116-0.628 1.042-1.261 2.081-1.9 3.117-0.067 0.155-0.161 0.278-0.283 0.366s-0.283 0.145-0.483 0.167zM13.266 13.533c-0.022 0.067-0.044 0.106-0.067 0.117s-0.034 0.028-0.034 0.050c-0.443 0.754-0.894 1.504-1.35 2.25-0.444 0.725-0.883 1.453-1.317 2.183-0.023 0.022-0.028 0.072-0.017 0.15s0.017 0.139 0.017 0.183c0.384 0.633 0.768 1.266 1.15 1.9 0.387 0.642 0.771 1.287 1.15 1.933 0.089 0.134 0.172 0.256 0.25 0.367s0.15 0.233 0.217 0.366c0.044-0.044 0.078-0.083 0.1-0.116s0.044-0.084 0.067-0.15c0.428-0.72 0.861-1.437 1.3-2.15 0.442-0.718 0.887-1.435 1.334-2.15 0.022-0.067 0.033-0.134 0.033-0.2s-0.011-0.111-0.033-0.133c-0.308-0.484-0.608-0.973-0.9-1.467l-0.867-1.467c-0.155-0.267-0.317-0.533-0.483-0.8s-0.35-0.556-0.55-0.867zM18.667 27.134v-0.634c0-0.267 0.083-0.483 0.25-0.65s0.384-0.25 0.65-0.25c0.244 0 0.45 0.084 0.617 0.25s0.261 0.372 0.283 0.617v1.333l-0.267 0.584c-0.178 0.389-0.389 0.472-0.634 0.25s-0.45-0.306-0.617-0.25c-0.167 0.055-0.261-0.139-0.283-0.584zM7.832 9.434v0.767c-0.022 0.222-0.117 0.411-0.283 0.567s-0.35 0.233-0.55 0.233c-0.244 0-0.45-0.078-0.617-0.233s-0.272-0.344-0.317-0.567v-1.5l0.283-0.584c0.189-0.389 0.406-0.461 0.65-0.216 0.2 0 0.389 0.083 0.567 0.25s0.267 0.361 0.267 0.583c0.022 0.111 0.028 0.228 0.017 0.35s-0.017 0.239-0.017 0.35z"></path>
</svg>
