<svg version="1.1" xmlns="http://www.w3.org/2000/svg" viewBox="0 0 32 32">
<title>elf</title>
<path d="M32 15.992c0 3.702-3.001 6.704-6.704 6.704s-6.704-3.001-6.704-6.704c0-3.702 3.001-6.704 6.704-6.704s6.704 3.001 6.704 6.704z"></path>
<path d="M20.057 3.54c0 1.785-1.447 3.232-3.232 3.232s-3.232-1.447-3.232-3.232c0-1.785 1.447-3.232 3.232-3.232s3.232 1.447 3.232 3.232z"></path>
<path d="M20.057 28.46c0 1.785-1.447 3.232-3.232 3.232s-3.232-1.447-3.232-3.232c0-1.785 1.447-3.232 3.232-3.232s3.232 1.447 3.232 3.232z"></path>
<path d="M15.344 20.833c0.191 0.064 0.398 0.096 0.605 0.096 1.115 0 2.022-0.908 2.022-2.022s-0.908-2.022-2.022-2.022c-0.717 0-1.338 0.366-1.704 0.924v0.016c-0.064 0.080-0.111 0.175-0.143 0.271-2.229 3.933-6.704 1.306-6.704 1.306-0.732-0.43-1.576-0.685-2.5-0.685-2.691 0-4.873 2.181-4.873 4.873s2.182 4.873 4.873 4.873c1.879 0 3.519-1.067 4.315-2.627v-0.016c0.143-0.271 0.255-0.557 0.35-0.86 2.325-5.334 5.78-4.124 5.78-4.124zM14.198 13.683c0.096 0.175 0.223 0.35 0.366 0.494 0.796 0.796 2.070 0.796 2.85 0 0.796-0.796 0.796-2.070 0-2.85-0.51-0.51-1.21-0.685-1.847-0.541h-0.016c-0.096 0.016-0.207 0.048-0.303 0.096-4.363 1.21-5.669-3.822-5.669-3.822-0.207-0.828-0.637-1.608-1.274-2.245-1.911-1.911-4.984-1.911-6.879-0.016s-1.911 4.984 0 6.879c1.338 1.338 3.232 1.736 4.92 1.194h0.016c0.287-0.096 0.573-0.223 0.86-0.366 5.398-2.134 6.974 1.178 6.974 1.178z"></path>
</svg>
