<svg version="1.1" xmlns="http://www.w3.org/2000/svg" viewBox="0 0 32 32">
<title>ely</title>
<path d="M16 32c-8.837 0-16-7.163-16-16s7.163-16 16-16 16 7.163 16 16c0 8.837-7.163 16-16 16zM16 0.392c-5.233 0-9.867 2.575-12.7 6.533 2.808-3.383 7.042-5.533 11.775-5.533 8.45 0 15.3 6.85 15.3 15.3 0 6.383-3.917 11.858-9.475 14.15 6.225-2.058 10.717-7.917 10.717-14.833 0-8.625-6.992-15.617-15.617-15.617zM10.358 11.033v1.733h11.075v-1.733h-11.075zM12.35 16.85h7.192v-1.733h-9.183v5.958h11.075v-1.733h-9.083v-2.492z"></path>
</svg>
