<svg version="1.1" xmlns="http://www.w3.org/2000/svg" viewBox="0 0 32 32">
<title>eosdt</title>
<path d="M15.66 0.051l-13.429 7.852c-0.115 0.067-0.186 0.191-0.186 0.324v15.624c0 0.134 0.072 0.258 0.188 0.325l13.489 7.772c0.114 0.066 0.254 0.067 0.369 0.003l3.407-1.883c0.12-0.066 0.194-0.192 0.194-0.329v-4.006l-0.001-0.031c-0.010-0.122-0.079-0.233-0.187-0.295l-10.034-5.781v-2.897l2.824 1.636c0.118 0.068 0.263 0.067 0.38-0.002l3.447-2.043c0.114-0.068 0.184-0.19 0.184-0.323v-3.866l-0.001-0.030c-0.010-0.121-0.077-0.23-0.183-0.293l-2.835-1.683 2.677-1.431 9.882 5.666c0.114 0.066 0.255 0.066 0.37 0.002l3.488-1.943c0.119-0.066 0.193-0.192 0.193-0.328v-3.886c0-0.135-0.072-0.259-0.189-0.326l-13.67-7.832c-0.117-0.067-0.26-0.066-0.376 0.002zM15.851 0.809l13.292 7.616v3.448l-3.11 1.732-9.878-5.663c-0.112-0.064-0.25-0.066-0.364-0.005l-3.474 1.859c-0.232 0.148-0.231 0.494 0.012 0.638l3.223 1.914v3.438l-3.074 1.822-3.197-1.853c-0.25-0.145-0.564 0.036-0.564 0.325v3.766l0.001 0.031c0.010 0.122 0.079 0.233 0.187 0.295l10.034 5.781v3.568l-3.028 1.673-13.118-7.558v-15.192l13.055-7.634z"></path>
<path d="M16.406 4.402v3.786h-0.751v-3.786zM19.713 6.245v4.006h-0.751v-4.006zM23.060 8.248v4.006h-0.751v-4.006zM25.992 9.875c0.198 0 0.36 0.153 0.375 0.348l0.001 0.028v3.806c0 0.207-0.168 0.376-0.376 0.376-0.198 0-0.36-0.153-0.375-0.348l-0.001-0.028v-3.806c0-0.207 0.168-0.376 0.376-0.376zM12.878 14.077v4.006h-0.751v-4.006zM12.878 6.305v3.826h-0.751v-3.826zM12.878 25.856v3.866h-0.751v-3.866zM9.471 23.792v4.006h-0.751v-4.006z"></path>
<path d="M25.922 5.961l0.379 0.648-3.427 2.003-0.379-0.648zM15.861 23.588l0.379 0.648-3.427 2.003-0.379-0.648zM12.475 21.624l0.376 0.65-3.427 1.983-0.376-0.65zM9.047 19.621l0.376 0.65-3.427 1.983-0.376-0.65zM8.886 15.695l0.377 0.649-3.447 2.003-0.377-0.649z"></path>
<path d="M12.254 9.866l0.377 0.65-3.16 1.835 0 3.83h-0.751v-4.263zM22.495 4.038l0.38 0.648-3.247 1.903-0.38-0.648zM19.065 1.936l0.384 0.645-3.468 2.063-0.384-0.645z"></path>
<path d="M12.876 1.916l3.447 2.063-0.386 0.644-3.447-2.063zM9.287 3.919l3.468 2.063-0.384 0.645-3.468-2.063zM2.512 15.577l3.468 2.063-0.384 0.645-3.468-2.063zM5.963 21.582l0.2 0.14-0.431 0.615-0.2-0.14z"></path>
<path d="M2.692 19.643l3.247 1.923-0.383 0.646-3.247-1.923zM15.838 3.859c0.111-0.066 0.246-0.070 0.36-0.013l0.028 0.015 9.772 5.973 3.395-1.952c0.171-0.098 0.388-0.047 0.497 0.113l0.016 0.025c0.098 0.171 0.047 0.388-0.113 0.497l-0.025 0.016-3.588 2.063c-0.11 0.063-0.243 0.066-0.356 0.010l-0.028-0.015-9.769-5.972-6.68 3.971c-0.169 0.101-0.386 0.053-0.498-0.105l-0.017-0.026c-0.101-0.169-0.053-0.386 0.105-0.498l0.026-0.017 6.875-4.086z"></path>
<path d="M6.077 5.92l6.634 3.866-0.378 0.649-6.634-3.866zM6.163 21.789v4.106h-0.751v-4.106z"></path>
<path d="M9.070 7.941l0.37 0.654-3.277 1.855 0 3.627h-0.751v-4.065z"></path>
<path d="M2.139 7.953c0.102-0.169 0.316-0.228 0.489-0.142l0.027 0.015 9.832 5.955 3.315-1.912c0.171-0.099 0.388-0.047 0.497 0.113l0.016 0.025c0.099 0.171 0.047 0.388-0.113 0.497l-0.025 0.016-3.508 2.023c-0.11 0.063-0.243 0.067-0.355 0.011l-0.028-0.015-10.022-6.070c-0.177-0.107-0.234-0.338-0.127-0.516zM5.788 13.722c0.198 0 0.36 0.153 0.375 0.348l0.001 0.028-0 7.476 9.936 5.801c0.106 0.062 0.175 0.172 0.185 0.294l0.001 0.031v3.926c0 0.207-0.168 0.376-0.376 0.376-0.198 0-0.36-0.153-0.374-0.348l-0.001-0.028-0-3.711-9.936-5.8c-0.106-0.062-0.175-0.172-0.185-0.294l-0.001-0.031v-7.692c0-0.207 0.168-0.376 0.376-0.376z"></path>
</svg>
