<svg version="1.1" xmlns="http://www.w3.org/2000/svg" viewBox="0 0 32 32">
<title>erc</title>
<path d="M16.014 29.363c-5.5 0-10.21-3.314-12.256-8.053l1.721-0.592c1.805 4.034 5.838 6.84 10.535 6.84 5.331 0 9.801-3.61 11.142-8.504l-3.357 1.086c-1.481 2.778-4.414 4.682-7.785 4.682-3.498 0-6.53-2.045-7.94-5.006l3.342-1.171-0.663 3.469 21.239-6.925c-0.423-8.462-7.418-15.189-15.979-15.189-8.843 0-16.007 7.164-16.007 16.007 0 0.832 0.071 1.664 0.183 2.468l16.726-5.359-0.917 3.103 11.043-3.625c-1.467-4.696-5.853-8.123-11.029-8.123-5.895 0-10.761 4.428-11.452 10.14l-1.876 0.592c0.423-6.995 6.234-12.552 13.341-12.552 6.572 0 12.044 4.753 13.158 11.015l-15.274 5.007 0.719-3.328-14.131 4.583c1.749 6.939 8.039 12.072 15.513 12.072 8.335 0 15.175-6.375 15.936-14.512l-2.792 0.903c-1.128 6.233-6.586 10.972-13.144 10.972zM16.014 7.193c3.131 0 5.881 1.636 7.446 4.090l-4.019 1.354 0.79-3.032-12.693 4.048c1.015-3.723 4.428-6.459 8.476-6.459z"></path>
</svg>
