<svg version="1.1" xmlns="http://www.w3.org/2000/svg" viewBox="0 0 32 32">
<title>exp</title>
<path d="M29.661 8.342v15.366l-0.033 0.117v0.033c0 0.023-0.011 0.050-0.034 0.084s-0.045 0.061-0.067 0.084c-0.022 0-0.039 0.006-0.050 0.017l-0.050 0.050-13.109 7.842h-0.067c-0.044 0-0.084 0.011-0.117 0.033s-0.061 0.033-0.084 0.033c-0.045 0-0.084-0.006-0.117-0.017s-0.061-0.017-0.084-0.017h-0.1l-13.176-7.875c-0.022 0-0.039-0.011-0.050-0.033s-0.028-0.033-0.050-0.033c-0.022-0.023-0.045-0.050-0.067-0.084s-0.034-0.061-0.034-0.084v-0.033c-0.022-0.044-0.033-0.083-0.033-0.117v-15.449l0.033-0.117v-0.034c0-0.022 0.011-0.050 0.034-0.083s0.045-0.061 0.067-0.084c0.022 0 0.039-0.006 0.050-0.017l0.050-0.050 13.176-7.842h0.1c0.022 0 0.050-0.006 0.084-0.017s0.072-0.017 0.117-0.017c0.022 0 0.050 0.006 0.084 0.017s0.072 0.017 0.117 0.017h0.067l13.075 7.842c0.023 0 0.039 0.006 0.050 0.017l0.050 0.050 0.067 0.067 0.033 0.1v0.034c0.022 0.022 0.039 0.055 0.050 0.1s0.017 0.078 0.017 0.1zM3.443 22.624l6.12-3.637c-0.223-0.445-0.401-0.929-0.535-1.451s-0.201-1.073-0.201-1.652c0-0.534 0.061-1.051 0.184-1.552s0.284-0.984 0.485-1.451v0.033l-6.053-3.57zM22.437 18.986l6.12 3.637v-13.281l-6.020 3.604c0.201 0.445 0.357 0.912 0.468 1.401s0.167 1.001 0.167 1.535c0 0.556-0.067 1.101-0.201 1.635s-0.312 1.034-0.535 1.502zM21.869 19.954c-0.602 0.845-1.354 1.541-2.257 2.085s-1.9 0.873-2.993 0.984h-0.034v7.408l11.403-6.807zM15.448 30.432v-7.408c-1.115-0.089-2.134-0.406-3.060-0.951s-1.689-1.24-2.291-2.085l-6.119 3.637zM9.997 11.946c0.602-0.912 1.377-1.652 2.324-2.219s1.99-0.895 3.127-0.984h0.034v-7.208l-11.504 6.807zM16.619 1.535v7.241c1.115 0.089 2.134 0.417 3.060 0.984s1.678 1.296 2.257 2.186l0.034 0.033 6.019-3.637z"></path>
</svg>
