<svg version="1.1" xmlns="http://www.w3.org/2000/svg" viewBox="0 0 32 32">
<title>fc2</title>
<path d="M22.809 9.583h-6.693l0.416-2.812h7.868l0.937-6.771h-16.927l-3.894 27.2h8.992l1.566-10.578h6.755zM8.251 25.558h-2.092l3.531-24.498h2.092z"></path>
<path d="M27.256 26.026c-0.12-0.366-0.244-0.745-0.244-1.449v-2.307c0-0.183 0-0.523-2.664-3.12-0.166-0.162-0.431-0.158-0.593 0.007s-0.158 0.431 0.008 0.593c1.033 1.008 2.217 2.253 2.411 2.589v2.238c0 0.838 0.152 1.302 0.286 1.71 0.104 0.318 0.186 0.569 0.186 0.974 0 0.412-0.342 0.52-0.522 0.52-0.125 0-0.237-0.041-0.314-0.115-0.093-0.088-0.14-0.225-0.14-0.406v-4.13c0-0.691-0.526-1.407-1.407-1.407v-0.829c0-0.226-0.183-0.409-0.409-0.409h-5.546c-0.226 0-0.408 0.183-0.408 0.409v10.035h-0.35c-0.158 0-0.285 0.128-0.285 0.286v0.499c0 0.158 0.128 0.285 0.285 0.285h7.062c0.158 0 0.285-0.128 0.285-0.285v-0.499c0-0.158-0.127-0.285-0.285-0.286h-0.35v-8.367c0.466 0 0.568 0.41 0.568 0.567v4.13c0 0.523 0.218 0.84 0.402 1.014 0.234 0.222 0.551 0.345 0.891 0.345 0.66 0 1.361-0.477 1.361-1.359 0-0.539-0.116-0.892-0.228-1.235zM23.304 24.627c0 0.157-0.128 0.285-0.285 0.285h-3.875c-0.076 0-0.148-0.030-0.202-0.083s-0.083-0.126-0.083-0.202v-2.932c0-0.157 0.127-0.285 0.285-0.285h3.875c0.157 0 0.285 0.128 0.285 0.285z"></path>
</svg>
