<svg version="1.1" xmlns="http://www.w3.org/2000/svg" viewBox="0 0 32 32">
<title>flo</title>
<path d="M16 0c-8.838 0-15.999 7.164-15.999 15.999 0 8.839 7.162 16 15.999 16s15.999-7.162 15.999-16c0-8.836-7.162-15.999-15.999-15.999zM16 29.784c-7.6 0-13.784-6.184-13.784-13.784s6.184-13.784 13.784-13.784c7.601 0 13.785 6.184 13.785 13.784s-6.184 13.784-13.785 13.784z"></path>
<path d="M12.553 19.451c2.095 1.049 4.802 1.049 6.896 0-0.191-0.954-0.116-0.337-0.191-0.814-1.909 0.974-4.596 0.983-6.512 0-0.052 0.366-0.020-0.023-0.193 0.814z"></path>
<path d="M14.508 18.447c0.739 0.366 2.243 0.366 2.988 0-0.006-1.002 0.398-4.582 2.135-7.822 0 0 0.431-0.817 0.229-2.085-0.199-1.268-2.004-2.864-3.4-3.946-0.108-0.085-0.244-0.131-0.383-0.144v-0.003c-0.025-0.002-0.051-0.003-0.075-0.002-0.025-0.002-0.048 0-0.072 0.002 0 0 0 0.002-0.002 0.003-0.137 0.013-0.275 0.059-0.383 0.144-1.395 1.082-3.202 2.677-3.401 3.946s0.232 2.085 0.232 2.085c1.732 3.241 2.134 6.82 2.134 7.822zM12.336 20.010c0 0-0.871 1.321-1.224 1.56-0.356 0.242-0.614 0-0.614 0s-0.281-0.18-0.676-0.746c-0.046-0.071-0.136-0.075-0.167 0-0.324 0.815-0.382 1.099-0.451 1.458-0.071 0.366-0.071 0.654 0.023 0.912 0.095 0.22 0.33 0.497 0.752 0.576 0.427 0.078 1.036 0.108 1.422-0.177 0.383-0.284 0.438-0.317 0.974-1.053 0.533-0.738 1.032-2.058 1.032-2.058zM9.493 15.359c0 0 0.66-0.352 1.338 0.201 1.368 1.113 1.548 1.745 1.79 2.166 0.24 0.418 1.412 0.672 1.412 0.672s-0.249-2.853-1.435-4.526c-1.188-1.674-1.854-2.064-2.86-2.524-0.821-0.374-2.429-0.111-2.736 0-1.379 0.415-1.778 2.2-1.778 2.2s-0.215 0.886-0.129 2.475c0.144 2.334 0.796 3.694 0.796 3.694s0.069 0.147 0.258 0.076c0.298-0.115 1.507-0.832 2.664-2.621 0.362-0.587 0.366-1.143 0.389-1.391s0.29-0.421 0.29-0.421zM17.495 20.762c-1.494 0.176-1.494 0.176-2.988 0 0 0-0.383 0.34-1.102 1.585s-0.425 1.601 0 2.425c0.568 1.090 2.102 2.534 2.297 2.678 0.071 0.052 0.152 0.086 0.239 0.102v0.003h0.12v-0.003c0.086-0.015 0.167-0.050 0.237-0.102 0.193-0.144 1.731-1.588 2.295-2.678 0.426-0.823 0.719-1.18 0-2.425s-1.098-1.585-1.098-1.585zM22.348 20.824c-0.031-0.075-0.119-0.071-0.168 0-0.392 0.566-0.673 0.745-0.673 0.745s-0.261 0.242-0.614 0c-0.357-0.239-1.226-1.559-1.226-1.559l-1.072 0.471c0 0 0.5 1.321 1.036 2.059 0.536 0.736 0.59 0.768 0.974 1.053 0.383 0.285 0.994 0.255 1.419 0.177s0.66-0.356 0.755-0.576c0.094-0.258 0.094-0.546 0.023-0.912-0.070-0.359-0.128-0.643-0.453-1.458zM26.779 13.548c0 0-0.402-1.785-1.78-2.2-0.306-0.111-1.914-0.374-2.735 0-1.007 0.459-1.673 0.849-2.86 2.523-1.19 1.673-1.435 4.526-1.435 4.526s1.211-0.254 1.414-0.672c0.201-0.42 0.417-1.052 1.786-2.166 0.678-0.553 1.338-0.201 1.338-0.201s0.269 0.173 0.293 0.422c0.023 0.248 0.026 0.804 0.388 1.391 1.154 1.789 2.367 2.506 2.664 2.621 0.19 0.071 0.255-0.076 0.255-0.076s0.654-1.36 0.799-3.694c0.083-1.589-0.129-2.475-0.129-2.475z"></path>
</svg>
