<svg version="1.1" xmlns="http://www.w3.org/2000/svg" viewBox="0 0 32 32">
<title>ftc</title>
<path d="M29.524 0.002c-0.299-0.088-4.653 2.579-6.681 4.117s-5.81 4.538-5.953 4.851c-0.143 0.313-0.156 0.878-0.326 2.3s-0.762 2.041-0.762 2.041c0 0-0.286-0.218-0.442-0.681s-0.259-1.755-0.354-1.782c-0.095-0.027-2.644 2.347-2.644 2.347s-0.181 1.188-0.571 3.547c-0.39 2.359-0.989 3.345-1.118 3.359s-0.408-0.912-0.503-1.851-0.027-3.164-0.129-3.232c-0.102-0.068-1.442 1.343-1.442 1.343s0.181 1.678 0.317 3.874c0.136 2.195-0.072 3.703-0.297 3.846s-0.565-0.395-1.062-1.572c-0.497-1.177-0.531-2.109-0.762-2.19s-0.715 1.068-0.857 2.211c-0.143 1.143-0.034 2.878-0.034 2.878s-0.667-1.238-1.089-1.885c-0.422-0.646-1.402-1.939-1.524-1.844s0.415 1.143 0.741 2.075c0.326 0.932 0.762 2.313 0.762 2.313s-1.136-1.109-1.653-1.477c-0.517-0.367-2.021-1.218-2.143-0.952s0.912 1.048 1.361 1.496c0.449 0.449 1.408 1.476 1.408 1.476s-0.483 0.504-0.606 1.191c-0.123 0.687 0.177 1.333 0.177 1.333s0.796-1.646 1.252-1.673c0.456-0.027 0.626 0.905 0.49 1.517s-2.143 2.717-2.041 3.001 2.66-2.406 2.9-2.919c0.508 0.617 3.211 1.669 3.366 1.614s-1.043-0.879-1.515-1.324c-0.471-0.444-1.016-1.76-0.825-1.932s0.435 0.88 1.805 1.542c1.37 0.662 3.465 0.807 3.502 0.716s-1.606-0.58-2.576-1.197c-0.971-0.617-1.461-1.896-1.461-1.896s1.406 0.281 4.926 0.472c3.52 0.191 5.733-1.007 5.733-1.007s-3.084-0.037-5.089-0.127c-2.005-0.091-4.88-0.345-4.88-0.345s0.759-1.13 2.783-1.538c2.022-0.408 5.264-0.186 5.554-0.231s4.944-6.613 4.944-6.613-2.876 0.118-2.676-0.372c0.444-1.089 2.93-0.844 3.302-0.88s1.533-1.742 2.894-3.339c1.361-1.596 5.080-5.724 5.27-8.391s-1.17-4.123-1.47-4.212zM19.374 14.528c-2.286 2.703-7.529 7.928-7.529 7.928s3.502-4.771 6.114-7.838c2.613-3.066 7.874-8.836 7.874-8.836s-4.173 6.042-6.459 8.745z"></path>
</svg>
