<svg version="1.1" xmlns="http://www.w3.org/2000/svg" viewBox="0 0 32 32">
<title>gdc</title>
<path d="M19.702 24.64c2.488 0 4.512-2.024 4.512-4.512s-2.024-4.512-4.512-4.512c-2.125 0-3.908 1.48-4.383 3.461h-9.986v-13.512h9.986c0.475 1.981 2.258 3.461 4.383 3.461 2.488 0 4.512-2.024 4.512-4.513s-2.024-4.512-4.512-4.512c-2.125 0-3.908 1.479-4.383 3.461h-12.088v17.719h12.088c0.476 1.981 2.258 3.461 4.384 3.461zM19.702 17.718c1.329 0 2.41 1.081 2.41 2.41s-1.081 2.41-2.41 2.41c-1.328 0-2.41-1.081-2.41-2.41s1.081-2.41 2.41-2.41zM19.702 2.103c1.329 0 2.41 1.081 2.41 2.41s-1.081 2.41-2.41 2.41c-1.328 0-2.41-1.081-2.41-2.41s1.081-2.41 2.41-2.41z"></path>
<path d="M28.77 10.821h-12.088c-0.476-1.982-2.258-3.461-4.384-3.461-2.488 0-4.512 2.024-4.512 4.512s2.024 4.512 4.512 4.512c2.126 0 3.908-1.479 4.384-3.461h9.986v13.513h-9.986c-0.476-1.982-2.258-3.461-4.384-3.461-2.488 0-4.512 2.024-4.512 4.512s2.024 4.513 4.512 4.513c2.126 0 3.908-1.479 4.384-3.461h12.088zM12.298 14.282c-1.329 0-2.41-1.080-2.41-2.41s1.081-2.41 2.41-2.41c1.329 0 2.41 1.081 2.41 2.41s-1.081 2.41-2.41 2.41zM12.298 29.897c-1.329 0-2.41-1.081-2.41-2.41s1.081-2.409 2.41-2.409c1.329 0 2.41 1.080 2.41 2.409s-1.081 2.41-2.41 2.41z"></path>
</svg>
