<svg version="1.1" xmlns="http://www.w3.org/2000/svg" viewBox="0 0 32 32">
<title>gno</title>
<path d="M21.099 12.857l-0.463 0.463c0.368 0.578 0.483 1.304 0.231 1.997-0.421 1.177-1.724 1.798-2.912 1.377-0.168-0.063-0.326-0.137-0.463-0.231l-1.482 1.482-1.293-1.304c-0.617 0.412-1.392 0.509-2.092 0.263-1.22-0.442-1.85-1.777-1.408-2.986 0.063-0.189 0.158-0.357 0.263-0.515l-0.557-0.557-0.105 0.179c-0.584 0.952-0.893 2.047-0.894 3.164-0.010 3.354 2.723 6.097 6.076 6.097h0.010c3.354 0 6.076-2.723 6.087-6.076 0-1.116-0.306-2.21-0.883-3.164z"></path>
<path d="M12.163 14.086c-0.164 0.218-0.252 0.484-0.252 0.757 0 0.683 0.557 1.24 1.241 1.24 0.275 0.001 0.542-0.091 0.757-0.263zM18.25 15.716c0.2 0.137 0.431 0.21 0.694 0.21 0.683 0 1.241-0.557 1.241-1.24 0-0.252-0.074-0.494-0.21-0.694zM16.032 17.020l-5.025-5.046 0.2-0.21c1.24-1.314 2.933-2.050 4.752-2.050h0.010c1.84 0 3.606 0.788 4.836 2.155l0.189 0.21zM11.827 11.974l4.205 4.215 4.152-4.131c-1.115-1.114-2.628-1.756-4.205-1.756h-0.010c-1.566 0-3.028 0.589-4.142 1.672zM10.491 20.268l-0.588-0.042c-2.502-0.158-5.95-0.778-8.179-2.786-1.377-1.23-1.64-2.397-1.651-2.449l-0.074-0.357h9.104l-0.052 0.336c-0.042 0.307-0.063 0.616-0.063 0.925 0 1.388 0.399 2.733 1.167 3.879zM21.509 20.268l0.326-0.494c0.767-1.146 1.167-2.481 1.167-3.858 0-0.315-0.021-0.641-0.063-0.946l-0.042-0.336h9.104l-0.074 0.357c-0.010 0.052-0.273 1.22-1.64 2.449-2.229 2.008-5.687 2.628-8.189 2.786z"></path>
</svg>
