<svg version="1.1" xmlns="http://www.w3.org/2000/svg" viewBox="0 0 32 32">
<title>gnt</title>
<path d="M21.204 8.562c0-1.52-0.524-2.916-1.397-4.014l3.512-3.512-1.037-1.037-3.514 3.514c-1.059-0.836-2.386-1.335-3.825-1.335-3.453 0-6.262 2.864-6.262 6.383 0 3.267 2.42 5.967 5.529 6.339v4.377c-3.108 0.371-5.529 3.071-5.529 6.338 0 3.52 2.809 6.384 6.262 6.384s6.262-2.864 6.262-6.384c0-3.267-2.42-5.967-5.528-6.338v-4.377c3.108-0.372 5.528-3.072 5.528-6.339zM10.148 8.562c0-2.711 2.151-4.917 4.795-4.917s4.795 2.206 4.795 4.917c0 2.711-2.151 4.917-4.795 4.917s-4.795-2.206-4.795-4.917zM19.738 25.616c0 2.711-2.151 4.917-4.795 4.917s-4.795-2.206-4.795-4.917c0-2.711 2.151-4.917 4.795-4.917s4.795 2.206 4.795 4.917z"></path>
</svg>
