<svg version="1.1" xmlns="http://www.w3.org/2000/svg" viewBox="0 0 32 32">
<title>golos</title>
<path d="M11.997 12.982c2.227-0.283 4.645-1.334 6.031-4.284 1.5-3.193-1.133-8.245-4.857-8.649s-7.246 1.738-7.651 5.658c-0.324 3.136 1.376 4.891 2.267 5.376l-3.238 2.183c1.741 0 5.667-0.057 7.448-0.283zM12.822 1.62c1.554 0.168 2.593 1.11 3.087 1.557 0.044 0.040 0.084 0.076 0.119 0.107l-0.696 0.788-0.124-0.111-0.001-0c-0.5-0.449-1.301-1.167-2.498-1.296-1.467-0.18-2.495 0.369-3.115 0.737h-0l-0.538-0.903c0.649-0.386 1.995-1.048 3.767-0.879z"></path>
<path d="M28.675 19.328c-1.814-1.035-6.234 0-8.218 0.647 0.715-1.24 2.315-4.438 2.996-7.316 0.799-3.383 1.671-4.907 2.479-6.321l0.002-0.004 0.15-0.263c0.657-1.156 3.053-2.53 4.103-3.132l0.049-0.029 0.057-0.032c-0.087-0.005-0.18-0.010-0.278-0.016-1.55-0.090-4.436-0.257-5.996 0.501-1.13 0.549-2.466 2.684-3.906 4.983l-0 0.001c-0.469 0.749-0.949 1.516-1.436 2.251-1.984 2.991-5.222 4.244-8.744 4.809-2.817 0.453-6.949-0.943-8.663-1.698 0.108 0.633 1.012 2.352 3.765 4.163 2.489 1.637 4.574 2.006 5.539 2.176 0.369 0.065 0.574 0.102 0.574 0.168 0 2.669-1.214 7.154-4.493 8.447-2.629 1.037-4.536-0.213-5.162-0.624-0.155-0.102-0.231-0.152-0.222-0.104 0.445 2.182 1.66 2.95 3.481 3.638s5.182 0.727 8.906-1.294c1.108-0.601 2.374-1.436 3.71-2.317h0c3.154-2.079 6.699-4.417 9.486-4.554 1.981-0.097 2.841 2.381 3.146 3.261 0.075 0.216 0.117 0.336 0.133 0.296 1.052-2.587 0.81-6.346-1.457-7.639z"></path>
</svg>
