<svg version="1.1" xmlns="http://www.w3.org/2000/svg" viewBox="0 0 32 32">
<title>grc</title>
<path d="M30.383 13.753h-13.703v0.982h13.815c-0.028-0.329-0.063-0.657-0.112-0.982z"></path>
<path d="M31.58 12.344v0.014h-14.9v0.784h14.219l0.044 0.254c0.146 0.857 0.22 1.724 0.22 2.593 0 7.069-5 13.313-11.888 14.849l-0.31 0.068-1.26-6.852 0.277-0.070c2.127-0.539 3.947-1.91 5.064-3.792h-6.366v0.97h2.082c-0.849 0.455-1.799 0.693-2.762 0.691-3.233 0-5.854-2.621-5.854-5.855s2.621-5.855 5.854-5.855c1.192-0.002 2.356 0.362 3.336 1.042h11.927c-2.043-6.486-8.104-11.187-15.263-11.187-8.836 0-16 7.163-16 16 0 8.836 7.164 15.999 16 15.999s16-7.163 16-15.999c0-1.258-0.145-2.483-0.42-3.656zM14.035 0.896c0.631-0.079 1.275-0.12 1.915-0.12 6.208 0 11.737 3.712 14.087 9.457l0.172 0.421h-7.968l-0.091-0.104c-1.698-1.934-4.202-2.966-6.77-2.788l-0.267 0.019-1.405-6.844zM17.268 31.147c-0.432 0.037-0.875 0.056-1.318 0.057-6.719 0-12.725-4.5-14.606-10.944l-0.084-0.289 7.657-2.326c-0.126-0.532-0.199-1.084-0.199-1.654 0-3.032 1.878-5.631 4.53-6.703l-1.585-7.26c-6.090 1.867-10.316 7.563-10.316 13.963 0 0.587 0.036 1.177 0.105 1.76l5.641-1.692v-0.068c0-2.918 1.448-5.636 3.821-7.281-0.030-0.083-0.053-0.17-0.053-0.264 0-0.429 0.348-0.777 0.777-0.777s0.777 0.348 0.777 0.777c0 0.261-0.131 0.505-0.348 0.649s-0.493 0.169-0.733 0.067c-2.254 1.526-3.63 4.084-3.63 6.831 0 0.094 0.001 0.188 0.005 0.282l0.008 0.236-6.771 2.031-0.050-0.35c-0.105-0.728-0.158-1.463-0.158-2.199 0-6.781 4.553-12.803 11.071-14.642l0.311-0.088 1.708 7.817c0.688-0.212 1.404-0.32 2.123-0.319 0.826 0 1.628 0.143 2.394 0.412 0.141-0.169 0.346-0.282 0.583-0.282 0.427 0 0.773 0.346 0.773 0.772s-0.346 0.773-0.773 0.773c-0.314 0-0.582-0.189-0.703-0.459-0.725-0.274-1.487-0.422-2.274-0.422-3.551 0-6.439 2.888-6.439 6.438s2.888 6.439 6.439 6.439c0.899 0 1.785-0.199 2.602-0.559 0.094-0.32 0.378-0.559 0.729-0.559 0.427 0 0.773 0.345 0.773 0.772s-0.346 0.773-0.773 0.773c-0.203 0-0.384-0.082-0.521-0.21-0.758 0.319-1.568 0.503-2.392 0.551l1.226 7.922z"></path>
<path d="M9.078 18.233l-0.973 0.296c0.821 2.54 2.828 4.53 5.366 5.328 0.133-0.235 0.377-0.401 0.666-0.401 0.425 0.006 0.767 0.352 0.767 0.777s-0.342 0.771-0.767 0.777c-0.344 0-0.627-0.228-0.729-0.538-2.786-0.833-4.994-2.995-5.887-5.767l-5.505 1.672c1.898 6.030 7.584 10.216 13.932 10.216 0.315-0.001 0.629-0.011 0.94-0.030l-1.138-7.351c-3.118-0.085-5.747-2.148-6.673-4.98zM17.898 17.914c-0.208 0.004-0.375 0.174-0.375 0.382s0.167 0.378 0.375 0.382c0.208-0.004 0.375-0.174 0.375-0.382s-0.167-0.378-0.375-0.382zM15.95 7.133c2.502 0 4.886 1.060 6.566 2.912h6.776c-2.348-5.275-7.536-8.658-13.342-8.658-0.504 0-1.011 0.026-1.511 0.077l1.166 5.675c0.114-0.004 0.23-0.006 0.345-0.006z"></path>
<path d="M23.835 20.029c-1.121 2.181-3.088 3.799-5.428 4.474l1.043 5.668c5.596-1.379 9.831-6.010 10.858-11.57h-11.535c-0.128 0.363-0.47 0.626-0.875 0.626-0.513 0-0.931-0.418-0.931-0.932s0.418-0.931 0.931-0.931c0.405 0 0.747 0.263 0.875 0.626h11.627c0.051-0.362 0.090-0.725 0.113-1.093h-10.041c-0.127 0.364-0.47 0.626-0.876 0.626-0.513 0-0.931-0.418-0.931-0.932s0.418-0.931 0.931-0.931c0.406 0 0.749 0.263 0.876 0.626h10.068c0.002-0.099 0.013-0.197 0.013-0.297 0-0.215-0.015-0.429-0.024-0.644h-13.849v4.238h7.383z"></path>
<path d="M19.979 16.591c0-0.211-0.171-0.382-0.382-0.382s-0.382 0.171-0.382 0.382 0.171 0.382 0.382 0.382c0.211 0 0.382-0.171 0.382-0.382z"></path>
<path d="M16.513 14.735c-0.128-0.364-0.47-0.626-0.876-0.626-0.513 0-0.931 0.418-0.931 0.932s0.418 0.931 0.931 0.931c0.406 0 0.748-0.263 0.876-0.626h0.167v-0.61zM15.638 15.422c-0.211-0-0.381-0.171-0.381-0.382s0.171-0.382 0.381-0.382c0.211 0 0.382 0.171 0.382 0.382s-0.171 0.382-0.382 0.382zM16.59 19.584c-0.128-0.363-0.47-0.626-0.875-0.626-0.513 0-0.931 0.418-0.931 0.931s0.418 0.931 0.931 0.931c0.406 0 0.748-0.263 0.875-0.626h0.090v-0.61zM15.714 20.271c-0.211 0-0.382-0.171-0.382-0.382s0.171-0.382 0.382-0.382c0.21 0 0.381 0.171 0.381 0.382s-0.171 0.382-0.381 0.382zM14.703 13.143c-0.127-0.363-0.47-0.626-0.875-0.626-0.514 0-0.931 0.418-0.931 0.931s0.417 0.931 0.931 0.931c0.405 0 0.748-0.263 0.875-0.626h1.977v-0.611zM13.828 13.83c-0.101 0-0.198-0.040-0.27-0.112s-0.112-0.169-0.112-0.27c-0-0.101 0.040-0.198 0.112-0.27s0.168-0.112 0.27-0.112c0.211 0 0.381 0.171 0.382 0.382s-0.171 0.382-0.382 0.382z"></path>
</svg>
