<svg version="1.1" xmlns="http://www.w3.org/2000/svg" viewBox="0 0 32 32">
<title>gup</title>
<path d="M11.395 7.3l4.605-7.3 4.605 7.3-4.705 3zM6.456 15.267l4.004-6.4 5.439 3.6 5.64-3.6 4.004 6.334v0.067c0.49 0.822 0.873 1.706 1.151 2.65s0.417 1.939 0.417 2.983c0 1.533-0.289 2.977-0.867 4.333-0.579 1.333-1.374 2.506-2.386 3.517s-2.186 1.805-3.521 2.384c-1.357 0.578-2.803 0.866-4.338 0.866s-2.981-0.289-4.338-0.866c-1.335-0.578-2.508-1.372-3.521-2.384s-1.807-2.183-2.386-3.517c-0.578-1.356-0.867-2.8-0.867-4.333 0-1.045 0.139-2.039 0.417-2.983s0.662-1.828 1.151-2.65z"></path>
</svg>
