<svg version="1.1" xmlns="http://www.w3.org/2000/svg" viewBox="0 0 32 32">
<title>hex</title>
<path d="M31.844 15.345c0.208 0.36 0.208 0.95 0 1.31v0l-7.355 12.739c-0.208 0.36-0.718 0.655-1.134 0.655v0l-3.37-0 4.888-8.466c0.138-0.239 0.138-0.627 0-0.866v0l-5.55-9.613c-0.138-0.239-0.474-0.433-0.75-0.433v0l-11.1-0c-0.276 0-0.612 0.194-0.75 0.433v0l-4.886 8.463-1.681-2.912c-0.208-0.36-0.208-0.95-0-1.31v0l7.355-12.739c0.208-0.36 0.718-0.655 1.134-0.655v0l14.71 0c0.416 0 0.926 0.295 1.134 0.655v0l7.355 12.739zM23.143 20.836c0.095 0.165 0.095 0.443 0 0.608v0l-4.792 8.301c-0.095 0.165-0.336 0.304-0.526 0.304v0l-2.81-0 2.454-4.251c0.112-0.194 0.112-0.509 0-0.702v0l-3.158-5.47c-0.112-0.194-0.384-0.351-0.608-0.351v0l-6.316-0c-0.224 0-0.496 0.158-0.608 0.351v0l-2.454 4.25-1.404-2.431c-0.095-0.165-0.095-0.443 0-0.608v0l4.792-8.301c0.095-0.165 0.336-0.304 0.526-0.304v0l9.585-0c0.19-0 0.431 0.139 0.526 0.304v0l4.792 8.301zM15.745 25.216c0.070 0.12 0.070 0.324 0 0.444v0l-2.405 4.166c-0.069 0.119-0.241 0.219-0.38 0.222v0l-4.333-0c-0.41-0.008-0.904-0.295-1.111-0.647v0l-2.165-3.75c-0.065-0.121-0.064-0.318 0.004-0.436v0l2.405-4.166c0.070-0.12 0.246-0.222 0.384-0.222v0l4.811 0c0.139-0 0.315 0.102 0.384 0.222v0l2.405 4.166z"></path>
</svg>
