<svg version="1.1" xmlns="http://www.w3.org/2000/svg" viewBox="0 0 32 32">
<title>hot</title>
<path d="M29.861 27.51c-0.992-0.18-2.075-0.361-2.976-0.812-2.886-1.353-4.42-3.878-5.322-6.765-0.18-0.451-0.361-1.173-0.361-1.623h2.435c0.18 0 0.361-0.090 0.361-0.271l0.992-3.788c0.090-0.271-0.090-0.451-0.361-0.451h-3.518v-0.18c0.18-0.541 0.451-1.804 0.722-2.345 1.533-3.788 3.969-6.494 8.388-6.945 0.271 0 0.541-0.361 0.631-0.541 0.361-0.902 0.631-1.894 0.992-2.796 0.271-0.631 0-0.722-0.541-0.812-2.435-0.271-4.51 0.18-6.314 1.353-3.788 2.255-5.953 5.592-6.945 9.741-0.18 0.902-0.451 1.894-0.631 2.255 0 0.090-0.090 0.090-0.090 0.18h-3.157c-0.18-0.902-0.451-2.525-0.722-3.337-1.533-4.961-4.329-8.659-9.561-10.102-0.992-0.271-2.165-0.18-3.247-0.271-0.361 0-0.722 0.090-0.541 0.631 0.271 0.992 0.631 1.894 0.902 2.886 0.18 0.451 0.451 0.631 0.902 0.722 0.902 0.18 1.894 0.361 2.796 0.812 2.796 1.353 4.329 3.788 5.141 6.765 0.090 0.18 0.361 1.353 0.541 1.984h-2.706c-0.18 0-0.361 0.090-0.361 0.271l-0.992 3.788v0.18c0.090 0.090 0.18 0.271 0.361 0.271h3.608c-0.18 0.722-0.541 2.165-0.722 2.616-1.443 3.518-3.608 6.043-7.576 6.494-0.18 0-0.541 0.18-0.631 0.451-0.451 1.173-0.812 2.435-1.173 3.698 2.616 0.361 4.871-0.18 7.035-1.533 3.608-2.255 5.592-5.592 6.584-9.651 0.361-1.353 0.271-1.894 0.631-2.075h3.247c0 0.27 0.090 0.722 0.090 0.812 0.18 0.992 0.361 1.894 0.631 2.796 1.082 3.337 2.976 6.133 5.953 8.117 1.353 0.902 2.796 1.443 4.42 1.714 0.992 0.18 1.894 0.541 2.886-0.18-0.361-1.082-0.722-2.165-0.992-3.157-0.090-0.631-0.361-0.812-0.812-0.902z"></path>
</svg>
