<svg version="1.1" xmlns="http://www.w3.org/2000/svg" viewBox="0 0 32 32">
<title>ifc</title>
<path d="M24.527 23.518c-3.769 0-6.489-2.243-8.69-4.555-2.279 2.375-4.912 4.555-8.486 4.555-4.775 0-7.351-3.913-7.351-7.594 0-3.699 2.525-7.443 7.351-7.443 3.654 0 6.269 2.226 8.512 4.618 2.306-2.403 4.986-4.618 8.665-4.618 4.854 0 7.473 3.912 7.473 7.592-0 3.7-2.567 7.445-7.473 7.445zM18.537 16.040c2.035 2.162 3.744 3.512 5.99 3.512 2.589 0 3.507-1.874 3.507-3.479 0-1.347-0.739-3.626-3.507-3.626-2.25 0-4.119 1.614-5.99 3.593zM7.351 12.447c-3.222 0-3.385 2.897-3.385 3.477 0 1.348 0.713 3.628 3.385 3.628 2.15 0 3.976-1.587 5.814-3.533-1.857-2.015-3.605-3.573-5.814-3.573z"></path>
</svg>
