<svg version="1.1" xmlns="http://www.w3.org/2000/svg" viewBox="0 0 32 32">
<title>iotx</title>
<path d="M25.682 4.521l6.318 3.634v7.278l-6.318-3.634v-7.278zM19.364 8.155l-0.99-0.569v7.266l-3.635-2.097-0.017 0.009 2.589 1.495-6.308 3.634v-7.252l-0.029-0.017v7.269l-6.319-3.634 6.311-3.639-5.231-3.016 6.32-3.633v3.050l3.63 2.097 2.677-1.54-5.317-3.058 6.319-3.644 6.319 3.644zM25.682 11.799l-6.319 3.634v-7.278zM15.439 23.566l2.525-1.456v7.278l-4.962-2.854-2.52 1.455v-7.278l4.957 2.855zM25.682 19.077l-6.319 3.634-6.308-3.634 6.308-3.644 6.319-3.633 6.318 3.633v7.278l-6.318 3.644-6.319-3.644 6.319-3.634zM6.319 22.496v1.91l-6.319-3.645 6.319-3.633v-1.91l6.318 3.634-6.318 3.644zM3.031 7.91l6.319 3.634-6.319 3.644v-7.278zM19.312 23.843l6.308 3.634-6.308 3.645v-7.279z"></path>
</svg>
