<svg version="1.1" xmlns="http://www.w3.org/2000/svg" viewBox="0 0 32 32">
<title>iq</title>
<path d="M12.601 0.212c-4.031 0.926-7.669 3.459-9.953 6.918-1.152 1.734-1.843 3.381-2.313 5.515-0.326 1.422-0.432 3.926-0.24 5.466 0.49 4.024 2.467 7.6 5.663 10.308 1.67 1.413 3.551 2.455 3.551 1.968 0-0.068-0.202-0.312-0.441-0.555-1.641-1.608-2.505-4.423-2.159-7.044 0.461-3.488 1.872-5.817 4.626-7.629 0.518-0.341 0.989-0.624 1.046-0.624 0.202 0 0.077-0.409-0.422-1.384-0.96-1.841-1.305-3.108-1.305-4.784 0-2.572 1.075-5.32 2.726-6.986 0.48-0.477 0.537-0.575 0.537-0.955s-0.019-0.409-0.259-0.399c-0.154 0-0.624 0.088-1.056 0.185zM22.362 1.235c0 0.078 0.144 0.351 0.326 0.604 0.854 1.228 1.305 2.553 1.372 4.073 0.086 1.841-0.403 3.439-1.305 4.248-0.662 0.594-1.238 0.614-2.064 0.088-0.585-0.38-0.653-0.653-0.259-1.159 0.662-0.848 1.065-2.173 1.065-3.537 0-1.413-0.269-2.202-0.998-2.884-0.787-0.731-1.584-0.945-2.649-0.692-1.085 0.244-2.102 1.423-2.649 3.069-0.278 0.848-0.518 2.309-0.518 3.157 0.010 1.598 0.48 3.478 1.161 4.628 0.384 0.653 1.334 1.725 1.9 2.143 0.211 0.156 0.393 0.322 0.393 0.351 0 0.039-0.202 0.136-0.451 0.234-1.843 0.692-3.695 2.767-4.521 5.057-0.528 1.461-0.72 2.65-0.653 4.014 0.077 1.676 0.374 2.465 1.315 3.498 0.739 0.818 2.14 1.189 3.82 1.023 1.939-0.205 3.426-0.906 4.703-2.241 0.557-0.594 0.672-0.663 0.777-0.536 0.096 0.117 0.077 0.214-0.125 0.565-1.267 2.182-3.628 4.053-5.816 4.599-0.48 0.117-0.681 0.214-0.681 0.322 0 0.351 2.985-0.136 4.789-0.779 4.617-1.637 8.417-5.524 9.953-10.162 0.633-1.919 0.739-2.679 0.749-5.066 0.010-1.861-0.019-2.29-0.211-3.235-0.931-4.696-3.916-8.701-8.283-11.117-0.768-0.429-1.142-0.516-1.142-0.263z"></path>
</svg>
