<svg version="1.1" xmlns="http://www.w3.org/2000/svg" viewBox="0 0 32 32">
<title>jbs</title>
<path d="M16.12 32c0 0-0.129-1.081 0.45-2.11s1.042-1.171 1.865-2.058c0.824-0.888 1.441-1.506 1.866-1.647s1.222 0.051 1.724 0.051c0.502 0 1.145-0.309 1.866-0.116s0.515 0.991 0.965 1.569c0.45 0.579 1.48 1.184 2.007 1.158s0.643-0.695 0.978-0.811c0.334-0.116 1.106 0.103 1.66-0.193s0.733-0.965 0.978-1.493 0.862-1.055 0.862-1.595c0-0.54-0.83-2.747-2.084-4.966s-2.741-3.937-3.204-4.709c-0.463-0.772-0.984-2.528-1.602-3.165s-1.216-0.411-1.563-0.913c-0.348-0.502 0.386-4.355-2.972-7.791s-9.514-4.593-14.088-1.081c-4.574 3.512-5.751 7.874-4.921 11.618s3.841 8.569 9.901 9.051c6.060 0.482 7.642-4.593 7.7-5.539s-0.579-1.563-0.579-1.563c0 0-0.174 3.165-3.319 3.84s-5.655-1.486-6.523-3.841c-0.869-2.354-0.637-4.786 0.675-6.272s4.284-2.683 5.809-0.096c-0.559-0.039-3.107 0.232-3.319 0.83s1.158 3.57 2.161 4.361c1.003 0.791 2.663 0.637 3.319 0.347-0.656-0.27-1.737-0.849-2.277-1.64s-0.733-1.486-0.463-1.852c0.27-0.367 3.821 0.308 3.821 0.308s1.139-2.586-1.428-5.056c-2.567-2.47-7.45-1.795-9.592 1.1s-2.432 7.778 1.023 11.348c-4.419-1.505-6.928-8.009-2.586-13.336 4.651-5.597 10.653-2.914 12.564-1.1s4.149 4.825 2.354 8.916c1.66 0.309 1.64 2.104 1.64 2.104s1.235-0.791 1.911-0.251c0.676 0.541 0.54 1.37 0.637 1.544s1.505 2.316 1.37 2.451c-0.135 0.135-1.332-1.293-2.451-2.084s-2.702-1.081-2.702-1.081c0 0 1.776 1.061 1.814 2.373s-1.853 3.474-1.853 3.474 1.563-0.019 2.412-0.444c0.849-0.425 1.177-0.907 1.699-0.907s1.679 1.196 2.412 2.2c0.733 1.003 1.447 2.432 1.447 2.432l1.119-0.984c0 0 0.425 1.312-0.29 1.949s-2.47 0.56-2.47 0.56-0.29-0.791-1.37-1.679c-1.081-0.888-1.911-1.447-1.911-1.447s-0.926 1.119-2.953 1.119c-2.026 0-2.721-1.177-2.721-1.177s-2.046 0.463-3.127 2.798c-1.081 2.335-0.637 3.686-0.27 4.207s0.9 1.106 1.627 1.286z"></path>
</svg>
