<svg version="1.1" xmlns="http://www.w3.org/2000/svg" viewBox="0 0 32 32">
<title>job</title>
<path d="M15.999 31.603c-0.22-0.22 0.936-10.65-5.88-17.46-3.36-3.357-7.987-5.948-8.009-5.91s2.415 1.282 13.033 7.316c0.533 0.302 1.186 0.302 1.719 0 10.614-6.034 13.047-7.287 13.029-7.316s-4.649 2.554-8.009 5.91c-6.82 6.81-5.664 17.24-5.884 17.46z"></path>
<path d="M16.001 0l-14.463 7.994v16.013l14.463 7.994 14.462-7.994v-16.013l-14.462-7.994zM2.221 8.397l13.78-7.616 13.779 7.616v15.207l-13.779 7.616-13.78-7.616v-15.207z"></path>
</svg>
