<svg version="1.1" xmlns="http://www.w3.org/2000/svg" viewBox="0 0 32 32">
<title>joys</title>
<path d="M14.158 9.065c0.547 0.524 0.962 1.344 0.962 2.426 0 1.158-0.437 2.306-1.169 3.059-0.579 0.601-1.562 1.191-3.037 1.191-1.431 0-2.251-0.579-2.677-1.016-0.601-0.612-0.962-1.497-0.962-2.414 0-1.202 0.503-2.328 1.257-3.038 0.765-0.721 1.901-1.147 3.104-1.147 1.038 0 1.944 0.383 2.523 0.94zM31.991 11.763c0.005-0.091 0.009-0.182 0.009-0.273v-0.003c0-1.087-0.416-1.91-0.962-2.438-0.579-0.56-1.486-0.944-2.524-0.944-1.202 0-2.338 0.428-3.103 1.153-0.519 0.491-0.919 1.181-1.117 1.957v0c-0.010 0.032-0.024 0.095-0.038 0.157l-0.005 0.028c-0.002 0.011-0.005 0.022-0.007 0.033-0.010 0.048-0.017 0.097-0.026 0.146-0.024 0.131-0.043 0.291-0.053 0.453l-0.001 0.012c-0.001 0.006-0.001 0.011-0.002 0.017-0.005 0.074-0.007 0.161-0.007 0.248v0c0 0.917 0.36 1.802 0.962 2.414 0.426 0.437 1.246 1.016 2.677 1.016 1.475 0 2.458-0.59 3.038-1.191 0.611-0.629 1.015-1.533 1.133-2.488v-0.001c0.011-0.088 0.019-0.177 0.025-0.266 0-0.010 0.001-0.021 0.002-0.031z"></path>
<path d="M22.421 9.029c-0.336-2.304-1.366-4.095-2.645-5.324-1.664-1.601-4.269-2.7-7.251-2.7-2.72 0-5.322 0.76-7.378 2.095-0.555 0.36-1.070 0.762-1.537 1.202-0.426 0.401-0.823 0.848-1.187 1.334-0.357 0.476-0.681 0.988-0.969 1.53-0.914 1.724-1.454 3.752-1.454 5.863 0 1.447 0.312 2.866 0.879 4.142 0.339 0.763 0.769 1.475 1.279 2.113 0.181 0.225 0.358 0.426 0.544 0.618l-0.003-0.003c0.021 0.022 0.042 0.046 0.063 0.068 0.566 0.581 1.378 1.247 2.49 1.796 0.628 0.31 1.352 0.584 2.184 0.782 0 0 1.913 0.498 4.394 0.276 1.106-0.102 2.101-0.323 2.993-0.627 1.386-0.472 2.519-1.143 3.422-1.874 0.344-0.279 0.657-0.567 0.935-0.856 0.006-0.006 0.012-0.013 0.018-0.019 1.098-1.136 1.963-2.58 2.537-4.175 0.196-0.521 0.379-1.158 0.516-1.811l0.015-0.088c0.178-0.882 0.273-1.787 0.273-2.695 0-0.575-0.041-1.123-0.117-1.646zM15.821 17.109c-0.050 0.049-0.103 0.096-0.155 0.143-0.599 0.552-1.297 1.007-2.064 1.334l-0.047 0.018c-0.59 0.255-1.275 0.44-1.991 0.523l-0.034 0.003h-1.71c-0.92-0.104-1.767-0.374-2.504-0.78-0.533-0.294-1.010-0.659-1.414-1.085-0.060-0.062-0.12-0.129-0.179-0.198-0.108-0.124-0.215-0.26-0.316-0.401l-0.011-0.017c-0.274-0.386-0.53-0.85-0.731-1.398-0.258-0.704-0.427-1.546-0.427-2.538 0-1.334 0.287-2.644 0.848-3.805 0.182-0.374 0.367-0.689 0.572-0.989l-0.017 0.027c0.293-0.433 0.63-0.836 1.014-1.198 0.191-0.181 0.397-0.354 0.611-0.516l0.018-0.013c1.152-0.863 2.69-1.48 4.582-1.48 2.291 0 3.861 0.879 4.771 1.82 0.818 0.844 1.434 2.065 1.611 3.551 0.034 0.283 0.053 0.575 0.053 0.876 0 0.623-0.070 1.241-0.198 1.841-0.085 0.396-0.194 0.785-0.328 1.161-0.358 1.003-0.888 1.918-1.54 2.674-0.133 0.155-0.27 0.305-0.413 0.445z"></path>
<path d="M25.638 19.131c-0.009 2.342-0.979 4.619-2.479 6.087-1.256 1.224-3.045 2.072-5.149 2.072-1.946 0-3.641-0.722-4.772-1.915-0.429-0.445-0.864-1.065-1.183-1.876-0.054 0.006-0.108 0.012-0.162 0.017-0.444 0.040-0.901 0.060-1.357 0.060-1.38 0-2.462-0.182-2.967-0.286 0.396 1.831 1.281 3.513 2.529 4.784 1.224 1.256 3.579 2.919 7.691 2.919 4.238 0 7.064-1.695 8.727-3.422 2.030-2.090 3.267-5.234 3.351-8.442l-4.231 0z"></path>
</svg>
