<svg version="1.1" xmlns="http://www.w3.org/2000/svg" viewBox="0 0 32 32">
<title>kin</title>
<path d="M21.251 13.196c0 0.538-0.435 0.975-0.972 0.975h-0.907c-0.975 0-1.766 0.793-1.766 1.771h-0.003c0 0.978 0.907 1.771 1.882 1.771h0.802c0.532 0 0.964 0.433 0.964 0.966v2.667h-2.684c-0.532 0-0.964-0.433-0.964-0.967v-0.893c0-0.978-0.823-1.803-1.799-1.803v-0.004c-0.975 0-1.734 0.865-1.734 1.896v0.812c0 0.529-0.428 0.959-0.956 0.959h-2.384v-10.787h2.403c0.517 0 0.937 0.42 0.937 0.939v0.902c0 0.978 0.84 1.82 1.815 1.82s1.717-0.842 1.717-1.82v-0.867c0-0.538 0.435-0.974 0.972-0.974h2.677v2.637zM31.603 13.364c-0.522-1.699-1.365-3.164-4.090-5.868l-3.101-3.076c-2.725-2.704-4.196-3.535-5.899-4.043s-3.443-0.502-5.142 0.020c-1.699 0.522-3.164 1.365-5.868 4.090l-3.083 3.107c-2.704 2.725-3.535 4.196-4.044 5.899s-0.502 3.443 0.020 5.142c0.522 1.699 1.365 3.164 4.090 5.868l3.101 3.076c2.725 2.704 4.196 3.535 5.9 4.044s3.443 0.502 5.142-0.020 3.164-1.365 5.868-4.090l3.083-3.107c2.704-2.725 3.535-4.196 4.044-5.9s0.502-3.443-0.020-5.142z"></path>
</svg>
