<svg version="1.1" xmlns="http://www.w3.org/2000/svg" viewBox="0 0 32 32">
<title>loom</title>
<path d="M24.283 30.175l-21.87-15.343c-1.512-1.061-2.413-2.793-2.413-4.64s0.9-3.579 2.413-4.64l5.3-3.726 21.87 15.343c1.512 1.061 2.413 2.793 2.413 4.64s-0.9 3.579-2.413 4.64zM7.708 4.311l-4.129 2.889c-0.975 0.682-1.555 1.796-1.555 2.985s0.581 2.304 1.555 2.985l20.708 14.519 4.129-2.889c0.975-0.682 1.555-1.796 1.555-2.985s-0.581-2.304-1.555-2.985z"></path>
<path d="M7.691 27.689l-4.125-2.893c-0.975-0.682-1.555-1.796-1.555-2.985s0.581-2.304 1.555-2.985l10.67-7.452-1.753-1.236-10.069 7.031c-1.512 1.061-2.413 2.793-2.413 4.64s0.9 3.579 2.413 4.64l5.282 3.709 6.536-4.572-1.753-1.236zM29.592 5.56l-5.287-3.709-6.54 4.577 1.753 1.236 4.778-3.345 4.125 2.893c0.975 0.682 1.555 1.796 1.555 2.985s-0.581 2.304-1.555 2.985l-10.67 7.452 1.753 1.236 10.082-7.045c1.512-1.061 2.413-2.793 2.413-4.64s-0.9-3.579-2.413-4.64z"></path>
<path d="M3.663 16.279l8.319-5.82 1.159 1.656-8.319 5.82z"></path>
<path d="M27.356 13.933l-4.050 2.836 1.157 1.657 4.204-2.941c-0.447-0.508-0.877-1.030-1.311-1.552z"></path>
</svg>
