<svg version="1.1" xmlns="http://www.w3.org/2000/svg" viewBox="0 0 32 32">
<title>lsk</title>
<path d="M13.036 31.93l4.176-4.692c0.070-0.070 0.023-0.188-0.094-0.188h-4.598c-0.023 0-0.070-0.023-0.094-0.047l-3.894-4.364c-0.023-0.047-0.047-0.094-0.023-0.141l6.522-11.191c0.023-0.047 0.023-0.094 0-0.117l-2.698-4.645c-0.047-0.070-0.164-0.070-0.211 0l-9.642 16.563c-0.023 0.047-0.023 0.094 0 0.141l7.742 8.704c0.023 0.023 0.047 0.047 0.094 0.047h2.628c0.023-0.023 0.070-0.047 0.094-0.070z"></path>
<path d="M15.898 0.070l-2.721 4.645c-0.023 0.047-0.023 0.094 0 0.117l10.276 17.642c0.023 0.047 0.023 0.094-0.023 0.141l-3.941 4.411-4.199 4.739c-0.070 0.070-0.023 0.188 0.094 0.188h6.287c0.023 0 0.070-0.023 0.094-0.047l7.742-8.704c0.023-0.047 0.047-0.094 0.023-0.141l-13.443-22.991c-0.023-0.094-0.141-0.094-0.188 0z"></path>
</svg>
