<svg version="1.1" xmlns="http://www.w3.org/2000/svg" viewBox="0 0 32 32">
<title>mer</title>
<path d="M14.006 0.886c0.994-1.116 2.908-1.141 3.934-0.056 0.646 0.586 0.795 1.488 0.818 2.317-0.363-0.561-0.621-1.216-1.149-1.653-0.974-0.813-2.585-0.732-3.445 0.212-0.416 0.462-0.628 1.056-0.939 1.586 0.015-0.853 0.142-1.78 0.782-2.406zM10.874 7.014c1.771 2.073 3.387 4.275 5.134 6.368 1.737-2.096 3.374-4.274 5.123-6.362-0.194 0.853-0.474 1.689-0.592 2.556-0.071 0.432 0.174 0.823 0.358 1.194 1.877 3.44 3.696 6.913 5.555 10.362 0.308 0.646 1.077 1.055 1.772 0.797 0.629-0.179 0.912-0.823 1.151-1.371 1.431-3.378 1.585-7.305 0.28-10.746-0.313-0.835-0.767-1.621-0.912-2.51 0.81 0.596 1.247 1.525 1.668 2.408 1.545 3.168 1.991 6.862 1.217 10.302-0.749 3.52-2.743 6.751-5.543 9.011-0.875 0.724-1.85 1.312-2.836 1.868-0.256-0.507-0.56-1.005-0.682-1.566-0.027-0.372 0.164-0.717 0.262-1.068 0.441-1.219 0.387-2.581-0.040-3.795 0.386 1.688-0.667-1.343-1.698-4.384l-1.398-4.746c-0.167-0.513-0.475-0.959-0.76-1.411 0.096 0.841-0.583 1.424-0.966 2.093-0.634 1.122-1.274 2.247-2.062 3.27-0.174-0.724-0.121-1.472-0.177-2.209-0.078 0.455-0.112 0.917-0.164 1.376-1.022-1.374-1.842-2.886-2.804-4.302-1.29 3.62-2.46 7.282-3.76 10.9-0.308-0.199-0.618-0.394-0.928-0.589-0.020 0.272-0.037 0.543-0.055 0.813 0.287 0.361 0.592 0.776 0.882 1.203l0.046 0.072c-0.435-0.033-0.733-0.061-1.030-0.092l0.166 0.014c0.288 0.228 0.691 0.397 0.793 0.783 0.239 0.74 0.399 1.52 0.828 2.182 0.537 0.959 1.563 1.484 2.158 2.398-1.423-0.108-2.754-0.695-3.962-1.426-2.878-1.69-5.22-4.288-6.555-7.353-1.474-3.348-1.754-7.209-0.749-10.729 0.475-1.775 1.318-3.429 2.352-4.943 0.099 0.046 0.296 0.141 0.396 0.187-0.711 1.408-1.292 2.885-1.628 4.428-0.166-0.055-0.331-0.111-0.496-0.169 0.348 0.439 0.411 0.995 0.325 1.535-0.273 2.613 0.167 5.304 1.315 7.671 0.272 0.614 0.909 0.899 1.443 1.24 0.479-0.378 1.017-0.72 1.312-1.275 0.56-0.992 1.045-2.025 1.635-3 0.002-0.006 0.122 0.162 0.242 0.33l0.124 0.185c-0.111-0.469-0.214-0.985 0.073-1.416 1.107-2.045 2.187-4.105 3.296-6.148 0.22-0.462 0.596-0.935 0.462-1.477-0.159-0.826-0.421-1.629-0.571-2.459zM19.018 12.031c0.348-0.247 0.736-0.422 1.138-0.563 0.247 0.614 0.122 0.346-0.003 0.076l-0.371-0.894c-0.267 0.452-0.525 0.912-0.764 1.381zM17.242 13.009c0.26 0.339 0.628 0.56 1.017 0.722-0.268-0.329-0.642-0.538-1.017-0.722zM16.112 15.894c-0.232 0.225 0.159 0.581 0.378 0.359 0.24-0.224-0.164-0.583-0.378-0.359zM23.358 22.311c0.263-0.116 0.528-0.23 0.793-0.346l-0.328-0.352c-0.366 0.569-0.52 0.797-0.674 1.024l0.209-0.325zM5.541 27.088c-0.001-0.025-0.010 0.279-0.017 0.583l-0.006 0.287c0.293 0.139 0.581 0.285 0.868 0.437-0.29-0.379-0.57-0.806-0.818-1.253l-0.027-0.053zM7.971 27.098c0.010 0.089 0.032 0.272 0.043 0.361 0.194 0.078 0.389 0.157 0.583 0.237 0.034 0.114-0.029-0.042-0.090-0.199l-0.095-0.275c-0.776-0.195-0.923-0.238-1.070-0.281l0.63 0.157z"></path>
<path d="M20.132 31.637c0.694-0.592 1.396-1.184 1.984-1.886 0.456 0.293 0.745 0.75 0.919 1.255-0.825 0.351-1.664 0.666-2.511 0.962-0.098-0.083-0.295-0.248-0.392-0.331z"></path>
</svg>
