<svg version="1.1" xmlns="http://www.w3.org/2000/svg" viewBox="0 0 32 32">
<title>mint</title>
<path d="M31.885 19.953c-0.142-2.844-1.138-6.22-1.955-8.14s-3.003-4.937-4.124-5.119c-0.806-0.13-1.493-0.083-3.72 0s-2.393 0.652-2.417 0.936c-0.024 0.284 0.758 0.735 1.398 1.445s2.441 3.934 2.915 5.593c0.474 1.659 0.901 3.128 1.043 5.782s-0.071 4.147 0.355 4.645 5.877 0.261 6.304 0c0.426-0.26 0.343-2.298 0.201-5.142z"></path>
<path d="M21.202 11.813c-0.818-1.92-3.003-4.937-4.123-5.119-0.806-0.13-1.493-0.083-3.721 0s-2.393 0.652-2.417 0.936c-0.024 0.284 0.758 0.735 1.398 1.445s2.441 3.934 2.915 5.593c0.474 1.659 0.901 3.128 1.043 5.782s-0.071 4.147 0.355 4.645c0.427 0.498 5.877 0.261 6.304 0s0.344-2.299 0.201-5.142c-0.142-2.844-1.138-6.22-1.955-8.14z"></path>
<path d="M12.675 11.813c-0.817-1.92-3.002-4.937-4.123-5.119-0.806-0.13-1.493-0.083-3.721 0s-2.393 0.652-2.417 0.936c-0.024 0.284 0.759 0.735 1.398 1.445 0.519 0.577 1.803 2.808 2.522 4.515h-6.334l2.413 2.409h4.683c0.208 0.8 0.391 1.642 0.52 2.681h-6.585l2.413 2.41h4.354c0.082 2.254-0.063 3.549 0.328 4.005 0.426 0.498 5.876 0.261 6.303 0s0.344-2.298 0.201-5.142-1.138-6.22-1.955-8.14z"></path>
</svg>
