<svg version="1.1" xmlns="http://www.w3.org/2000/svg" viewBox="0 0 32 32">
<title>mrc</title>
<path d="M16 0c-8.836 0-16 7.163-16 16s7.163 16 16 16c8.837 0 16-7.164 16-16s-7.163-16-16-16zM22.17 12.093c-1.295-2.041-3.574-3.397-6.17-3.397-4.034 0-7.304 3.27-7.304 7.304 0 2.833 1.614 5.288 3.972 6.499v-9.684h1.917v4.954c0.018 0.267 0.181 1.473 1.633 1.473 1.308 0 1.445-1.239 1.456-1.618l-0-4.809h1.917v4.83c-0.020 1.421-0.934 3.516-3.373 3.516-0.644 0-1.185-0.132-1.633-0.347v2.353c0.458 0.090 0.931 0.138 1.415 0.138 2.396 0 4.523-1.154 5.855-2.936l4.396 3.252c-2.328 3.127-6.052 5.153-10.251 5.153-7.054 0-12.773-5.719-12.773-12.773s5.719-12.773 12.773-12.773c4.512 0 8.474 2.341 10.746 5.872z"></path>
</svg>
