<svg version="1.1" xmlns="http://www.w3.org/2000/svg" viewBox="0 0 32 32">
<title>nano</title>
<path d="M4.606 20.568c0-1.275-1.031-2.308-2.303-2.308s-2.303 1.034-2.303 2.308c0 1.275 1.031 2.309 2.303 2.309s2.303-1.034 2.303-2.309z"></path>
<path d="M29.745 9.123c-1.247 0-2.303 1.010-2.303 2.308 0 1.827-0.288 2.308-2.303 2.308h-0.192c-1.151 0.096-2.063 1.058-2.063 2.26v0.048c0 1.779-0.336 2.212-2.303 2.212-0.096 0-0.192 0-0.24 0.048-1.151 0.144-2.063 1.106-2.063 2.26 0 1.25 1.007 2.309 2.303 2.309 1.2 0 2.207-0.962 2.255-2.116v-0.192c0-1.635 0.528-2.26 2.255-2.308h0.048c1.199 0 2.207-0.962 2.255-2.164v-0.144c0-1.683 0.528-2.308 2.303-2.308 1.247 0 2.303-1.010 2.303-2.308 0-1.202-1.007-2.212-2.255-2.212zM16.216 13.74h-0.192c-2.015 0-2.303-0.481-2.303-2.308 0-1.25-1.007-2.308-2.303-2.308-1.247 0-2.303 1.010-2.303 2.308 0 1.827-0.288 2.26-2.303 2.26h-0.192c-1.151 0.096-2.063 1.058-2.063 2.26 0 1.25 1.007 2.308 2.303 2.308 1.2 0 2.207-0.962 2.255-2.116v-0.144c0-1.683 0.528-2.308 2.303-2.308s2.303 0.625 2.303 2.26c0 1.25 1.007 2.308 2.303 2.308s2.303-1.010 2.303-2.308c-0.048-1.154-0.959-2.116-2.111-2.212z"></path>
</svg>
