<svg version="1.1" xmlns="http://www.w3.org/2000/svg" viewBox="0 0 32 32">
<title>nas</title>
<path d="M11.245 19.86c1.546 3.136 3.038 6.159 4.574 9.28 0.8-2.36 1.565-4.632 2.351-6.944-2.287-0.77-4.544-1.531-6.924-2.336zM2.878 15.831c2.36 0.8 4.627 1.57 6.929 2.351 0.78-2.306 1.551-4.574 2.351-6.939-3.136 1.556-6.163 3.047-9.28 4.588zM11.647 18.775c0.108 0.059 0.152 0.093 0.206 0.113 2.233 0.761 4.466 1.521 6.703 2.262 0.182 0.059 0.442 0.010 0.618-0.078 2.562-1.251 5.113-2.512 7.67-3.774 0.726-0.358 1.453-0.721 2.243-1.119-0.172-0.069-0.265-0.108-0.358-0.137-2.164-0.731-4.323-1.472-6.497-2.189-0.206-0.069-0.501-0.054-0.692 0.044-2.724 1.325-5.432 2.67-8.151 4.009-0.559 0.28-1.124 0.564-1.742 0.869zM21.099 12.862c-1.644-3.337-3.268-6.625-4.932-9.996-1.698 5.020-3.357 9.918-5.054 14.933 3.381-1.673 6.664-3.293 9.986-4.937zM0.002 16.002c1.59-0.79 3.092-1.536 4.598-2.277 2.557-1.261 5.113-2.522 7.675-3.779 0.275-0.133 0.432-0.309 0.53-0.604 1.001-2.984 2.017-5.967 3.028-8.946 0.039-0.108 0.083-0.216 0.152-0.398 0.103 0.196 0.177 0.339 0.245 0.481 1.958 3.97 3.911 7.94 5.884 11.905 0.093 0.191 0.348 0.353 0.564 0.427 2.959 1.021 5.928 2.022 8.892 3.033 0.113 0.039 0.221 0.079 0.427 0.152-0.275 0.137-0.476 0.245-0.682 0.343-3.823 1.884-7.641 3.779-11.468 5.648-0.378 0.186-0.584 0.422-0.716 0.82-0.986 2.959-1.997 5.908-3.003 8.862-0.029 0.078-0.064 0.157-0.128 0.329-0.26-0.515-0.481-0.957-0.697-1.399-1.781-3.612-3.563-7.219-5.329-10.835-0.147-0.299-0.334-0.481-0.658-0.589-2.969-0.996-5.933-2.007-8.897-3.018-0.118-0.039-0.226-0.083-0.417-0.157z"></path>
</svg>
