<svg version="1.1" xmlns="http://www.w3.org/2000/svg" viewBox="0 0 32 32">
<title>nbt</title>
<path d="M29.161 6.901l-5.886 19.058-1.602-5.172 5.131-16.588c-0.221-0.202-0.448-0.398-0.679-0.588l-4.894 15.748-1.602-5.175 3.847-12.332c-2.232-1.182-4.776-1.852-7.477-1.852-8.837 0-16 7.163-16 16 0 3.452 1.093 6.648 2.951 9.261l5.685-18.781 1.611 5.203-4.916 16.24c0.217 0.194 0.439 0.382 0.666 0.565l4.673-15.437 1.611 5.203-3.622 11.967c2.198 1.137 4.694 1.78 7.341 1.78 8.837 0 16-7.163 16-16 0-3.38-1.049-6.515-2.839-9.098zM16.48 26.142c-0.764 0-1.334-0.515-1.505-1.072s-5.857-19.055-5.857-19.055l2.144 0c0.611 0 1.153 0.362 1.315 0.871s5.919 19.255 5.919 19.255zM20.544 26.138c-0.725 0-1.373-0.554-1.581-1.26s-5.71-18.863-5.71-18.863h2.073c0.689 0 1.231 0.398 1.409 0.98s5.794 19.143 5.794 19.143-1.26-0.001-1.986-0.001z"></path>
</svg>
