<svg version="1.1" xmlns="http://www.w3.org/2000/svg" viewBox="0 0 32 32">
<title>note</title>
<path d="M15.004 0h-12.385v30.268c0 0.957 0.776 1.732 1.732 1.732s1.732-0.775 1.732-1.732v-26.804h8.92c2.797 0 10.912 3.086 10.912 12.536s-7.954 12.536-10.695 12.536h-4.893c-0.956 0-1.732 0.775-1.732 1.732s0.776 1.732 1.732 1.732h4.893c4.937 0 14.16-4.693 14.16-16 0-11.168-9.52-16-14.376-16z"></path>
<path d="M14.052 23.036h-3.897c-0.957 0-1.732 0.776-1.732 1.732s0.775 1.732 1.732 1.732h3.897c3.219 0 9.223-3.52 9.223-10.249 0-7.069-5.633-10.363-9.44-10.363h-5.413v12.558c0 0.956 0.775 1.732 1.732 1.732s1.732-0.775 1.732-1.732v-9.093h1.949c1.872 0 5.975 1.737 5.975 6.898 0 5.014-4.587 6.785-5.759 6.785z"></path>
</svg>
