<svg version="1.1" xmlns="http://www.w3.org/2000/svg" viewBox="0 0 32 32">
<title>npxs</title>
<path d="M16 32c-8.837 0-16-7.163-16-16s7.163-16 16-16 16 7.163 16 16-7.163 16-16 16zM8.433 7.172l-1.261 1.261 6.694 6.694 1.261-1.261-6.694-6.694zM16.898 18.159l6.694 6.693 1.261-1.261-6.694-6.693-1.261 1.261zM14.758 16.019l1.263 1.263 1.262-1.261-1.263-1.263-1.261 1.262zM16.913 13.914l1.261 1.261 6.694-6.694-1.261-1.261-6.694 6.694zM7.221 23.607l1.261 1.261 6.694-6.694-1.261-1.261-6.694 6.694z"></path>
</svg>
