<svg version="1.1" xmlns="http://www.w3.org/2000/svg" viewBox="0 0 32 32">
<title>nut</title>
<path d="M22.408 9.065l-6.486-9.065-6.364 9.053-0.56 2.138 15.368 7.436-1.959-9.563zM15.931 2.169l5.301 7.409 1.397 6.814-12.155-5.882 0.241-0.92 5.216-7.421zM24.858 24.582l-16.455-7.522-2.040 9.266 9.563 5.674 9.711-5.73-0.779-1.687zM9.294 18.847l14.62 6.683 0.109 0.235-8.094 4.776-8.145-4.832 1.511-6.862z"></path>
<path d="M16.579 1.085v7.547h-1.255v-7.547zM17.708 22.021l1.214 0.316-2.364 9.092-1.214-0.316z"></path>
<path d="M13.342 19.577l2.775 11.098-1.217 0.304-2.774-11.098zM16.52 7.036l3.909 8.434-1.138 0.528-3.909-8.434z"></path>
<path d="M15.38 7.041l1.143 0.517-2.41 5.327-1.143-0.517z"></path>
</svg>
