<svg version="1.1" xmlns="http://www.w3.org/2000/svg" viewBox="0 0 32 32">
<title>opal</title>
<path d="M15.744 0l-6.405 3.698 6.405 3.698zM8.653 11.493v-7.396l-6.405 3.698zM8.653 19.723v-7.396l-6.405 3.698zM8.653 27.952v-7.396l-6.405 3.698zM2.035 16.441v7.396l6.405-3.698zM2.035 8.212v7.396l6.405-3.698zM9.141 4.097v7.396l6.405-3.698zM15.744 32v-7.396l-6.405 3.698zM9.141 20.507v7.396l6.405-3.698zM16.256 0v7.396l6.405-3.698zM23.347 4.097v7.396l6.405-3.698zM23.347 12.326v7.396l6.405-3.698zM23.347 27.952l6.405-3.698-6.405-3.698zM29.965 23.837v-7.396l-6.405 3.698zM23.56 11.91l6.405 3.698v-7.396zM22.859 11.493v-7.396l-6.405 3.698zM16.256 32l6.405-3.698-6.405-3.698zM22.859 27.903v-7.396l-6.405 3.698z"></path>
</svg>
