<svg version="1.1" xmlns="http://www.w3.org/2000/svg" viewBox="0 0 32 32">
<title>piggy</title>
<path d="M31.258 17.198l-1.111-1.164c0.037-2.467-0.677-4.906-2.056-7.070 0.435-1.575 1.263-4.74 1.134-5.61-0.174-1.172-1.39-3.083-4.299-2.823-1.997 0.179-3.768 1.428-4.683 2.195-3.794-1.514-7.283-1.436-10.165-0.691-0.974-0.628-2.665-1.446-3.895-0.571-1.124 0.799-1.495 2.165-1.614 3.101-0.003 0.001-0.006 0.003-0.008 0.005 0 0-4.559 2.779-4.559 9.684 0 3.881 1.331 6.719 3.26 8.854 0.057 0.856 0.256 1.916 0.866 2.306 0.537 0.343 1.413 0.347 2.162 0.263 0.724 0.482 1.473 0.913 2.224 1.3 1.324 0.682 2.998 1.342 4.855 1.735 0.797 1.102 2.297 2.811 3.917 2.781 1.732-0.032 3.050-1.774 3.678-3.095 1.916-0.643 3.804-1.798 5.531-3.663 1.131 0.658 3.079-0.435 4.388-2.479 1.33-2.074 1.499-4.338 0.377-5.058zM17.543 5.048c0 0-2.411-1.525-4.731-1.795s-4.096 0.069-4.707 0.072l1.187-0.471c0 0 1.601-0.721 5.255-0.217 3.148 0.434 4.451 1.563 4.451 1.563zM24.606 15.451c-0.519 0.021-0.972-0.771-1.011-1.769s0.35-1.823 0.869-1.843c0.519-0.021 0.972 0.772 1.011 1.77s-0.35 1.822-0.869 1.842zM27.157 14.033c-0.44 0.018-0.824-0.654-0.857-1.5s0.297-1.545 0.737-1.562c0.441-0.018 0.824 0.654 0.857 1.5s-0.297 1.546-0.737 1.562zM29.232 21.619c-0.078 0.744-0.441 1.314-0.811 1.276s-0.606-0.672-0.528-1.416c0.078-0.744 0.441-1.315 0.811-1.275 0.37 0.038 0.606 0.673 0.528 1.416zM31.018 19.927c-0.071 0.679-0.391 1.201-0.713 1.167s-0.526-0.611-0.455-1.29c0.072-0.678 0.391-1.201 0.714-1.167s0.526 0.611 0.455 1.289z"></path>
</svg>
