<svg version="1.1" xmlns="http://www.w3.org/2000/svg" viewBox="0 0 32 32">
<title>pivx</title>
<path d="M16 0l-13.072 2.731v18.094c0 2.645 2.716 5.164 5.659 7.102 3.324 2.193 6.932 3.876 7.215 3.989l0.198 0.085 0.198-0.085c0.523-0.198 12.873-5.447 12.873-11.091v-18.094zM10.345 11.084h6.754v1.408h-6.754zM17.997 17.21h-4.433v7.024h-1.752v-8.597h5.946c2.396 0 3.939-1.452 3.939-3.894 0-2.411-1.558-3.819-3.909-3.819l-6.275 0.030v-1.602h6.485c3.205 0 5.511 2.082 5.511 5.392 0 3.325-2.306 5.466-5.511 5.466z"></path>
</svg>
