<svg version="1.1" xmlns="http://www.w3.org/2000/svg" viewBox="0 0 32 32">
<title>plr</title>
<path d="M21.359 20.942c-1.738 0-2.974-1.044-2.955-2.727 0.039-1.451 0.908-2.65 2.974-2.65h1.796v-0.948c0-0.735-0.232-1.354-1.236-1.354-1.043 0-1.275 0.503-1.352 1.258h-1.892c0.077-1.548 0.792-2.844 3.302-2.844 2.086 0 3.167 0.851 3.167 2.998v6.151h-1.893v-0.503h-0.077c-0.386 0.251-0.792 0.619-1.835 0.619zM23.174 17.789v-0.909h-1.526c-1.062 0-1.352 0.503-1.352 1.238 0 0.909 0.56 1.335 1.371 1.335 1.062-0.019 1.506-0.716 1.506-1.664zM2.086 20.265h-0.077v3.559h-2.009v-12.051h1.97v0.561h0.077c0.676-0.658 1.564-0.677 2.047-0.677 2.047 0 3.399 1.953 3.399 4.565v0.348c0 2.727-1.564 4.333-3.418 4.333-0.908 0-1.545-0.193-1.989-0.638zM5.62 16.725v-0.6c0-1.702-0.637-2.844-1.796-2.844-1.255 0-1.912 1.316-1.912 2.844v0.58c0 1.451 0.657 2.553 1.95 2.553 1.004 0.019 1.757-0.774 1.757-2.534zM8.478 11.716h2.008v9.072h-2.008zM11.896 8.176h2.009v12.612h-2.009zM15.314 8.176h2.009v12.612h-2.009zM30.822 13.669c-1.139 0-2.24 0.89-2.24 2.031v5.087h-2.009v-9.014h1.854v0.561h0.077c0.444-0.484 1.545-0.696 2.453-0.677h0.096v2.031zM8.478 8.176h2.008v2.167h-2.008zM29.991 18.621h2.009v2.166h-2.009z"></path>
</svg>
