<svg version="1.1" xmlns="http://www.w3.org/2000/svg" viewBox="0 0 32 32">
<title>plu</title>
<path d="M19.594 21.791c0.926 1.134 1.885 2.307 0.839 3.625-0.337 0.424-0.721 0.694-1.061 0.932-0.734 0.518-1.22 0.859-1.003 2.541l-0.891 0.116c-0.288-2.227 0.56-2.822 1.38-3.399 0.317-0.223 0.617-0.434 0.872-0.756 0.542-0.682 0.221-1.195-0.831-2.485-0.209-0.253-0.414-0.51-0.614-0.771-0.361-0.476-0.493-1.003-0.38-1.523 0.119-0.542 0.475-0.989 0.833-1.319-1.654-1.087-1.684-2.898-1.684-2.923h0.449l0.45-0.002c0.001 0.084 0.043 1.556 1.584 2.341l0.111 0.056c0.52 0.243 1.205 0.407 2.095 0.425 3.714-0.078 3.79-2.708 3.791-2.821l0.899 0.002c0 0.009-0.004 0.256-0.089 0.619 0.429-0.016 1.229-0.162 1.52-0.324-0.166-0.598-1.228-2.567-2.204-4.196l0.27-0.672 0.103-0.029c-0.155-0.704-0.459-2.117-0.611-3.049-3.433-0.526-5.908-0.125-7.358 1.195-1.4 1.277-1.316 2.967-1.313 3.039l-0.499 0.032-0.398 0.033c-0.020-0.232-0.181-0.477-0.376-0.569-0.178-0.083-0.382-0.044-0.609 0.118-0.351 0.249-0.476 0.565-0.393 0.996 0.143 0.754 0.892 1.582 1.468 1.937 0.087-0.054 0.151-0.088 0.177-0.103l0.13 0.249c0.018 0.006 0.040 0.074 0.040 0.074l0.040 0.077 0.211 0.399c-0.151 0.085-0.295 0.18-0.432 0.286 0 0-0.045 0.051-0.060 0.047-0.321 0.255-0.664 0.616-0.747 1.001-0.056 0.259 0.015 0.513 0.216 0.779 0.198 0.26 0.399 0.507 0.593 0.745 0.926 1.135 1.884 2.309 0.839 3.627-0.336 0.423-0.721 0.693-1.060 0.931-0.735 0.517-1.22 0.858-1.003 2.539l-0.891 0.117c-0.288-2.226 0.56-2.822 1.379-3.398 0.317-0.224 0.617-0.435 0.873-0.755 0.541-0.683 0.222-1.195-0.831-2.485-0.199-0.244-0.406-0.497-0.614-0.771-0.362-0.476-0.492-1.004-0.38-1.523 0.111-0.51 0.435-0.936 0.771-1.259-0.728-0.548-1.436-1.468-1.603-2.342-0.15-0.776 0.12-1.453 0.757-1.908 0.495-0.351 1.030-0.421 1.506-0.198 0.049 0.023 0.096 0.052 0.142 0.080 0.228-0.942 0.732-1.796 1.447-2.453 1.651-1.515 4.366-1.997 8.066-1.439 0.828-1.060 1.187-2.634-0.236-3.966-1.306-1.22-3.592-1.581-5.159-0.068l-0.75-0.233c-0.265-1.262-1.738-1.889-3.028-2.054-1.951-0.251-4.498 0.385-5.479 2.375-1.304 2.639 0.372 3.972 0.444 4.028l-0.294 0.814c-1.929-0.107-3.226 0.213-3.856 0.947-0.813 0.95-0.483 2.579-0.217 3.888 0.223 1.096 0.399 1.961-0.037 2.475-0.495 0.585-1.088 0.796-1.634 0.796-0.342-0.001-0.679-0.081-0.984-0.234-0.768-0.388-1.192-1.143-1.035-1.835l0.876 0.204c-0.063 0.274 0.179 0.627 0.564 0.821 0.203 0.104 0.916 0.385 1.529-0.34 0.15-0.177-0.036-1.098-0.16-1.706-0.306-1.503-0.686-3.373 0.417-4.661 0.702-0.819 1.877-1.241 3.576-1.28-0.526-0.839-0.994-2.297 0.005-4.321 1.178-2.384 4.141-3.16 6.399-2.87 1.709 0.219 3.007 1 3.561 2.099 1.906-1.369 4.4-0.888 5.874 0.491 1.169 1.093 1.945 3.077 0.382 5.127 0.16 1.141 0.729 3.653 0.735 3.68l-0.291 0.486c2.327 3.945 2.111 4.368 2.006 4.576-0.219 0.428-1.024 0.674-1.741 0.774 0.846 0.565 1.668 1.545 1.61 3.031-0.046 1.165-0.924 2.107-1.773 3.017-1.139 1.22-1.805 2.017-1.179 2.975l-0.75 0.498c-1.049-1.604 0.185-2.926 1.273-4.093 0.737-0.789 1.498-1.605 1.53-2.433 0.065-1.655-1.335-2.37-1.882-2.587-0.584 0.887-1.715 1.77-3.902 1.851v0.008c-0.057 0-0.109-0.003-0.165-0.005-0.056 0.001-0.108 0.005-0.165 0.005v-0.008c-0.779-0.028-1.425-0.159-1.958-0.355-0.343 0.258-0.748 0.65-0.838 1.072-0.056 0.259 0.015 0.514 0.216 0.779 0.197 0.261 0.399 0.508 0.594 0.746zM13.127 5.863l0.692 0.578c-0.424 0.515-0.181 0.958-0.057 1.127 0.203 0.273 0.582 0.472 0.916 0.328 0.568-0.245 0.653-0.373 1.131-1.078 0.376-0.563 0.772-1.114 1.187-1.65 0.585-0.764 1.259-1.165 2-1.196 1.185-0.045 2.061 0.906 2.097 0.947l-0.665 0.61c-0.005-0.007-0.638-0.685-1.401-0.652-0.461 0.020-0.905 0.303-1.321 0.843-0.401 0.523-0.786 1.060-1.153 1.607-0.502 0.743-0.711 1.051-1.518 1.401-0.188 0.081-0.39 0.122-0.594 0.122-0.52 0-1.044-0.265-1.398-0.741-0.508-0.684-0.475-1.567 0.085-2.247zM22.921 24.785c0.925 1.134 1.884 2.309 0.838 3.625-0.335 0.424-0.719 0.694-1.059 0.933-0.736 0.516-1.22 0.857-1.004 2.54l-0.892 0.117c-0.286-2.228 0.562-2.823 1.381-3.4 0.317-0.223 0.617-0.434 0.873-0.755 0.541-0.682 0.22-1.195-0.831-2.485-0.21-0.253-0.414-0.51-0.614-0.771-0.363-0.476-0.493-1.003-0.381-1.522 0.247-1.138 1.548-1.86 1.695-1.939l0.422 0.8c-0.299 0.161-1.106 0.714-1.238 1.333-0.056 0.259 0.015 0.513 0.215 0.779 0.198 0.261 0.399 0.508 0.594 0.746zM13.653 10.399c-2.651-0.1-4.037 0.475-4.12 1.709-0.034 0.492 0.007 1.072 0.052 1.687 0.108 1.499 0.23 3.201-0.777 4.212-0.551 0.554-1.353 0.827-2.44 0.827-0.176 0-0.361-0.007-0.552-0.021l0.065-0.903c1.098 0.081 1.846-0.096 2.291-0.543 0.718-0.72 0.615-2.136 0.516-3.506-0.047-0.647-0.089-1.258-0.052-1.815 0.085-1.247 1.031-2.702 5.050-2.552l-0.033 0.906zM24.588 11.939c-0.014-0.022-0.339-0.516-1.237-0.516-0.839 0-2.021 0.824-2.406 1.142l-0.537-0.66c0.067-0.055 1.632-1.335 2.944-1.335 1.4 0 1.939 0.89 1.961 0.928l-0.364 0.217zM23.106 12.769c0-0.294 0.268-0.532 0.599-0.532s0.6 0.238 0.6 0.532c0 0.294-0.269 0.532-0.6 0.532s-0.599-0.238-0.599-0.532z"></path>
</svg>
