<svg version="1.1" xmlns="http://www.w3.org/2000/svg" viewBox="0 0 32 32">
<title>ppc</title>
<path d="M23.222 31.569c0 0 1.467-4.881 0.818-9.267s-4.57-9.705-7.532-12.103c-2.962-2.398-8.647-5.12-8.647-5.12s4.937 3.78 6.644 5.586c1.707 1.806 4.062 4.796 5.177 8.731 1.115 3.921 0.917 10.749-1.34 12.173-2.257 1.439-8.224-1.044-10.212-2.708s-4.528-4.387-5.261-10.015c-0.734-5.642-0.522-18.845-0.522-18.845s10.593 0.056 18.591 5.106c8.012 5.050 8.745 9.056 8.745 15.516 0 6.474-6.46 10.946-6.46 10.946z"></path>
</svg>
