<svg version="1.1" xmlns="http://www.w3.org/2000/svg" viewBox="0 0 32 32">
<title>ptoy</title>
<path d="M26.823 11.986h-4.888c-0.677 0-1.302-0.27-1.873-0.809s-0.857-1.158-0.857-1.856v-4.823c0-0.677-0.211-1.232-0.635-1.666s-0.973-0.65-1.65-0.65h-4.476c-0.677 0-1.286 0.217-1.825 0.65s-0.809 0.989-0.809 1.666v4.886c0 0.677-0.227 1.285-0.682 1.825s-1.021 0.809-1.698 0.809h-4.825c-0.698 0-1.306 0.227-1.825 0.682s-0.778 1.021-0.778 1.698v4.474c0 0.698 0.259 1.296 0.778 1.793s1.127 0.746 1.825 0.746h4.857c0.698 0 1.27 0.243 1.714 0.73s0.666 1.079 0.666 1.777v4.855c0 0.698 0.265 1.29 0.794 1.777s1.153 0.73 1.873 0.73h4.444c0.698 0 1.254-0.243 1.666-0.73s0.619-1.079 0.619-1.777v-4.855c0-0.698 0.28-1.29 0.841-1.777s1.201-0.73 1.921-0.73h4.857c0.698 0 1.254-0.249 1.666-0.746s0.619-1.095 0.619-1.793v-4.474c-0.042-0.698-0.27-1.274-0.683-1.729s-0.958-0.682-1.635-0.682zM22.411 8.368l1.524 0.349c1.016 0.254 2.127 0.259 3.333 0.016s2.307-0.904 3.301-1.983c0.995-1.1 1.471-2.983 1.429-5.649l-1.555-0.286c-1.058-0.169-2.201-0.111-3.428 0.175s-2.328 0.968-3.301 2.047c-0.995 1.058-1.429 2.835-1.302 5.331z"></path>
</svg>
