<svg version="1.1" xmlns="http://www.w3.org/2000/svg" viewBox="0 0 32 32">
<title>rbies</title>
<path d="M16 15.956l2.842-2.44-2.842-1.25-2.842 1.25zM20.316 12.252h-3.52l2.328 1.024zM12.23 16.010l0.377-2.138-2.729 2.138zM19.753 16.344l-1.757 5.616 4.274-5.616zM12.961 13.788l-0.392 2.221h2.979zM14.005 21.96l-1.757-5.616h-2.517zM22.486 15.87l0.456-2.908-2.136-0.689-1.389 1.193zM24.729 16.010l-1.51-2.663-0.417 2.663zM15.789 16.344h-3.191l1.827 5.84zM17.575 22.185l1.827-5.84h-3.191zM26.599 16.010l-2.861-2.427 1.375 2.427zM22.122 16.010l-2.729-2.138 0.377 2.138zM16.451 16.010h2.979l-0.392-2.221zM9.198 16.010l-0.417-2.663-1.509 2.663zM17.703 22.897l-1.329 4.245 3.199-3.357 2.477-6.601zM22.723 16.344l-2.369 6.312 4.343-6.312zM16 16.912l-1.378 5.901 1.378 4.404 1.378-4.405z"></path>
<path d="M20.917 11.137h-9.833l-2.682 0.866-4.835 4.102 12.433 13.047 12.433-13.047-4.835-4.102zM27.167 16.054c0.005 0.004 0.008 0.008 0.013 0.013s0.006 0.008 0.009 0.011c0.006 0.009 0.012 0.019 0.017 0.028 0.002 0.006 0.004 0.011 0.006 0.017 0.002 0.005 0.003 0.009 0.005 0.014 0.001 0.006 0.002 0.012 0.003 0.018 0 0.004 0.002 0.008 0.002 0.012 0 0.002-0.001 0.003-0 0.005s0 0.003 0 0.004c0 0.005-0.001 0.008-0.001 0.013s-0.001 0.011-0.002 0.016c-0.001 0.006-0.003 0.012-0.005 0.018-0.002 0.005-0.003 0.010-0.005 0.014-0.002 0.006-0.005 0.011-0.008 0.017-0.002 0.004-0.004 0.008-0.007 0.013-0.004 0.005-0.008 0.010-0.012 0.015-0.003 0.003-0.005 0.006-0.008 0.009l-11.055 11.601c-0.011 0.011-0.023 0.020-0.036 0.028-0.002 0.001-0.005 0.002-0.007 0.003-0.009 0.005-0.018 0.009-0.028 0.012-0.004 0.001-0.008 0.003-0.011 0.003-0.013 0.003-0.026 0.005-0.039 0.006h-0.001c-0.013-0-0.026-0.002-0.039-0.006-0.004-0.001-0.008-0.002-0.011-0.003-0.010-0.003-0.020-0.008-0.029-0.012-0.002-0.001-0.004-0.002-0.006-0.003-0.001-0-0.001-0.001-0.003-0.002-0.012-0.008-0.023-0.016-0.034-0.026l-11.054-11.601c-0.003-0.003-0.005-0.006-0.008-0.010-0.004-0.005-0.008-0.009-0.011-0.015-0.003-0.004-0.005-0.008-0.007-0.013-0.003-0.006-0.006-0.011-0.008-0.017s-0.003-0.009-0.005-0.014c-0.002-0.006-0.003-0.012-0.005-0.018s-0.001-0.011-0.002-0.016c-0-0.005-0.001-0.008-0.001-0.013 0-0.002 0-0.003 0-0.004s-0-0.003 0-0.005 0.001-0.008 0.002-0.012c0.001-0.006 0.002-0.012 0.003-0.018 0.001-0.005 0.003-0.010 0.005-0.014 0.002-0.006 0.004-0.012 0.006-0.017s0.005-0.009 0.007-0.013c0.003-0.005 0.006-0.010 0.009-0.015 0.007-0.008 0.014-0.017 0.022-0.024 0.002-0.002 0.003-0.004 0.005-0.005l3.926-3.331c0.002-0.002 0.006-0.003 0.008-0.004 0.013-0.010 0.027-0.018 0.041-0.023 0.003-0.001 0.005-0.003 0.007-0.004l2.361-0.762c0.001-0 0.002-0 0.003-0.001 0.014-0.004 0.029-0.006 0.043-0.007 0.002 0 0.004-0.001 0.005-0.001h9.535c0.002 0 0.003 0.001 0.004 0.001 0.015 0 0.030 0.003 0.045 0.007l0.002 0.001 2.362 0.762c0.003 0.001 0.005 0.003 0.008 0.005 0.014 0.005 0.026 0.012 0.038 0.021 0.003 0.002 0.007 0.003 0.010 0.006l3.926 3.331c0.002 0.001 0.003 0.003 0.005 0.005z"></path>
<path d="M15.204 12.252h-3.52l1.192 1.024zM21.049 22.237l5.616-5.893h-1.561zM9.95 17.185l2.477 6.601 3.199 3.357-1.328-4.245zM12.584 13.465l-1.389-1.193-2.136 0.689 0.455 2.908zM8.262 13.583l-2.861 2.427h1.485zM5.336 16.344l5.616 5.893-4.055-5.893zM7.302 16.344l4.343 6.312-2.369-6.312zM1.717 21.681l-1.505 0.372c-0.072 0.018-0.133 0.063-0.172 0.126s-0.050 0.139-0.032 0.211c0.031 0.124 0.142 0.212 0.27 0.212 0.022 0 0.045-0.003 0.067-0.008l1.505-0.371c0.149-0.037 0.241-0.188 0.204-0.338s-0.188-0.24-0.337-0.204zM2.145 14.326l-1.505-0.462c-0.147-0.045-0.302 0.038-0.348 0.185s0.037 0.303 0.184 0.348l1.505 0.463c0.147 0.045 0.303-0.037 0.348-0.185s-0.037-0.303-0.185-0.349zM5.71 8.488c0.107 0.11 0.284 0.113 0.394 0.005s0.113-0.284 0.005-0.394l-1.096-1.124c-0.109-0.103-0.28-0.102-0.387 0.003s-0.113 0.275-0.012 0.387zM12.067 4.736c0.034 0.12 0.143 0.203 0.268 0.203 0.025 0 0.051-0.004 0.076-0.011 0.148-0.042 0.234-0.196 0.193-0.344l-0.433-1.533c-0.043-0.147-0.196-0.232-0.343-0.19s-0.233 0.194-0.193 0.342zM31.788 22.053l-1.505-0.372c-0.149-0.037-0.3 0.054-0.337 0.204s0.054 0.3 0.203 0.337l1.506 0.371c0.022 0.006 0.045 0.009 0.067 0.009 0.125 0 0.239-0.085 0.27-0.212 0.018-0.072 0.006-0.148-0.032-0.211s-0.1-0.109-0.172-0.126zM31.524 14.397c0.147-0.045 0.23-0.201 0.185-0.348s-0.201-0.23-0.348-0.185l-1.505 0.462c-0.131 0.041-0.213 0.172-0.193 0.308s0.137 0.237 0.274 0.238c0.027 0 0.055-0.004 0.082-0.012zM26.091 8.572c0.073 0 0.145-0.028 0.2-0.084l1.097-1.124c0.074-0.070 0.104-0.175 0.077-0.274s-0.105-0.175-0.204-0.199c-0.099-0.024-0.204 0.008-0.272 0.084l-1.096 1.124c-0.052 0.053-0.080 0.124-0.079 0.198s0.031 0.145 0.084 0.196c0.052 0.051 0.122 0.079 0.194 0.079zM19.589 4.929c0.025 0.007 0.051 0.011 0.076 0.011 0.122 0 0.233-0.080 0.268-0.203l0.433-1.533c0.042-0.148-0.045-0.302-0.193-0.344s-0.302 0.045-0.344 0.192l-0.433 1.533c-0.042 0.148 0.044 0.302 0.192 0.344z"></path>
</svg>
