<svg version="1.1" xmlns="http://www.w3.org/2000/svg" viewBox="0 0 32 32">
<title>rbt</title>
<path d="M13.024 15.888h3.326c2.807 0 2.807-1.118 2.807-2.016 0-2.018-1.446-2.018-2.064-2.018h-14.272c-0.050 0.465-0.075 0.933-0.075 1.401 0 3.661 1.482 6.974 3.883 9.372l-0.002 0.001 9.374 9.371 3.321-3.32z"></path>
<path d="M29.254 13.256c0-7.322-5.935-13.256-13.255-13.256-5.341 0-9.93 3.165-12.029 7.715h13.122c4.285 0 6.204 3.093 6.204 6.157 0 2.826-1.396 4.818-3.856 5.679l2.971 6.038 2.96-2.961c2.401-2.398 3.883-5.712 3.883-9.372z"></path>
</svg>
