<svg version="1.1" xmlns="http://www.w3.org/2000/svg" viewBox="0 0 32 32">
<title>rby</title>
<path d="M12.799 28.9c-5.794-1.433-10.090-6.664-10.090-12.9s4.296-11.467 10.090-12.9v-2.779c-7.303 1.483-12.799 7.939-12.799 15.679s5.496 14.196 12.799 15.679zM14.958 2.753c0.344-0.026 0.691-0.044 1.042-0.044 0.531 0 1.055 0.032 1.569 0.092v-2.724c-0.516-0.050-1.040-0.077-1.569-0.077-0.35 0-0.697 0.015-1.042 0.038v2.716z"></path>
<path d="M19.729 0.442v2.8c3.878 1.132 7.023 3.982 8.552 7.673h-3.046c-1.795-3.253-5.257-5.457-9.236-5.457-5.822 0-10.542 4.72-10.542 10.542s4.72 10.542 10.542 10.542c4.397 0 8.163-2.692 9.745-6.518h2.924c-1.334 4.201-4.698 7.497-8.94 8.736v2.798c7.037-1.681 12.271-8.007 12.271-15.558s-5.234-13.878-12.271-15.558zM18.492 22.851l-3.082-4.378h-5.143v-2.69h6.027c1.472 0 2.002-0.922 2.002-2.022s-0.667-2.1-2.159-2.1h-5.87v-2.513h6.184c1.963 0 5.065 0.864 5.065 4.515s-2.749 4.378-2.749 4.378l3.534 4.81z"></path>
<path d="M17.569 29.198c-0.521 0.061-1.045 0.093-1.569 0.093-0.351 0-0.698-0.018-1.042-0.045v2.716c0.345 0.022 0.691 0.038 1.042 0.038 0.53 0 1.053-0.027 1.569-0.078z"></path>
</svg>
