<svg version="1.1" xmlns="http://www.w3.org/2000/svg" viewBox="0 0 32 32">
<title>rhoc</title>
<path d="M14.375 0.082c3.143-0.322 6.377 0.308 9.16 1.806 1.676 0.888 3.184 2.088 4.443 3.507 2.135 2.397 3.514 5.456 3.901 8.642 0.37 2.956-0.108 6.014-1.372 8.712-0.92 1.99-2.262 3.78-3.903 5.232-2.397 2.134-5.456 3.511-8.641 3.899-2.932 0.365-5.962-0.104-8.644-1.344-2.063-0.959-3.81-2.268-5.238-3.867l-0.014-0.015c-2.449-2.72-3.906-6.31-4.051-9.966-0.13-2.867 0.537-5.765 1.905-8.288 0.986-1.837 2.345-3.469 3.957-4.79 2.406-1.974 5.4-3.215 8.496-3.528zM11.816 9.245c-0.701-0.931-1.783-1.602-2.963-1.649-1.232-0.073-2.446 0.513-3.251 1.429-0.611 0.704-0.901 1.636-0.912 2.559-0.003 0.9-0.004 1.967-0.004 3.034 0 0.794 0.001 1.588 0.003 2.382l-0-0.124c-0.021 0.234 0.19 0.398 0.411 0.373 4.992 0.014 9.986-0.016 14.977 0.016-0.016 1.091-0.002 2.183 0.078 3.271-1.424 1.037-3.092 1.768-4.836 2.040-0.227 0.052-0.61-0.009-0.66 0.302-0.022 0.586-0.002 1.174-0.009 1.76-0.033 0.206 0.128 0.417 0.343 0.414 2.109-0.163 4.157-0.944 5.844-2.215 0.624 0.811 1.514 1.45 2.544 1.604 1.455 0.259 2.984-0.443 3.854-1.613 0.551-0.744 0.745-1.686 0.741-2.597-0.005-1.676 0.015-3.351-0.010-5.026 0.019-0.266-0.232-0.401-0.468-0.381-4.976-0.010-9.952 0.006-14.926-0.008-0.029-0.985 0.043-1.975-0.064-2.957-0.011-0.137-0.043-0.323 0.101-0.404 1.524-1.042 3.279-1.797 5.124-2.001 0.2-0.005 0.293-0.231 0.279-0.404 0-0.56 0.014-1.122-0.007-1.681 0.008-0.234-0.223-0.368-0.435-0.326-2.075 0.17-4.087 0.954-5.752 2.202z"></path>
</svg>
