<svg version="1.1" xmlns="http://www.w3.org/2000/svg" viewBox="0 0 32 32">
<title>rvn</title>
<path d="M6.581 32l8.219-6.094-2.956-18.325-5.263 24.419zM11.95 7.438l2.988 18.4 5.006 0.087-8-18.488zM12.069 7.3l8.044 18.625 2.431-17.137-10.475-1.487zM20.294 25.663l3.906-14.756-1.544-1.963-2.363 16.719zM22.5 8.631l-1.019-4.481-9.188 3.025 10.219 1.456zM12.238 7.019l9.25-3.025-2.988-1.313-6.262 4.338zM12.081 6.969l6.313-4.362-5.1 2.050-1.206 2.313zM13.294 4.55l4.787-1.938-4.206 0.138-0.581 1.8zM13.838 2.612l4.275-0.144-2.919-1.313-1.356 1.456zM15.275 1.063l4.669 2.081-2.631-3.081-2.037 1zM17.606 0.188l2.5 2.975 0.538-1.644-3.038-1.331zM20.206 3.212l1.238 0.631-0.681-2.313-0.563 1.688zM17.381 0l3.25 1.337-1.025-1.337h-2.225zM20.894 1.4l0.681 2.519 3.844-1.044-4.525-1.262v-0.206z"></path>
</svg>
