<svg version="1.1" xmlns="http://www.w3.org/2000/svg" viewBox="0 0 32 32">
<title>sar</title>
<path d="M16 7.582l-2.731 4.602-4.526-4.602 7.257 19.436 7.257-19.436-4.526 4.602z"></path>
<path d="M16 0c-8.836 0-16 7.164-16 16s7.164 16 16 16c8.837 0 16-7.163 16-16s-7.163-16-16-16zM29.607 18.43c-0.273 1.529-0.81 3.039-1.629 4.463s-1.855 2.647-3.040 3.651l0.162 1.043c-2.505 1.971-5.665 3.145-9.1 3.145-3.427 0-6.58-1.17-9.083-3.132l0.16-1.043c-1.186-1.003-2.223-2.224-3.045-3.647s-1.361-2.932-1.636-4.461l-0.983-0.383c-0.096-0.684-0.145-1.375-0.145-2.066 0-6.189 3.817-11.487 9.226-13.667l0.826 0.662c1.462-0.526 3.038-0.814 4.681-0.814s3.219 0.287 4.681 0.814l0.826-0.662c5.409 2.181 9.226 7.478 9.226 13.667 0 0.694-0.049 1.377-0.142 2.045z"></path>
</svg>
