<svg version="1.1" xmlns="http://www.w3.org/2000/svg" viewBox="0 0 32 32">
<title>sc</title>
<path d="M15.817 0.001c-3.196 0.036-6.17 1.015-8.657 2.669l0.585 0.741c2.417-1.59 5.315-2.504 8.426-2.47 8.029 0.090 14.621 6.537 14.88 14.562 0.281 8.694-6.852 15.827-15.547 15.547-8.025-0.259-14.472-6.851-14.562-14.88-0.035-3.111 0.88-6.009 2.47-8.426l-0.741-0.585c-1.655 2.487-2.633 5.461-2.669 8.657-0.099 8.744 6.87 15.982 15.63 16.179 9.122 0.206 16.57-7.243 16.365-16.365-0.198-8.76-7.435-15.729-16.179-15.63z"></path>
<path d="M6.588 5.020c0 0.866-0.702 1.569-1.569 1.569s-1.569-0.702-1.569-1.569c0-0.866 0.702-1.569 1.569-1.569s1.569 0.702 1.569 1.569zM20.706 16v4.706h-4.706c-2.599 0-4.706-2.107-4.706-4.706s2.107-4.706 4.706-4.706c2.599 0 4.706 2.107 4.706 4.706zM16.059 8.157c-4.359-0.032-7.902 3.491-7.902 7.843 0 4.332 3.511 7.843 7.843 7.843h7.843v-7.745c0-4.325-3.459-7.909-7.784-7.941z"></path>
</svg>
