<svg version="1.1" xmlns="http://www.w3.org/2000/svg" viewBox="0 0 32 32">
<title>sia</title>
<path d="M5.621 5.059c0.028 0.028 0.056 0.057 0.099 0.085l-0.099-0.085zM6.185 4.509l0.085 0.084c-0.028-0.028-0.056-0.070-0.085-0.084 0-0.014 0 0 0 0z"></path>
<path d="M27.029 12.473c-3.064-1.921-6.891-2.118-10.125-0.607-1.709 0.777-3.771 0.494-5.239-0.819-0.071-0.056-0.127-0.113-0.198-0.184l-6.496-6.496c-0.438-0.48-0.622-1.116-0.551-1.723 0.028-0.127 0.042-0.268 0.042-0.41-0.014-1.243-1.017-2.231-2.245-2.231s-2.217 1.003-2.217 2.217c0 1.229 0.988 2.217 2.217 2.217 0.141 0 0.282-0.014 0.41-0.042 0.621-0.042 1.257 0.127 1.751 0.551l6.524 6.524c0.056 0.056 0.099 0.113 0.141 0.17 1.313 1.469 1.582 3.53 0.805 5.239-1.525 3.22-1.328 7.061 0.607 10.126 0.41 0.664 0.904 1.285 1.468 1.85 1.822 1.822 4.237 2.895 6.623 3.107 0.621 0.056 9.518 0.028 9.518 0.028 0.48 0 0.974-0.24 1.313-0.579s0.622-0.89 0.622-1.37v-8.614c0-0.424-0.099-1.045-0.099-1.13-0.212-2.386-1.229-4.547-3.050-6.369-0.551-0.55-1.172-1.045-1.822-1.454zM27.594 19.689c0.254 1.229 0.268 1.765 0.268 1.85v4.364c0 0.48-0.212 1.045-0.551 1.384s-0.904 0.551-1.384 0.551h-4.236c-0.085 0-1.073-0.014-1.991-0.268-1.031-0.282-1.991-0.833-2.796-1.638-2.5-2.5-2.5-6.553 0-9.052s6.567-2.5 9.052 0c0.791 0.819 1.426 1.765 1.638 2.81z"></path>
</svg>
