<svg version="1.1" xmlns="http://www.w3.org/2000/svg" viewBox="0 0 32 32">
<title>slg</title>
<path d="M30.117 9.703c-0-0.006-0.001-0.012-0.001-0.018-0.001-0.059-0.008-0.118-0.020-0.176l-0-0c-0.026-0.126-0.077-0.245-0.15-0.351-0.035-0.052-0.076-0.1-0.12-0.144l-0.007-0.007c-0.045-0.044-0.095-0.084-0.148-0.119-0.001-0.001-0.002-0.002-0.003-0.003l-13.641-8.884-13.695 8.884c-0.281 0.181-0.451 0.493-0.45 0.828v12.576c0 0.004 0.001 0.008 0.001 0.011 0 0.006 0.001 0.013 0.001 0.019 0.002 0.060 0.008 0.118 0.020 0.175l0.001 0.003c0.026 0.123 0.076 0.24 0.147 0.345 0.001 0.002 0.003 0.004 0.004 0.006 0.035 0.051 0.075 0.099 0.119 0.143 0.003 0.003 0.006 0.005 0.008 0.008 0.045 0.044 0.094 0.083 0.147 0.117 0.001 0.001 0.002 0.002 0.003 0.003l13.695 8.883 13.642-8.884c0.28-0.182 0.449-0.494 0.449-0.828v-12.576c-0-0.003-0-0.007-0-0.010zM3.858 11.281l20.92 10.019h-20.92zM7.221 10.701h20.92v10.019zM25.802 8.724h-19.593l9.816-6.368zM16.025 29.643l-9.816-6.366h19.593z"></path>
</svg>
