<svg version="1.1" xmlns="http://www.w3.org/2000/svg" viewBox="0 0 32 32">
<title>smart</title>
<path d="M2.131 7.993c0.1-0.027 1.113-0.644 1.306-0.748 0.439-0.238 0.872-0.502 1.305-0.749l0.861-0.508c0.147-0.084 0.289-0.158 0.438-0.246l1.090-0.629c0.072-0.041 0.137-0.083 0.212-0.123l0.871-0.498c0.147-0.085 0.286-0.16 0.436-0.249l0.424-0.245c0.077-0.044 0.146-0.084 0.221-0.129l0.432-0.253c0.070-0.042 0.136-0.082 0.212-0.123 0.083-0.045 0.14-0.082 0.222-0.128l5.627-3.242c0.034-0.020 0.191-0.122 0.212-0.122 0.054 0 1.291 0.728 1.532 0.873l4.118 2.379c0.858 0.515 1.731 0.996 2.599 1.493 0.147 0.084 0.287 0.173 0.43 0.255 0.148 0.084 0.286 0.162 0.434 0.251l4.335 2.496c0.146 0.087 0.285 0.158 0.421 0.248v16.035c-0.085 0.020-0.157 0.076-0.234 0.117-0.074 0.039-0.143 0.082-0.211 0.123l-4.759 2.757c-0.713 0.429-1.449 0.817-2.164 1.244l-2.39 1.383c-0.072 0.044-0.138 0.086-0.21 0.124l-0.425 0.244c-0.151 0.085-0.291 0.166-0.436 0.249l-2.605 1.503c-0.298 0.162-0.368 0.307-0.556 0.179l-1.19-0.689c-1-0.601-2.025-1.154-3.030-1.747l-1.522-0.882c-0.425-0.257-0.868-0.488-1.294-0.744-0.075-0.045-0.135-0.081-0.211-0.123l-1.091-0.629c-0.212-0.127-0.424-0.263-0.644-0.375-0.085-0.043-0.139-0.082-0.223-0.127-0.076-0.041-0.14-0.083-0.212-0.122l-0.859-0.494c-0.144-0.083-0.288-0.163-0.434-0.251l-1.736-1.003c-0.114-0.069-1.221-0.729-1.303-0.735v-16.035zM14.858 8.735h-3.744v3.012c0 0.014 0.046 0.059 0.056 0.071s0.020 0.020 0.032 0.032c0.087 0.086 0.165 0.181 0.251 0.268 0.015 0.015 0.018 0.023 0.032 0.038 0.043 0.046 0.087 0.089 0.13 0.135l0.094 0.102c0.001 0.001 0.002 0.002 0.003 0.003l0.028 0.030c0.087 0.087 0.169 0.182 0.254 0.271l0.127 0.139c0.012 0.012 0.021 0.020 0.032 0.032l0.475 0.511c0.001 0.001 0.002 0.002 0.003 0.003l0.214 0.23c0.016 0.016 0.018 0.021 0.032 0.037l1.45 1.555c0.015 0.015 0.017 0.019 0.029 0.034l0.158 0.171c0.098 0.099 0.188 0.204 0.286 0.303 0.015 0.015 0.018 0.023 0.032 0.038 0.011 0.012 0.020 0.020 0.032 0.032l0.124 0.136c0.039 0.039 0.135 0.137 0.16 0.174-0.017 0.026-0.041 0.040-0.061 0.066-0.034 0.045-0.194 0.208-0.249 0.27-0.022 0.025-0.045 0.042-0.065 0.068l-0.094 0.102c-0.012 0.014-0.022 0.022-0.034 0.035l-0.124 0.136c-0.022 0.025-0.045 0.042-0.065 0.068s-0.042 0.044-0.065 0.068l-0.124 0.136c-0.012 0.012-0.020 0.020-0.032 0.032l-0.283 0.306c-0.089 0.088-0.166 0.184-0.254 0.271l-0.125 0.135c-0.019 0.024-0.044 0.043-0.065 0.068l-0.008 0.009c-0.068 0.081-0.18 0.182-0.245 0.263l-0.048 0.050c-0.004 0.005-0.004 0.004-0.008 0.009-0.001 0.001-0.002 0.002-0.003 0.003l-0.321 0.343c-0.013 0.015-0.014 0.020-0.029 0.034-0.012 0.012-0.020 0.020-0.032 0.032l-0.192 0.206c-0.021 0.027-0.039 0.042-0.061 0.066l-0.159 0.17c-0.005 0.005-0.005 0.005-0.008 0.009-0.001 0.001-0.002 0.002-0.003 0.003-0.047 0.056-0.098 0.105-0.148 0.157l-0.236 0.254c-0.004 0.005-0.003 0.004-0.008 0.009l-0.070 0.074c-0.013 0.014-0.015 0.021-0.029 0.035l-0.066 0.067c-0.001 0.001-0.002 0.002-0.003 0.003l-0.22 0.235c-0.015 0.015-0.017 0.019-0.029 0.034-0.010 0.013-0.019 0.020-0.031 0.032l-0.381 0.41c-0.019 0.018-0.056 0.045-0.056 0.076v3.001h3.744v1.079h1.955c0.013 0 0.017-0.004 0.017-0.017v-1.062h4.055v-3.001c0-0.029-0.103-0.017-0.156-0.017h-5.422l0.368-0.405c0.011-0.012 0.021-0.019 0.032-0.032l0.124-0.136c0.013-0.015 0.014-0.020 0.029-0.034 0.065-0.064 0.12-0.138 0.185-0.202 0.012-0.012 0.021-0.020 0.031-0.032 0.012-0.015 0.015-0.020 0.029-0.034l0.149-0.162c0.001-0.001 0.002-0.002 0.003-0.003l0.010-0.013c0.004-0.005 0.004-0.005 0.008-0.009l0.323-0.352c0.007-0.007 0.008-0.008 0.014-0.015 0.084-0.1 0.177-0.193 0.263-0.29 0.012-0.013 0.023-0.022 0.035-0.035 0.072-0.078 0.139-0.16 0.213-0.237l0.152-0.165c0.080-0.095 0.17-0.179 0.25-0.275l0.369-0.404c0.042-0.054 0.18-0.191 0.231-0.253l0.261-0.287c0.058-0.058 0.134-0.152 0.185-0.202 0.025-0.025 0.039-0.045 0.064-0.069l0.372-0.407c0.015-0.015 0.016-0.019 0.029-0.034l0.156-0.168c0.015-0.015 0.016-0.019 0.029-0.034s0.022-0.020 0.033-0.036c-0.025-0.038-0.057-0.069-0.088-0.102l-0.741-0.811c-0.055-0.055-0.1-0.118-0.156-0.173-0.012-0.011-0.021-0.020-0.032-0.032l-0.412-0.453c-0.005-0.005-0.005-0.005-0.008-0.009l-1.152-1.266c-0.085-0.088-0.161-0.185-0.248-0.271l-0.451-0.495c-0.053-0.063-0.112-0.117-0.165-0.181-0.021-0.025-0.042-0.042-0.060-0.067l-0.31-0.342c-0.040-0.046-0.089-0.088-0.123-0.137h5.578v-3.041h-4.044c-0.013 0-0.017-0.004-0.017-0.017v-1.2c-0.658 0-1.309-0.012-1.967-0.012v1.252z"></path>
</svg>
