<svg version="1.1" xmlns="http://www.w3.org/2000/svg" viewBox="0 0 32 32">
<title>sngls</title>
<path d="M17.7 9.634l-0.633-1.036-1.067-1.771-0.633 1.036-1.067 1.771c-2 0.178-3.867 0.624-5.6 1.337-1.756 0.69-3.272 1.42-4.55 2.189s-2.294 1.454-3.050 2.055l-1.1 0.936 1.133 0.936 3.117 2.105c2.078 1.404 3.628 2.15 4.65 2.239 1.8 0.69 3.722 1.125 5.767 1.303l1.333 2.439 1.333-2.439c2.044-0.178 3.967-0.613 5.766-1.303 1.778-0.713 3.328-1.459 4.65-2.239s2.361-1.481 3.117-2.105l1.133-0.936-1.1-0.936c-0.733-0.601-1.745-1.286-3.034-2.055s-2.811-1.498-4.566-2.189c-1.733-0.713-3.6-1.158-5.6-1.337zM18.233 21.129l3.033-5.513-0.8-1.403-3.733 7.051h-1.366l-3.734-7.051-0.8 1.403 3.033 5.513c-1.578-0.223-3.111-0.601-4.6-1.136-1.511-0.557-2.856-1.119-4.033-1.688s-2.122-1.075-2.833-1.52l-1.066-0.635 1.033-0.635c0.667-0.423 1.561-0.908 2.683-1.454s2.405-1.097 3.85-1.654c1.445-0.535 2.922-0.924 4.434-1.169l-0.967 1.604 0.766 1.437 2-3.275h1.6l2.033 3.275 0.767-1.504-0.867-1.537c1.511 0.223 2.989 0.601 4.433 1.136s2.728 1.075 3.85 1.621 2.017 1.030 2.684 1.454c0.689 0.446 1.033 0.679 1.033 0.702s-0.355 0.256-1.066 0.702-1.65 0.947-2.817 1.504c-1.167 0.557-2.494 1.103-3.983 1.637s-3.011 0.914-4.567 1.136z"></path>
</svg>
