<svg version="1.1" xmlns="http://www.w3.org/2000/svg" viewBox="0 0 32 32">
<title>snm</title>
<path d="M16 32c-8.826-0.026-16-7.189-16-16s7.174-15.973 16-16c8.826 0.026 16 7.189 16 16s-7.174 15.982-16 16zM30.189 18.546c-0.247 0.573-0.822 0.978-1.484 0.978-0.212 0-0.422-0.042-0.618-0.123 0.565 0.59 0.919 1.383 0.919 2.256 0 0.255-0.035 0.493-0.088 0.731 0.601-1.215 1.029-2.508 1.272-3.841zM28.704 18.705c0.444 0 0.804-0.359 0.804-0.802s-0.36-0.802-0.804-0.802c-0.444 0-0.804 0.359-0.804 0.802 0.002 0.442 0.36 0.8 0.803 0.802zM29.067 9.938c0.256 0.725 0.388 1.487 0.389 2.256 0.002 1.59-0.562 3.129-1.59 4.344 0.239-0.141 0.521-0.238 0.83-0.238 0.839 0 1.528 0.643 1.599 1.471 0.071-0.581 0.115-1.163 0.115-1.762 0.010-2.098-0.449-4.172-1.343-6.070zM28.245 12.185c0-3.057-2.491-5.551-5.566-5.551-3.066 0-5.566 2.485-5.566 5.551 0 3.057 2.491 5.551 5.566 5.551 3.066 0 5.566-2.494 5.566-5.551zM22.458 21.656c-0-1.208 0.67-2.317 1.741-2.881-1.358 0.316-2.781 0.205-4.073-0.317 1.1 0.843 1.914 2.003 2.332 3.322 0.009-0.053 0-0.088 0-0.123zM22.776 23.806c-0.001 0.535-0.067 1.067-0.194 1.586 0.264-0.528 0.804-0.862 1.396-0.863 0.083-0 0.166 0.009 0.247 0.026-0.681-0.351-1.219-0.927-1.52-1.63 0.046 0.291 0.070 0.586 0.071 0.881zM25.727 23.709c1.14 0 2.067-0.925 2.067-2.053 0-1.137-0.928-2.053-2.067-2.053s-2.059 0.926-2.059 2.053c0 1.136 0.928 2.053 2.059 2.053zM27.087 17.912c0.002-0.271 0.072-0.538 0.203-0.775-0.586 0.542-1.262 0.98-1.997 1.295 0.141-0.018 0.283-0.035 0.433-0.035 0.588-0.001 1.165 0.157 1.67 0.458-0.201-0.273-0.309-0.604-0.308-0.943zM15.999 17.040c0.872-0.001 1.736 0.167 2.544 0.493-1.358-1.042-2.268-2.56-2.544-4.247-0.283 1.727-1.219 3.225-2.544 4.247 0.786-0.308 1.643-0.493 2.544-0.493zM15.999 8.062c-0.616 0.001-1.22-0.173-1.74-0.502 0.918 0.97 1.524 2.191 1.741 3.506 0.222-1.314 0.828-2.534 1.741-3.507-0.52 0.329-1.124 0.504-1.741 0.502zM19.304 4.767c-0 0.738-0.249 1.455-0.707 2.035 0.686-0.519 1.466-0.902 2.297-1.128-0.035 0-0.062 0.009-0.088 0.009-0.68 0-1.264-0.423-1.502-1.022-0.008 0.035 0.001 0.071 0.001 0.106zM21.813 2.82c0.362 0.3 0.601 0.74 0.601 1.242 0.001 0.638-0.377 1.215-0.963 1.471 0.405-0.074 0.816-0.112 1.228-0.115 2.076 0 3.923 0.934 5.168 2.388-1.518-2.179-3.604-3.904-6.033-4.987zM20.797 3.269c-0.444 0-0.804 0.359-0.804 0.802s0.36 0.802 0.804 0.802c0.444 0 0.804-0.359 0.804-0.802-0.001-0.442-0.36-0.8-0.803-0.802zM16.998 1.621c1.082 0.345 1.91 1.22 2.191 2.317 0.062-0.828 0.751-1.489 1.599-1.489 0.053 0.002 0.107 0.007 0.159 0.018-1.237-0.458-2.571-0.74-3.949-0.846zM13.915 4.767c0 1.145 0.936 2.079 2.085 2.079s2.085-0.934 2.085-2.079c0-1.145-0.936-2.079-2.085-2.079s-2.085 0.934-2.085 2.079zM11.044 2.467c0.052-0.010 0.106-0.016 0.159-0.018 0.848 0 1.537 0.652 1.599 1.489 0.281-1.097 1.109-1.973 2.191-2.317-1.378 0.106-2.704 0.388-3.949 0.846zM12.696 4.767c-0.001-0.035 0.001-0.071 0.009-0.106-0.239 0.599-0.822 1.022-1.502 1.022-0.035 0-0.062-0.009-0.088-0.009 0.83 0.228 1.61 0.61 2.297 1.128-0.464-0.577-0.716-1.295-0.716-2.035zM10.399 4.071c0 0.443 0.36 0.802 0.804 0.802s0.804-0.359 0.804-0.802c0-0.443-0.36-0.802-0.804-0.802-0.443 0.002-0.802 0.36-0.804 0.802zM4.152 7.815c1.246-1.463 3.092-2.388 5.168-2.388 0.412 0.002 0.823 0.040 1.228 0.115-0.515-0.224-0.875-0.7-0.949-1.255s0.148-1.109 0.587-1.459c-2.438 1.075-4.532 2.819-6.034 4.987zM3.755 12.185c0 3.057 2.492 5.551 5.566 5.551 3.066 0 5.566-2.485 5.566-5.551 0-3.057-2.492-5.551-5.566-5.551-3.066 0.009-5.566 2.493-5.566 5.551zM9.542 21.656c0 0.035-0.009 0.080-0.009 0.114 0.421-1.318 1.235-2.477 2.332-3.321-1.292 0.522-2.715 0.633-4.073 0.317 1.043 0.555 1.75 1.639 1.75 2.89zM4.912 17.912c0.002 0.341-0.11 0.672-0.318 0.943 0.505-0.301 1.082-0.459 1.67-0.457 0.145-0.002 0.29 0.010 0.433 0.035-0.738-0.308-1.415-0.747-1.997-1.296 0.139 0.235 0.212 0.503 0.212 0.775zM4.205 21.656c0 1.136 0.928 2.053 2.059 2.053 1.14 0 2.059-0.925 2.059-2.053 0-1.137-0.928-2.053-2.059-2.053-1.131-0.009-2.058 0.916-2.058 2.053zM7.766 24.555c0.080-0.009 0.159-0.026 0.247-0.026 0.592 0.001 1.132 0.335 1.396 0.863-0.128-0.519-0.193-1.051-0.194-1.586 0.003-0.298 0.023-0.595 0.062-0.89-0.295 0.707-0.829 1.287-1.511 1.639zM1.696 17.762c0.071-0.819 0.76-1.471 1.599-1.471 0.294 0.002 0.581 0.084 0.831 0.238-1.028-1.215-1.592-2.754-1.59-4.344 0-0.793 0.141-1.542 0.389-2.256-0.866 1.841-1.343 3.903-1.343 6.070 0.002 0.589 0.040 1.178 0.115 1.762zM3.296 17.11c-0.444 0-0.804 0.359-0.804 0.802s0.36 0.802 0.804 0.802 0.804-0.359 0.804-0.802c-0.002-0.442-0.361-0.8-0.804-0.802zM2.996 21.657c-0.001-0.843 0.329-1.652 0.919-2.256-0.196 0.082-0.406 0.124-0.618 0.123-0.663 0-1.237-0.405-1.484-0.978 0.247 1.356 0.672 2.643 1.272 3.841-0.054-0.238-0.089-0.476-0.089-0.731zM7.13 24.802c-0.274 0.080-0.565 0.115-0.866 0.115-0.857 0-1.634-0.335-2.218-0.872 0.77 1.138 1.698 2.161 2.756 3.040-0.221-0.273-0.362-0.608-0.362-0.987 0-0.519 0.258-1.004 0.688-1.295zM7.254 26.097c0 0.418 0.34 0.758 0.76 0.758s0.76-0.339 0.76-0.758c0-0.419-0.34-0.758-0.76-0.758-0.419 0.003-0.757 0.34-0.76 0.758zM14.048 30.282c-2.103-0.638-3.768-2.249-4.47-4.326 0 0.044 0.018 0.088 0.018 0.141 0.002 0.54-0.275 1.043-0.733 1.33s-1.033 0.317-1.52 0.080c1.917 1.445 4.214 2.432 6.706 2.775zM21.557 23.806c0-3.057-2.491-5.542-5.557-5.551-3.066 0-5.557 2.485-5.557 5.551s2.491 5.542 5.557 5.551c3.066-0.009 5.557-2.494 5.557-5.551zM24.667 27.507c-0.486 0.237-1.061 0.207-1.52-0.080s-0.736-0.79-0.733-1.329c0.001-0.047 0.007-0.095 0.018-0.141-0.702 2.077-2.367 3.688-4.47 4.326 2.483-0.344 4.78-1.331 6.706-2.776zM24.747 26.097c0-0.419-0.34-0.758-0.76-0.758s-0.76 0.339-0.76 0.758c0 0.418 0.34 0.758 0.76 0.758 0.418-0.003 0.756-0.341 0.759-0.758zM27.954 24.044c-0.583 0.537-1.36 0.872-2.218 0.872-0.292-0.002-0.583-0.040-0.866-0.115 0.431 0.291 0.689 0.776 0.689 1.295 0 0.379-0.141 0.714-0.362 0.987 1.058-0.878 1.986-1.902 2.756-3.040z"></path>
</svg>
