<svg version="1.1" xmlns="http://www.w3.org/2000/svg" viewBox="0 0 32 32">
<title>snt</title>
<path d="M10.722 14.067c-0.534 0-1.080 0.028-1.637 0.084s-1.102 0.117-1.636 0.183c0.223-2.022 0.79-3.911 1.703-5.666s2.077-3.272 3.491-4.55c1.414-1.278 3.034-2.283 4.86-3.017 1.804-0.733 3.73-1.1 5.778-1.1 1.247 0 2.383 0.156 3.407 0.467 1.046 0.311 1.937 0.772 2.672 1.383s1.303 1.395 1.704 2.35c0.401 0.933 0.601 2.022 0.601 3.267s-0.245 2.333-0.735 3.267c-0.49 0.933-1.18 1.711-2.071 2.333s-1.948 1.089-3.173 1.4-2.583 0.467-4.075 0.467c-2.182 0-3.997-0.145-5.445-0.433s-3.262-0.433-5.445-0.433zM10.388 17.067c-1.492 0-2.862 0.156-4.109 0.467-1.225 0.311-2.277 0.772-3.156 1.384s-1.564 1.394-2.054 2.35c-0.49 0.933-0.735 2.022-0.735 3.267s0.2 2.333 0.601 3.267c0.401 0.933 0.969 1.711 1.704 2.334s1.626 1.089 2.672 1.4c1.024 0.311 2.16 0.467 3.407 0.467 2.049 0 3.975-0.366 5.778-1.1 1.826-0.733 3.446-1.739 4.86-3.017s2.577-2.795 3.491-4.55c0.913-1.756 1.481-3.644 1.703-5.666-0.534 0.089-1.080 0.155-1.636 0.2s-1.102 0.067-1.637 0.067c-2.182 0-3.997-0.145-5.445-0.433s-3.262-0.433-5.445-0.433z"></path>
</svg>
