<svg version="1.1" xmlns="http://www.w3.org/2000/svg" viewBox="0 0 32 32">
<title>stash</title>
<path d="M5.098 6.035c0.993-1.421 2.44-2.525 4.34-3.322s4.169-1.19 6.806-1.19c2.183 0 4.126 0.24 5.813 0.719l-0.043-0.017 1.267-2.226h1.712l0.856 1.481-1.053 1.849-0.017-0.009c0.736 0.394 1.472 0.856 2.183 1.404v3.878l-3.536 2.046c-0.813-0.736-1.661-1.31-2.543-1.712-1.293-0.582-2.774-0.873-4.443-0.873-1.216 0-2.166 0.197-2.851 0.599-0.685 0.394-1.019 0.925-1.019 1.575 0 0.514 0.351 0.907 1.062 1.19 0.574 0.231 1.455 0.471 2.645 0.719l-3.416 5.915c-0.411 0.719-1.267 1.062-2.063 0.83-0.659-0.197-1.267-0.394-1.823-0.616-1.55-0.599-2.825-1.481-3.852-2.662s-1.532-2.739-1.532-4.7c0.017-1.832 0.514-3.467 1.507-4.88zM26.791 26.41c-1.079 1.335-2.534 2.337-4.383 3.022-1.841 0.685-3.929 1.019-6.249 1.019-2.611 0-4.811-0.223-6.609-0.676l-1.267 2.226h-1.712l-0.856-1.481 1.010-1.781c-0.736-0.36-1.455-0.779-2.157-1.25v-3.938l3.587-2.072c0.779 0.668 1.609 1.181 2.5 1.549 1.404 0.582 3.056 0.873 4.957 0.873 2.577 0 3.869-0.625 3.869-1.875 0-0.539-0.377-0.967-1.13-1.276-0.668-0.282-1.712-0.556-3.116-0.839l3.441-5.958c0.411-0.711 1.258-1.053 2.055-0.83 1.139 0.325 2.132 0.685 2.979 1.096 1.627 0.779 2.825 1.764 3.57 2.953 0.753 1.19 1.13 2.662 1.13 4.426 0 1.875-0.539 3.476-1.618 4.811z"></path>
</svg>
