<svg version="1.1" xmlns="http://www.w3.org/2000/svg" viewBox="0 0 32 32">
<title>steem</title>
<path d="M5.23 3.464c-0.325-0.155-4.332 3.161-4.332 5.602 0 3.33 4.685 10.893 5.475 13.815 0.677 2.512-1.157 5.517-0.649 5.658 0.466 0.297 4.84-4.134 5.009-6.025 0.226-3.006-5.108-11.783-5.531-14.040-0.508-2.639 0.381-4.953 0.028-5.009zM15.248 0.007c-0.409-0.197-5.531 4.022-5.531 7.14 0 4.261 5.969 13.899 6.985 17.624 0.861 3.203-1.468 7.041-0.833 7.21 0.593 0.381 6.167-5.263 6.378-7.676 0.282-3.838-6.519-15.014-7.055-17.907-0.621-3.358 0.508-6.307 0.056-6.392zM25.592 3.464c-0.311-0.155-4.332 3.161-4.332 5.602 0 3.33 4.685 10.893 5.475 13.815 0.677 2.512-1.157 5.517-0.649 5.658 0.466 0.297 4.84-4.134 5.009-6.025 0.226-3.006-5.108-11.783-5.531-14.040-0.494-2.639 0.381-4.953 0.028-5.009z"></path>
</svg>
