<svg version="1.1" xmlns="http://www.w3.org/2000/svg" viewBox="0 0 32 32">
<title>storj</title>
<path d="M28.946 20.392c-0.067-0.044-0.117-0.089-0.15-0.133s-0.050-0.122-0.050-0.233v-8.195c0-0.089 0.017-0.161 0.050-0.217s0.083-0.105 0.15-0.15c0.422-0.244 0.744-0.555 0.967-0.933s0.333-0.822 0.333-1.333c0-0.067-0.006-0.139-0.017-0.216s-0.028-0.161-0.050-0.25c-0.178-0.888-0.667-1.51-1.467-1.866s-1.589-0.3-2.367 0.167c-0.089 0.044-0.161 0.067-0.217 0.067s-0.128-0.022-0.217-0.067c-1.151-0.664-2.302-1.33-3.45-1.999-1.157-0.674-2.318-1.34-3.483-1.999-0.134-0.089-0.228-0.172-0.284-0.25s-0.083-0.194-0.083-0.35c0-0.067-0.006-0.122-0.017-0.166-0.012-0.046-0.028-0.091-0.050-0.133-0.067-0.6-0.345-1.105-0.834-1.516s-1.022-0.617-1.6-0.617c-0.756-0.044-1.4 0.189-1.934 0.7s-0.8 1.144-0.8 1.899c0 0.089-0.017 0.161-0.050 0.216s-0.084 0.105-0.15 0.15c-1.194 0.685-2.388 1.368-3.584 2.049s-2.39 1.364-3.584 2.049c-0.044 0.044-0.094 0.067-0.15 0.067s-0.105-0.022-0.15-0.067c-0.267-0.155-0.545-0.261-0.834-0.317s-0.589-0.072-0.9-0.050c-0.555 0.089-1.028 0.317-1.417 0.683s-0.639 0.838-0.75 1.416c-0.111 0.555-0.055 1.072 0.167 1.549s0.589 0.86 1.1 1.149c0.089 0.067 0.15 0.122 0.183 0.166s0.050 0.111 0.050 0.2v8.228c0 0.111-0.017 0.189-0.050 0.233s-0.094 0.089-0.183 0.133c-0.511 0.289-0.867 0.672-1.067 1.149s-0.256 1.005-0.167 1.582c0.178 0.866 0.672 1.482 1.484 1.849s1.617 0.316 2.417-0.15c0.067-0.022 0.128-0.033 0.183-0.033s0.117 0.011 0.183 0.033c1.196 0.686 2.391 1.375 3.584 2.066 1.189 0.688 2.383 1.366 3.584 2.032 0.045 0.022 0.084 0.061 0.117 0.116s0.050 0.128 0.050 0.217v0.3l0.033 0.333c0.133 0.666 0.472 1.188 1.017 1.566s1.15 0.533 1.817 0.466c0.645-0.067 1.189-0.355 1.634-0.866s0.667-1.099 0.667-1.765c0-0.111 0.017-0.189 0.050-0.233s0.084-0.089 0.15-0.133c1.182-0.669 2.361-1.346 3.534-2.032 1.165-0.681 2.331-1.358 3.5-2.032 0.089-0.045 0.166-0.067 0.233-0.067s0.134 0.022 0.2 0.067c0.267 0.178 0.556 0.288 0.867 0.333s0.611 0.044 0.9 0c0.533-0.111 0.994-0.361 1.384-0.749s0.616-0.827 0.683-1.316c0.134-0.6 0.095-1.149-0.116-1.649s-0.561-0.883-1.050-1.149zM27.879 24.723c-0.645 0.089-1.195-0.089-1.65-0.533s-0.683-0.977-0.683-1.599c0-0.111-0.017-0.195-0.050-0.25s-0.105-0.116-0.217-0.183c-0.566-0.317-1.133-0.634-1.7-0.949-0.585-0.326-1.163-0.665-1.733-1.016-0.045-0.022-0.095-0.033-0.15-0.033s-0.105 0.011-0.15 0.033c-0.422 0.266-0.861 0.416-1.317 0.45s-0.906-0.050-1.35-0.25c-0.089-0.022-0.172-0.033-0.25-0.033s-0.172 0.011-0.283 0.033c-0.222 0.067-0.439 0.122-0.65 0.167-0.215 0.045-0.432 0.078-0.65 0.1-0.067 0.044-0.128 0.078-0.183 0.1s-0.084 0.078-0.084 0.166v6.296c0 0.089 0.017 0.15 0.050 0.183s0.095 0.061 0.183 0.083c0.445 0.244 0.756 0.566 0.933 0.966s0.233 0.777 0.167 1.133c-0.067 0.489-0.256 0.899-0.567 1.233s-0.7 0.544-1.166 0.633c-0.578 0.089-1.106-0.044-1.584-0.4s-0.772-0.811-0.883-1.366c-0.089-0.489-0.017-0.938 0.217-1.349s0.539-0.705 0.917-0.883c0.067-0.044 0.105-0.089 0.117-0.134s0.017-0.111 0.017-0.2v-6.462c0-0.067-0.011-0.128-0.034-0.183s-0.078-0.094-0.166-0.116l-0.4-0.2-0.4-0.167c-0.044-0.044-0.094-0.067-0.15-0.067h-0.183c-0.445 0.134-0.889 0.183-1.334 0.15s-0.889-0.15-1.333-0.35c-0.067-0.044-0.128-0.067-0.183-0.067s-0.117 0.022-0.183 0.067l-2.067 1.199-2.1 1.199c-0.067 0.044-0.128 0.1-0.183 0.166s-0.084 0.144-0.084 0.233c0 0.6-0.2 1.105-0.6 1.516s-0.889 0.616-1.467 0.616c-0.667 0-1.195-0.233-1.584-0.699s-0.572-0.977-0.55-1.533c0.022-0.466 0.228-0.922 0.616-1.366s0.917-0.666 1.584-0.666c0.2 0 0.389 0.039 0.567 0.116s0.356 0.172 0.534 0.283c0.022 0.022 0.067 0.033 0.133 0.033s0.111-0.011 0.133-0.033c0.649-0.38 1.299-0.758 1.95-1.133s1.302-0.753 1.95-1.133l0.033-0.017 0.034-0.017c-0.534-0.911-0.756-1.782-0.667-2.615s0.5-1.638 1.233-2.415c-0.111-0.044-0.217-0.1-0.317-0.166-0.104-0.069-0.21-0.136-0.317-0.2-0.635-0.372-1.274-0.739-1.917-1.099-0.629-0.353-1.257-0.708-1.883-1.066-0.067-0.067-0.128-0.094-0.183-0.083s-0.117 0.039-0.183 0.083c-0.645 0.4-1.311 0.444-2 0.133s-1.089-0.844-1.2-1.599c-0.111-0.577 0.011-1.099 0.367-1.566s0.822-0.755 1.4-0.866c0.622-0.111 1.156 0.011 1.6 0.367s0.711 0.799 0.8 1.332c0 0.044 0.011 0.094 0.033 0.15s0.033 0.117 0.033 0.183c-0.044 0.133-0.039 0.244 0.017 0.333s0.15 0.166 0.283 0.233c0.867 0.489 1.717 0.972 2.55 1.449 0.84 0.481 1.679 0.964 2.517 1.449 0.067 0.022 0.133 0.033 0.2 0.033h0.4c0.289 0 0.539-0.050 0.75-0.15s0.417-0.228 0.617-0.383c0.2-0.155 0.406-0.283 0.617-0.383 0.209-0.099 0.415-0.204 0.617-0.316 0.089-0.022 0.15-0.050 0.183-0.084s0.050-0.105 0.050-0.216v-6.496c0-0.089-0.022-0.156-0.067-0.2s-0.1-0.089-0.167-0.133c-0.422-0.133-0.728-0.378-0.917-0.733s-0.272-0.711-0.25-1.066c0.044-0.489 0.195-0.888 0.45-1.199s0.617-0.533 1.084-0.666c0.511-0.178 1.006-0.15 1.483 0.084s0.828 0.594 1.050 1.083c0.2 0.466 0.217 0.955 0.050 1.466s-0.472 0.888-0.917 1.133c-0.134 0.089-0.222 0.178-0.267 0.267s-0.067 0.2-0.067 0.333v5.863c0 0.178 0.017 0.283 0.050 0.317s0.15 0.072 0.35 0.117c0.533 0.067 1.033 0.206 1.5 0.416s0.889 0.516 1.267 0.916c0.044 0.044 0.094 0.078 0.15 0.1s0.128 0 0.217-0.067c0.831-0.472 1.659-0.949 2.484-1.432 0.833-0.488 1.672-0.966 2.517-1.432 0.089-0.067 0.15-0.128 0.183-0.183s0.050-0.117 0.050-0.183c0-0.533 0.15-1 0.45-1.399s0.717-0.644 1.25-0.733c0.622-0.133 1.183-0.011 1.683 0.367s0.773 0.877 0.817 1.499c0.067 0.555-0.078 1.049-0.433 1.482s-0.8 0.694-1.334 0.783c-0.267 0.067-0.528 0.072-0.783 0.017s-0.506-0.161-0.75-0.317c-0.044-0.067-0.1-0.1-0.167-0.1s-0.133 0.033-0.2 0.1c-0.829 0.47-1.657 0.942-2.483 1.416s-1.655 0.946-2.483 1.416c-0.089 0.044-0.145 0.089-0.167 0.133s0 0.122 0.067 0.233c0.044 0.111 0.195 0.377 0.45 0.799s0.428 0.666 0.517 0.733c0.4 0.422 0.656 0.877 0.767 1.366s0.078 1.010-0.1 1.566c-0.022 0.089-0.028 0.161-0.017 0.216s0.061 0.105 0.15 0.15c0.53 0.331 1.069 0.648 1.616 0.949 0.543 0.299 1.082 0.604 1.617 0.916 0.089 0.067 0.161 0.094 0.217 0.084s0.106-0.039 0.15-0.084c0.644-0.4 1.3-0.455 1.967-0.166s1.078 0.788 1.233 1.499c0.222 0.577 0.15 1.121-0.217 1.632s-0.861 0.788-1.483 0.833zM20.645 15.829c-0.134-0.089-0.233-0.178-0.3-0.267s-0.111-0.2-0.133-0.333c-0.134-0.689-0.411-1.266-0.834-1.732s-0.967-0.811-1.634-1.033c-0.689-0.222-1.339-0.261-1.95-0.117s-1.183 0.472-1.717 0.983c-0.133 0.089-0.25 0.161-0.35 0.216s-0.239 0.083-0.416 0.083c-0.889-0.044-1.633 0.294-2.234 1.016s-0.778 1.527-0.533 2.415c0.2 0.755 0.656 1.327 1.367 1.716s1.445 0.45 2.2 0.183c0.089-0.022 0.172-0.033 0.25-0.033s0.161 0.033 0.25 0.1c0.555 0.333 1.122 0.528 1.7 0.583s1.167-0.050 1.767-0.317c0.111-0.022 0.2-0.044 0.267-0.067s0.156 0 0.267 0.067c0.2 0.133 0.411 0.216 0.634 0.25s0.456 0.017 0.7-0.050c0.422-0.067 0.783-0.255 1.083-0.566s0.483-0.688 0.55-1.133c0.067-0.355 0.011-0.722-0.167-1.099s-0.433-0.666-0.767-0.866zM27.679 22.058c-0.156 0-0.294 0.055-0.417 0.166s-0.183 0.256-0.183 0.433c0 0.155 0.061 0.288 0.183 0.4s0.261 0.166 0.417 0.166 0.289-0.061 0.4-0.183c0.111-0.122 0.167-0.25 0.167-0.383 0-0.178-0.056-0.322-0.167-0.433s-0.244-0.166-0.4-0.166zM16.044 3.137c0.156 0 0.294-0.055 0.417-0.167s0.183-0.255 0.183-0.433c0-0.156-0.061-0.289-0.183-0.4s-0.261-0.167-0.417-0.167-0.294 0.055-0.417 0.167c-0.122 0.111-0.183 0.244-0.183 0.4 0 0.178 0.061 0.322 0.183 0.433s0.261 0.167 0.417 0.167zM4.41 22.058c-0.155 0-0.3 0.055-0.433 0.166s-0.2 0.256-0.2 0.433c0 0.155 0.056 0.294 0.167 0.416s0.256 0.194 0.433 0.216c0.156 0 0.289-0.061 0.4-0.183s0.166-0.261 0.166-0.416c0.023-0.2-0.011-0.355-0.1-0.466s-0.233-0.166-0.433-0.166zM16.044 28.72c-0.156 0-0.294 0.055-0.417 0.167s-0.183 0.255-0.183 0.433c0 0.155 0.061 0.288 0.183 0.399s0.261 0.167 0.417 0.167 0.294-0.055 0.417-0.167c0.122-0.111 0.183-0.244 0.183-0.399 0-0.178-0.061-0.322-0.183-0.433s-0.261-0.167-0.417-0.167zM4.41 8.633c-0.155 0-0.289 0.055-0.4 0.166s-0.166 0.244-0.166 0.4c0 0.178 0.055 0.322 0.166 0.433s0.267 0.166 0.467 0.166c0.178 0 0.317-0.055 0.417-0.166s0.15-0.255 0.15-0.433c-0.022-0.155-0.095-0.289-0.217-0.4s-0.261-0.166-0.417-0.166zM27.679 9.799c0.156 0 0.294-0.055 0.417-0.166s0.195-0.255 0.217-0.433c0-0.155-0.055-0.288-0.167-0.4s-0.256-0.166-0.433-0.166c-0.178 0-0.317 0.050-0.416 0.15s-0.15 0.239-0.15 0.416c-0.022 0.2 0.011 0.35 0.1 0.45s0.233 0.15 0.433 0.15z"></path>
</svg>
