<svg version="1.1" xmlns="http://www.w3.org/2000/svg" viewBox="0 0 32 32">
<title>str</title>
<path d="M8.155 25.184c-0.195-0.139-0.466-0.094-0.605 0.102l-4.29 6.025c-0.092 0.126-0.109 0.292-0.044 0.434s0.2 0.239 0.355 0.253c0.156 0.014 0.306-0.056 0.396-0.184l4.29-6.025c0.139-0.195 0.094-0.466-0.101-0.605zM9.192 27.161c-0.195-0.14-0.466-0.095-0.605 0.099l-2.386 3.326c-0.067 0.094-0.094 0.21-0.076 0.323s0.082 0.215 0.175 0.282c0.195 0.14 0.466 0.095 0.606-0.099l2.386-3.326c0.14-0.195 0.095-0.466-0.1-0.605zM28.823 5.702c0-2.892-0.988-5.688-0.988-5.688s-3.688-0.253-6.773 1.41c-3.085 1.663-4.254 3.784-4.832 4.76s-1.784 3.061-1.784 3.061-2.639-0.048-4.724 1.109c-2.085 1.157-3.362 3.326-3.362 3.326s1.386-0.398 2.711-0.362c1.326 0.037 2.651 0.591 2.651 0.591s-0.313 0.47-0.253 1.157c0.027 0.302 0.43 0.731 0.985 1.199-0.087 0.114-0.172 0.23-0.256 0.347-1.979 2.797-2.431 5.879-1.010 6.885s4.179-0.445 6.158-3.241c0.063-0.089 0.125-0.179 0.185-0.269 0.504 0.317 0.936 0.527 1.204 0.514 0.711-0.036 1.326-0.783 1.326-0.783s1.356 1.717 1.699 2.585c0.344 0.868 0.47 2.422 0.47 2.422s1.518-1.79 1.998-4.433c0.48-2.644-0.696-4.515-0.696-4.515s1.337-1.639 2.711-3.302c1.374-1.663 2.579-3.881 2.579-6.773zM16.881 19.606c-1.311 1.775-3.18 2.617-4.176 1.882s-0.739-2.77 0.572-4.545c0.005-0.008 0.011-0.014 0.016-0.021 0.53 0.395 1.092 0.789 1.564 1.131 0.621 0.451 1.365 1.031 2.051 1.513-0.009 0.013-0.018 0.026-0.027 0.039zM21.894 10.51c-1.631 0-2.953-1.322-2.953-2.952s1.322-2.953 2.953-2.953c1.631 0 2.952 1.322 2.952 2.953s-1.322 2.952-2.952 2.952z"></path>
</svg>
