<svg version="1.1" xmlns="http://www.w3.org/2000/svg" viewBox="0 0 32 32">
<title>swift</title>
<path d="M15.746 0l-6.406 3.697 6.406 3.697zM8.649 11.499v-7.407l-6.406 3.697zM8.649 19.725v-7.393l-6.406 3.697zM22.857 19.725v-7.393l-6.406 3.697zM8.649 27.951v-7.394l-6.406 3.697zM2.032 16.437v7.393l6.405-3.697zM2.032 8.212v7.393l6.405-3.697zM9.143 4.092v7.407l6.405-3.711zM15.746 32v-7.393l-6.406 3.697zM9.143 20.501v7.393l6.405-3.697zM16.254 0v7.393l6.406-3.697zM23.351 4.092v7.407l6.391-3.711zM23.351 12.332v7.393l6.391-3.697zM23.351 27.951l6.391-3.697-6.391-3.697zM29.968 23.831v-7.393l-6.406 3.697zM23.563 11.908l6.406 3.697v-7.393zM22.857 11.499v-7.407l-6.406 3.697zM16.254 32l6.406-3.697-6.406-3.697zM22.857 27.894v-7.393l-6.406 3.697z"></path>
</svg>
