<svg version="1.1" xmlns="http://www.w3.org/2000/svg" viewBox="0 0 32 32">
<title>swt</title>
<path d="M8.050 12.353c0 0.333-0.122 0.616-0.366 0.849s-0.532 0.35-0.865 0.35c-0.332 0-0.621-0.117-0.865-0.35s-0.366-0.516-0.366-0.849c0-0.355 0.122-0.649 0.366-0.882s0.532-0.35 0.865-0.35c0.333 0 0.621 0.117 0.865 0.35s0.366 0.527 0.366 0.882zM31.933 15.917v-0.45l-0.067-0.25c-0.022-0.311-0.072-0.621-0.15-0.932-0.078-0.312-0.161-0.623-0.249-0.933-0.067-0.155-0.133-0.305-0.2-0.449s-0.133-0.283-0.2-0.417c-0.067-0.133-0.144-0.266-0.233-0.4s-0.188-0.266-0.299-0.4c-0.177-0.266-0.383-0.505-0.615-0.716s-0.482-0.416-0.749-0.616c-0.532-0.333-1.109-0.594-1.73-0.782s-1.231-0.294-1.83-0.316c-0.332 0-0.649 0.006-0.948 0.017s-0.604 0.039-0.915 0.083c-0.311 0.044-0.61 0.1-0.898 0.167s-0.577 0.155-0.865 0.266c-0.288 0.067-0.571 0.161-0.848 0.283-0.28 0.123-0.563 0.24-0.849 0.35l-0.798 0.4-0.798 0.466c-0.506 0.308-1 0.636-1.48 0.982-0.477 0.344-0.926 0.705-1.347 1.082-0.222 0.178-0.438 0.372-0.649 0.583s-0.427 0.405-0.649 0.583c-0.2 0.222-0.394 0.438-0.582 0.65-0.194 0.217-0.388 0.433-0.582 0.649-0.111 0.089-0.205 0.189-0.283 0.3-0.079 0.114-0.163 0.225-0.25 0.333l-0.033 0.033c-0.244-0.178-0.471-0.355-0.682-0.533-0.207-0.175-0.413-0.352-0.616-0.533-0.399-0.333-0.743-0.638-1.031-0.916s-0.532-0.516-0.732-0.716c-0.2-0.2-0.355-0.35-0.466-0.449l-0.166-0.15-0.1 0.1 0.133 0.167 0.399 0.533c0.089 0.111 0.188 0.233 0.299 0.366s0.222 0.278 0.332 0.433c0.133 0.155 0.283 0.322 0.449 0.5s0.338 0.366 0.516 0.566c0.089 0.111 0.183 0.211 0.283 0.3s0.205 0.189 0.316 0.3c0.089 0.111 0.188 0.216 0.299 0.316s0.222 0.205 0.332 0.316l-0.033 0.033-0.033 0.033c-0.155 0.2-0.322 0.394-0.499 0.583s-0.366 0.383-0.565 0.583c-0.178 0.178-0.361 0.35-0.549 0.516s-0.394 0.328-0.616 0.483c-0.177 0.155-0.371 0.3-0.582 0.433s-0.427 0.255-0.649 0.366c-0.421 0.244-0.843 0.433-1.264 0.566s-0.857 0.212-1.297 0.233h-1.264c-0.222-0.022-0.427-0.056-0.615-0.1s-0.394-0.1-0.615-0.166c-0.399-0.133-0.765-0.294-1.098-0.483s-0.621-0.416-0.865-0.683c-0.266-0.244-0.477-0.516-0.632-0.816s-0.266-0.616-0.332-0.949c0-0.044-0.006-0.083-0.017-0.116s-0.017-0.061-0.017-0.083v-0.633c0-0.178 0.011-0.344 0.033-0.5s0.044-0.3 0.066-0.433c0.044-0.333 0.122-0.627 0.233-0.883s0.244-0.472 0.399-0.649c0.089-0.111 0.172-0.206 0.25-0.283s0.15-0.161 0.216-0.25c0.089-0.089 0.172-0.161 0.249-0.217 0.079-0.056 0.163-0.106 0.249-0.15 0.067-0.066 0.2-0.15 0.399-0.25s0.344-0.183 0.433-0.25c0.133-0.044 0.244-0.089 0.332-0.133s0.177-0.067 0.266-0.067c0.089-0.022 0.144-0.039 0.166-0.050l0.033-0.017-0.033-0.1-0.050 0.017-0.183 0.050c-0.066 0.022-0.155 0.039-0.266 0.050s-0.233 0.050-0.366 0.117c-0.133-0.044-0.288-0.033-0.466 0.033s-0.355 0.144-0.532 0.233c-0.2 0.089-0.399 0.205-0.599 0.35s-0.388 0.328-0.565 0.55c-0.2 0.2-0.377 0.433-0.532 0.699s-0.288 0.566-0.399 0.899c-0.044 0.155-0.083 0.322-0.117 0.5s-0.061 0.344-0.083 0.499v1.016l0.066 0.15c0.044 0.4 0.161 0.805 0.35 1.216s0.438 0.772 0.748 1.082c0.332 0.333 0.693 0.627 1.081 0.883s0.815 0.461 1.28 0.616c0.222 0.089 0.449 0.167 0.682 0.233s0.482 0.111 0.749 0.133c0.044 0 0.105 0.011 0.183 0.033s0.161 0.033 0.249 0.033h1.098c0.266-0.022 0.532-0.056 0.798-0.1s0.532-0.122 0.798-0.233c0.266-0.066 0.521-0.155 0.765-0.266s0.488-0.255 0.732-0.433c0.244-0.133 0.471-0.277 0.682-0.433 0.219-0.162 0.436-0.329 0.649-0.499 0.222-0.2 0.427-0.394 0.615-0.583s0.372-0.394 0.549-0.616c0.2-0.2 0.377-0.411 0.532-0.633 0.164-0.235 0.331-0.468 0.499-0.699 0.022 0.044 0.044 0.078 0.066 0.1l0.067 0.066c0.133 0.111 0.266 0.227 0.399 0.35s0.266 0.239 0.399 0.349c0.311 0.244 0.616 0.483 0.915 0.716s0.615 0.472 0.948 0.716c0.36 0.248 0.726 0.486 1.098 0.716 0.377 0.233 0.765 0.439 1.164 0.616 0.199 0.111 0.404 0.211 0.615 0.3s0.427 0.189 0.649 0.3c0.222 0.066 0.449 0.144 0.682 0.233s0.472 0.167 0.715 0.233c0.466 0.134 0.959 0.239 1.48 0.316 0.525 0.078 1.051 0.139 1.58 0.183h0.865c0.133 0 0.277-0.006 0.433-0.017s0.299-0.028 0.432-0.050c0.285-0.022 0.568-0.061 0.848-0.116 0.277-0.055 0.56-0.128 0.849-0.216 0.554-0.178 1.092-0.427 1.613-0.749 0.519-0.32 0.994-0.706 1.414-1.149 0.421-0.466 0.765-0.988 1.031-1.565s0.454-1.177 0.565-1.798c0-0.089 0.011-0.172 0.033-0.25s0.033-0.15 0.033-0.216v-0.5l-0.066-0.2v0.016zM30.702 16.117v0.217l-0.033 0.15c0 0.066-0.011 0.133-0.033 0.2s-0.033 0.133-0.033 0.2c-0.089 0.488-0.244 0.966-0.466 1.432s-0.51 0.877-0.865 1.232c-0.155 0.178-0.338 0.339-0.549 0.483s-0.416 0.283-0.616 0.416c-0.222 0.133-0.438 0.244-0.649 0.333s-0.438 0.167-0.682 0.233c-0.244 0.089-0.488 0.155-0.732 0.2s-0.477 0.066-0.699 0.066c-0.111 0-0.227 0.011-0.349 0.033s-0.239 0.033-0.349 0.033h-0.798c-0.998-0.022-1.94-0.144-2.828-0.366s-1.719-0.51-2.495-0.866c-0.798-0.333-1.536-0.71-2.212-1.132s-1.303-0.844-1.88-1.265c-0.2-0.133-0.383-0.266-0.549-0.4s-0.338-0.266-0.516-0.4v-0.017l0.033-0.017c0.089-0.112 0.173-0.229 0.249-0.35s0.16-0.238 0.25-0.349c0.621-0.888 1.347-1.726 2.179-2.514s1.746-1.482 2.744-2.081c0.244-0.155 0.499-0.3 0.765-0.433s0.532-0.255 0.798-0.366c0.266-0.111 0.532-0.216 0.798-0.316s0.543-0.183 0.832-0.25c0.31-0.089 0.598-0.161 0.865-0.216s0.554-0.095 0.865-0.117c0.288-0.022 0.577-0.033 0.865-0.033s0.565 0.011 0.831 0.033c0.554 0.044 1.098 0.172 1.63 0.383s1.020 0.472 1.464 0.782c0.421 0.333 0.787 0.727 1.098 1.182s0.543 0.938 0.698 1.449c0.089 0.266 0.155 0.522 0.2 0.766s0.066 0.499 0.066 0.766v0.599z"></path>
</svg>
