<svg version="1.1" xmlns="http://www.w3.org/2000/svg" viewBox="0 0 32 32">
<title>sync</title>
<path d="M16.74 8.337c2.216 0.366 3.015 2.147 3.015 2.147h3.449c0 0-1.051-3.015-3.586-4.385s-5.596-1.325-8.497 0.982c-2.901 2.307-2.535 7.218-2.535 7.218l10.233 8.257c0 0-0.868 1.336-3.289 1.108s-3.197-2.216-3.197-2.216h-3.472c0 0.495 1.074 3.061 3.198 4.225s4.705 1.919 8.291-0.297c3.586-2.216 3.129-7.629 3.129-7.629l-10.233-8.314c0 0 1.279-1.462 3.495-1.096zM20.303 18.41v2.147l-8.588-6.921v-2.147z"></path>
<path d="M15.857 0c-8.908 0-12.228 8.154-12.228 10.233l2.901 2.375c0-3.761 2.703-9.525 9.707-9.525 5.969 0 9.342 5.428 9.342 9.525h-5.23l8.314 6.692v-6.692c0-5.39-3.792-12.608-12.806-12.608zM15.763 28.916c-5.969 0-9.342-5.428-9.342-9.525h5.231l-8.314-6.692v6.692c0 5.391 3.792 12.608 12.806 12.608 8.908 0 12.227-8.154 12.227-10.233l-2.901-2.375c0 3.761-2.703 9.525-9.707 9.525z"></path>
</svg>
