<svg version="1.1" xmlns="http://www.w3.org/2000/svg" viewBox="0 0 32 32">
<title>tip</title>
<path d="M15.345 7.981l-5.828 1.562v1.096l5.828-1.561zM15.343 2.885c0-1.603-1.314-2.885-2.914-2.885-1.603 0-2.914 1.282-2.914 2.885v2.075l5.828-1.561v-0.513zM18.263 14.571c-1.047 0.001-2.051 0.186-2.982 0.525l0.061-0.019v-1.415l-5.828 1.562v8.295c0 0.11 0.007 0.219 0.019 0.328 0.031 0.408 0.112 1.113 0.319 1.732 1.188 4.354 5.503 7.080 9.944 6.284s7.541-4.852 7.142-9.347c-0.399-4.495-4.163-7.942-8.676-7.944zM25.186 25.295h-1.101v0.886c0 1.58-1.318 2.902-2.898 2.902h-5.892c-1.452 0-2.656-1.107-2.842-2.506l-0.019-0.233v-1.049h-1.078c-0.385 0-0.729-0.322-0.729-0.706v-2.506c0-0.385 0.344-0.695 0.729-0.695h1.074v-1.058c0.003-1.571 1.278-2.844 2.849-2.844 0.006 0 0.012 0 0.018 0h5.894c1.58 0 2.898 1.264 2.898 2.844v1.061h1.099c0.386-0 0.7 0.31 0.705 0.695v2.506c-0.006 0.387-0.319 0.699-0.706 0.703z"></path>
<path d="M16.556 23.767h3.828c0 1.052-0.852 1.904-1.904 1.904v0h-0.019c-1.052 0-1.904-0.852-1.904-1.904zM5.055 6.892l11.203-3.002c1.57-0.421 3.184 0.511 3.605 2.081l-11.203 3.002c-1.57 0.421-3.184-0.511-3.605-2.081zM5.026 12.587l11.203-3.002c1.57-0.421 3.184 0.511 3.605 2.081l-11.203 3.002c-1.57 0.421-3.184-0.511-3.605-2.081z"></path>
</svg>
