<svg version="1.1" xmlns="http://www.w3.org/2000/svg" viewBox="0 0 32 32">
<title>tix</title>
<path d="M0 8.618c0-0.342 0.277-0.619 0.619-0.619v0h8.038c3.71 0 6.029 1.913 6.029 4.615 0 1.128-0.515 2.154-1.546 3.077 1.443 0.821 2.164 2.051 2.164 3.692 0 3.846-3.71 4.615-6.184 4.615h-8.502c-0.342 0-0.618-0.277-0.618-0.618v-1.84c0-0.341 0.277-0.618 0.618-0.618h8.502c1.752 0 2.628-0.564 2.628-1.692s-0.876-1.744-2.628-1.846h-8.502c-0.342 0-0.618-0.277-0.618-0.618v-1.84c0-0.341 0.277-0.618 0.618-0.618h8.502c1.237-0.205 1.855-0.718 1.855-1.538 0-1.128-0.618-1.692-1.855-1.692h-8.502c-0.342 0-0.618-0.277-0.618-0.618v-1.84zM16.696 8.618c0-0.341 0.277-0.618 0.618-0.618h8.193c0.341 0 0.618 0.277 0.618 0.618v14.763c0 0.341-0.277 0.618-0.618 0.618h-2.319c-0.341 0-0.618-0.277-0.618-0.618v-11.686c0-0.341-0.277-0.618-0.618-0.618h-4.638c-0.341 0-0.618-0.277-0.618-0.618v-1.84zM28.29 8h3.092c0.341 0 0.618 0.277 0.618 0.618v1.84c0 0.341-0.277 0.618-0.618 0.618h-3.092c-0.341 0-0.618-0.277-0.618-0.618v-1.84c0-0.342 0.277-0.618 0.618-0.618z"></path>
</svg>
