<svg version="1.1" xmlns="http://www.w3.org/2000/svg" viewBox="0 0 32 32">
<title>trezor</title>
<path d="M16.018 0c-4.39 0-7.942 3.553-7.942 7.942v2.977c-1.542 0.279-3.088 0.651-3.088 1.134v15.535s0 0.43 0.483 0.633c1.75 0.709 8.633 3.145 10.215 3.703 0.204 0.075 0.261 0.075 0.315 0.075 0.075 0 0.111 0 0.314-0.075 1.581-0.558 8.483-2.994 10.233-3.703 0.447-0.186 0.465-0.616 0.465-0.616v-15.553c0-0.483-1.524-0.873-3.070-1.134v-2.977c0.022-4.39-3.553-7.942-7.925-7.942zM16.018 3.796c2.587 0 4.151 1.564 4.151 4.151v2.587c-2.901-0.204-5.378-0.204-8.297 0v-2.587c0-2.591 1.564-4.151 4.146-4.151zM16 14.343c3.61 0 6.64 0.279 6.64 0.78v9.692c0 0.151-0.018 0.168-0.151 0.221-0.128 0.058-6.157 2.233-6.157 2.233s-0.244 0.075-0.315 0.075c-0.075 0-0.315-0.093-0.315-0.093s-6.029-2.175-6.157-2.232c-0.128-0.058-0.151-0.075-0.151-0.222v-9.692c-0.035-0.501 2.995-0.762 6.605-0.762z"></path>
</svg>
