<svg version="1.1" xmlns="http://www.w3.org/2000/svg" viewBox="0 0 32 32">
<title>trst</title>
<path d="M8.6 14.867h5.167v10.034h4.467v-10.034h5.167v-4.4h-14.8zM16 0c-2.222 0-4.3 0.422-6.233 1.267-1.955 0.822-3.656 1.956-5.1 3.4s-2.578 3.145-3.4 5.1c-0.844 1.933-1.267 4.011-1.267 6.233s0.422 4.3 1.267 6.233c0.822 1.933 1.956 3.628 3.4 5.083s3.145 2.594 5.1 3.417c1.933 0.844 4.011 1.267 6.233 1.267s4.3-0.422 6.233-1.267c1.933-0.822 3.628-1.956 5.083-3.4s2.594-3.145 3.417-5.1c0.844-1.933 1.267-4.011 1.267-6.233s-0.422-4.3-1.267-6.233c-0.822-1.933-1.956-3.628-3.4-5.083s-3.145-2.594-5.1-3.417c-1.933-0.844-4.011-1.267-6.233-1.267zM27 20.633c-0.311 0.733-0.678 1.417-1.1 2.050s-0.911 1.217-1.467 1.75c-0.556 0.556-1.144 1.045-1.767 1.467s-1.3 0.789-2.033 1.1c-0.73 0.31-1.489 0.545-2.267 0.7s-1.566 0.233-2.367 0.233-1.589-0.078-2.367-0.233c-0.778-0.155-1.537-0.39-2.267-0.7-0.733-0.311-1.417-0.678-2.050-1.1s-1.217-0.911-1.75-1.467c-0.556-0.556-1.045-1.144-1.467-1.767s-0.789-1.3-1.1-2.033c-0.311-0.733-0.539-1.489-0.683-2.267s-0.217-1.566-0.217-2.367 0.083-1.589 0.25-2.367c0.167-0.778 0.406-1.534 0.717-2.267 0.289-0.733 0.65-1.417 1.083-2.050s0.928-1.217 1.483-1.75c0.555-0.556 1.144-1.045 1.767-1.467s1.289-0.789 2-1.1c0.756-0.311 1.522-0.544 2.3-0.7s1.567-0.233 2.367-0.233c0.8 0 1.583 0.078 2.35 0.233s1.528 0.389 2.283 0.7c0.711 0.311 1.383 0.678 2.017 1.1s1.216 0.911 1.75 1.467c0.577 0.556 1.077 1.144 1.5 1.767s0.778 1.3 1.066 2.033c0.333 0.733 0.578 1.489 0.733 2.267s0.233 1.566 0.233 2.367-0.089 1.589-0.267 2.367c-0.177 0.776-0.423 1.535-0.733 2.267z"></path>
</svg>
