<svg version="1.1" xmlns="http://www.w3.org/2000/svg" viewBox="0 0 32 32">
<title>tusd</title>
<path d="M24.17 7.988c-1.401-0.719-2.935-1.187-4.495-1.403-1.457-0.202-2.972-0.103-4.441-0.095l-7.326 0.037v9.675h5.577v6.7s2.208-0.645 2.331-3.672c0.049-1.219 0.059-2.354 0.053-3.273v-2.261h-5.201v-4.631h7.562c3.831 0 7.518 1.884 9.214 5.439 1.259 2.638 0.846 5.164 0.679 6.105-0.379 2.134-1.366 3.913-2.737 5.347-3.184 3.332-8.439 4.799-12.946 4.504-0.995-0.071-1.894-0.185-2.778-0.345l0.154 0.023c-0.899-0.198-1.678-0.446-2.424-0.755l0.095 0.035c0.024 0.019 0.049 0.036 0.073 0.054 0.16 0.121 0.342 0.243 0.531 0.354l0.026 0.014c0.291 0.166 0.595 0.309 0.895 0.459 0.288 0.145 0.58 0.281 0.877 0.408 1.088 0.481 2.354 0.861 3.675 1.078l0.092 0.012c0.76 0.127 1.636 0.2 2.529 0.2 0.003 0 0.006 0 0.008 0h0.033c0.522 0.001 1.044-0.025 1.563-0.079l0.065-0.007c0.049-0.005 0.098-0.011 0.147-0.017 1.024-0.122 1.949-0.327 2.837-0.612l-0.106 0.029c1.588-0.499 2.97-1.198 4.208-2.084l-0.045 0.030c2.749-1.945 4.14-4.316 4.51-4.976 0 0 0.636-1.17 1.010-3.007 0.456-2.247 0.518-5.491-1.461-8.818-1.137-1.915-2.805-3.456-4.784-4.472z"></path>
<path d="M11.852 27.596c0.025 0 0.055 0 0.085 0 1.042 0 2.050-0.146 3.004-0.42l-0.077 0.019c2.729-0.76 4.387-2.372 4.811-2.804 0.93-0.943 1.68-2.065 2.195-3.31l0.025-0.069c0.573-1.43 0.735-3.056 0.762-4.583 0.001-0.082 0.006-0.576 0.013-1.132 0-0.721 0-1.385-0.001-1.746h-2.373v2.527c0 2.748-0.902 5.784-3.187 7.52-2.848 2.164-7.387 1.911-10.403-0.198-3.811-2.664-4.526-8.089-3.229-12.246 1.237-3.967 4.542-6.834 8.474-8.086 3.515-1.12 7.448-1.022 10.888 0.317 3.683 1.433 6.647 4.232 8.72 7.539l-0.532-1.184c0.193 0.335 0.373 0.726 0.517 1.134l0.015 0.050c-0.375-1.082-0.8-2.005-1.301-2.88l0.043 0.081c-0.347-0.615-0.677-1.127-1.031-1.62l0.036 0.052c-0.035-0.056-0.254-0.382-0.678-0.883-0.201-0.242-0.324-0.37-0.324-0.37-0.102-0.112-0.192-0.21-0.283-0.306l0.007 0.007c-0.716-0.753-1.494-1.433-2.33-2.038l-0.049-0.034c-8.077-5.757-19.789-2.715-23.971 6.199-0.025 0.049-0.049 0.098-0.073 0.146-0.222 0.453-0.44 1.001-0.618 1.567l-0.024 0.088c-0.483 1.617-0.581 3.225-0.496 4.658 0.074 1.221 0.163 3.068 1.136 5.162 0.324 0.697 2.094 4.322 6.155 5.994 1.938 0.797 3.646 0.841 4.092 0.845z"></path>
</svg>
