<svg version="1.1" xmlns="http://www.w3.org/2000/svg" viewBox="0 0 32 32">
<title>tx</title>
<path d="M16 0c-8.823 0-16 7.177-16 16s7.178 16 16 16 16-7.178 16-16c0-8.823-7.177-16-16-16zM16 30.98c-8.26 0-14.98-6.72-14.98-14.98s6.72-14.98 14.98-14.98 14.98 6.72 14.98 14.98c0 8.26-6.72 14.98-14.98 14.98z"></path>
<path d="M19.239 7.1c0-1.789-1.45-3.239-3.239-3.239s-3.239 1.45-3.239 3.239c0 1.789 1.45 3.239 3.239 3.239s3.239-1.45 3.239-3.239z"></path>
<path d="M10.867 19.59c0-1.789-1.45-3.239-3.239-3.239s-3.239 1.45-3.239 3.239c0 1.789 1.45 3.239 3.239 3.239s3.239-1.45 3.239-3.239z"></path>
<path d="M8.22 15.187c0.264-2.549 1.759-4.737 3.877-5.962-0.399-0.731-0.583-1.559-0.532-2.39-3.265 1.587-5.56 4.867-5.736 8.692 0.566-0.251 1.179-0.381 1.799-0.38 0.201 0 0.398 0.015 0.591 0.040zM23.778 15.169c0.149-0.015 0.3-0.023 0.45-0.023 0.697 0 1.357 0.161 1.944 0.447-0.152-3.853-2.454-7.162-5.737-8.758 0.051 0.831-0.133 1.659-0.532 2.39 2.113 1.222 3.606 3.402 3.875 5.944zM20.68 22.263c-1.306 0.978-2.926 1.559-4.68 1.559-1.795 0-3.45-0.609-4.771-1.631-0.48 0.664-1.134 1.183-1.89 1.499 1.787 1.55 4.116 2.491 6.662 2.491 2.525 0 4.836-0.926 6.617-2.452-0.769-0.3-1.44-0.808-1.937-1.466z"></path>
<path d="M27.467 19.589c0-1.789-1.45-3.239-3.239-3.239s-3.239 1.45-3.239 3.239c0 1.789 1.45 3.239 3.239 3.239s3.239-1.45 3.239-3.239z"></path>
<path d="M16 2.155c-7.634 0-13.845 6.211-13.845 13.845s6.211 13.845 13.845 13.845c7.634 0 13.845-6.211 13.845-13.845s-6.211-13.845-13.845-13.845zM24.228 24.032c-0.135 0-0.267-0.007-0.399-0.019-2.022 1.976-4.786 3.196-7.829 3.196-3.051 0-5.82-1.226-7.843-3.21-0.175 0.021-0.352 0.032-0.528 0.033-2.454 0-4.443-1.989-4.443-4.443 0-1.376 0.626-2.605 1.607-3.42-0.001-0.057-0.002-0.113-0.002-0.169 0-4.703 2.912-8.738 7.026-10.399 0.615-1.716 2.256-2.943 4.183-2.943s3.567 1.227 4.182 2.943c4.115 1.661 7.027 5.696 7.027 10.399 0 0.098-0.001 0.195-0.004 0.292 0.9 0.813 1.466 1.989 1.466 3.297 0 2.454-1.989 4.443-4.443 4.443z"></path>
</svg>
