<svg version="1.1" xmlns="http://www.w3.org/2000/svg" viewBox="0 0 32 32">
<title>usd</title>
<path d="M18.914 28.017v3.983h-5.828v-4.159c-2.413-0.463-4.783-1.371-6.683-2.614l2.424-4.815c0.438 0.472 4.209 2.795 7.88 2.795 1.987 0 2.93-0.64 2.93-1.785 0-1.785-2.458-2.222-5.758-3.233-4.411-1.347-6.465-2.997-6.465-6.6 0-3.886 2.392-6.395 5.673-7.346v-4.242h5.828v4.084c2.336 0.464 4.418 1.443 5.942 2.352l-2.391 4.579c-0.337-0.371-3.536-2.29-6.398-2.29-1.886 0-2.93 0.673-2.93 1.987 0 1.616 1.785 2.054 4.984 2.93 4.58 1.246 7.476 2.795 7.476 7.24 0 4.502-3.018 6.564-6.683 7.135z"></path>
</svg>
