<svg version="1.1" xmlns="http://www.w3.org/2000/svg" viewBox="0 0 32 32">
<title>usdt</title>
<path d="M32 15.188c0-2.018-5.49-3.701-12.787-4.090l-0-3.215h9.11v-6.691h-24.911v6.691h9.109v3.231c-7.163 0.415-12.522 2.081-12.522 4.074s5.358 3.659 12.522 4.074v11.545h6.692v-11.529c7.297-0.388 12.787-2.071 12.787-4.089zM16 17.176c-7.831 0-14.18-1.212-14.18-2.708 0-1.266 4.552-2.33 10.702-2.626v0.762h0.001v3.124c1.109 0.063 2.274 0.095 3.478 0.095 1.109 0 2.185-0.028 3.214-0.080v-3.914c6.283 0.278 10.967 1.353 10.967 2.638 0 1.496-6.349 2.708-14.181 2.708z"></path>
</svg>
