<svg version="1.1" xmlns="http://www.w3.org/2000/svg" viewBox="0 0 32 32">
<title>ven</title>
<path d="M13.755 29.755l-13.687-27.902c-0.101-0.209-0.088-0.455 0.035-0.653s0.339-0.317 0.571-0.318h4.743c0.254-0.001 0.488 0.141 0.605 0.366l9.995 20.242c0.408 0.833 1.254 1.361 2.18 1.361s1.773-0.528 2.18-1.361l9.966-20.226c0.117-0.226 0.351-0.367 0.605-0.366h0.588c0.161-0.002 0.311 0.081 0.396 0.217s0.091 0.308 0.018 0.451l-13.832 28.189c-0.407 0.834-1.254 1.363-2.181 1.363s-1.774-0.529-2.181-1.363z"></path>
</svg>
