<svg version="1.1" xmlns="http://www.w3.org/2000/svg" viewBox="0 0 32 32">
<title>vera</title>
<path d="M15.946 30.116c7.645 0 13.865-6.307 13.865-14.061s-6.22-14.062-13.865-14.062c-7.646 0-13.867 6.308-13.867 14.062s6.221 14.061 13.867 14.061zM16 0c8.7 0 15.778 7.178 15.778 16s-7.078 16-15.778 16c-8.699 0-15.777-7.178-15.777-16s7.078-16 15.777-16zM25.66 11.229c0.103 0 0.169 0.105 0.132 0.202l-0.509 1.144c-0.022 0.049-0.071 0.083-0.128 0.083-0.002 0-0.004-0-0.006-0l0 0h-1.276c-0.052 0-0.103 0.038-0.125 0.090l-0.234 0.523c-0.004 0.009-0.007 0.020-0.007 0.031 0 0.015 0.004 0.028 0.012 0.040l-0-0c0.013 0.021 0.036 0.034 0.062 0.034h1.127c0.103 0 0.169 0.113 0.133 0.203l-0.509 1.152c-0.026 0.049-0.075 0.082-0.133 0.083h-1.276c-0.002-0-0.004-0-0.007-0-0.056 0-0.104 0.033-0.126 0.081l-0 0.001-3.932 8.867c-0.016 0.044-0.058 0.075-0.107 0.075-0.001 0-0.003-0-0.004-0h-1.778l-3.704-0.007c-0.001 0-0.003 0-0.005 0-0.057 0-0.106-0.034-0.128-0.083l-0-0.001-3.365-7.587c-0.009-0.018-0.015-0.040-0.015-0.063 0-0.027 0.008-0.053 0.021-0.074l-0 0.001c0.025-0.040 0.069-0.066 0.119-0.066 0 0 0 0 0.001 0h5.349c0.052 0 0.103 0.030 0.126 0.083l0.634 1.429 3.49-7.88c0.026-0.048 0.076-0.081 0.133-0.081h5.342c0.050 0 0.093 0.026 0.118 0.065l0 0.001c0.013 0.021 0.021 0.047 0.021 0.074 0 0.022-0.005 0.043-0.015 0.062l0-0.001-0.627 1.414c-0.005 0.009-0.007 0.020-0.007 0.032 0 0.040 0.033 0.073 0.073 0.073h1.129zM16.671 12.578c-0.022 0.050-0.071 0.085-0.129 0.085-0 0-0 0-0.001 0h-9.695c-0 0-0 0-0 0-0.058 0-0.107-0.034-0.129-0.084l-0-0.001-0.507-1.149c-0.008-0.017-0.012-0.037-0.012-0.058 0-0.079 0.063-0.142 0.141-0.143h1.128c0.052 0 0.085-0.053 0.065-0.101l-0.629-1.415c-0.008-0.017-0.013-0.037-0.013-0.059 0-0.029 0.008-0.055 0.023-0.078l-0 0.001c0.026-0.040 0.069-0.065 0.119-0.066h5.342c0.057 0 0.107 0.034 0.129 0.083l0 0.001 0.687 1.55c0.023 0.051 0.073 0.085 0.129 0.085h3.733c0.101 0 0.17 0.107 0.128 0.202l-0.511 1.149zM15.724 14.726c-0.022 0.050-0.072 0.085-0.129 0.085h-7.797c-0.057-0.001-0.106-0.035-0.128-0.084l-0-0.001-0.507-1.143c-0.008-0.017-0.013-0.038-0.013-0.059 0-0.028 0.008-0.055 0.023-0.077l-0 0.001c0.026-0.040 0.069-0.066 0.119-0.066h8.809c0.103 0 0.171 0.107 0.129 0.202l-0.507 1.143h0.001z"></path>
</svg>
