<svg version="1.1" xmlns="http://www.w3.org/2000/svg" viewBox="0 0 32 32">
<title>veri</title>
<path d="M0 1c1.768 0.003 3.532 0.003 5.3 0 1.116 5.788 2.231 11.576 3.344 17.365 0.050 0.255 0.117 0.51 0.184 0.761 0.262-1.010 0.426-2.043 0.647-3.059 1.016-5.021 2.033-10.043 3.049-15.067h5.125c-1.882 8.131-3.763 16.258-5.645 24.386h-6.363c-1.882-8.124-3.763-16.245-5.642-24.369v-0.017zM19.703 8.661c1.114-1.358 2.898-1.976 4.615-2.086 1.694-0.117 3.522 0.034 4.961 1.016 1.271 0.865 1.969 2.324 2.301 3.777 0.403 1.818 0.423 3.69 0.419 5.545h-9.392c0.007 1.372-0.081 2.784 0.392 4.099 0.228 0.647 0.654 1.288 1.335 1.526 0.721 0.228 1.593 0.081 2.12-0.486 0.704-0.771 0.852-1.858 1.006-2.851h4.263c-0.097 1.647-0.409 3.384-1.52 4.679-1.114 1.345-2.908 1.895-4.609 1.962-1.845 0.067-3.851-0.174-5.323-1.382-1.369-1.107-1.966-2.865-2.2-4.545-0.238-1.939-0.248-3.898-0.138-5.843 0.144-1.899 0.5-3.908 1.768-5.41zM23.342 10.596c-0.728 1.016-0.745 2.324-0.735 3.519h4.85c-0.074-1.137-0.067-2.341-0.594-3.385-0.657-1.285-2.73-1.288-3.522-0.134zM2.818 27.495c-0.56 0-1.013 0.443-1.013 0.986v1.533c0 0.543 0.453 0.986 1.013 0.986h1.577c0.188 0 0.339-0.148 0.339-0.329s-0.151-0.329-0.339-0.329h-1.576c-0.188 0-0.339-0.148-0.339-0.329v-1.533c0-0.181 0.151-0.329 0.339-0.329h3.72c0.188 0 0.339 0.148 0.339 0.329v0.986c0 0.181 0.151 0.329 0.339 0.329s0.339-0.148 0.339-0.329v-0.986c0-0.543-0.453-0.986-1.013-0.986h-3.723zM29.635 31c0.56 0 1.013-0.443 1.013-0.986v-1.533c0-0.543-0.453-0.986-1.013-0.986h-1.576c-0.188 0-0.339 0.148-0.339 0.329s0.151 0.329 0.339 0.329h1.576c0.188 0 0.339 0.148 0.339 0.329v1.533c0 0.181-0.151 0.329-0.339 0.329h-3.72c-0.188 0-0.339-0.148-0.339-0.329v-0.986c0-0.181-0.151-0.329-0.339-0.329s-0.339 0.148-0.339 0.329v0.986c0 0.543 0.453 0.986 1.013 0.986l3.723-0zM9.466 27.495c-0.56 0-1.013 0.443-1.013 0.986v0.986c0 0.181 0.151 0.329 0.339 0.329s0.339-0.148 0.339-0.329v-0.986c0-0.181 0.151-0.329 0.339-0.329h3.713c0.188 0 0.339 0.148 0.339 0.329v0.986c0 0.181 0.151 0.329 0.339 0.329s0.339-0.148 0.339-0.329v-0.986c0-0.543-0.453-0.986-1.013-0.986h-3.72zM9.801 31c0.56 0 1.013-0.443 1.013-0.986v-0.986c0-0.181-0.151-0.329-0.339-0.329s-0.339 0.148-0.339 0.329v0.986c0 0.181-0.151 0.329-0.339 0.329h-3.713c-0.188 0-0.339-0.148-0.339-0.329v-0.986c0-0.181-0.151-0.329-0.339-0.329s-0.339 0.148-0.339 0.329v0.986c0 0.543 0.453 0.986 1.013 0.986l3.72-0zM16.449 31c0.56 0 1.013-0.443 1.013-0.986v-0.986c0-0.181-0.151-0.329-0.339-0.329s-0.339 0.148-0.339 0.329v0.986c0 0.181-0.151 0.329-0.339 0.329h-3.713c-0.188 0-0.339-0.148-0.339-0.329v-0.986c0-0.181-0.151-0.329-0.339-0.329s-0.339 0.148-0.339 0.329v0.986c0 0.543 0.453 0.986 1.013 0.986l3.72-0zM22.987 31c0.56 0 1.013-0.443 1.013-0.986v-0.986c0-0.181-0.151-0.329-0.339-0.329s-0.339 0.148-0.339 0.329v0.986c0 0.181-0.151 0.329-0.339 0.329h-3.716c-0.188 0-0.339-0.148-0.339-0.329v-0.986c0-0.181-0.151-0.329-0.339-0.329s-0.339 0.148-0.339 0.329v0.986c0 0.543 0.453 0.986 1.013 0.986l3.723-0zM16 27.495c-0.56 0-1.013 0.443-1.013 0.986v0.986c0 0.181 0.151 0.329 0.339 0.329s0.339-0.148 0.339-0.329v-0.986c0-0.181 0.151-0.329 0.339-0.329h3.72c0.188 0 0.339 0.148 0.339 0.329v0.986c0 0.181 0.151 0.329 0.339 0.329s0.339-0.148 0.339-0.329v-0.986c0-0.543-0.453-0.986-1.013-0.986h-3.727zM22.648 27.495c-0.56 0-1.013 0.443-1.013 0.986v0.986c0 0.181 0.151 0.329 0.339 0.329s0.339-0.148 0.339-0.329v-0.986c0-0.181 0.151-0.329 0.339-0.329h3.713c0.188 0 0.339 0.148 0.339 0.329v0.986c0 0.181 0.151 0.329 0.339 0.329s0.339-0.148 0.339-0.329v-0.986c0-0.543-0.453-0.986-1.013-0.986h-3.72z"></path>
</svg>
