<svg version="1.1" xmlns="http://www.w3.org/2000/svg" viewBox="0 0 32 32">
<title>vpn</title>
<path d="M0 14.656h6.131l6.672 6.672v-6.672h4.797v13.407h-4.575zM19.419 8.564v3.407h6.211c1.755 0 2.359 1.048 2.359 2.073s-0.698 2.097-2.494 2.097h-6.076v4.241h7.363c2.796 0 5.218-1.906 5.218-6.267s-3.28-5.551-5.218-5.551z"></path>
<path d="M24.357 24.417c1.575 0.573 2.521 1.305 2.521 2.104 0 1.834-4.979 3.32-11.12 3.32s-11.12-1.486-11.12-3.32c0-0.8 0.946-1.532 2.52-2.105-2.806 0.751-4.585 1.864-4.585 3.105 0 2.263 5.903 4.098 13.185 4.098s13.185-1.835 13.185-4.098c0-1.242-1.779-2.354-4.586-3.105zM11.993 11.397c0 0.057-0.023 0.113-0.063 0.153s-0.096 0.064-0.153 0.064h-2.761c-0.12 0-0.217-0.097-0.217-0.217v-2.76c0-0.119 0.097-0.217 0.217-0.217h2.761c0.119 0 0.216 0.097 0.216 0.217zM17.584 12.73c0 0.173-0.14 0.314-0.313 0.314h-3.997c-0.173-0-0.313-0.141-0.313-0.314v-3.996c0-0.173 0.14-0.313 0.313-0.313h3.997c0.173 0 0.313 0.14 0.313 0.313zM15.905 7.209c0 0.11-0.089 0.2-0.199 0.2h-2.544c-0.11 0-0.199-0.089-0.199-0.2v-2.544c0-0.11 0.089-0.199 0.199-0.199h2.544c0.11 0 0.199 0.089 0.199 0.199zM11.743 7.209c0 0.11-0.089 0.2-0.199 0.2h-2.545c-0.11-0-0.199-0.090-0.199-0.2v-2.544c0-0.11 0.089-0.199 0.199-0.199h2.545c0.11 0 0.199 0.089 0.199 0.199zM11.028 3.743c0 0.083-0.068 0.151-0.151 0.151h-1.926c-0.083 0-0.151-0.067-0.151-0.151v-1.926c0-0.083 0.068-0.151 0.151-0.151h1.926c0.083 0 0.151 0.068 0.151 0.151zM8.030 6.642c0 0.088-0.071 0.158-0.159 0.158h-2.018c-0.042 0-0.082-0.017-0.112-0.046s-0.046-0.070-0.046-0.112v-2.019c0-0.087 0.070-0.157 0.158-0.157h2.018c0.088 0 0.159 0.071 0.159 0.157zM7.219 3.481c0 0.027-0.011 0.053-0.030 0.073s-0.046 0.030-0.073 0.030h-1.319c-0.057 0-0.103-0.046-0.103-0.103v-1.319c0-0.027 0.011-0.053 0.030-0.073s0.046-0.030 0.073-0.030h1.319c0.057 0 0.103 0.046 0.103 0.103zM5.027 1.801c0 0.027-0.011 0.053-0.030 0.073s-0.045 0.030-0.073 0.030h-1.319c-0.027 0-0.053-0.011-0.073-0.030s-0.030-0.046-0.030-0.073v-1.318c0-0.057 0.046-0.103 0.103-0.103h1.319c0.057 0 0.103 0.046 0.103 0.103z"></path>
</svg>
