<svg version="1.1" xmlns="http://www.w3.org/2000/svg" viewBox="0 0 32 32">
<title>wax</title>
<path d="M32 19.275h-3.149l-2.236-1.913-2.228 1.905h-2.661l-1.275-1.551h-4.393l1.11-1.37h2.157l-1.645-2.007-5.739 6.99h-2.661l1.661-2.031h-2.771l-1.496-4.204-1.488 4.172h-2.826l-2.362-6.55h2.157l1.59 4.463 1.582-4.44h2.669l1.582 4.432 1.582-4.432h2.157l-2.385 6.565 0.527-0.645 4.873-5.928h2.677l4.054 4.944 1.952-1.677-6.164-5.329h3.165l9.982 8.604zM28.867 15.307l-1.488-1.275 1.48-1.267h2.999l-2.991 2.543z"></path>
</svg>
