<svg version="1.1" xmlns="http://www.w3.org/2000/svg" viewBox="0 0 32 32">
<title>xel</title>
<path d="M20.801 27.045c0 2.736-2.218 4.955-4.955 4.955s-4.955-2.218-4.955-4.955c0-2.736 2.218-4.955 4.955-4.955s4.955 2.218 4.955 4.955z"></path>
<path d="M30.71 21.744c0 2.457-1.992 4.45-4.45 4.45s-4.45-1.992-4.45-4.45c0-2.457 1.992-4.45 4.45-4.45s4.45 1.992 4.45 4.45z"></path>
<path d="M7.168 10.698c0 1.83-1.484 3.314-3.314 3.314s-3.314-1.484-3.314-3.314c0-1.83 1.484-3.314 3.314-3.314s3.314 1.484 3.314 3.314z"></path>
<path d="M23.768 2.746c0 1.516-1.229 2.746-2.746 2.746s-2.746-1.229-2.746-2.746c0-1.516 1.229-2.746 2.746-2.746s2.746 1.229 2.746 2.746z"></path>
<path d="M28.169 7.258c-0.043-0.002-0.094-0.003-0.144-0.003-1.012 0-1.923 0.439-2.551 1.136l-0.003 0.003-0.009 0.013c-0.054 0.063-0.105 0.122-0.155 0.186-0.059 0.076-0.119 0.151-0.185 0.222-0.671 0.713-2.268 1.984-4.437 0.92-0.337-0.169-0.625-0.38-0.873-0.631l-0-0c-1.010-1.022-2.412-1.655-3.962-1.655-0.002 0-0.003 0-0.005 0h0c-0.093 0-0.185 0-0.278 0.007-0.028 0.001-0.061 0.002-0.094 0.002-0.245 0-0.479-0.044-0.695-0.125l0.014 0.005c-1.245-0.451-1.595-1.483-1.669-2.272-0.006-0.070-0.009-0.152-0.009-0.234 0-0.386 0.073-0.756 0.205-1.095l-0.007 0.021c0.106-0.281 0.168-0.606 0.168-0.945 0-1.516-1.229-2.746-2.746-2.746s-2.746 1.229-2.746 2.746c0 1.233 0.812 2.276 1.931 2.623l0.019 0.005c2.881 1.178 1.938 3.398 1.536 4.116v0.007c-0.755 0.941-1.212 2.15-1.212 3.465 0 0.002 0 0.004 0 0.007v-0c0 0.261 0.018 0.518 0.053 0.77l-0.003-0.029c-0.001 0.006-0.001 0.013 0 0.019 0.084 0.954-0.019 3.54-3.559 3.627-0.019 0-0.040 0-0.062 0-0.201 0-0.398-0.013-0.592-0.038l0.023 0.002c-0.146-0.017-0.315-0.027-0.487-0.027-0.005 0-0.010 0-0.016 0h0.001c-2.368-0.001-4.296 1.904-4.324 4.272s1.854 4.318 4.221 4.374c2.367 0.056 4.339-1.803 4.423-4.17l0.004 0.005v-0.217c0.021-0.833 0.353-3.757 4.011-3.329 0 0 1.229 0.327 1.893 0.327 2.26 0 4.298-1.362 5.163-3.45 0.355-0.809 2.205-2.84 5.392-1.44 0.087 0.049 0.195 0.101 0.307 0.148l0.023 0.008c0.38 0.158 0.822 0.249 1.285 0.249 1.9 0 3.44-1.54 3.44-3.44 0-1.847-1.456-3.354-3.282-3.436l-0.007-0z"></path>
</svg>
