<svg version="1.1" xmlns="http://www.w3.org/2000/svg" viewBox="0 0 32 32">
<title>xem</title>
<path d="M11.092 14.982c0.070-0.038 0.133-0.074 0.194-0.112 2.188-1.314 3.497-3.61 3.508-6.148l-0-0.019c0-3.495 1.825-6.613 4.756-8.311-1.18-0.128-2.365-0.193-3.552-0.193-5.454 0-10.879 1.355-15.692 3.917-0.227 0.121-0.242 0.147-0.259 0.178-0.038 0.065-0.049 0.089-0.045 0.208 0.058 1.91 0.28 3.811 0.663 5.683 0.087 0.422 0.182 0.841 0.286 1.259 1.108 2.658 3.775 4.442 6.648 4.442 1.223 0 2.432-0.313 3.494-0.904zM19.691 17.066c-0.056-0.034-0.112-0.067-0.169-0.099l-0.066-0.038c-1.035-0.573-2.238-0.882-3.455-0.882-1.224 0-2.427 0.31-3.481 0.897-0.072 0.045-0.168 0.101-0.264 0.152-1.413 0.786-3.025 1.203-4.657 1.203-1.649 0-3.285-0.44-4.728-1.258 2.674 5.989 7.108 11.15 12.606 14.64 0.132 0.084 0.223 0.121 0.544 0.121 0.291 0 0.361-0.029 0.504-0.12 1.496-0.951 2.914-2.019 4.24-3.195 0.324-0.289 0.642-0.583 0.955-0.884 0.952-1.252 1.476-2.799 1.476-4.36 0-2.516-1.342-4.883-3.503-6.176zM31.955 4.293c-0.017-0.029-0.033-0.056-0.259-0.177-1.605-0.854-3.277-1.577-5-2.158-0.396-0.133-0.794-0.259-1.195-0.378-0.364-0.056-0.732-0.084-1.1-0.085-3.937 0-7.146 3.18-7.194 7.106v0.092c0.001 2.539 1.299 4.841 3.474 6.156l0.032 0.020c0.066 0.036 0.15 0.084 0.228 0.131 2.85 1.706 4.632 4.821 4.665 8.145 3.933-5.42 6.193-11.985 6.394-18.647 0.003-0.117-0.006-0.138-0.045-0.206z"></path>
</svg>
