<svg version="1.1" xmlns="http://www.w3.org/2000/svg" viewBox="0 0 32 32">
<title>xlm</title>
<path d="M8.152 25.187c-0.070-0.050-0.157-0.081-0.252-0.081-0.145 0-0.274 0.071-0.353 0.181l-0.001 0.001-4.291 6.026c-0.050 0.070-0.080 0.157-0.080 0.252 0 0.24 0.194 0.434 0.434 0.434 0.145 0 0.274-0.071 0.353-0.181l0.001-0.001 4.291-6.026c0.050-0.070 0.081-0.157 0.081-0.252 0-0.145-0.071-0.274-0.181-0.352l-0.001-0.001zM9.19 27.164c-0.070-0.051-0.158-0.081-0.253-0.081-0.145 0-0.273 0.071-0.352 0.18l-0.001 0.001-2.386 3.327c-0.051 0.070-0.081 0.158-0.081 0.253 0 0.145 0.071 0.273 0.18 0.352l0.001 0.001c0.070 0.051 0.158 0.081 0.253 0.081 0.145 0 0.273-0.071 0.352-0.18l0.001-0.001 2.386-3.326c0.051-0.070 0.081-0.158 0.081-0.253 0-0.145-0.071-0.273-0.18-0.352l-0.001-0.001zM28.824 5.702c0-2.892-0.988-5.688-0.988-5.688s-3.688-0.253-6.773 1.41c-3.086 1.663-4.255 3.784-4.833 4.761s-1.784 3.061-1.784 3.061-2.639-0.048-4.725 1.109c-2.085 1.157-3.362 3.326-3.362 3.326s1.386-0.398 2.712-0.361c1.326 0.036 2.652 0.59 2.652 0.59s-0.313 0.47-0.253 1.157c0.027 0.302 0.43 0.731 0.985 1.199-0.065 0.083-0.149 0.196-0.231 0.31l-0.025 0.036c-1.98 2.797-2.432 5.88-1.010 6.886s4.179-0.445 6.159-3.241c0.037-0.050 0.098-0.137 0.157-0.226l0.027-0.043c0.504 0.318 0.936 0.527 1.205 0.514 0.711-0.036 1.326-0.784 1.326-0.784s1.356 1.718 1.699 2.585c0.344 0.868 0.47 2.422 0.47 2.422s1.518-1.79 1.998-4.434c0.48-2.644-0.697-4.515-0.697-4.515s1.338-1.639 2.712-3.302c1.374-1.663 2.579-3.881 2.579-6.774zM16.879 19.608c-1.311 1.775-3.181 2.618-4.176 1.882s-0.739-2.77 0.572-4.545c0.005-0.007 0.011-0.014 0.016-0.021 0.53 0.396 1.092 0.789 1.564 1.132 0.622 0.451 1.365 1.031 2.051 1.513-0.009 0.013-0.018 0.026-0.027 0.039zM21.894 10.511c-1.631 0-2.953-1.322-2.953-2.953s1.322-2.953 2.953-2.953c1.631 0 2.953 1.322 2.953 2.953s-1.322 2.953-2.953 2.953z"></path>
</svg>
