<svg version="1.1" xmlns="http://www.w3.org/2000/svg" viewBox="0 0 32 32">
<title>zec</title>
<path d="M16 32c-8.823 0-16-7.177-16-16s7.177-16 16-16c8.822 0 16 7.177 16 16s-7.178 16-16 16zM16 1.561c-7.962 0-14.439 6.478-14.439 14.44s6.477 14.439 14.439 14.439c7.962 0 14.439-6.477 14.439-14.439s-6.477-14.44-14.439-14.44z"></path>
<path d="M14.973 20.261h7.42v3.729h-4.566c0.076 1.065 0.114 2.055 0.19 3.12h-3.843v-3.082h-4.566c0-1.218-0.152-2.435 0.076-3.577 0.114-0.609 0.799-1.142 1.218-1.675 1.446-1.712 2.892-3.386 4.376-5.098 0.57-0.647 1.142-1.255 1.788-1.978h-7.115v-3.729h4.223v-3.12h3.69v3.044h4.604c0 1.256 0.152 2.473-0.076 3.615-0.114 0.609-0.799 1.142-1.256 1.674-1.445 1.712-2.892 3.386-4.375 5.099-0.571 0.685-1.142 1.293-1.788 1.978z"></path>
</svg>
