<svg version="1.1" xmlns="http://www.w3.org/2000/svg" viewBox="0 0 32 32">
<title>1st</title>
<path d="M22.593 0.289c-0.022 0.022-0.056 0.050-0.1 0.083s-0.078 0.072-0.1 0.116l-13.831 14.012c-0.044 0.021-0.079 0.056-0.1 0.1l-0.067 0.133c-0.29 0.355-0.362 0.654-0.217 0.899s0.484 0.366 1.019 0.366h6.080c0.356 0.044 0.651 0.211 0.885 0.499s0.351 0.599 0.351 0.932v7.722c0 0.111 0.033 0.239 0.1 0.383s0.145 0.272 0.234 0.383l1.169 1.165 4.377 4.46c0.401 0.399 0.752 0.538 1.052 0.416s0.451-0.472 0.451-1.049v-29.821c0-0.532-0.128-0.871-0.384-1.015s-0.562-0.072-0.919 0.216z"></path>
</svg>
