<svg version="1.1" xmlns="http://www.w3.org/2000/svg" viewBox="0 0 32 32">
<title>adc</title>
<path d="M19.203 15.647l-4.515-2.61c-0.395-0.225-0.875 0.057-0.875 0.508v5.221c0 0.451 0.494 0.734 0.875 0.508l4.515-2.61c0.395-0.226 0.395-0.79 0-1.016z"></path>
<path d="M16 8.409c-4.177 0-7.591 3.4-7.591 7.591 0 4.176 3.4 7.591 7.591 7.591 4.176 0 7.591-3.4 7.591-7.591s-3.415-7.591-7.591-7.591zM16 22.702c-3.697 0-6.716-3.005-6.716-6.716 0-3.697 3.005-6.716 6.716-6.716 3.697 0 6.716 3.005 6.716 6.716-0.014 3.711-3.019 6.716-6.716 6.716z"></path>
<path d="M16 0c-8.833 0-16 7.167-16 16s7.167 16 16 16c8.832 0 16-7.167 16-16s-7.167-16-16-16zM16 26.145c-5.602 0-10.145-4.543-10.145-10.145s4.543-10.145 10.145-10.145c5.601 0 10.145 4.543 10.145 10.145s-4.543 10.145-10.145 10.145z"></path>
</svg>
