<svg version="1.1" xmlns="http://www.w3.org/2000/svg" viewBox="0 0 32 32">
<title>adst</title>
<path d="M12.444 19.037c0-0.001 0-0.002 0-0.003 0-0.364-0.074-0.711-0.207-1.026l0.007 0.017c-0.399-0.965-1.353-1.645-2.466-1.645-1.473 0-2.667 1.19-2.667 2.657s1.194 2.657 2.667 2.657c0.706 0 1.348-0.274 1.825-0.72 0.449 2.459 1.737 4.627 3.558 6.198-1.544 1.017-3.394 1.608-5.383 1.608-5.4 0-9.778-4.362-9.778-9.744s4.378-9.744 9.778-9.744c5.057 0 9.217 3.826 9.726 8.731 0.034 0.333 0.052 0.671 0.052 1.012 0 1.468 1.194 2.657 2.667 2.657s2.667-1.19 2.667-2.657v-15.818h7.111v15.818c0 5.381-4.378 9.744-9.778 9.744s-9.778-4.362-9.778-9.744zM20.574 16.913c-0.477-2.433-1.759-4.58-3.558-6.153 1.498-0.929 3.266-1.466 5.161-1.466 0.474 0 0.941 0.034 1.397 0.099v7.381c-0.396-0.247-0.877-0.393-1.392-0.393-0.002 0-0.003 0-0.005 0h0c-0.601 0-1.156 0.198-1.602 0.533z"></path>
</svg>
