<svg version="1.1" xmlns="http://www.w3.org/2000/svg" viewBox="0 0 32 32">
<title>amis</title>
<path d="M0.182 15.926c0.016 0.624 0.068 1.198 0.156 1.917h0.194s-0.002-0.122-0.002-0.146c0-0.594 0.043-1.252 0.118-1.825l-0.466 0.055zM2.27 7.687l1.201 1.595c0.264-0.327 0.522-0.618 0.792-0.897l-0.004 0.004-0.952-2.26c-0.343 0.448-0.686 0.957-0.998 1.486l-0.040 0.072zM1.068 10.265l1.207 0.771c0.23-0.402 0.44-0.73 0.663-1.049l-0.028 0.043-1.111-1.475c-0.238 0.458-0.484 1.022-0.697 1.602l-0.034 0.107zM13.836 4.316c0.84 0 1.662 0.080 2.46 0.229l2.899-4.124c-1.144-0.27-2.334-0.42-3.561-0.42-0.275 0-0.549 0.008-0.821 0.022l-1.078 4.296c0.034-0 0.067-0.003 0.101-0.003zM24.027 9.074l4.274-2.468c-0.892-1.274-1.972-2.405-3.198-3.357l-3.969 3.25c1.107 0.735 2.060 1.586 2.876 2.555l0.017 0.020zM0.449 12.543l0.975 0.282c0.131-0.337 0.271-0.668 0.427-0.991l-1.068-0.683c-0.109 0.35-0.225 0.818-0.319 1.294l-0.016 0.098zM20.32 6.003l4.033-3.302c-1.216-0.844-2.621-1.536-4.125-2.004l-0.109-0.029-2.876 4.091c1.17 0.313 2.193 0.738 3.142 1.278l-0.065-0.034zM0.183 14.952l0.61 0.026c0.107-0.531 0.222-0.969 0.358-1.397l-0.026 0.094-0.819-0.237c-0.061 0.435-0.105 0.959-0.123 1.489l-0.001 0.026zM27.101 16.609c1.098-2.326 1.715-4.924 1.715-7.666 0-0.524-0.028-1.040-0.072-1.553l-4.156 2.399c1.416 1.942 2.321 4.281 2.513 6.82zM6.26 6.685l-0.382-3.217c-0.696 0.566-1.339 1.193-1.926 1.871l1.002 2.378c0.392-0.352 0.818-0.691 1.264-1.003l0.043-0.029zM9.391 5.079l0.163-3.836c-1.009 0.432-1.961 0.97-2.846 1.597l0.393 3.307c0.652-0.392 1.407-0.752 2.198-1.039l0.092-0.029zM13.866 0.104c-1.263 0.146-2.412 0.422-3.503 0.817l0.107-0.034-0.166 3.906c0.725-0.208 1.575-0.361 2.448-0.43l0.046-0.003 1.068-4.256zM22.748 24.226l-0.4 6.576c1.685-0.709 3.216-1.71 4.535-2.938l-1.996-5.642c-0.656 0.725-1.373 1.393-2.138 2.003zM11.63 28.14l-1.167 2.701c1.635 0.675 3.41 1.077 5.271 1.151l1.11-4.642c-1.65 0.507-3.4 0.783-5.214 0.791zM25.56 21.43l2.029 5.733c1.085-1.147 1.998-2.458 2.694-3.895l-2.954-4.475c-0.511 0.933-1.105 1.814-1.768 2.637zM16.656 32c1.668-0.032 3.271-0.328 4.77-0.848l0.379-6.222c-1.217 0.847-2.543 1.547-3.954 2.075l-1.194 4.995zM29.514 10.96l1.694 1.277c-0.441-1.495-1.043-2.8-1.805-3.993l0.037 0.062c0.060 0.556 0.095 1.2 0.095 1.853v0c0 0.268-0.009 0.535-0.020 0.8zM4.81 26.83c1.348 1.511 2.99 2.752 4.833 3.643l1.016-2.353c-2.132-0.107-4.128-0.571-5.968-1.333l0.119 0.044zM31.538 13.612l-2.1-1.584c-0.104 0.997-0.271 1.896-0.503 2.768l0.028-0.125 2.788 3.276c0.042-0.463 0.067-0.93 0.067-1.404-0-1.037-0.102-2.050-0.297-3.030l0.016 0.099zM27.798 17.874l2.913 4.413c0.372-0.898 0.679-1.951 0.87-3.045l0.013-0.092-2.935-3.448c-0.281 0.866-0.573 1.585-0.908 2.278l0.046-0.106zM8.396 12.226l0.572 3.819h-1.144l0.572-3.819zM7.673 17.124h1.457l0.205 1.439h1.197l-1.208-7.552h-1.737l-1.208 7.552h1.089l0.205-1.439zM16.497 18.563v-7.552h-1.693l-0.809 5.362-0.874-5.362h-1.659v7.552h1.079v-5.506l0.849 5.506h1.122l0.906-5.582v5.582h1.079zM17.577 18.563h1.439v-7.552h-1.439v7.552zM20.094 16.045v0.539c0 1.208 0.549 1.899 1.714 1.899s1.742-0.691 1.742-1.899c0-2.158-2.333-2.449-2.333-4.003 0-0.539 0.14-0.744 0.518-0.744s0.518 0.205 0.518 0.744v0.227h1.439v-0.151c0-1.208-0.683-1.899-1.837-1.899s-1.792 0.691-1.792 1.899c0 2.158 2.297 2.449 2.297 4.003 0 0.539-0.215 0.734-0.592 0.734s-0.592-0.194-0.592-0.734v-0.615h-1.079z"></path>
</svg>
