<svg version="1.1" xmlns="http://www.w3.org/2000/svg" viewBox="0 0 32 32">
<title>ankr</title>
<path d="M16 0l-13.857 8 2.956 1.7 10.901-6.282v-3.418z"></path>
<path d="M16 0l-13.857 8 2.956 1.7 10.901-9.7z"></path>
<path d="M16 0l13.857 8-2.956 1.7-10.901-6.282v-3.418z"></path>
<path d="M16 0l13.857 8-2.956 1.7-10.901-9.7zM5.099 9.7v3.307h-2.956v-5.007l2.956 1.7z"></path>
<path d="M5.099 13.007h-2.956v-5.007l2.956 5.007zM26.901 9.7v3.307h2.956v-5.007l-2.956 1.7z"></path>
<path d="M26.901 13.007h2.956v-5.007l-2.956 5.007zM16 32l-13.857-8 2.956-1.7 10.901 6.282v3.418z"></path>
<path d="M16 9.349c-3.677 0-6.651 2.975-6.651 6.651s2.975 6.651 6.651 6.651 6.651-2.975 6.651-6.651-2.975-6.651-6.651-6.651zM16 19.695c-2.032 0-3.695-1.663-3.695-3.695s1.663-3.695 3.695-3.695c2.032 0 3.695 1.663 3.695 3.695s-1.663 3.695-3.695 3.695z"></path>
</svg>
