<svg version="1.1" xmlns="http://www.w3.org/2000/svg" viewBox="0 0 32 32">
<title>atl</title>
<path d="M10.53 0.554l3.574 6.175-1.786 3.096-1.788 3.087-1.805-3.12h-3.379l3.572 6.175-1.786 3.089-1.786 3.095-0.649-1.123-1.123-1.941h-3.574l1.786 3.087 1.788 3.096-3.574 6.175h7.149l1.779-3.087 1.786-3.087-1.786-3.096-0.010-0.024h0.001l1.781-3.095h0.015l1.788 3.095 1.786 3.087-3.574 6.175h7.149l3.574-6.175-1.796-3.104h3.422l0.009 0.016 1.779 3.087-1.779 3.087-1.786 3.087h7.14l3.574-6.175-1.786-3.087-1.788-3.095h-3.584l0.009-0.016 1.788-3.087-1.788-3.087-1.779-3.089h-3.577l1.758-3.047-3.574-6.175h-7.149zM14.169 18.876l1.684-2.909-1.667-2.935-0.062-0.152 1.769-3.055h0.068l1.751 3.047 0.002-0.004 1.784 3.084-1.786 3.087 0.009 0.016h-3.662l0.11-0.18z"></path>
</svg>
