<svg version="1.1" xmlns="http://www.w3.org/2000/svg" viewBox="0 0 32 32">
<title>bay</title>
<path d="M19.175 32h-17.571v-25.648h6.352v-6.352h12.462c2.732 0 5.317 1.28 7.281 3.603 1.62 1.918 2.626 4.347 2.626 6.338 0 2.543-0.916 4.828-1.605 6.139 0.504 0.869 0.905 1.793 1.196 2.754 0.795 2.633 0.6 5.2-0.562 7.421-1.193 2.28-2.968 3.911-5.276 4.851-1.456 0.593-3.106 0.893-4.903 0.893zM4.918 28.686h14.257c3.428 0 5.865-1.335 7.243-3.967 1.912-3.654-0.909-7.521-0.938-7.559l-0.821-1.013 0.795-1.032c0.24-0.326 1.558-2.676 1.558-5.173 0-0.971-0.577-2.7-1.844-4.199-0.766-0.907-2.402-2.429-4.749-2.429h-9.148v3.038h8.595c1.756 0 3.351 1.206 3.88 2.932 0.471 1.489 0.080 3.116-1.017 4.229-0.353 0.353-1.747 1.573-2.863 2.543 1.182 1.122 2.78 2.642 3.174 3.036 1.3 1.301 1.051 3.62 0.309 4.647-0.601 0.83-1.67 1.934-4.003 1.934h-11.584v-14.487h3.314v11.173h8.27c0.843 0 1.068-0.223 1.27-0.496 0.039-0.132 0.046-0.368 0.015-0.492-0.617-0.608-3.098-2.961-4.372-4.166l-1.332-1.261 1.389-1.198c1.384-1.193 3.712-3.218 4.070-3.576 0.015-0.015 0.359-0.367 0.191-0.915-0.119-0.386-0.447-0.589-0.711-0.589h-14.947z"></path>
</svg>
