<svg version="1.1" xmlns="http://www.w3.org/2000/svg" viewBox="0 0 32 32">
<title>brd</title>
<path d="M0 11.719c0-0.353 0.286-0.639 0.639-0.639h4.599c2.713 0 3.67 0.325 4.33 0.985 0.37 0.382 0.597 0.903 0.597 1.478 0 0.044-0.001 0.088-0.004 0.131l0-0.006c0 1.138-0.604 1.91-2.235 2.249 1.575 0.279 2.374 0.929 2.374 2.235 0.002 0.034 0.003 0.073 0.003 0.113 0 0.6-0.237 1.145-0.622 1.547l0.001-0.001c-0.646 0.646-1.7 1.11-4.539 1.11h-4.504c-0.353 0-0.639-0.286-0.639-0.639v-8.562zM3.492 15.385c0-0.235 0.191-0.426 0.426-0.426v0h1.48c0.845 0 1.477-0.042 1.77-0.349 0.122-0.131 0.197-0.307 0.197-0.5 0-0.017-0.001-0.034-0.002-0.050l0 0.002c0.002-0.019 0.003-0.042 0.003-0.065 0-0.183-0.070-0.349-0.185-0.473l0 0c-0.297-0.297-0.929-0.349-1.784-0.349h-2.755v5.677h2.727c0.929 0 1.617-0.070 1.938-0.395 0.131-0.136 0.211-0.321 0.211-0.525 0-0.018-0.001-0.036-0.002-0.054l0 0.002c0.001-0.015 0.002-0.032 0.002-0.050 0-0.209-0.080-0.399-0.212-0.541l0 0.001c-0.325-0.325-1.013-0.349-1.938-0.349h-1.442c-0.003 0-0.007 0-0.011 0-0.235 0-0.426-0.191-0.426-0.426 0-0.005 0-0.010 0-0.015l-0 0.001v-1.117zM14.665 16.115c0-0.235 0.191-0.426 0.426-0.426h0.943c1.292 0 1.627-0.098 1.994-0.464 0.175-0.189 0.283-0.444 0.283-0.723 0-0.007-0-0.015-0-0.022l0 0.001c0.001-0.017 0.002-0.037 0.002-0.057 0-0.28-0.114-0.533-0.298-0.715l-0-0c-0.311-0.311-0.545-0.349-1.98-0.349h-2.346v7.556h-2.793v-9.197c-0-0.349 0.28-0.633 0.629-0.639h4.539c2.964 0 3.537 0.349 4.256 1.069 0.491 0.546 0.791 1.271 0.791 2.067 0 0.064-0.002 0.127-0.006 0.19l0-0.009c0 0.744-0.171 1.812-0.849 2.486-0.213 0.213-0.482 0.698-2.168 0.831l3.048 3.205h-3.677l-2.661-2.982c-0.083-0.107-0.134-0.243-0.134-0.391 0-0.012 0-0.024 0.001-0.037l-0 0.002v-1.397zM21.69 11.719c0-0.353 0.286-0.639 0.639-0.639 0 0 0 0 0 0h3.027c3.527 0 4.351 0.59 5.405 1.645 0.767 0.815 1.238 1.916 1.238 3.127 0 0.052-0.001 0.104-0.003 0.156l0-0.008c0.002 0.044 0.002 0.096 0.002 0.148 0 1.211-0.471 2.312-1.241 3.129l0.002-0.002c-1.048 1.047-1.879 1.645-5.405 1.645h-3.027c-0.353 0-0.639-0.286-0.639-0.639v-8.562zM24.484 18.703h0.869c2.263 0 2.552-0.325 3.142-0.915 0.403-0.424 0.651-0.998 0.651-1.63 0-0.054-0.002-0.108-0.005-0.161l0 0.007c0.003-0.043 0.004-0.092 0.004-0.142 0-0.634-0.246-1.211-0.648-1.64l0.001 0.001c-0.59-0.59-0.88-0.915-3.142-0.915h-0.869l-0.003 5.395z"></path>
</svg>
