<svg version="1.1" xmlns="http://www.w3.org/2000/svg" viewBox="0 0 32 32">
<title>bsv</title>
<path d="M15.348 1.802c0.018 0.172 0.14 0.294 0.366 0.366 0.271 0.095 0.027 0.136-0.38 0.19-0.285 0.041-0.543-0.014-0.679-0.136-0.312-0.271-1.262-0.258-1.724-0.095-0.407 0.149 0.339 0.326 0.339 0.394 0 0.204-0.774 0.312-1.072 0.163-0.353-0.19-0.936-0.149-1.371 0.054-0.421 0.19-0.149 0.271 0.271 0.271 0.271 0 0.027 0.231-0.353 0.462-0.285 0.176-0.651 0.258-1.113 0.244-0.502-0.027-0.746 0.041-0.964 0.231-0.326 0.285-0.421 0.909-0.109 0.638 0.109-0.081 0.231-0.109 0.285-0.054 0.041 0.054-0.163 0.353-0.475 0.665l-0.57 0.57 0.679 0.353c0.38 0.19 1.099 0.407 1.615 0.489 1.846 0.312 2.809 0.543 3.583 0.896l0.774 0.339 0.828-0.271c1.534-0.516 3.352-0.271 4.682 0.638 0.339 0.244 0.651 0.434 0.692 0.434s0.081-0.163 0.081-0.38c0-0.909 0.977-1.344 1.439-0.638 0.299 0.448 0.231 2.266-0.095 2.592-0.204 0.19-0.204 0.285-0.014 0.896 0.136 0.461 0.176 1.059 0.136 1.819-0.027 0.624-0.014 1.14 0.054 1.14 0.054 0 0.204-0.244 0.326-0.543s0.366-0.665 0.543-0.801c0.217-0.163 0.366-0.489 0.448-0.882 0.068-0.353 0.231-0.76 0.366-0.909 0.176-0.19 0.258-0.516 0.271-1.018 0.014-0.407 0.122-0.869 0.231-1.045 0.19-0.299 0.231-0.529 0.434-2.266 0.081-0.706 0.068-0.787-0.434-1.479-0.529-0.746-0.909-1.086-1.058-0.936-0.054 0.041-0.027 0.217 0.054 0.366 0.122 0.217 0.122 0.258-0.014 0.204-0.095-0.027-0.271-0.258-0.394-0.502-0.109-0.244-0.271-0.584-0.529-0.706-0.502-0.258-0.787-0.163-0.434 0.204 0.366 0.366 0.176 0.57-0.244 0.244-0.217-0.163-1.737-1.832-1.737-1.425s0.149 0.679 0.109 0.706c-0.109 0.109-0.814-0.285-0.896-0.502-0.122-0.38-0.665-0.597-1.208-0.787-0.362-0.127-0.362 0.090 0 0.651l-0.407-0.068c-0.231-0.041-0.57-0.231-0.76-0.407-0.235-0.217-0.76-0.339-1.574-0.366z"></path>
<path d="M6.133 5.303c-0.109 0.299 0.285 0.964 0.855 1.425 0.584 0.489 1.751 0.882 2.959 1.018 1.927 0.217 3.651 0.76 3.366 1.045-0.109 0.109-0.394 0.054-1.018-0.19-0.57-0.231-1.357-0.394-2.375-0.489-2.239-0.231-3.379-0.651-4.302-1.629-0.787-0.814-1.031-0.394-0.353 0.597 0.746 1.072 1.669 1.574 4.112 2.226 1.601 0.421 2.47 0.733 2.606 0.95 0.041 0.081-0.19 0.204-0.502 0.285-0.882 0.231-0.923 0.244-0.923 0.475 0 0.136 0.136 0.204 0.38 0.204 0.421 0 1.439 0.434 1.588 0.679 0.054 0.095-0.068 0.068-0.312-0.054-0.651-0.339-1.506-0.285-1.995 0.122l-0.407 0.339 0.461 0.407c0.448 0.38 0.461 0.407 0.244 0.651-0.244 0.271-0.312 0.706-0.109 0.706 0.081 0 0.176-0.068 0.217-0.149 0.068-0.095 0.176-0.068 0.339 0.081 0.19 0.163 0.231 0.353 0.176 0.692-0.054 0.366-0.027 0.461 0.136 0.461 0.122 0 0.244 0.109 0.299 0.244 0.081 0.271 0.611 0.57 1.004 0.57 0.136 0 0.529-0.19 0.869-0.421 0.706-0.461 1.167-0.461 0.909 0.014-0.081 0.149-0.204 0.271-0.271 0.271-0.081 0-0.136 0.054-0.136 0.136 0 0.271 0.692 0.122 1.086-0.244l0.421-0.366-0.19-0.733c-0.095-0.394-0.285-0.787-0.407-0.855-0.149-0.081-0.231-0.068-0.231 0.027 0 0.258-0.353 0.136-0.719-0.244-0.353-0.366-0.489-0.841-0.258-0.841 0.19 0 0.434 0.326 0.434 0.584 0 0.136 0.054 0.217 0.122 0.163 0.081-0.041 0.38-0.041 0.679 0.014 0.516 0.081 0.543 0.109 0.706 0.787 0.081 0.38 0.434 1.235 0.76 1.9 0.326 0.651 0.611 1.371 0.611 1.588 0.014 0.448-0.353 0.936-0.706 0.936-0.339 0-0.882-0.475-1.371-1.167-0.611-0.896-0.936-0.706-0.448 0.258 0.774 1.493 2.104 2.171 2.877 1.452 0.638-0.597 0.57-1.696-0.231-3.542-0.556-1.303-0.679-2.049-0.407-2.429 0.122-0.176 0.136-0.163 0.068 0.027-0.109 0.339 0.407 0.326 0.624-0.014 0.109-0.19 0.217-0.231 0.326-0.136 0.095 0.081 0.204 0.054 0.326-0.068 0.122-0.163 0.217-0.176 0.421-0.041 0.231 0.136 0.312 0.122 0.516-0.149 0.204-0.285 0.258-0.299 0.407-0.109 0.271 0.326 0.556 0.271 0.556-0.109 0-0.176 0.081-0.326 0.176-0.312 0.719 0.027 0.855-0.204 0.231-0.421-0.258-0.095-0.434-0.271-0.489-0.489s-0.176-0.353-0.326-0.353c-0.299 0-0.502-0.502-0.285-0.719 0.081-0.081 0.57-0.149 1.099-0.149 1.194-0.014 1.384-0.19 1.452-1.262 0.027-0.434 0-0.869-0.068-0.977-0.231-0.326-0.434-0.014-0.434 0.651 0 0.896-0.163 1.004-1.479 0.977l-1.086-0.014-0.38 0.475c-0.516 0.665-1.072 0.964-1.357 0.733-0.109-0.095-0.461-0.176-0.76-0.19l-0.57-0.014-0.041-0.801c-0.054-0.923-0.19-1.153-0.706-1.153-0.204 0-0.638-0.149-0.977-0.339-0.896-0.502-1.656-0.733-3.121-0.95-2.022-0.312-3.406-0.936-4.058-1.859-0.299-0.421-0.502-0.475-0.611-0.19zM13.272 11.152c0.096-0.096 0.221-0.022 0.543-0.136s0.314-0.29 0.611-0.271c0.297 0.019 0.611 0.209 0.611 0.475s-0.27 0.465-0.611 0.543c-0.341 0.078-0.627-0.069-0.882-0.204s-0.368-0.311-0.271-0.407zM17.75 11.627c0.063-0.11 0.95-0.204 1.221 0.068s-0.136 0.762-0.271 0.475c-0.136-0.287-1.013-0.433-0.95-0.543z"></path>
<path d="M25.269 7.23c-0.054 0.19-0.054 0.746-0.014 1.221 0.054 0.516 0.027 0.869-0.041 0.869-0.081 0-0.136-0.068-0.136-0.136 0-0.081-0.054-0.136-0.122-0.136-0.217 0-0.299 0.923-0.136 1.547 0.122 0.489 0.122 0.665-0.014 0.828-0.149 0.19-0.19 0.176-0.339-0.014-0.258-0.366-0.407 0.014-0.407 1.072 0 0.746-0.054 0.95-0.231 1.059-0.204 0.109-0.244 0.081-0.244-0.149 0-0.149-0.054-0.271-0.136-0.271-0.244 0-0.434 0.584-0.475 1.452-0.041 0.977-0.027 0.923-0.434 1.045-0.271 0.081-0.312 0.054-0.312-0.244 0-0.19-0.054-0.353-0.122-0.353-0.176 0-0.692 1.099-0.692 1.466 0 0.448-0.244 0.977-0.461 0.977-0.095 0-0.231 0.095-0.271 0.217-0.149 0.38-0.38 0.041-0.285-0.434 0.054-0.353 0.027-0.461-0.109-0.461-0.339 0-1.289 0.991-1.832 1.9-0.679 1.126-1.086 1.425-1.913 1.425-0.502 0-0.787-0.095-1.235-0.407-0.706-0.489-1.547-1.724-1.778-2.633l-0.163-0.651-0.489 0.176c-0.271 0.095-0.651 0.136-0.855 0.095-0.448-0.081-1.601-1.384-1.601-1.791 0-0.19-0.081-0.285-0.271-0.285-0.367 0-0.584-0.475-0.475-1.045 0.068-0.407 0.027-0.543-0.285-0.869l-0.38-0.394 0.434-0.529c0.244-0.299 0.434-0.651 0.434-0.774 0-0.136 0.095-0.353 0.231-0.489 0.122-0.136 0.19-0.285 0.149-0.326-0.122-0.109-1.493-0.461-1.846-0.461-0.394 0-1.696 1.289-1.615 1.615 0.027 0.122-0.122 0.556-0.326 0.964-0.448 0.923-0.679 1.696-0.516 1.859 0.054 0.054 0.041 0.38-0.027 0.719-0.312 1.371-0.109 2.836 0.366 2.66 0.122-0.041 0.204 0.041 0.244 0.231 0.041 0.163 0.136 0.624 0.217 1.018 0.176 0.896 0.489 1.52 0.76 1.52 0.163 0 0.19-0.095 0.122-0.448l-0.095-0.434 0.421 0.475c0.217 0.258 0.407 0.597 0.421 0.746 0.014 0.448 0.502 1.398 0.787 1.547 0.312 0.163 0.841 0.204 0.841 0.068 0-0.054-0.109-0.176-0.244-0.271-0.217-0.176-0.217-0.176 0.014-0.19 0.149 0 0.421 0.122 0.638 0.271 0.312 0.231 2.348 1.262 2.728 1.384 0.068 0.027 0.014 0.366-0.122 0.787l-0.258 0.733-0.217-0.366c-0.136-0.204-0.312-0.516-0.421-0.692s-0.366-0.353-0.584-0.394c-0.204-0.041-0.502-0.109-0.665-0.163-0.176-0.054-0.38 0.014-0.611 0.204-0.231 0.204-0.258 0.271-0.081 0.217 0.366-0.109 0.638 0.054 0.638 0.38 0 0.19 0.122 0.366 0.326 0.461s0.339 0.285 0.38 0.556c0.041 0.231 0.041 0.421 0.014 0.421s-0.312-0.271-0.624-0.611c-0.584-0.597-1.181-0.801-1.384-0.475-0.054 0.081-0.136 0.109-0.204 0.068-0.177-0.109-0.651 0.163-0.814 0.475-0.136 0.244-0.109 0.258 0.271 0.19 0.258-0.054 0.407-0.027 0.407 0.068 0 0.081 0.353 0.312 0.787 0.516l0.774 0.353-0.706 0.095c-0.719 0.109-1.588 0.543-1.71 0.869-0.095 0.244 0.109 1.154 0.299 1.344 0.109 0.109 0.149 0.041 0.149-0.217 0-0.312 0.054-0.366 0.407-0.366 0.258 0 0.448-0.095 0.543-0.271 0.122-0.231 0.285-0.271 1.045-0.271h0.909l-0.584 0.597-0.597 0.597 0.122 0.787c0.068 0.434 0.204 0.801 0.299 0.841 0.081 0.027 0.163-0.041 0.163-0.149 0-0.122 0.136-0.231 0.299-0.258 0.231-0.027 0.366-0.217 0.556-0.719 0.312-0.841 0.421-0.977 1.086-1.303l0.529-0.271 0.299 0.271c0.163 0.163 0.394 0.285 0.516 0.285 0.136 0 0.244 0.176 0.312 0.489 0.081 0.461 0.109 0.475 0.299 0.285 0.258-0.244 0.366-1.642 0.176-2.009-0.081-0.136-0.326-0.353-0.543-0.489l-0.407-0.231 0.312-0.176c0.421-0.231 0.502-0.217 0.502 0.095 0 0.149 0.068 0.271 0.136 0.271 0.231 0 0.679-0.529 0.679-0.814 0-0.149 0.068-0.271 0.136-0.271 0.081 0 0.177-0.014 0.231-0.041 0.054-0.014 0.136 0.136 0.176 0.353l0.068 0.366 0.448-0.299c0.231-0.176 0.556-0.57 0.719-0.882 0.231-0.489 0.353-0.584 0.774-0.651 1.113-0.176 2.266-0.502 3.081-0.868 3.854-1.751 6.324-5.727 6.148-9.921-0.027-1.018 0-1.221 0.163-1.221 0.109 0 0.285 0.054 0.38 0.122 0.136 0.081 0.136 0.136-0.041 0.285-0.461 0.38-0.027 1.479 0.597 1.493 0.109 0 0.149-0.081 0.095-0.217-0.041-0.109 0.014-0.353 0.136-0.529 0.204-0.312 0.244-0.326 0.584-0.136 0.217 0.109 0.489 0.339 0.611 0.529 0.122 0.204 0.326 0.285 0.475 0.285s0.258 0.122 0.217 0.204c-0.041 0.068-0.014 0.136 0.068 0.136 0.475 0 0.285-0.977-0.285-1.506l-0.407-0.38 0.339-0.095c0.19-0.041 0.964-0.109 1.031 0 0.122 0.204 0.407 0.109 0.407-0.122 0-0.299-0.801-1.059-1.018-0.964-0.163 0.054-0.176 0.027-0.027-0.231 0.081-0.163 0.217-0.339 0.285-0.38 0.258-0.19-1.018-0.394-1.411 0.068s-0.027-1.249-0.041-1.303-0.231 0.027-0.461 0.176c-0.38 0.244-0.448 0.366-0.448 0.828v0.543l-0.678-0.611c-0.38-0.339-0.869-0.692-1.086-0.801-0.231-0.095-0.489-0.366-0.624-0.679-0.122-0.285-0.339-0.611-0.475-0.733s-0.285-0.434-0.339-0.679c-0.095-0.556-0.285-0.597-0.407-0.109zM5.617 9.225c-0.176 0.312-0.502 1.045-0.706 1.629-0.217 0.584-0.529 1.221-0.692 1.425l-0.299 0.366-0.014-0.407c0-0.231-0.095-0.556-0.217-0.719-0.271-0.38-0.869-0.407-0.964-0.027-0.081 0.312-0.19 0.339-0.421 0.109-0.122-0.122-0.163-0.081-0.163 0.176 0 0.489 0.244 0.665 0.896 0.665 0.706 0 0.909 0.231 0.299 0.339-0.543 0.109-1.126-0.095-1.357-0.475-0.231-0.366-0.339-0.339-0.584 0.136-0.298 0.57-0.258 0.896 0.19 1.384 0.366 0.407 0.461 0.448 1.208 0.448 0.909 0 0.964 0.122 0.176 0.353-1.004 0.299-2.090-0.556-2.090-1.642 0-0.611-0.136-0.651-0.543-0.122-0.38 0.516-0.448 1.344-0.163 1.941 0.298 0.638 0.746 0.936 1.547 1.031 0.57 0.081 0.597 0.095 0.258 0.19-0.244 0.068-0.516 0.041-0.801-0.109-0.529-0.258-0.624-0.204-0.421 0.258 0.217 0.475 1.018 0.801 1.71 0.692 1.167-0.19 1.588-0.706 2.294-2.741 0.611-1.737 1.452-3.434 2.063-4.112 0.258-0.285 0.475-0.556 0.475-0.611 0-0.041-0.299-0.231-0.679-0.421l-0.665-0.339-0.339 0.584z"></path>
<path d="M18.931 13.514c0.081 0.299-0.312 0.489-0.421 0.204-0.041-0.109-0.204-0.19-0.353-0.19-0.231 0-0.258 0.041-0.149 0.258 0.217 0.38-0.149 0.651-0.597 0.448-0.312-0.136-0.339-0.122-0.339 0.149 0.014 0.461 0.461 1.262 0.692 1.194 0.109-0.027 0.285-0.081 0.421-0.108 0.136-0.041 0.244 0.041 0.312 0.217 0.136 0.421 0.475 0.353 0.556-0.122 0.081-0.339 0.136-0.394 0.407-0.326s0.326 0.027 0.326-0.217c0-0.217 0.054-0.271 0.204-0.217 0.421 0.149 0.204-0.543-0.312-1.045-0.556-0.543-0.855-0.651-0.746-0.244z"></path>
</svg>
