<svg version="1.1" xmlns="http://www.w3.org/2000/svg" viewBox="0 0 32 32">
<title>btc</title>
<path d="M25.814 15.901c-1.031-0.777-2.5-1.087-2.5-1.087s1.243-0.72 1.751-1.441c0.509-0.72 0.763-1.836 0.805-2.415s0.141-3.008-1.751-4.406c-1.464-1.082-3.142-1.511-5.394-1.651v-4.901h-3.022v4.844h-2.302v-4.844h-3.022v4.844h-5.945v3.138h1.748c0.476 0 1.324 0.053 1.684 0.456s0.424 0.614 0.424 1.398l0 12.505c0 0.296-0.056 0.663-0.311 0.903s-0.508 0.296-1.116 0.296h-1.807l-0.621 3.63h5.945v4.83h3.022v-4.83h2.302v4.83h3.022v-4.91c0.781-0.046 1.509-0.105 1.934-0.16 0.861-0.113 2.81-0.339 4.632-1.61s2.231-3.263 2.273-5.268c0.043-2.005-0.72-3.375-1.751-4.152zM13.401 8.261c0 0 0.96-0.084 1.906-0.071s1.779 0.042 3.022 0.424c1.242 0.382 1.976 1.314 2.005 2.415s-0.452 1.836-1.299 2.302-2.019 0.72-3.121 0.762c-1.101 0.042-2.514 0-2.514 0zM20.165 22.708c-0.692 0.381-2.076 0.72-3.417 0.819s-3.347 0.056-3.347 0.056v-6.482c0 0 1.921-0.099 3.418 0s2.753 0.48 3.318 0.763c0.565 0.282 1.554 0.903 1.554 2.386s-0.834 2.076-1.525 2.457z"></path>
</svg>
