<svg version="1.1" xmlns="http://www.w3.org/2000/svg" viewBox="0 0 32 32">
<title>btcp</title>
<path d="M23.352 18.401c-0.777 0.134-1.162 0.184-1.948 0.23-0.359 0.021-0.719 0.044-1.080 0.064 1.043 0.715 1.697 1.693 1.358 3.053-0.631 2.539-3.944 2.194-6.393 1.65l-0.824 3.375h0.001l-0.037 0.148-1.073 4.394 2.748 0.686 1.146-4.598c4.722 0.895 8.273 0.533 9.767-3.743 0.93-2.658 0.256-4.706-1.183-5.98-0.031 0.015-0.062 0.029-0.091 0.040-0.669 0.242-1.609 0.548-2.392 0.683z"></path>
<path d="M22.539 12.815c-0.781 3.132-5.6 1.541-7.163 1.151l1.379-5.536c1.563 0.39 6.598 1.119 5.785 4.385zM23.593 1.934l-2.769-0.691-1.104 4.435c-0.728-0.181-1.476-0.352-2.219-0.522l1.112-4.464-2.767-0.691-1.135 4.553c-0.603-0.137-1.194-0.273-1.768-0.416l-3.816-0.969-0.737 2.961s2.055 0.471 2.012 0.501c1.121 0.28 1.324 1.023 1.29 1.612l-3.107 12.477c-0.138 0.342-0.485 0.854-1.269 0.659 0.028 0.041-2.013-0.503-2.013-0.503l-1.374 3.173 3.604 0.9c0.67 0.169 1.327 0.345 1.974 0.511l-1.146 4.606 2.765 0.691 1.135-4.559 0.9-3.336 1.521-6.104c0.32 0.078 0.64 0.148 1.004 0.231 1.117 0.26 2.29 0.357 3.43 0.442 0.701 0.052 1.405 0.087 2.108 0.079 1.048-0.013 2.118-0.209 3.109-0.541 0.832-0.278 1.822-0.634 2.439-1.29 0.723-0.768 1.086-1.787 1.24-2.815 0.502-3.363-2.055-5.17-5.551-6.376z"></path>
</svg>
