<svg version="1.1" xmlns="http://www.w3.org/2000/svg" viewBox="0 0 32 32">
<title>byts</title>
<path d="M15.304 0.015c-0.166 0.013-0.411 0.038-0.546 0.055s-0.341 0.031-0.459 0.031c-0.118 0-0.274 0.018-0.347 0.040s-0.234 0.049-0.359 0.060c-0.125 0.011-0.292 0.037-0.371 0.058s-0.221 0.052-0.316 0.068c-0.357 0.061-0.577 0.11-0.637 0.142-0.034 0.018-0.092 0.033-0.129 0.033s-0.16 0.029-0.274 0.065l-0.208 0.065-0 3.815c-0 3.274 0.006 3.81 0.040 3.782 0.049-0.041 0.661-0.341 0.879-0.431 0.087-0.036 0.197-0.083 0.244-0.104s0.125-0.048 0.172-0.059c0.047-0.011 0.112-0.037 0.143-0.058s0.093-0.039 0.138-0.039c0.045 0 0.117-0.018 0.16-0.041s0.13-0.049 0.192-0.059c0.063-0.010 0.159-0.036 0.214-0.057 0.132-0.050 0.533-0.13 0.804-0.159 0.118-0.013 0.286-0.041 0.373-0.062 0.257-0.062 1.761-0.053 2.030 0.012 0.114 0.028 0.27 0.050 0.348 0.050s0.192 0.018 0.253 0.040c0.062 0.022 0.183 0.049 0.269 0.060 0.15 0.020 0.224 0.039 0.617 0.159 0.095 0.029 0.214 0.061 0.266 0.072s0.093 0.030 0.093 0.045c0 0.015 0.030 0.026 0.066 0.026s0.116 0.026 0.178 0.057c0.062 0.032 0.126 0.058 0.142 0.058s0.082 0.026 0.145 0.056c0.063 0.031 0.136 0.056 0.162 0.057s0.063 0.020 0.082 0.044c0.020 0.024 0.048 0.043 0.063 0.043 0.023 0 0.197 0.084 0.67 0.323 0.055 0.028 0.1 0.063 0.1 0.079s0.018 0.029 0.040 0.029c0.033 0 0.345 0.187 0.464 0.278 0.017 0.013 0.050 0.036 0.075 0.052 0.179 0.116 0.286 0.192 0.349 0.249 0.040 0.037 0.107 0.091 0.149 0.122s0.104 0.080 0.139 0.11c0.484 0.42 0.698 0.63 1.098 1.085 0.297 0.338 0.872 1.144 0.874 1.226 0 0.020 0.011 0.036 0.024 0.036s0.043 0.042 0.068 0.093c0.078 0.16 0.28 0.544 0.335 0.639 0.018 0.032 0.042 0.077 0.051 0.1s0.050 0.121 0.089 0.215c0.039 0.095 0.089 0.207 0.111 0.248s0.040 0.097 0.040 0.122c0 0.025 0.026 0.094 0.057 0.153s0.057 0.133 0.057 0.166c0 0.032 0.018 0.084 0.040 0.115s0.049 0.115 0.061 0.186c0.012 0.071 0.033 0.144 0.048 0.162s0.040 0.115 0.058 0.215c0.017 0.1 0.043 0.197 0.057 0.215s0.038 0.132 0.053 0.253c0.015 0.122 0.037 0.236 0.049 0.254s0.036 0.188 0.056 0.378c0.019 0.19 0.051 0.488 0.069 0.661 0.037 0.347 0.023 1.103-0.027 1.45-0.017 0.119-0.044 0.325-0.059 0.459s-0.040 0.296-0.056 0.359-0.041 0.179-0.057 0.258c-0.047 0.237-0.091 0.426-0.122 0.517-0.016 0.047-0.047 0.151-0.068 0.23-0.059 0.219-0.129 0.422-0.174 0.507-0.022 0.042-0.041 0.097-0.041 0.122s-0.026 0.094-0.057 0.153c-0.032 0.059-0.057 0.128-0.057 0.154s-0.019 0.063-0.043 0.083c-0.024 0.020-0.043 0.054-0.043 0.077 0 0.035-0.058 0.161-0.149 0.325-0.013 0.024-0.037 0.075-0.052 0.115s-0.041 0.091-0.057 0.115c-0.016 0.024-0.048 0.082-0.072 0.129s-0.069 0.125-0.101 0.172c-0.031 0.047-0.066 0.106-0.076 0.129-0.020 0.047-0.273 0.436-0.298 0.459-0.009 0.008-0.065 0.089-0.125 0.18s-0.132 0.188-0.16 0.215c-0.028 0.027-0.063 0.071-0.077 0.097-0.097 0.178-1.090 1.191-1.382 1.409-0.090 0.067-0.186 0.142-0.213 0.166-0.070 0.061-0.108 0.089-0.254 0.187-0.071 0.047-0.14 0.102-0.152 0.122s-0.035 0.036-0.051 0.036c-0.015 0-0.093 0.046-0.172 0.102s-0.173 0.114-0.208 0.13c-0.035 0.015-0.102 0.053-0.149 0.085s-0.125 0.077-0.172 0.1-0.106 0.055-0.129 0.069c-0.024 0.014-0.075 0.039-0.115 0.057s-0.091 0.043-0.115 0.056c-0.040 0.023-0.171 0.084-0.402 0.187-0.221 0.099-0.382 0.162-0.413 0.162-0.018 0-0.081 0.026-0.14 0.057s-0.134 0.057-0.166 0.057c-0.032 0-0.094 0.018-0.137 0.040s-0.152 0.055-0.242 0.074c-0.090 0.019-0.172 0.046-0.181 0.061s-0.068 0.027-0.131 0.027c-0.063 0-0.162 0.020-0.221 0.045s-0.191 0.052-0.293 0.061c-0.103 0.009-0.258 0.036-0.345 0.059-0.119 0.032-0.385 0.046-1.077 0.056-0.874 0.013-1.097 0.002-1.507-0.075-0.087-0.016-0.235-0.042-0.33-0.058-0.253-0.041-0.476-0.089-0.574-0.123-0.047-0.016-0.15-0.042-0.228-0.058s-0.168-0.047-0.2-0.069c-0.032-0.022-0.083-0.041-0.114-0.041-0.062 0-0.706-0.25-0.749-0.29-0.015-0.014-0.043-0.026-0.063-0.026-0.038 0-0.494-0.219-0.677-0.325-0.059-0.034-0.175-0.099-0.258-0.144s-0.172-0.1-0.197-0.122c-0.025-0.022-0.056-0.040-0.069-0.040s-0.048-0.021-0.077-0.048-0.078-0.062-0.108-0.079c-0.112-0.063-0.363-0.243-0.441-0.315-0.044-0.041-0.088-0.075-0.096-0.075-0.092 0-1.258-1.138-1.413-1.378-0.025-0.040-0.061-0.085-0.079-0.1-0.069-0.061-0.556-0.748-0.556-0.786 0-0.014-0.020-0.042-0.045-0.063s-0.063-0.077-0.086-0.126c-0.023-0.049-0.073-0.14-0.112-0.203s-0.143-0.263-0.231-0.445-0.185-0.378-0.216-0.436c-0.031-0.058-0.056-0.123-0.056-0.144s-0.026-0.086-0.057-0.145-0.057-0.126-0.057-0.148c0-0.022-0.019-0.077-0.042-0.122-0.052-0.102-0.126-0.329-0.161-0.495-0.015-0.069-0.040-0.142-0.057-0.162s-0.038-0.105-0.047-0.19-0.034-0.187-0.054-0.227c-0.020-0.040-0.045-0.157-0.056-0.258s-0.035-0.23-0.056-0.285c-0.020-0.055-0.046-0.26-0.058-0.454s-0.032-0.395-0.047-0.445c-0.015-0.053-0.026-2.979-0.026-7.017-0-3.809-0.011-6.933-0.024-6.941-0.028-0.017-0.295 0.152-0.421 0.267-0.047 0.043-0.157 0.132-0.244 0.198s-0.197 0.153-0.244 0.194c-0.047 0.041-0.195 0.167-0.327 0.281-0.38 0.326-1.142 1.095-1.526 1.542-0.102 0.119-0.192 0.222-0.2 0.23-0.068 0.066-0.258 0.315-0.258 0.338 0 0.016-0.017 0.035-0.037 0.043s-0.075 0.071-0.122 0.14-0.092 0.132-0.1 0.14c-0.081 0.080-0.689 0.964-0.689 1.002 0 0.012-0.026 0.046-0.057 0.074s-0.058 0.068-0.058 0.089c0 0.020-0.016 0.054-0.036 0.074s-0.052 0.070-0.072 0.11c-0.036 0.073-0.068 0.126-0.158 0.263-0.028 0.042-0.050 0.097-0.050 0.122s-0.012 0.046-0.026 0.046c-0.014 0-0.073 0.094-0.131 0.208s-0.117 0.231-0.132 0.258c-0.015 0.028-0.039 0.073-0.054 0.101-0.050 0.094-0.181 0.366-0.239 0.495-0.031 0.071-0.069 0.149-0.083 0.172s-0.033 0.062-0.042 0.086c-0.056 0.146-0.138 0.342-0.172 0.411-0.022 0.045-0.040 0.093-0.040 0.108s-0.025 0.081-0.055 0.148-0.070 0.17-0.088 0.229c-0.018 0.059-0.045 0.115-0.060 0.124s-0.027 0.045-0.028 0.079-0.026 0.115-0.056 0.178c-0.030 0.063-0.056 0.144-0.056 0.18s-0.027 0.113-0.058 0.172-0.058 0.146-0.058 0.194c-0.001 0.048-0.020 0.112-0.043 0.142s-0.042 0.093-0.042 0.139-0.019 0.124-0.042 0.174c-0.043 0.093-0.111 0.369-0.16 0.65-0.015 0.087-0.046 0.223-0.068 0.302-0.043 0.149-0.135 0.664-0.19 1.062-0.018 0.126-0.043 0.301-0.056 0.388s-0.025 0.261-0.027 0.388c-0.001 0.126-0.022 0.358-0.045 0.514-0.050 0.33-0.059 1.555-0.014 1.855 0.016 0.103 0.042 0.393 0.058 0.646s0.043 0.505 0.058 0.56 0.040 0.233 0.055 0.395c0.015 0.162 0.040 0.319 0.056 0.349s0.038 0.15 0.049 0.266 0.035 0.237 0.055 0.268c0.019 0.032 0.044 0.138 0.054 0.237s0.038 0.224 0.061 0.279 0.042 0.136 0.042 0.18c0 0.044 0.020 0.118 0.044 0.165s0.052 0.144 0.062 0.215 0.033 0.156 0.053 0.188c0.019 0.032 0.043 0.114 0.054 0.183s0.038 0.153 0.061 0.186 0.042 0.093 0.042 0.134c0 0.040 0.018 0.099 0.041 0.131s0.050 0.109 0.061 0.172c0.011 0.062 0.037 0.133 0.057 0.156s0.046 0.088 0.058 0.144 0.039 0.126 0.061 0.157c0.022 0.031 0.039 0.075 0.039 0.097s0.025 0.094 0.055 0.159c0.143 0.305 0.175 0.384 0.175 0.428 0 0.027 0.013 0.048 0.028 0.048s0.037 0.035 0.047 0.079c0.017 0.069 0.080 0.209 0.159 0.352 0.013 0.024 0.037 0.075 0.052 0.115s0.042 0.091 0.058 0.115c0.016 0.024 0.036 0.063 0.045 0.086s0.029 0.063 0.043 0.086c0.015 0.024 0.048 0.088 0.073 0.144s0.054 0.107 0.064 0.115c0.010 0.008 0.057 0.088 0.104 0.179 0.137 0.264 0.167 0.314 0.28 0.484 0.059 0.089 0.107 0.17 0.107 0.181 0 0.022 0.108 0.18 0.165 0.241 0.020 0.021 0.036 0.053 0.036 0.070s0.045 0.086 0.1 0.154c0.055 0.067 0.1 0.131 0.1 0.14 0 0.018 0.115 0.189 0.145 0.217 0.009 0.008 0.060 0.079 0.115 0.158s0.112 0.159 0.128 0.179c0.016 0.020 0.055 0.070 0.086 0.111s0.080 0.1 0.108 0.13 0.050 0.064 0.050 0.076c0 0.012 0.039 0.063 0.086 0.113s0.153 0.173 0.236 0.273c0.526 0.634 1.327 1.436 1.918 1.919 0.087 0.071 0.171 0.143 0.187 0.16s0.080 0.068 0.144 0.114c0.063 0.046 0.131 0.097 0.15 0.113s0.069 0.056 0.11 0.087c0.041 0.032 0.090 0.071 0.108 0.087s0.101 0.073 0.184 0.127c0.083 0.053 0.151 0.108 0.151 0.121s0.017 0.024 0.039 0.024c0.021 0 0.062 0.026 0.091 0.057s0.064 0.057 0.079 0.057c0.015 0 0.082 0.045 0.149 0.1s0.137 0.101 0.156 0.101c0.018 0 0.056 0.023 0.084 0.050s0.109 0.081 0.179 0.119c0.070 0.038 0.147 0.084 0.171 0.102s0.075 0.049 0.115 0.068c0.040 0.019 0.111 0.060 0.158 0.091s0.118 0.073 0.158 0.092c0.039 0.020 0.078 0.043 0.086 0.053s0.098 0.059 0.201 0.11c0.103 0.051 0.206 0.105 0.23 0.12s0.075 0.040 0.115 0.056c0.040 0.016 0.091 0.040 0.115 0.054s0.075 0.040 0.115 0.057c0.040 0.017 0.091 0.043 0.115 0.056 0.044 0.025 0.111 0.056 0.416 0.192 0.095 0.042 0.225 0.101 0.289 0.131s0.131 0.054 0.147 0.054c0.017 0 0.068 0.019 0.113 0.043s0.102 0.043 0.126 0.043c0.024 0 0.069 0.018 0.1 0.040s0.102 0.049 0.157 0.061 0.126 0.039 0.157 0.061 0.083 0.040 0.115 0.040 0.11 0.026 0.173 0.056c0.063 0.030 0.145 0.056 0.181 0.056s0.101 0.019 0.144 0.041c0.043 0.022 0.136 0.049 0.207 0.061s0.143 0.032 0.159 0.045c0.016 0.013 0.113 0.043 0.215 0.066s0.237 0.055 0.3 0.071c0.063 0.016 0.173 0.044 0.244 0.061s0.24 0.049 0.375 0.070c0.135 0.021 0.273 0.052 0.307 0.070s0.129 0.033 0.213 0.033c0.084 0 0.275 0.026 0.425 0.057s0.37 0.057 0.488 0.058c0.118 0.001 0.351 0.020 0.517 0.043 0.199 0.027 0.56 0.041 1.062 0.041s0.863-0.014 1.062-0.041c0.166-0.023 0.401-0.042 0.522-0.042s0.352-0.027 0.512-0.058c0.16-0.032 0.354-0.058 0.429-0.058s0.182-0.018 0.235-0.040c0.053-0.022 0.181-0.049 0.283-0.061s0.211-0.033 0.24-0.049c0.029-0.015 0.138-0.040 0.242-0.055s0.203-0.038 0.22-0.052c0.017-0.014 0.089-0.034 0.16-0.045 0.12-0.018 0.385-0.092 0.589-0.163 0.047-0.017 0.131-0.041 0.187-0.054 0.133-0.031 0.359-0.11 0.506-0.176 0.065-0.029 0.142-0.054 0.172-0.054s0.079-0.020 0.11-0.043c0.031-0.023 0.079-0.042 0.108-0.042s0.1-0.026 0.159-0.057c0.059-0.032 0.122-0.058 0.141-0.058s0.071-0.019 0.115-0.042c0.045-0.023 0.146-0.069 0.225-0.102s0.202-0.088 0.273-0.121c0.071-0.033 0.149-0.069 0.172-0.080s0.069-0.034 0.1-0.051c0.032-0.017 0.167-0.085 0.302-0.15s0.296-0.15 0.359-0.188c0.063-0.037 0.145-0.082 0.182-0.099s0.134-0.073 0.215-0.124c0.245-0.155 0.26-0.163 0.334-0.199 0.040-0.019 0.117-0.068 0.172-0.109s0.136-0.090 0.179-0.108c0.043-0.019 0.079-0.047 0.079-0.063s0.013-0.029 0.028-0.029c0.027 0 0.341-0.206 0.431-0.282 0.024-0.021 0.147-0.114 0.274-0.207 0.394-0.29 0.483-0.358 0.526-0.401 0.023-0.023 0.115-0.101 0.204-0.172 0.214-0.172 0.212-0.17 0.581-0.518 0.511-0.482 1.014-1.007 1.332-1.393 0.078-0.095 0.158-0.183 0.178-0.195s0.036-0.042 0.036-0.065c0-0.023 0.010-0.042 0.023-0.042s0.061-0.052 0.108-0.116c0.132-0.181 0.234-0.314 0.335-0.435 0.027-0.033 0.057-0.084 0.067-0.113s0.029-0.054 0.045-0.054c0.015 0 0.040-0.032 0.055-0.072s0.041-0.072 0.057-0.072c0.016 0 0.029-0.017 0.029-0.039s0.026-0.062 0.057-0.091c0.032-0.029 0.058-0.067 0.058-0.086s0.026-0.058 0.057-0.086c0.032-0.029 0.057-0.063 0.057-0.076s0.042-0.086 0.093-0.162c0.117-0.172 0.121-0.18 0.351-0.58 0.104-0.182 0.202-0.35 0.216-0.373 0.065-0.105 0.516-1.026 0.516-1.053 0-0.017 0.019-0.047 0.043-0.066s0.043-0.068 0.043-0.107c0-0.039 0.026-0.104 0.057-0.144s0.057-0.095 0.057-0.121c0-0.026 0.019-0.073 0.042-0.104s0.043-0.082 0.043-0.113c0.001-0.032 0.027-0.096 0.058-0.144s0.057-0.109 0.057-0.137c0-0.028 0.026-0.099 0.058-0.157s0.057-0.134 0.057-0.166c0-0.032 0.018-0.085 0.041-0.117s0.050-0.109 0.062-0.172c0.011-0.062 0.038-0.139 0.060-0.17s0.039-0.089 0.039-0.129 0.020-0.11 0.043-0.155c0.024-0.046 0.051-0.136 0.061-0.201s0.031-0.144 0.048-0.176c0.027-0.053 0.049-0.143 0.137-0.56 0.018-0.087 0.051-0.22 0.074-0.295s0.053-0.235 0.068-0.356c0.015-0.12 0.039-0.233 0.053-0.251s0.034-0.138 0.044-0.269c0.010-0.13 0.032-0.272 0.048-0.314s0.042-0.253 0.057-0.467c0.015-0.214 0.043-0.486 0.063-0.605 0.049-0.295 0.048-2.29-0.002-2.46-0.019-0.066-0.047-0.308-0.061-0.537s-0.039-0.441-0.055-0.47c-0.016-0.029-0.038-0.169-0.049-0.31s-0.032-0.279-0.046-0.307c-0.014-0.027-0.039-0.156-0.055-0.286s-0.040-0.25-0.054-0.266c-0.013-0.016-0.039-0.126-0.057-0.243s-0.044-0.227-0.057-0.244c-0.013-0.017-0.033-0.095-0.045-0.174s-0.037-0.176-0.057-0.215-0.045-0.129-0.056-0.198c-0.011-0.069-0.038-0.153-0.061-0.186s-0.042-0.097-0.042-0.142c0-0.045-0.015-0.109-0.033-0.143s-0.049-0.12-0.070-0.192c-0.056-0.199-0.123-0.381-0.17-0.465-0.023-0.042-0.043-0.101-0.043-0.131s-0.019-0.080-0.042-0.11c-0.023-0.031-0.043-0.076-0.043-0.1s-0.026-0.093-0.057-0.154c-0.031-0.060-0.064-0.146-0.074-0.191s-0.036-0.097-0.059-0.116c-0.023-0.019-0.041-0.059-0.041-0.090 0-0.047-0.050-0.163-0.149-0.34-0.013-0.024-0.037-0.075-0.053-0.115s-0.076-0.162-0.133-0.273-0.151-0.292-0.209-0.404c-0.058-0.111-0.127-0.234-0.154-0.272s-0.049-0.092-0.049-0.12c0-0.028-0.012-0.051-0.026-0.051s-0.073-0.081-0.13-0.179c-0.123-0.214-0.146-0.25-0.267-0.429-0.051-0.076-0.093-0.144-0.093-0.151 0-0.063-0.819-1.17-1.091-1.475-0.024-0.027-0.106-0.126-0.183-0.22s-0.158-0.183-0.179-0.195c-0.022-0.013-0.040-0.034-0.040-0.048 0-0.059-1.184-1.211-1.536-1.494-0.126-0.102-0.243-0.2-0.258-0.218s-0.1-0.084-0.187-0.147c-0.087-0.063-0.176-0.136-0.197-0.162s-0.051-0.047-0.065-0.047c-0.014 0-0.050-0.023-0.079-0.050s-0.122-0.095-0.204-0.151c-0.082-0.055-0.174-0.123-0.204-0.151s-0.065-0.050-0.079-0.050-0.082-0.042-0.152-0.093c-0.070-0.051-0.147-0.106-0.172-0.122-0.16-0.102-0.308-0.199-0.375-0.246-0.042-0.030-0.152-0.095-0.244-0.144s-0.257-0.139-0.368-0.199c-0.111-0.061-0.337-0.178-0.502-0.262s-0.306-0.162-0.311-0.174c-0.005-0.013-0.029-0.023-0.052-0.023s-0.090-0.024-0.148-0.054c-0.144-0.073-0.272-0.13-0.494-0.219-0.103-0.041-0.225-0.093-0.273-0.114s-0.125-0.048-0.172-0.060c-0.047-0.012-0.112-0.038-0.143-0.060s-0.083-0.039-0.116-0.039-0.085-0.018-0.116-0.039-0.107-0.048-0.169-0.059c-0.062-0.011-0.139-0.038-0.172-0.058s-0.108-0.046-0.167-0.056-0.143-0.037-0.187-0.060c-0.044-0.023-0.115-0.042-0.158-0.042s-0.12-0.019-0.172-0.041c-0.115-0.050-0.409-0.125-0.634-0.161-0.092-0.015-0.19-0.040-0.218-0.055s-0.157-0.041-0.286-0.057c-0.129-0.016-0.257-0.041-0.285-0.056s-0.16-0.036-0.294-0.047-0.302-0.039-0.373-0.060c-0.071-0.021-0.233-0.040-0.359-0.040s-0.385-0.020-0.574-0.043c-0.429-0.052-1.422-0.075-1.823-0.042zM15.617 11.957c-0.041 0.013-0.176 0.032-0.302 0.043-0.206 0.018-0.487 0.082-0.716 0.163-0.047 0.017-0.128 0.041-0.18 0.054s-0.126 0.044-0.164 0.069c-0.039 0.025-0.096 0.046-0.127 0.046s-0.064 0.012-0.074 0.027c-0.009 0.015-0.097 0.068-0.196 0.118s-0.185 0.099-0.193 0.11c-0.008 0.010-0.106 0.080-0.217 0.155-0.364 0.244-0.837 0.738-1.11 1.159-0.222 0.343-0.46 0.851-0.496 1.059-0.011 0.063-0.031 0.128-0.044 0.145s-0.039 0.118-0.056 0.227c-0.017 0.108-0.046 0.223-0.063 0.256-0.054 0.102-0.045 1.242 0.012 1.429 0.026 0.085 0.060 0.219 0.075 0.298 0.043 0.22 0.092 0.389 0.153 0.531 0.124 0.286 0.145 0.333 0.184 0.402 0.022 0.039 0.054 0.107 0.072 0.151s0.044 0.079 0.058 0.079c0.014 0 0.026 0.015 0.026 0.033 0 0.133 0.555 0.798 0.916 1.099s1.050 0.706 1.2 0.706c0.032 0 0.075 0.019 0.095 0.043s0.060 0.043 0.089 0.043 0.112 0.020 0.184 0.045c0.585 0.199 1.58 0.204 2.254 0.013 0.103-0.029 0.222-0.061 0.266-0.070s0.079-0.030 0.079-0.045 0.031-0.028 0.069-0.028c0.038 0 0.19-0.064 0.337-0.142s0.308-0.162 0.355-0.187c0.232-0.12 0.765-0.58 1-0.863 0.079-0.095 0.151-0.179 0.161-0.187 0.083-0.064 0.548-0.879 0.548-0.96 0-0.013 0.024-0.078 0.054-0.142 0.238-0.525 0.397-2.074 0.233-2.272-0.015-0.018-0.040-0.127-0.057-0.243s-0.041-0.225-0.056-0.242c-0.014-0.017-0.035-0.083-0.047-0.146s-0.045-0.16-0.074-0.215c-0.029-0.055-0.053-0.113-0.053-0.13 0-0.046-0.206-0.445-0.309-0.597-0.051-0.076-0.093-0.148-0.093-0.161s-0.026-0.046-0.057-0.075c-0.032-0.029-0.057-0.062-0.057-0.073 0-0.025-0.114-0.16-0.359-0.424-0.153-0.166-0.464-0.431-0.645-0.551-0.036-0.024-0.094-0.065-0.13-0.092-0.096-0.073-0.739-0.396-0.79-0.396-0.024-0-0.078-0.018-0.12-0.040s-0.133-0.049-0.201-0.060c-0.068-0.011-0.138-0.032-0.155-0.045-0.080-0.065-1.137-0.16-1.278-0.115z"></path>
</svg>
