<svg version="1.1" xmlns="http://www.w3.org/2000/svg" viewBox="0 0 32 32">
<title>chz</title>
<path d="M16.030 32l-14.050-30.947 28.098 0.055-14.048 30.892zM4.407 2.62l11.624 25.603 11.622-25.558-23.246-0.045z"></path>
<path d="M9.14 15.343l19.314-14.084 0.921 1.262-19.314 14.084z"></path>
<path d="M2.77 2.475l0.925-1.259 19.264 14.151-0.925 1.259z"></path>
<path d="M3.168 4.049c-0.541 0-1.049-0.21-1.431-0.593s-0.593-0.891-0.593-1.431c0-1.116 0.908-2.025 2.025-2.025s2.025 0.908 2.025 2.025c0 1.117-0.909 2.024-2.025 2.024zM28.831 4.049c-0.541 0-1.049-0.21-1.431-0.593s-0.593-0.891-0.593-1.431c0-1.116 0.908-2.025 2.025-2.025s2.025 0.908 2.025 2.025c0 1.117-0.909 2.024-2.025 2.024zM22.496 17.553c-0.541 0-1.049-0.21-1.431-0.593s-0.593-0.891-0.593-1.431c0-1.116 0.908-2.025 2.025-2.025 0.541 0 1.049 0.21 1.431 0.593s0.593 0.891 0.593 1.431c0 1.117-0.908 2.025-2.025 2.025zM16.063 31.981c-0.541 0-1.049-0.21-1.431-0.593s-0.593-0.891-0.593-1.431c0-1.116 0.908-2.025 2.025-2.025 0.541 0 1.049 0.21 1.431 0.593s0.593 0.891 0.593 1.431c0 1.117-0.908 2.025-2.025 2.025zM9.762 17.553c-1.116 0-2.025-0.908-2.025-2.025s0.908-2.025 2.025-2.025c0.541 0 1.049 0.21 1.431 0.593s0.593 0.891 0.593 1.431c0 1.117-0.908 2.025-2.024 2.025z"></path>
</svg>
