<svg version="1.1" xmlns="http://www.w3.org/2000/svg" viewBox="0 0 32 32">
<title>clam</title>
<path d="M18.895 2.801c0 1.432-0.043 6.502-0.598 11.613-0.524 4.818-1.355 10.104-1.545 11.291 0.24 0.023 0.467 0.061 0.682 0.109 0.457-0.934 2.709-5.616 3.74-9.134 1.181-4.028 1.863-9.399 1.882-11.571 0.001-0.142 0.003-0.271 0.003-0.391-0.392-0.606-1.247-1.734-2.353-2.036-0.965-0.263-1.527-0.148-1.812-0.026z"></path>
<path d="M23.534 5.112c-0.020 2.2-0.708 7.633-1.901 11.702-1.013 3.456-3.185 8.009-3.728 9.125 0.232 0.074 0.459 0.165 0.679 0.271 0.584-0.763 3.262-4.323 4.938-7.542 1.976-3.798 3.813-8.836 4.061-9.813l0.102-0.4c-0.22-0.679-0.744-1.942-1.762-2.607-1.051-0.686-1.971-0.762-2.389-0.753z"></path>
<path d="M23.945 18.888c-1.652 3.174-4.263 6.669-4.937 7.554 0.278 0.169 0.54 0.365 0.781 0.584 0.717-0.705 3.708-3.679 5.698-6.187 2.298-2.894 4.581-6.957 4.954-7.838l0.194-0.459c-0.053-0.583-0.216-1.51-0.711-2.195-0.58-0.802-1.469-1.205-1.883-1.358-0.313 1.209-2.215 6.283-4.097 9.9zM8.008 5.488c0.18 1.424 1.030 5.939 2.515 10.801 1.332 4.36 3.312 8.712 3.757 9.671 0.231-0.075 0.467-0.135 0.707-0.18-0.175-1.038-1.083-6.5-1.645-11.635-0.614-5.613-0.864-10.369-0.897-11.336-0.001-0.033-0.002-0.063-0.003-0.095-0.418-0.123-1.352-0.275-2.551 0.281-1.103 0.511-1.679 1.472-1.94 2.049 0.017 0.132 0.035 0.28 0.056 0.444zM12.922 2.792c0.033 0.962 0.282 5.701 0.895 11.3 0.563 5.146 1.473 10.62 1.643 11.62 0.228-0.024 0.458-0.036 0.688-0.036 0.042 0 0.082 0.002 0.125 0.003 0.173-1.079 1.019-6.441 1.549-11.317 0.553-5.087 0.596-10.135 0.596-11.561v-0.229c-0.449-0.401-1.492-1.184-2.767-1.184s-2.296 0.784-2.734 1.184c0.002 0.072 0.004 0.144 0.006 0.222zM16.148 26.154c-2.605 0-3.794 1.553-4.145 2.129 2.203 1.616 3.603 2.33 4.165 2.33 0.563 0 2.159-0.865 4.119-2.261-0.361-0.607-1.552-2.199-4.139-2.199z"></path>
<path d="M30.869 13.215c-0.412 0.947-2.705 5.021-5.008 7.921-2.003 2.524-5.005 5.51-5.734 6.227 0.202 0.221 0.384 0.459 0.544 0.712 1.564-1.144 3.055-2.384 4.466-3.713 3.763-3.554 6.759-7.068 6.859-8.84 0.076-1.347-0.733-2.048-1.126-2.308zM1.312 12.872c0.859 2.177 2.496 4.756 4.868 7.665 2.812 3.451 5.565 5.894 6.255 6.49 0.161-0.147 0.331-0.283 0.51-0.408-0.668-0.792-3.055-3.746-5.252-8.022-2.461-4.79-3.396-8.104-3.795-9.518l-0.062-0.22c-0.55 0.147-1.94 0.608-2.485 1.616-0.279 0.515-0.364 1.052-0.369 1.508 0.104 0.299 0.214 0.595 0.331 0.889z"></path>
<path d="M12.097 27.367c-0.744-0.644-3.49-3.093-6.289-6.527-2.317-2.844-3.943-5.382-4.843-7.553-0.338 0.297-1.039 1.088-0.959 2.49 0.104 1.837 2.743 4.744 7.56 8.925 1.55 1.345 2.9 2.435 4.051 3.297 0.142-0.223 0.302-0.434 0.48-0.63zM4.298 8.737l0.060 0.213c0.396 1.401 1.321 4.683 3.76 9.43 2.23 4.341 4.652 7.297 5.235 7.983 0.155-0.087 0.315-0.165 0.478-0.235-0.48-1.036-2.441-5.364-3.765-9.7-1.494-4.892-2.351-9.443-2.532-10.88l-0.007-0.055c-0.422-0.023-1.329 0.020-2.205 0.667-0.744 0.549-1.048 1.44-1.171 2.033 0.037 0.15 0.085 0.328 0.147 0.544z"></path>
</svg>
