<svg version="1.1" xmlns="http://www.w3.org/2000/svg" viewBox="0 0 32 32">
<title>cnd</title>
<path d="M18.169 31.552l2.275-0.252-2.704-1.381 0.428 1.633zM20.509 31.312l-2.346 0.26-0.010-0.007-0.441-1.682 2.798 1.429zM20.21 23.669l-5.143-0.806 3.935 3.21 1.208-2.404zM15.001 22.834l5.238 0.821-1.23 2.448-4.007-3.269zM7.578 11.117l-1.844 3.364 3.043-0.21-1.199-3.154zM5.701 14.502l1.88-3.43 1.222 3.216-3.103 0.214z"></path>
<path d="M4.427 10.51l2.533-1.044 0.012 0.005 0.625 1.635-3.169-0.597zM7.567 11.082l-0.609-1.595-2.464 1.016 3.073 0.579zM7.64 7.349l-0.694 2.216 0.467-4.799 0.019 0 0.209 2.582zM7.421 4.874l-0.439 4.511 0.639-2.037-0.2-2.474z"></path>
<path d="M6.978 9.458l1.115-0.468 1.619-2.519-2.074 0.885-0.66 2.102zM9.761 6.43l-0.017 0.026-1.64 2.549-1.157 0.487 0.673-2.145 2.14-0.917zM4.444 10.489l2.446 1.186 0.005 0.012-1.18 2.837-1.271-4.035zM5.718 14.469l1.156-2.781-2.398-1.163 1.242 3.944z"></path>
<path d="M6.884 11.672l0.676-0.572-3.032-0.571 2.356 1.143zM7.603 11.089l-0.711 0.601-0.010 0.001-2.489-1.207 3.211 0.605z"></path>
<path d="M5.725 14.497l-0.017-0.008 1.171-2.812 0.735-0.621-1.889 3.442zM7.549 11.135l-0.654 0.552-1.101 2.646 1.755-3.198zM11.591 20.257v-2.702l-1.979 0.106-2.674 2.928 4.654-0.332zM9.601 17.646l2-0.11 0.010 0.009v2.721l-0.009 0.009-4.71 0.336 2.709-2.966zM6.86 20.595l4.752-0.339-0.269 1.588-0.012 0.008-4.471-1.256zM6.97 20.606l4.356 1.224 0.264-1.553-4.62 0.33zM11.936 27.125l2.061-2.787 5.014 1.735-3.661 2.339-3.414-1.287zM15.343 28.394l3.624-2.315-4.96-1.723-2.042 2.761 3.377 1.278z"></path>
<path d="M13.462 30.845l1.011-1.62-2.513-2.105-1.291 0.929 2.793 2.796zM11.955 27.101l0.012 0 2.525 2.115 0.002 0.012-1.028 1.647-2.826-2.828 1.315-0.947zM11.871 27.045l3.492 1.356-0.872 0.828-0.013 0-2.608-2.185zM14.485 29.21l0.844-0.802-3.357-1.304 2.514 2.106z"></path>
<path d="M17.731 29.893l0.446 1.691-3.707-2.359 0.872-0.831 0.012-0.001 2.377 1.5zM15.35 28.413l-0.849 0.809 3.646 2.32-0.429-1.635-2.368-1.494zM13.508 30.866l3.169 1.102-0.627-1.332-2.542 0.23zM16.065 30.621l0.649 1.379-3.295-1.145 2.636-0.239 0.009 0.005z"></path>
<path d="M16.079 30.633l-2.633 0.239 1.038-1.663 1.595 1.424zM14.488 29.238l-1.006 1.612 2.552-0.231-1.546-1.38z"></path>
<path d="M18.049 31.502l-3.47-2.208 1.483 1.324 1.988 0.884zM16.063 30.618l-0.002-0.002 0.001 0.001 0.001 0.001zM16.052 30.634l-1.573-1.404 0.011-0.015 3.676 2.339-0.009 0.017-2.106-0.937z"></path>
<path d="M16.037 30.606l2.153 0.956-1.492 0.431-0.011-0.005-0.65-1.381zM16.701 31.972l1.434-0.414-2.059-0.914 0.625 1.328zM6.982 20.574l-1.963 1.101-0.013-0.004-0.268-0.525 2.244-0.571zM4.766 21.157l0.253 0.495 1.829-1.025-2.082 0.53z"></path>
<path d="M6.91 20.592l4.43 1.239-1.409 2.302-4.94-2.469 1.919-1.072zM5.032 21.664l4.888 2.453 1.392-2.274-4.395-1.232-1.884 1.053z"></path>
<path d="M6.858 26.74l-1.866-5.104 4.129 3.097-2.263 2.007zM9.091 24.734l-4.060-3.045 1.835 5.018 2.225-1.973z"></path>
<path d="M5.102 21.719l4.004 3.003 0.801-0.591-4.805-2.412zM9.112 24.741l-4.106-3.071 0.010-0.016 4.928 2.473-0.832 0.614z"></path>
<path d="M9.932 24.113l0.745 4.015-1.579-3.39 0.003-0.012 0.831-0.613zM9.118 24.737l1.513 3.248-0.712-3.838-0.801 0.591z"></path>
<path d="M10.638 28.031l-1.535-3.282-2.223 1.971 3.758 1.311zM9.109 24.718l1.565 3.346-3.831-1.336 2.266-2.009zM18.992 26.084l-1.265 3.825 6.486-2.196-5.221-1.628zM17.697 29.938l1.28-3.87 5.297 1.642-6.577 2.227z"></path>
<path d="M24.264 27.728l-5.324-1.661 4.108-0.441 1.217 2.102zM23.043 25.645l-4.011 0.431 5.191 1.619-1.18-2.050zM24.234 27.71l0.009-0.008 4.745-0.193-5.12 2.847 0.366-2.646zM23.892 30.322l5.017-2.79-4.658 0.189-0.36 2.601z"></path>
<path d="M28.895 27.513l-5.827-1.861 1.18 2.050 4.646-0.189zM23.028 25.619l5.975 1.909-4.759 0.193-1.216-2.102zM15.36 28.4l2.347 1.509 1.263-3.811-3.61 2.302zM17.717 29.938l-2.392-1.538 3.68-2.347-1.288 3.885zM20.429 31.328l1.747-1.413 1.741 0.422-3.489 0.991zM23.844 30.338l-1.659-0.405-1.672 1.351 3.33-0.946z"></path>
<path d="M22.2 29.917l1.672 0.409 0.357-2.586-2.029 2.177zM23.89 30.339l-0.012 0.008-1.714-0.419 2.092-2.245-0.367 2.656z"></path>
<path d="M24.276 27.69l-2.087 2.239-4.535 0.003 6.622-2.242zM17.769 29.914h4.409l2.033-2.181-6.441 2.181zM22.156 29.933h-4.43l2.744 1.362 1.686-1.362zM17.645 29.914h4.564l-1.732 1.4-2.832-1.4zM19.053 26.115l-5.061-1.77 1.034-1.502 4.027 3.271zM15.036 22.863l-1.015 1.473 4.936 1.726-3.921-3.199z"></path>
<path d="M14.005 24.326l1.014-1.471-3.66-0.999 2.646 2.47zM15.050 22.843l-1.041 1.511-2.719-2.537 3.76 1.026z"></path>
<path d="M13.994 24.342l-2.658-2.487 0.623 5.237 2.035-2.75zM11.311 21.805l2.702 2.528-2.067 2.808-0.635-5.336z"></path>
<path d="M11.967 27.154l-2.052-3.021 1.415-2.331 0.637 5.353zM11.939 27.079l-0.621-5.221-1.384 2.269 2.005 2.952z"></path>
<path d="M9.94 24.171l0.719 3.866 1.281-0.922-1.999-2.944zM11.958 27.125l-1.312 0.945-0.741-3.984 2.055 3.026-0.002 0.013zM9.94 24.171l0.719 3.866 1.281-0.922-1.999-2.944zM11.958 27.125l-1.312 0.945-0.741-3.984 2.055 3.026-0.002 0.013zM4.746 14.858l2.621 2.405-2.618 3.909-1.752-4.932 1.749-1.382zM3.017 16.24l1.737 4.89 2.594-3.859-2.597-2.393-1.734 1.362zM7.346 17.309l-2.573 3.827 2.133-0.543 0.44-3.284zM6.912 20.591l-0.007 0.008 0.001-0.006 0.006-0.002zM6.917 20.61l-2.187 0.557 2.646-3.936-0.452 3.371-0.007 0.008z"></path>
<path d="M6.901 20.629l0.45-3.361 0.011-0.008 2.264 0.385-2.725 2.984zM9.589 17.658l-2.22-0.378-0.441 3.291 2.661-2.913z"></path>
<path d="M7.363 17.26l2.2 0.377-4.743-2.721 2.542 2.345zM9.665 17.674l-2.31-0.397-2.671-2.461 4.981 2.859z"></path>
<path d="M5.71 14.481l3.079-0.21 2.698 0.951-1.866 2.44-4.891-2.797 0.98-0.383zM5.715 14.499l-0.942 0.368 4.838 2.776 1.845-2.413-2.67-0.941-3.071 0.21z"></path>
<path d="M4.743 14.879l-0.297-4.448 1.277 4.055-0.006 0.012-0.975 0.381zM5.703 14.484l-1.227-3.896 0.284 4.264 0.942-0.368zM23.755 22.817l-3.524 0.853-1.201 2.389 4.725-3.242zM20.216 23.658l3.635-0.883-4.871 3.342 1.236-2.459z"></path>
<path d="M19.025 26.061l4.004-0.423 0.754-2.818-4.757 3.24zM23.035 25.638l-0.008 0.007 0.002-0.006 0.006-0.001zM23.045 25.65l-4.093 0.438 4.862-3.311-0.768 2.873zM11.624 17.574l1.719 3.337 0.573-1.835-2.292-1.502zM13.937 19.075l-0.589 1.886-1.773-3.442 2.358 1.545 0.004 0.011z"></path>
<path d="M13.959 19.104l-2.366-1.55-0.135-2.361 2.501 3.911zM11.481 15.264l0.127 2.277 2.288 1.499-2.415-3.775z"></path>
<path d="M11.589 17.537l-0.126-2.288-1.833 2.396 1.959-0.108zM11.479 15.197l0.13 2.349-0.009 0.010-2.010 0.111 1.889-2.47z"></path>
<path d="M8.802 14.279l2.662 0.939 0.164-0.804 0.315-1.549-3.141 1.414zM11.947 12.85l0-0.001v0.001zM11.966 12.85l-0.319 1.568-0.168 0.825-2.727-0.962 3.214-1.447v0.015z"></path>
<path d="M11.947 12.85l0.009-0.008 1.611-0.111-2.115 2.541 0.008-0.037 0.004-0.017 0.010-0.049c-0.156 0.913-0.105 0.673-0.055 0.433l0.201-1.143 0.007-0.033 0.002-0.009 0.319-1.567zM11.647 14.421l-0.002 0.009-0.007 0.033c-0.234 1.279-0.287 1.528-0.34 1.778l0.188-1.039 2.038-2.448-1.56 0.108-0.317 1.56z"></path>
<path d="M13.527 12.733l-1.135-1.522-0.424 1.63 1.559-0.108zM12.384 11.168l1.179 1.582-1.62 0.112 0.44-1.694z"></path>
<path d="M11.965 12.854l-3.232 1.462 3.672-3.153-0.44 1.691zM12.372 11.217l-3.526 3.028 3.102-1.4 0.423-1.628z"></path>
<path d="M8.796 14.262l3.583-3.074 0.662-3.282-4.358 5.73 0.113 0.626zM13.076 7.829l-0.008 0.040-0.673 3.328-3.611 3.101-0.12-0.663 4.412-5.806z"></path>
<path d="M13.764 8.505l-0.218 4.286-1.166-1.595 0.657-3.291 0.726 0.6zM13.050 7.939l-0.652 3.248 1.132 1.549 0.218-4.22-0.698-0.577zM13.763 8.521l-0.738-0.603 3.775-1.116-3.037 1.719zM16.647 6.867l-3.582 1.059 0.695 0.575 2.887-1.634zM11.595 20.274l-0.006-0.009 0.001-2.758 1.775 3.446-1.77-0.68zM13.325 20.918l-1.717-3.333-0.001 2.673 1.717 0.66z"></path>
<path d="M11.344 21.825l1.976-0.888-1.715-0.659-0.262 1.547zM13.37 20.935l-2.050 0.921 0.272-1.605 1.779 0.683z"></path>
<path d="M15.057 22.871l-3.753-1.029 2.037-0.916 0.011 0.002 1.705 1.942zM13.343 20.947l-1.983 0.891 3.641 0.998-1.658-1.889zM8.695 13.592l4.327-5.642-3.195 1.046-1.132 4.595zM13.075 7.913l-4.42 5.762 1.155-4.689 3.265-1.074z"></path>
<path d="M9.832 8.98l-1.159 4.707-0.577-4.707h1.736zM8.117 8.999l0.561 4.583 1.129-4.583h-1.69z"></path>
<path d="M6.971 9.482l1.796 4.716-0.668-5.195-1.127 0.479zM6.956 9.468l1.159-0.493 0.692 5.379-1.856-4.874 0.005-0.012zM7.558 7.393l4.193-3.137 0.478 1.13-0.005 0.012-4.666 1.995zM7.696 7.313l4.512-1.929-0.465-1.099-4.046 3.028zM9.81 8.98l-0.082-2.498-1.604 2.498h1.686zM9.82 8.999h-1.73l1.655-2.578 0.085 2.568-0.009 0.010z"></path>
<path d="M9.81 9.002l-0.088-2.567 3.351 1.506-3.263 1.061zM9.829 8.976l3.192-1.038-3.278-1.473 0.086 2.511z"></path>
<path d="M9.753 6.45l3.278 1.472-0.831-2.529-2.447 1.057zM12.215 5.378l0.848 2.58-3.357-1.507 2.496-1.078 0.013 0.006zM13.285 0.84l-1.527 3.435 0.445 1.075 1.081-4.51zM11.739 4.279l1.57-3.54 0.018 0.006-1.119 4.667-0.469-1.133z"></path>
<path d="M7.383 4.787l5.956-4.066-1.585 3.561-4.371 0.505zM11.739 4.269l1.556-3.495-5.837 3.985 4.282-0.49z"></path>
<path d="M11.638 4.34l-2.838 1.529-1.123 1.435 3.96-2.963zM7.619 7.347l1.17-1.493 2.953-1.591 0.010 0.016-4.177 3.125 0.044-0.056z"></path>
<path d="M11.699 4.291l-4.257 0.487 1.351 1.073 2.906-1.56zM8.797 5.871l-1.402-1.106 4.401-0.504-2.999 1.61z"></path>
<path d="M7.622 7.393l-0.213-2.643 1.388 1.105 0.002 0.013-1.177 1.524zM8.778 5.864l-1.347-1.072 0.206 2.55 1.141-1.478zM24.478 2.624l-1.527 2.953-3.854-2.55 5.381-0.404zM24.445 2.645l-5.292 0.397 3.786 2.517 1.506-2.914z"></path>
<path d="M24.636 0.961l-7.002 0.546 1.495 1.518 5.324-0.4 0.183-1.665zM24.471 2.636l-0.009 0.008-5.336 0.401-1.534-1.553 7.065-0.551-0.186 1.696z"></path>
<path d="M24.712 0.954l-7.142 0.558 2.722-1.512 4.42 0.954zM20.298 0.018l-2.643 1.468 6.926-0.541-4.284-0.927zM26.758 7.796l-4.367 0.991 3.339-3.473 1.028 2.482zM25.724 5.348l-3.275 3.406 4.283-0.972-1.008-2.434zM22.957 5.567l-1.448 0.972-2.76-0.486-0.008-0.010 0.382-3.026 3.834 2.55zM19.138 3.050l-0.377 2.986 2.741 0.485 1.421-0.954-3.785-2.517z"></path>
<path d="M22.384 8.823l3.228-6.812 0.125 3.33-3.354 3.482zM25.718 5.337l-0.122-3.249-3.145 6.638 3.268-3.389z"></path>
<path d="M25.583 2.070l-1.114 0.564-1.52 2.935-0.512 3.141 3.146-6.64zM22.408 8.773l0.523-3.21 1.525-2.942 1.168-0.593-3.227 6.811 0.011-0.066z"></path>
<path d="M22.953 5.547l-0.529 3.264-0.928-2.276 0.003-0.011 1.454-0.976zM21.516 6.534l0.9 2.206 0.511-3.154-1.411 0.947zM18.713 6.047l-4.106-0.458 2.122 1.24 1.984-0.782zM14.521 5.56l4.27 0.476-2.059 0.812-2.211-1.288z"></path>
<path d="M16.752 6.843l-3.724 1.099 1.528-2.372 0.013-0.003 2.183 1.276zM14.567 5.587l-1.496 2.321 3.633-1.072-2.137-1.249zM13.041 7.954l-0.854-2.582 1.754-1.494 0.631 1.694-1.532 2.383zM14.554 5.574l-0.62-1.664-1.726 1.463 0.839 2.539 1.507-2.337zM27.423 6.761l-1.675-1.404 0.999 2.412 0.676-1.008zM25.701 5.292l1.741 1.459 0.002 0.013-0.7 1.045-1.042-2.517z"></path>
<path d="M28.402 5.089l-2.651 0.249 1.68 1.409 0.971-1.658zM25.704 5.323l2.733-0.257-1.002 1.709-1.732-1.452z"></path>
<path d="M26.757 2.399l-1.144-0.337 0.122 3.22 1.022-2.883zM26.779 2.396l-1.059 2.986-0.126-3.345 1.179 0.347 0.006 0.012z"></path>
<path d="M26.766 2.373l1.67 2.713-2.725 0.258 1.055-2.971zM25.739 5.322l2.665-0.252-1.633-2.653-1.032 2.906zM26.825 2.419l-0.058-0.017-1.171-0.347-1.009-1.157 2.237 1.52zM24.698 0.997l0.908 1.043 1.108 0.327-2.016-1.37z"></path>
<path d="M25.588 2.046l-0.936-1.073-0.18 1.646 1.116-0.572zM24.639 0.927l0.98 1.124-1.169 0.6 0.189-1.724zM13.951 3.903l0.621 1.665 4.164 0.467-1.676-2.667-3.109 0.535zM18.773 6.057l-4.209-0.472-0.639-1.698 3.138-0.54 1.71 2.709z"></path>
<path d="M17.056 3.362l0.554-1.881 1.529 1.545-0.38 3.048-1.703-2.711zM18.747 6.018l0.375-2.982-1.503-1.519-0.545 1.839 1.673 2.662z"></path>
<path d="M17.601 1.512l-3.149 0.9-0.502 1.473 3.107-0.537 0.544-1.836zM17.066 3.366l-3.144 0.543 0.514-1.508 0.006-0.006 3.187-0.911-0.556 1.875-0.008 0.007z"></path>
<path d="M13.297 0.733l4.361 0.763-3.21 0.917-0.010-0.004-1.14-1.677zM14.449 2.393l3.124-0.893-4.235-0.741 1.111 1.634z"></path>
<path d="M13.334 0.79l0.596 3.115 0.505-1.498-1.1-1.616zM14.453 2.399l-0.528 1.58-0.627-3.276 1.155 1.696z"></path>
<path d="M13.317 0.701l0.619 3.239-1.749 1.456 1.131-4.695zM13.315 0.791l-1.097 4.554 1.698-1.407-0.601-3.147zM24.917 21.988l0.124 2.44 3.893 3.070-1.317-5.136-2.699-0.373zM28.966 27.547l-3.94-3.107-0.129-2.474 2.728 0.377 1.341 5.204z"></path>
<path d="M23.789 22.796l1.127-0.837 0.125 2.473-0.005 0.009-2.016 1.227 0.768-2.871zM23.051 25.627l1.971-1.2-0.123-2.432-1.092 0.809-0.755 2.823z"></path>
<path d="M23.019 25.642l2.007-1.217 3.97 3.123-5.977-1.905zM28.903 27.497l-3.872-3.053-1.966 1.192 5.838 1.861zM27.702 22.373l-2.807-0.388 0.167-0.64 2.64 1.028zM25.075 21.37l-0.156 0.599 2.626 0.363-2.47-0.962z"></path>
<path d="M24.898 21.975l0.152-0.583-1.186 1.347 1.034-0.764zM25.088 21.32l-0.010 0.039-0.165 0.627-1.181 0.875 1.356-1.54z"></path>
</svg>
