<svg version="1.1" xmlns="http://www.w3.org/2000/svg" viewBox="0 0 32 32">
<title>dash</title>
<path d="M20.959 3.012h-11.648l-0.966 5.397 10.514 0.012c5.179 0 6.706 1.882 6.662 4.998-0.025 1.595-0.717 4.3-1.016 5.179-0.798 2.337-2.437 4.998-8.582 4.992l-10.221-0.006-0.966 5.403h11.623c4.101 0 5.84-0.48 7.691-1.328 4.095-1.901 6.532-5.939 7.51-11.212 1.452-7.853-0.355-13.437-10.601-13.437z"></path>
<path d="M4.282 13.289c-3.054 0-3.49 1.988-3.777 3.191-0.38 1.571-0.505 2.212-0.505 2.212h11.929c3.054 0 3.49-1.988 3.777-3.191 0.38-1.571 0.505-2.213 0.505-2.213h-11.929z"></path>
</svg>
