<svg version="1.1" xmlns="http://www.w3.org/2000/svg" viewBox="0 0 32 32">
<title>dent</title>
<path d="M16-0c1.761 0 3.189 1.427 3.189 3.187v25.625c0 1.76-1.428 3.187-3.189 3.187s-3.189-1.427-3.189-3.187v-25.625c0-1.76 1.428-3.187 3.189-3.187zM16 1.020c-1.198 0-2.169 0.97-2.169 2.167v25.625c0 1.197 0.971 2.167 2.169 2.167s2.169-0.97 2.169-2.167v-25.625c0-1.197-0.971-2.167-2.169-2.167z"></path>
<path d="M29.865 24c-0.881 1.524-2.831 2.047-4.356 1.166l-22.205-12.813c-1.525-0.88-2.048-2.829-1.167-4.354s2.831-2.047 4.356-1.166l22.205 12.813c1.525 0.88 2.048 2.829 1.167 4.354zM28.981 23.49c0.599-1.037 0.243-2.362-0.794-2.96l-22.205-12.813c-1.037-0.599-2.364-0.243-2.962 0.793s-0.243 2.362 0.794 2.96l22.205 12.813c1.037 0.599 2.364 0.243 2.962-0.793z"></path>
<path d="M29.865 8c0.881 1.524 0.358 3.474-1.167 4.354l-22.205 12.813c-1.525 0.88-3.476 0.358-4.356-1.166s-0.358-3.474 1.167-4.354l22.205-12.813c1.525-0.88 3.476-0.358 4.356 1.166zM28.981 8.51c-0.599-1.037-1.925-1.392-2.962-0.793l-22.205 12.813c-1.037 0.599-1.393 1.924-0.794 2.96s1.925 1.392 2.962 0.793l22.205-12.813c1.037-0.599 1.393-1.924 0.794-2.96z"></path>
</svg>
