<svg version="1.1" xmlns="http://www.w3.org/2000/svg" viewBox="0 0 32 32">
<title>dgb</title>
<path d="M23.501 3.2l0.904-2.357c0.090-0.241-0.084-0.494-0.338-0.494h-3.357l-1.061 2.761h-1.489l0.868-2.266c0.090-0.241-0.084-0.494-0.338-0.494h-3.357l-1.061 2.761h-10.5c-0.476 0-0.922 0.259-1.157 0.675l-2.616 4.617h19.62c0.651 0 1.296 0.121 1.899 0.368 1.157 0.476 2.526 1.555 2.182 3.984-0.573 4.069-4.72 11.277-13.719 11.392l4.653-12.115c0.193-0.5-0.175-1.031-0.711-1.031h-6.239l-7.534 18.517c0 0 1.519 0.187 3.9 0.187l-0.747 1.947h3.43c0.271 0 0.518-0.169 0.621-0.422l0.645-1.676c0.506-0.042 1.019-0.096 1.549-0.157l-0.868 2.254h3.43c0.271 0 0.518-0.169 0.621-0.422l0.976-2.55c5.636-1.284 11.693-4.081 15.292-9.982 7.263-11.898-0.283-14.972-5.497-15.497z"></path>
</svg>
