<svg version="1.1" xmlns="http://www.w3.org/2000/svg" viewBox="0 0 32 32">
<title>eng</title>
<path d="M22.857 12.11c0-0.065 0.053-0.118 0.118-0.118s0.118 0.053 0.118 0.118v0l-0.002 7.859c0 0.065-0.053 0.118-0.118 0.118s-0.118-0.053-0.118-0.118v0l0.002-7.859z"></path>
<path d="M9.291 20.087c-0.041-0.024-0.069-0.069-0.069-0.119 0-0.076 0.062-0.138 0.138-0.138 0.025 0 0.049 0.007 0.070 0.019l-0.001-0 6.805 3.934c0.041 0.024 0.069 0.069 0.069 0.119 0 0.076-0.062 0.138-0.138 0.138-0.025 0-0.049-0.007-0.070-0.019l0.001 0-6.805-3.934zM16.084 8.201c-0.041-0.024-0.068-0.068-0.068-0.119 0-0.076 0.062-0.138 0.138-0.138 0.026 0 0.050 0.007 0.070 0.019l-0.001-0 6.73 3.942c0.042 0.024 0.071 0.069 0.071 0.12 0 0.076-0.062 0.138-0.138 0.138-0.027 0-0.052-0.008-0.073-0.021l0.001 0-6.731-3.942zM9.332 12.22c-0.020 0.012-0.044 0.019-0.069 0.019-0.076 0-0.138-0.062-0.138-0.138 0-0.050 0.027-0.095 0.068-0.119l0.001-0 6.892-4.018c0.020-0.012 0.044-0.019 0.069-0.019 0.076 0 0.138 0.062 0.138 0.138 0 0.050-0.027 0.095-0.068 0.119l-0.001 0-6.892 4.018z"></path>
<path d="M16.238 16.154l-0.138-0.238 13.712-7.962 0.138 0.238-13.712 7.962zM2.511 8.332l-0.14-0.237 13.717-8.077 0.14 0.237-13.717 8.077zM16.221 31.981c-0.019 0.011-0.043 0.018-0.068 0.018-0.076 0-0.138-0.062-0.138-0.138 0-0.050 0.027-0.094 0.066-0.118l0.001-0 13.706-7.949c0.019-0.011 0.043-0.018 0.068-0.018 0.076 0 0.138 0.062 0.138 0.138 0 0.050-0.027 0.094-0.066 0.118l-0.001 0-13.706 7.949zM28.356 22.836c0.067 0.039 0.111 0.11 0.111 0.191 0 0.122-0.099 0.22-0.22 0.22-0.040 0-0.078-0.011-0.11-0.030l0.001 0.001-5.019-2.868c-0.067-0.039-0.111-0.11-0.111-0.191 0-0.122 0.099-0.22 0.22-0.22 0.040 0 0.078 0.011 0.11 0.030l-0.001-0.001 5.019 2.868zM7.829 20.576c0.032-0.019 0.070-0.030 0.11-0.030 0.122 0 0.22 0.099 0.22 0.22 0 0.081-0.044 0.152-0.109 0.19l-0.001 0.001-5.741 3.321c-0.031 0.018-0.069 0.029-0.109 0.029-0.122 0-0.22-0.099-0.22-0.22 0-0.081 0.043-0.151 0.108-0.189l0.001-0.001 5.741-3.321zM9.093 12.186c0-0.001-0-0.002-0-0.002 0-0.076 0.062-0.138 0.138-0.138s0.136 0.060 0.138 0.135v0l0.129 7.784c0 0.001 0 0.002 0 0.002 0 0.076-0.062 0.138-0.138 0.138s-0.136-0.060-0.138-0.135v-0l-0.129-7.784z"></path>
<path d="M2.372 8.333l0.136-0.239 13.728 7.822-0.136 0.239zM16.089 0.256c-0.040-0.025-0.067-0.068-0.067-0.118 0-0.076 0.062-0.138 0.138-0.138 0.025 0 0.048 0.006 0.068 0.018l-0.001-0 13.723 7.936c0.043 0.024 0.071 0.069 0.071 0.12 0 0.076-0.062 0.138-0.138 0.138-0.026 0-0.051-0.007-0.072-0.020l-13.723-7.936zM2.339 24.108c-0.042-0.024-0.069-0.069-0.069-0.12 0-0.076 0.062-0.138 0.138-0.138 0.025 0 0.049 0.007 0.069 0.019l-0.001-0 13.745 7.874c0.042 0.024 0.069 0.069 0.069 0.12 0 0.076-0.062 0.138-0.138 0.138-0.025 0-0.049-0.007-0.069-0.019l0.001 0-13.745-7.874zM16.234 24.021c-0.020 0.012-0.044 0.018-0.069 0.018-0.076 0-0.138-0.062-0.138-0.138 0-0.051 0.027-0.095 0.068-0.119l0.001-0 6.809-3.934c0.020-0.012 0.044-0.018 0.069-0.018 0.076 0 0.138 0.062 0.138 0.138 0 0.051-0.027 0.095-0.068 0.119l-0.001 0-6.809 3.934zM15.938 2.012c0-0.121 0.099-0.22 0.22-0.22s0.22 0.099 0.22 0.22c0 0 0 0 0 0.001v-0l-0.020 6.473c-0 0.121-0.099 0.22-0.22 0.22s-0.22-0.099-0.22-0.22c0-0 0-0 0-0.001v0l0.020-6.473z"></path>
<path d="M16.031 16.035l0.276 0-0.017 15.827-0.276-0zM29.743 8.073c0-0.076 0.062-0.138 0.138-0.138s0.138 0.062 0.138 0.138c0 0 0 0 0 0v0l-0.023 15.841c-0 0.076-0.062 0.138-0.138 0.138s-0.138-0.062-0.138-0.138c0-0 0-0 0-0v0l0.023-15.841zM2.303 8.213c0-0.076 0.062-0.137 0.138-0.137s0.138 0.062 0.138 0.138c0 0 0 0 0 0v-0l-0.033 15.774c-0 0.076-0.062 0.137-0.138 0.137s-0.138-0.062-0.138-0.138c0-0 0-0 0-0v0l0.033-15.774z"></path>
</svg>
