<svg version="1.1" xmlns="http://www.w3.org/2000/svg" viewBox="0 0 32 32">
<title>fio</title>
<path d="M16.686 31.533v-11.031l-7.495-3.842v10.489c0.006 0.273 0.081 0.541 0.217 0.778 0.104 0.221 0.267 0.409 0.471 0.542l6.336 3.47c0.061 0.035 0.128 0.056 0.198 0.061 0.036-0.003 0.071-0.013 0.104-0.028 0.036-0.025 0.066-0.059 0.085-0.099 0.050-0.106 0.074-0.222 0.071-0.339h0.014zM9.19 15.421v0 0 0 0 0 0 0 0 0 0 0 0 0 0 0 0l0.047 0.17h0.278l8.405-4.313-8.405-4.097h-0.189c-0.077 0.17-0.123 0.352-0.137 0.537v7.703zM18.482 11.791l3.771 1.928c0.164 0.097 0.297 0.237 0.387 0.405 0.105 0.184 0.163 0.391 0.17 0.603v7.905c0.002 0.083-0.014 0.165-0.047 0.24-0.014 0.030-0.035 0.056-0.061 0.075-0.023 0.005-0.047 0.005-0.071 0-0.051-0.003-0.101-0.017-0.146-0.042l-12.737-6.496c-0.050-0.026-0.098-0.058-0.141-0.094h0.141l8.735-4.526zM9.747 6.728h-0.057c0.333-0.246 0.688-0.461 1.061-0.641l11.724-6.043c0.044-0.022 0.092-0.035 0.141-0.038 0.023-0.008 0.048-0.008 0.071 0 0.026 0.018 0.047 0.042 0.061 0.071 0.033 0.077 0.049 0.161 0.047 0.245v7.948c-0.006 0.211-0.064 0.416-0.17 0.599-0.088 0.17-0.222 0.312-0.387 0.41l-3.771 1.923-8.721-4.474z"></path>
</svg>
