<svg version="1.1" xmlns="http://www.w3.org/2000/svg" viewBox="0 0 32 32">
<title>game</title>
<path d="M16 0c-8.836 0-16 7.163-16 16s7.163 16 16 16h16v-16c0-8.836-7.163-16-16-16zM27.934 27.926h-2.95v-4.246c-2.182 2.549-5.42 4.17-9.030 4.17-6.555 0-11.887-5.333-11.887-11.888s5.333-11.888 11.887-11.888c5.887 0 10.785 4.302 11.723 9.927h-3.005c-0.897-3.988-4.464-6.976-8.718-6.976-4.928 0-8.937 4.009-8.937 8.938s4.009 8.938 8.937 8.938c3.298 0 6.182-1.797 7.731-4.462h-6.189v-2.95h10.438z"></path>
</svg>
