<svg version="1.1" xmlns="http://www.w3.org/2000/svg" viewBox="0 0 32 32">
<title>gld</title>
<path d="M31.097 15.246h-10.116c-0.494 0-0.903 0.409-0.903 0.903v3.16c0 0.494 0.409 0.903 0.903 0.903h5.644c-1.496 3.499-4.854 5.898-9.016 5.742-3.4-0.127-6.392-2.003-8.085-4.755h2.018c0.494 0 0.903-0.409 0.903-0.903v-0.762c0-0.494-0.409-0.903-0.903-0.903h-3.132c-0.197-0.72-0.325-1.467-0.353-2.244-0.028-0.818 0.042-1.595 0.197-2.356h3.301c0.494 0 0.903-0.409 0.903-0.903v-0.762c0-0.494-0.409-0.903-0.903-0.903h-2.413c1.651-3.217 4.995-5.418 8.861-5.418 3.161 0 5.982 1.481 7.802 3.781 0.311 0.395 0.917 0.437 1.256 0.056l2.441-2.61c0.212-0.225 0.226-0.578 0.028-0.818-2.794-3.372-7.026-5.503-11.767-5.432-6.533 0.113-12.106 4.487-14.025 10.455h-2.836c-0.494 0-0.903 0.409-0.903 0.903v0.748c0 0.494 0.409 0.903 0.903 0.903h2.272c-0.071 0.536-0.113 1.072-0.127 1.609-0.028 1.016 0.056 2.017 0.226 2.991h-2.37c-0.494 0-0.903 0.409-0.903 0.903v0.762c0 0.494 0.409 0.903 0.903 0.903h3.062c2.116 5.714 7.605 9.778 14.039 9.778 11.090 0 13.996-9.51 13.996-11.669v-3.16c0-0.494-0.409-0.903-0.903-0.903z"></path>
</svg>
