<svg version="1.1" xmlns="http://www.w3.org/2000/svg" viewBox="0 0 32 32">
<title>icx</title>
<path d="M28.809 6.48l-4.32 4.32c0.93 1.529 1.462 3.29 1.462 5.217 0 5.516-4.453 9.969-9.969 9.969-0.001 0-0.003 0-0.004 0-1.927 0-3.728-0.544-5.256-1.487l0.043 0.025-4.32 4.32c2.658 1.961 5.948 3.157 9.504 3.157 8.806 0 15.95-7.144 15.95-15.95 0.066-3.622-1.097-6.912-3.090-9.57zM6.046 15.983c0-5.516 4.453-9.969 9.969-9.969 0.001 0 0.003 0 0.004 0 1.927 0 3.728 0.544 5.256 1.487l-0.043-0.025 4.32-4.32c-2.658-1.961-5.948-3.157-9.504-3.157-8.806 0-15.95 7.144-15.95 15.95 0 3.556 1.163 6.845 3.157 9.504l4.32-4.32c-0.997-1.462-1.529-3.256-1.529-5.151z"></path>
</svg>
