<svg version="1.1" xmlns="http://www.w3.org/2000/svg" viewBox="0 0 32 32">
<title>knc</title>
<path d="M14.349 16l11.952 6.852c0.415 0.24 0.941-0.065 0.941-0.544v-12.626c0-0.48-0.526-0.784-0.941-0.544l-11.952 6.862zM25.61 6.187l-7.941-6.059c-0.369-0.277-0.895-0.083-0.996 0.369l-2.896 13.502 11.768-6.76c0.387-0.231 0.424-0.775 0.065-1.051zM17.669 31.872l7.95-6.068c0.36-0.277 0.323-0.821-0.065-1.042l-11.777-6.76 2.905 13.502c0.083 0.452 0.618 0.646 0.987 0.369z"></path>
<path d="M11.287 16l3.126-14.544c0.12-0.572-0.535-0.987-0.996-0.627l-8.005 6.115c-0.415 0.314-0.655 0.802-0.655 1.319v15.494c0 0.516 0.24 1.005 0.655 1.319l8.005 6.105c0.461 0.35 1.116-0.065 0.996-0.627l-3.126-14.553z"></path>
</svg>
