<svg version="1.1" xmlns="http://www.w3.org/2000/svg" viewBox="0 0 32 32">
<title>lrc</title>
<path d="M16.736 0c3.933 5.378 7.83 10.787 11.763 16.167-11.936 9.555-15.76 12.691-19.579 15.833l7.828-6.251c-3.976-3.19-7.934-6.396-11.912-9.581-3.457 5.084 0.449-0.178 4.342-5.45l7.557-10.717zM9.751 15.539c1.734 1.382 3.447 2.787 5.186 4.163 0.004-3.739 0.017-7.48-0.006-11.221-1.707 2.367-3.462 4.699-5.18 7.058zM18.538 8.541c-0.009 3.716-0.009 7.432 0 11.151 1.679-1.403 3.392-2.764 5.077-4.158-1.696-2.33-3.396-4.654-5.077-6.993v0z"></path>
</svg>
