<svg version="1.1" xmlns="http://www.w3.org/2000/svg" viewBox="0 0 32 32">
<title>mana</title>
<path d="M28.88 14.384l-1.376 0.24-1.984-2.752h-0.64c0.4-0.768 0.624-1.632 0.624-2.544 0-3.008-2.448-5.456-5.456-5.456s-5.472 2.432-5.472 5.44c0 2.496 1.696 4.608 3.984 5.264l-0.080 0.080-0.784 0.4-1.28-0.464-1.264-0.736-1.776 2.24-1.424-0.784-2.736 0.704-1.376-4.512h-3.36l-2.448 4.288-0.752 0.016c0.096-8.032 6.672-14.528 14.72-14.528 8.112 0 14.72 6.608 14.72 14.72v0.464l-1.84-2.080zM21.44 24.048c-0.224 0.16-1.056 0.416-2.432 0.416s-2.208-0.256-2.432-0.416c0.064-0.896 1.152-1.632 2.432-1.632s2.368 0.736 2.432 1.632zM25.168 18.592c1.28 0 2.368 0.736 2.432 1.632-0.224 0.16-1.072 0.416-2.432 0.416s-2.208-0.256-2.432-0.416c0.064-0.896 1.152-1.632 2.432-1.632zM24.512 17.024c-0.224 0.16-1.072 0.416-2.432 0.416s-2.208-0.256-2.432-0.416c0.064-0.896 1.152-1.632 2.432-1.632s2.368 0.736 2.432 1.632zM23.536 11.6l-0.96-1.296-2.976 3.184c-2.096-0.224-3.728-2-3.728-4.16 0-2.304 1.872-4.176 4.176-4.176s4.176 1.872 4.176 4.176c0 0.832-0.256 1.616-0.688 2.272zM22.848 29.024c-1.2-0.592-3.024-0.944-4.944-1.328-0.672-0.128-1.376-0.272-2.048-0.416-0.624-0.144-1.232-0.256-1.776-0.352-0.864-0.16-1.904-0.368-2.24-0.56 0.112-0.176 0.464-0.592 1.712-1.44 0.448-0.304 1.808-1.232 1.44-2.416-0.336-1.104-2.080-1.776-5.632-2.16-0.32-0.032-0.656-0.064-1.008-0.096-0.176-0.528-0.432-1.28-0.8-2.368l-0.608-1.776-0.608 1.776c-0.208 0.592-0.368 1.072-0.512 1.488-0.16-0.512-0.448-1.344-0.944-2.784l-0.56-1.808-0.608 1.776c-0.832 2.432-1.072 3.152-1.136 3.424h-0.736c-0.242-0.839-0.423-1.825-0.508-2.839l-0.004-0.057 1.472-0.048 2.432-4.256h1.68l1.456 4.784 3.424-0.88 0.784 0.432-1.664 2.096 1.008 0.8 3.552-4.496 0.416 0.24 1.92 0.704 0.832-0.432c-0.16 0.336-0.256 0.704-0.256 1.088s0.24 1.2 2.064 1.504c0.576 0.096 1.008 0.592 1.008 1.184v2.080c-0.256-0.176-0.544-0.336-0.864-0.448h0.016c-0.704-0.224-1.36-0.56-1.568-1.248-0.16 0.56-0.608 0.88-1.184 1.104-1.488 0.4-2.56 1.52-2.56 2.848 0 0.48 0.368 1.616 3.712 1.616 3.36 0 3.712-1.136 3.712-1.616v-2.512c0.224 0.080 0.48 0.144 0.784 0.192 0.576 0.096 1.008 0.592 1.008 1.184v1.44c0 0.336 0.24 0.64 0.576 0.672 0.384 0.032 0.704-0.272 0.704-0.64v-1.472c0-0.592 0.432-1.088 1.008-1.184 1.824-0.304 2.064-1.104 2.064-1.504 0-1.072-0.704-2-1.744-2.528h0.016c-0.016 0-0.032-0.016-0.064-0.016-0.176-0.096-0.384-0.16-0.576-0.224-0.288-0.144-0.544-0.336-0.72-0.576-0.080-1.136-0.928-2.096-2.144-2.56h-0.016c-0.080-0.032-0.16-0.048-0.24-0.080-0.608-0.224-1.136-0.56-1.312-1.152-0.192 0.656-0.752 0.992-1.472 1.216-0.048 0.016-0.112 0.032-0.16 0.064l2-2.128 1.2 1.616 0.96-0.768h0.24l2.080 2.864 1.472-0.256 2.16 2.448c-0.704 4.672-3.632 8.64-7.696 10.784zM6.544 21.376l0.432-1.296 0.432 1.296c-0.096 0.032-0.256 0.064-0.432 0.064s-0.336-0.032-0.432-0.064zM3.904 20.016c0.096-0.288 0.24-0.752 0.416-1.248 0.176 0.512 0.336 0.976 0.416 1.264-0.288 0-0.56-0.016-0.832-0.016zM16 30.72c-6.256 0-11.616-3.92-13.744-9.44 0.416 0 0.864 0.016 1.312 0.016 0.224 0.064 0.464 0.096 0.736 0.096 0.208 0 0.416-0.016 0.592-0.064 0.096 0 0.192 0 0.304 0.016-0.032 0.096-0.032 0.128-0.032 0.16 0 0.704 0.752 1.216 1.792 1.216 1.008 0 1.744-0.48 1.776-1.152 0.16 0.016 0.336 0.032 0.496 0.048 4.256 0.464 4.544 1.232 4.544 1.264 0.016 0.064-0.080 0.4-0.944 0.976-1.808 1.248-2.432 2-2.272 2.784 0.192 0.944 1.424 1.184 3.296 1.536 0.528 0.096 1.12 0.208 1.728 0.352 0.672 0.144 1.392 0.288 2.080 0.432 1.248 0.256 2.528 0.512 3.552 0.816-1.616 0.608-3.376 0.944-5.216 0.944zM16 0c-8.816 0-16 7.184-16 16s7.184 16 16 16c8.816 0 16-7.184 16-16s-7.184-16-16-16z"></path>
</svg>
