<svg version="1.1" xmlns="http://www.w3.org/2000/svg" viewBox="0 0 32 32">
<title>miota</title>
<path d="M25.101 2.529c0 1.024-0.83 1.853-1.853 1.853s-1.853-0.83-1.853-1.853c0-1.024 0.83-1.853 1.853-1.853s1.853 0.83 1.853 1.853z"></path>
<path d="M25.335 7.416c0 0.867-0.703 1.569-1.569 1.569s-1.569-0.703-1.569-1.569c0-0.867 0.703-1.569 1.569-1.569s1.569 0.703 1.569 1.569z"></path>
<path d="M24.606 11.531c0 0.733-0.594 1.327-1.327 1.327s-1.327-0.594-1.327-1.327c0-0.733 0.594-1.327 1.327-1.327s1.327 0.594 1.327 1.327z"></path>
<path d="M23.2 14.862c0 0.626-0.508 1.134-1.134 1.134s-1.134-0.508-1.134-1.134c0-0.626 0.508-1.134 1.134-1.134s1.134 0.508 1.134 1.134z"></path>
<path d="M21.406 17.377c0 0.538-0.436 0.974-0.974 0.974s-0.974-0.436-0.974-0.974c0-0.538 0.436-0.974 0.974-0.974s0.974 0.436 0.974 0.974z"></path>
<path d="M19.442 19.162c0 0.462-0.374 0.836-0.836 0.836s-0.836-0.374-0.836-0.836c0-0.462 0.374-0.836 0.836-0.836s0.836 0.374 0.836 0.836z"></path>
<path d="M29.481 7.991c0 0.87-0.705 1.575-1.575 1.575s-1.575-0.705-1.575-1.575c0-0.87 0.705-1.575 1.575-1.575s1.575 0.705 1.575 1.575z"></path>
<path d="M28.721 12.135c0 0.737-0.597 1.334-1.334 1.334s-1.334-0.597-1.334-1.334c0-0.737 0.597-1.334 1.334-1.334s1.334 0.597 1.334 1.334z"></path>
<path d="M27.315 15.447c0 0.623-0.505 1.128-1.128 1.128s-1.128-0.505-1.128-1.128c0-0.623 0.505-1.128 1.128-1.128s1.128 0.505 1.128 1.128z"></path>
<path d="M25.503 17.969c0 0.532-0.432 0.964-0.964 0.964s-0.964-0.432-0.964-0.964c0-0.532 0.432-0.964 0.964-0.964s0.964 0.432 0.964 0.964z"></path>
<path d="M23.526 19.734c0 0.457-0.371 0.828-0.828 0.828s-0.828-0.371-0.828-0.828c0-0.457 0.371-0.828 0.828-0.828s0.828 0.371 0.828 0.828z"></path>
<path d="M21.551 20.857c0 0.392-0.318 0.711-0.711 0.711s-0.711-0.318-0.711-0.711c0-0.392 0.318-0.711 0.711-0.711s0.711 0.318 0.711 0.711z"></path>
<path d="M32 13.347c0 0.741-0.601 1.341-1.341 1.341s-1.341-0.601-1.341-1.341c0-0.741 0.601-1.341 1.341-1.341s1.341 0.601 1.341 1.341z"></path>
<path d="M30.582 16.668c0 0.63-0.511 1.142-1.142 1.142s-1.142-0.511-1.142-1.142c0-0.63 0.511-1.142 1.142-1.142s1.142 0.511 1.142 1.142z"></path>
<path d="M28.81 19.189c0 0.545-0.442 0.986-0.986 0.986s-0.986-0.442-0.986-0.986c0-0.545 0.442-0.986 0.986-0.986s0.986 0.442 0.986 0.986z"></path>
<path d="M26.84 20.977c0 0.473-0.383 0.856-0.856 0.856s-0.856-0.383-0.856-0.856c0-0.473 0.383-0.856 0.856-0.856s0.856 0.383 0.856 0.856z"></path>
<path d="M24.857 22.101c0 0.404-0.328 0.732-0.732 0.732s-0.732-0.328-0.732-0.732c0-0.404 0.328-0.732 0.732-0.732s0.732 0.328 0.732 0.732z"></path>
<path d="M22.993 22.688c0 0.343-0.278 0.621-0.621 0.621s-0.621-0.278-0.621-0.621c0-0.343 0.278-0.621 0.621-0.621s0.621 0.278 0.621 0.621z"></path>
<path d="M27.217 28.44c0 1.023-0.83 1.853-1.853 1.853s-1.853-0.83-1.853-1.853c0-1.023 0.83-1.853 1.853-1.853s1.853 0.83 1.853 1.853z"></path>
<path d="M22.441 26.449c0 0.867-0.703 1.569-1.569 1.569s-1.569-0.703-1.569-1.569c0-0.867 0.703-1.569 1.569-1.569s1.569 0.703 1.569 1.569z"></path>
<path d="M18.876 23.972c0 0.733-0.594 1.327-1.327 1.327s-1.327-0.594-1.327-1.327c0-0.733 0.594-1.327 1.327-1.327s1.327 0.594 1.327 1.327z"></path>
<path d="M16.402 21.26c0 0.626-0.508 1.134-1.134 1.134s-1.134-0.508-1.134-1.134c0-0.626 0.508-1.134 1.134-1.134s1.134 0.508 1.134 1.134z"></path>
<path d="M14.879 18.588c0 0.538-0.436 0.974-0.974 0.974s-0.974-0.436-0.974-0.974c0-0.538 0.436-0.974 0.974-0.974s0.974 0.436 0.974 0.974z"></path>
<path d="M14.106 16.114c0 0.462-0.374 0.836-0.836 0.836s-0.836-0.374-0.836-0.836c0-0.462 0.374-0.836 0.836-0.836s0.836 0.374 0.836 0.836z"></path>
<path d="M19.881 29.749c0 0.87-0.705 1.575-1.575 1.575s-1.575-0.705-1.575-1.575c0-0.87 0.705-1.575 1.575-1.575s1.575 0.705 1.575 1.575z"></path>
<path d="M16.308 27.231c0 0.737-0.597 1.334-1.334 1.334s-1.334-0.597-1.334-1.334c0-0.737 0.597-1.334 1.334-1.334s1.334 0.597 1.334 1.334z"></path>
<path d="M13.832 24.538c0 0.623-0.505 1.128-1.128 1.128s-1.128-0.505-1.128-1.128c0-0.623 0.505-1.128 1.128-1.128s1.128 0.505 1.128 1.128z"></path>
<path d="M12.305 21.85c0 0.532-0.432 0.964-0.964 0.964s-0.964-0.432-0.964-0.964c0-0.532 0.432-0.964 0.964-0.964s0.964 0.432 0.964 0.964z"></path>
<path d="M11.559 19.375c0 0.457-0.371 0.828-0.828 0.828s-0.828-0.371-0.828-0.828c0-0.457 0.371-0.828 0.828-0.828s0.828 0.371 0.828 0.828z"></path>
<path d="M11.396 17.204c0 0.393-0.318 0.711-0.711 0.711s-0.711-0.318-0.711-0.711c0-0.393 0.318-0.711 0.711-0.711s0.711 0.318 0.711 0.711z"></path>
<path d="M13.632 29.46c0 0.741-0.601 1.341-1.341 1.341s-1.341-0.601-1.341-1.341c0-0.741 0.601-1.341 1.341-1.341s1.341 0.601 1.341 1.341z"></path>
<path d="M11.163 26.748c0 0.63-0.511 1.141-1.141 1.141s-1.141-0.511-1.141-1.141c0-0.63 0.511-1.141 1.141-1.141s1.141 0.511 1.141 1.141z"></path>
<path d="M9.631 24.088c0 0.545-0.441 0.986-0.986 0.986s-0.986-0.441-0.986-0.986c0-0.545 0.441-0.986 0.986-0.986s0.986 0.441 0.986 0.986z"></path>
<path d="M8.87 21.601c0 0.473-0.383 0.856-0.856 0.856s-0.856-0.383-0.856-0.856c0-0.473 0.383-0.856 0.856-0.856s0.856 0.383 0.856 0.856z"></path>
<path d="M8.699 19.43c0 0.404-0.327 0.731-0.731 0.731s-0.731-0.327-0.731-0.731c0-0.404 0.327-0.731 0.731-0.731s0.731 0.327 0.731 0.731z"></path>
<path d="M8.955 17.618c0 0.343-0.278 0.621-0.621 0.621s-0.621-0.278-0.621-0.621c0-0.343 0.278-0.621 0.621-0.621s0.621 0.278 0.621 0.621z"></path>
<path d="M3.706 17.323c0 1.023-0.83 1.853-1.853 1.853s-1.853-0.83-1.853-1.853c0-1.023 0.83-1.853 1.853-1.853s1.853 0.83 1.853 1.853z"></path>
<path d="M7.396 14.434c0 0.867-0.703 1.569-1.569 1.569s-1.569-0.703-1.569-1.569c0-0.867 0.703-1.569 1.569-1.569s1.569 0.703 1.569 1.569z"></path>
<path d="M10.962 12.799c0 0.733-0.594 1.327-1.327 1.327s-1.327-0.594-1.327-1.327c0-0.733 0.594-1.327 1.327-1.327s1.327 0.594 1.327 1.327z"></path>
<path d="M14.26 12.185c0 0.626-0.508 1.134-1.134 1.134s-1.134-0.508-1.134-1.134c0-0.626 0.508-1.134 1.134-1.134s1.134 0.508 1.134 1.134z"></path>
<path d="M17.095 12.344c0 0.538-0.436 0.974-0.974 0.974s-0.974-0.436-0.974-0.974c0-0.538 0.436-0.974 0.974-0.974s0.974 0.436 0.974 0.974z"></path>
<path d="M19.417 13.035c0 0.462-0.375 0.836-0.836 0.836s-0.836-0.374-0.836-0.836c0-0.462 0.375-0.836 0.836-0.836s0.836 0.374 0.836 0.836z"></path>
<path d="M3.802 9.052c0.833-0.251 1.712 0.22 1.963 1.053s-0.22 1.712-1.053 1.963c-0.833 0.252-1.712-0.22-1.963-1.053s0.22-1.712 1.053-1.963z"></path>
<path d="M9.44 8.938c0 0.737-0.597 1.334-1.334 1.334s-1.334-0.597-1.334-1.334c0-0.737 0.597-1.334 1.334-1.334s1.334 0.597 1.334 1.334z"></path>
<path d="M12.703 8.324c0 0.623-0.505 1.128-1.128 1.128s-1.128-0.505-1.128-1.128c0-0.623 0.505-1.128 1.128-1.128s1.128 0.505 1.128 1.128z"></path>
<path d="M15.546 8.492c0 0.532-0.432 0.964-0.964 0.964s-0.964-0.432-0.964-0.964c0-0.532 0.432-0.964 0.964-0.964s0.964 0.432 0.964 0.964z"></path>
<path d="M17.859 9.204c0 0.457-0.371 0.828-0.828 0.828s-0.828-0.371-0.828-0.828c0-0.457 0.371-0.828 0.828-0.828s0.828 0.371 0.828 0.828z"></path>
<path d="M19.643 10.252c0 0.393-0.318 0.711-0.711 0.711s-0.711-0.318-0.711-0.711c0-0.393 0.318-0.711 0.711-0.711s0.711 0.318 0.711 0.711z"></path>
<path d="M8.864 5.499c0 0.741-0.601 1.342-1.342 1.342s-1.342-0.601-1.342-1.342c0-0.741 0.601-1.342 1.342-1.342s1.342 0.601 1.342 1.342z"></path>
<path d="M10.924 3.756c0.629-0.046 1.175 0.427 1.221 1.056s-0.427 1.175-1.056 1.221c-0.628 0.046-1.175-0.427-1.221-1.055s0.427-1.175 1.056-1.221z"></path>
<path d="M14.984 5.036c0 0.545-0.442 0.986-0.986 0.986s-0.986-0.442-0.986-0.986c0-0.545 0.442-0.986 0.986-0.986s0.986 0.442 0.986 0.986z"></path>
<path d="M17.323 5.737c0 0.473-0.383 0.856-0.857 0.856s-0.857-0.383-0.857-0.857c0-0.473 0.383-0.857 0.857-0.857s0.857 0.383 0.857 0.857z"></path>
<path d="M19.099 6.785c0 0.404-0.327 0.731-0.731 0.731s-0.731-0.327-0.731-0.731c0-0.404 0.327-0.731 0.731-0.731s0.731 0.327 0.731 0.731z"></path>
<path d="M19.707 7.392c0.343-0.025 0.64 0.232 0.665 0.574s-0.232 0.64-0.574 0.665c-0.342 0.024-0.64-0.233-0.665-0.575s0.233-0.64 0.574-0.664z"></path>
</svg>
