<svg version="1.1" xmlns="http://www.w3.org/2000/svg" viewBox="0 0 32 32">
<title>mln</title>
<path d="M27.823 6.833l-11.823-6.833-12.825 7.4v14.833h0.167l9.786 5.667v-2.467l-7.615-4.267 1.87-1.067-0.267-0.466-1.87 1.067v-10.933l9.685 5.633v16l1.069 0.6 1.069-0.6v-16l9.685-5.633v10.867l-1.87-1.067-0.267 0.5 1.87 1.1-7.615 4.267v2.467l9.786-5.667h0.167v-14.833zM16 13.533l-9.719-5.533 9.452-5.4v2.134h0.535v-2.134l9.452 5.4zM15.733 6.067h0.535v2.4h-0.535zM15.733 12.333l0.267 0.033 0.267-0.033v-2.467h-0.535zM8.285 18.9l2.071-1.2 0.267 0.467-2.070 1.2zM11.558 17l0.267 0.433 2.104-1.167-0.067-0.267-0.2-0.2zM21.31 18.1l0.267-0.466 2.070 1.2-0.267 0.467zM20.442 17l-2.137-1.2-0.167 0.2-0.1 0.267 2.138 1.167z"></path>
</svg>
