<svg version="1.1" xmlns="http://www.w3.org/2000/svg" viewBox="0 0 32 32">
<title>mona</title>
<path d="M15.935 21.378l1.721-2.907h-3.375z"></path>
<path d="M28.049 11.87l-2.287-10.246-4.468 7.050c-1.658-0.406-3.439-0.629-5.295-0.629s-3.637 0.223-5.295 0.629l-4.468-7.050-2.287 10.246c-2.457 1.963-3.95 4.529-3.95 7.34 0 6.166 7.163 11.165 16 11.165s16-4.999 16-11.165c0-2.811-1.493-5.377-3.951-7.34zM7.103 16.563h-1.075l2.602-2.998h1.907zM15.913 23.884l-4.428-7.783 1.093-0.622 0.986 1.733h4.835l1.032-1.743 1.082 0.641zM24.897 16.563l-3.434-2.998h1.908l2.601 2.998z"></path>
</svg>
