<svg version="1.1" xmlns="http://www.w3.org/2000/svg" viewBox="0 0 32 32">
<title>msp</title>
<path d="M0.572 1.842c-0.111-0.079-0.257-0.088-0.378-0.025s-0.196 0.189-0.194 0.325v16.318c-0.001 0.328 0.159 0.637 0.427 0.826l3.493 2.483c0.164 0.116 0.39 0.077 0.507-0.086 0.043-0.062 0.066-0.136 0.067-0.211v-10.354c0.004-0.044 0.031-0.083 0.070-0.103s0.086-0.019 0.125 0.003l8.439 5.995c0.155 0.111 0.248 0.29 0.247 0.481v10.584c-0.002 0.26 0.123 0.505 0.335 0.656l1.947 1.385c0.203 0.143 0.473 0.143 0.676 0l1.954-1.396c0.212-0.151 0.337-0.395 0.335-0.656v-10.579c-0.001-0.191 0.092-0.37 0.247-0.481l8.439-5.995c0.038-0.027 0.087-0.031 0.129-0.009s0.067 0.064 0.066 0.11v10.354c0 0.136 0.076 0.261 0.197 0.323s0.266 0.053 0.377-0.026l3.493-2.482c0.268-0.19 0.427-0.498 0.427-0.827v-16.316c0.001-0.098-0.038-0.191-0.107-0.26s-0.163-0.106-0.261-0.104c-0.076-0.001-0.149 0.023-0.211 0.067l-14.966 10.632c-0.274 0.197-0.643 0.197-0.917 0z"></path>
</svg>
