<svg version="1.1" xmlns="http://www.w3.org/2000/svg" viewBox="0 0 32 32">
<title>ncash</title>
<path d="M31.351 19.6c-0.26-0.114-0.589 0.051-0.729 0.368-0.101 0.222-0.082 0.463 0.032 0.621l-3.353 5.787c-0.114-0.013-0.241 0-0.361 0.051l-2.225-2.212c0.013-0.051 0.019-0.108 0.019-0.158 0-0.342-0.209-0.634-0.501-0.754v-14.261c0.139-0.057 0.26-0.158 0.349-0.279l5.47 2.859c0.006 0.025 0.013 0.044 0.019 0.070 0.101 0.33 0.399 0.532 0.672 0.45s0.412-0.425 0.311-0.754c-0.089-0.304-0.349-0.494-0.602-0.463l-2.656-5.064c0.006-0.006 0.006-0.006 0.013-0.013 0.197-0.279 0.076-0.691-0.266-0.932-0.222-0.152-0.475-0.197-0.685-0.133l-1.813-1.192c-0.032-0.241-0.184-0.482-0.425-0.621-0.228-0.133-0.488-0.158-0.704-0.082l-4.209-2.345c-0.057-0.254-0.304-0.475-0.634-0.526-0.361-0.063-0.697 0.089-0.811 0.355l-9.121 1.61c-0.177-0.127-0.437-0.171-0.697-0.089-0.374 0.114-0.615 0.437-0.558 0.748l-6.332 6.484c-0.279-0.019-0.57 0.197-0.685 0.539-0.101 0.279-0.051 0.57 0.101 0.754l-0.355 8.272c-0.19 0.152-0.292 0.437-0.241 0.735 0.057 0.336 0.285 0.583 0.545 0.634l2.415 5.464c-0.101 0.247-0.006 0.583 0.254 0.805 0.209 0.184 0.469 0.254 0.685 0.203l5.869 4.133c-0.013 0.304 0.247 0.596 0.621 0.672 0.254 0.057 0.507 0 0.672-0.133l7.593 0.52c0.146 0.209 0.45 0.323 0.767 0.266 0.298-0.057 0.532-0.247 0.608-0.475l6.465-3.778c0.209 0.025 0.45-0.057 0.64-0.241 0.222-0.215 0.304-0.507 0.241-0.742l3.315-5.971c0.203-0.019 0.412-0.171 0.513-0.406 0.133-0.311 0.038-0.659-0.228-0.773zM30.59 11.335c0.108-0.032 0.228 0.044 0.273 0.177 0.038 0.133-0.019 0.266-0.127 0.304-0.108 0.032-0.228-0.044-0.273-0.177-0.038-0.133 0.019-0.273 0.127-0.304zM0.844 19.645c-0.133 0.025-0.266-0.089-0.292-0.254s0.057-0.317 0.19-0.336c0.133-0.025 0.266 0.089 0.292 0.254s-0.057 0.317-0.19 0.336zM24.245 24.043c0 0.184-0.146 0.33-0.33 0.33s-0.33-0.146-0.33-0.33c0-0.184 0.146-0.33 0.33-0.33 0.177 0 0.33 0.152 0.33 0.33zM27.040 5.129c0.076-0.108 0.254-0.12 0.387-0.025 0.139 0.095 0.184 0.26 0.108 0.374-0.076 0.108-0.254 0.12-0.387 0.025s-0.184-0.26-0.108-0.374zM26.476 5.212c-0.032 0.241 0.101 0.52 0.355 0.697 0.139 0.095 0.292 0.152 0.444 0.158l1.902 3.328-3.911-4.976 1.211 0.792zM29.893 11.031l-5.166-2.827c-0.032-0.311-0.235-0.57-0.513-0.685l0.273-3.169 5.407 6.681zM24.061 3.291c0.082-0.139 0.279-0.177 0.431-0.089 0.158 0.089 0.215 0.279 0.139 0.418-0.082 0.139-0.279 0.177-0.431 0.089-0.165-0.089-0.222-0.279-0.139-0.418zM23.916 7.95c0.184 0 0.33 0.146 0.33 0.33s-0.146 0.33-0.33 0.33c-0.184 0-0.33-0.146-0.33-0.33s0.146-0.33 0.33-0.33zM23.852 4.229l-0.285 3.309c-0.177 0.082-0.323 0.222-0.406 0.399h-3.353c-0.133-0.279-0.418-0.475-0.748-0.475-0.057 0-0.114 0.006-0.165 0.019l-3.169-3.569c0.013-0.044 0.025-0.089 0.032-0.133l7.834 0.209c0.070 0.095 0.152 0.177 0.26 0.241zM13.609 23.295v-5.831c0.038-0.013 0.076-0.025 0.114-0.038l5.121 6.218c-0.070 0.12-0.108 0.26-0.108 0.412 0 0.374 0.254 0.691 0.596 0.792l0.273 3.847c-0.051 0.019-0.101 0.038-0.146 0.063l-5.369-4.545c0.013-0.051 0.013-0.101 0.013-0.158 0.006-0.342-0.203-0.634-0.494-0.761zM13.286 23.714c0.184 0 0.33 0.146 0.33 0.33s-0.146 0.33-0.33 0.33c-0.184 0-0.33-0.146-0.33-0.33 0-0.177 0.146-0.33 0.33-0.33zM13.064 16.665c0-0.184 0.146-0.33 0.33-0.33s0.33 0.146 0.33 0.33c0 0.184-0.146 0.33-0.33 0.33s-0.33-0.152-0.33-0.33zM19.238 24.043c0-0.184 0.146-0.33 0.33-0.33s0.33 0.146 0.33 0.33c0 0.184-0.146 0.33-0.33 0.33s-0.33-0.146-0.33-0.33zM19.929 29.108c0.184 0 0.33 0.133 0.33 0.292 0 0.165-0.146 0.292-0.33 0.292s-0.33-0.133-0.33-0.292c0-0.158 0.146-0.292 0.33-0.292zM19.561 23.232c-0.070 0-0.133 0.006-0.197 0.025l-5.197-6.307c0.032-0.089 0.051-0.177 0.051-0.279 0-0.456-0.368-0.824-0.824-0.824s-0.824 0.368-0.824 0.824c0 0.298 0.158 0.558 0.399 0.704v5.926c-0.209 0.089-0.374 0.26-0.45 0.475h-3.309c-0.076-0.215-0.241-0.387-0.45-0.475v-14.261c0.203-0.089 0.368-0.254 0.444-0.463h2.871c0.12 0.311 0.418 0.526 0.767 0.526 0.070 0 0.133-0.006 0.197-0.025l5.109 6.186c-0.038 0.095-0.057 0.19-0.057 0.298 0 0.456 0.368 0.824 0.824 0.824s0.824-0.368 0.824-0.824c0-0.285-0.146-0.532-0.361-0.678v-5.844c0.203-0.089 0.355-0.254 0.437-0.456h3.309c0.082 0.209 0.241 0.374 0.444 0.463v14.255c-0.209 0.089-0.374 0.26-0.45 0.475h-2.795c-0.101-0.323-0.406-0.545-0.761-0.545zM2.739 16.741l2.865-8.855c0.063-0.032 0.127-0.076 0.19-0.127l1.813 0.545c0.006 0.33 0.209 0.615 0.501 0.735v13.964l-5.362-5.413c0.070-0.12 0.114-0.26 0.114-0.418 0.006-0.158-0.038-0.304-0.12-0.431zM5.166 7.044c0.108-0.127 0.279-0.152 0.38-0.063s0.095 0.26-0.019 0.387c-0.108 0.127-0.279 0.152-0.38 0.063-0.095-0.089-0.089-0.266 0.019-0.387zM8.437 23.714c0.184 0 0.33 0.146 0.33 0.33s-0.146 0.33-0.33 0.33c-0.184 0-0.33-0.146-0.33-0.33 0-0.177 0.146-0.33 0.33-0.33zM8.114 8.28c0-0.177 0.146-0.323 0.323-0.323s0.323 0.146 0.323 0.323c0 0.177-0.146 0.323-0.323 0.323s-0.323-0.146-0.323-0.323zM12.525 8.28c0-0.184 0.146-0.33 0.33-0.33s0.33 0.146 0.33 0.33c0 0.184-0.146 0.33-0.33 0.33s-0.33-0.152-0.33-0.33zM14.845 4.483c0.032 0.006 0.063 0.006 0.089 0.006 0.133 0 0.254-0.032 0.361-0.082l3.061 3.448c-0.082 0.127-0.127 0.273-0.127 0.437 0 0.342 0.209 0.64 0.513 0.761v5.711c-0.044 0.013-0.089 0.025-0.133 0.044l-5.045-6.11c0.070-0.12 0.108-0.26 0.108-0.406 0-0.273-0.133-0.513-0.342-0.666l1.515-3.144zM14.604 3.545c0-0.184 0.146-0.33 0.33-0.33s0.33 0.146 0.33 0.33c0 0.184-0.146 0.33-0.33 0.33-0.177 0-0.33-0.146-0.33-0.33zM19.067 8.603c-0.177 0-0.323-0.146-0.323-0.323s0.146-0.323 0.323-0.323c0.177 0 0.323 0.146 0.323 0.323s-0.146 0.323-0.323 0.323zM19.25 15.55c0 0.184-0.146 0.33-0.33 0.33s-0.33-0.146-0.33-0.33c0-0.184 0.146-0.33 0.33-0.33s0.33 0.152 0.33 0.33zM18.699 0.452c0.025-0.133 0.177-0.215 0.342-0.19s0.279 0.158 0.254 0.292c-0.025 0.133-0.177 0.216-0.336 0.19-0.171-0.032-0.285-0.158-0.26-0.292zM18.686 1.162c0.051 0.019 0.108 0.038 0.171 0.044 0.247 0.044 0.475-0.013 0.64-0.139l3.987 2.218c-0.006 0.019-0.013 0.038-0.019 0.057l-7.517-0.203 2.738-1.978zM17.78 1.022l-2.58 1.864c-0.082-0.025-0.171-0.044-0.26-0.044-0.266 0-0.501 0.127-0.653 0.317l-3.847-0.837 7.34-1.299zM8.475 2.131c0.158-0.051 0.323 0.019 0.361 0.146s-0.057 0.273-0.216 0.323c-0.158 0.051-0.317-0.019-0.361-0.146-0.044-0.133 0.057-0.273 0.216-0.323zM8.386 3.082c0.127 0.019 0.266 0.013 0.406-0.025 0.197-0.063 0.361-0.184 0.456-0.323l4.862 1.052c0.019 0.146 0.076 0.273 0.165 0.387l-1.591 3.309c-0.26 0.051-0.475 0.222-0.589 0.456h-2.916c-0.133-0.279-0.418-0.475-0.748-0.475-0.228 0-0.437 0.095-0.583 0.241l-1.756-0.526c0.006-0.12-0.013-0.241-0.070-0.342l2.364-3.752zM6.523 4.838l-1.109 1.762c-0.158 0.038-0.323 0.127-0.45 0.273-0.12 0.133-0.19 0.292-0.209 0.444l-1.857 1.23 3.626-3.708zM2.010 10.054c0.019-0.057 0.032-0.114 0.044-0.171l2.833-1.883-2.649 8.189-0.431-5.806c0.089-0.089 0.158-0.197 0.203-0.33zM2.358 17.166c0 0.165-0.12 0.304-0.273 0.304s-0.273-0.133-0.273-0.304c0-0.165 0.12-0.298 0.273-0.298 0.146-0.006 0.273 0.133 0.273 0.298zM1.097 9.668c0.057-0.158 0.203-0.247 0.33-0.203s0.184 0.209 0.133 0.368c-0.057 0.158-0.203 0.247-0.33 0.203-0.127-0.051-0.184-0.209-0.133-0.368zM1.395 13.522l0.241 3.214c-0.082 0.127-0.133 0.279-0.133 0.444 0 0.139 0.032 0.266 0.095 0.374l-0.406 0.849 0.203-4.881zM1.439 19.841c0.12-0.158 0.177-0.387 0.133-0.628-0.006-0.032-0.013-0.057-0.019-0.089l0.456-0.951 1.16 5.584-1.73-3.917zM4.102 26.141c-0.089 0.101-0.26 0.095-0.387-0.019-0.127-0.108-0.152-0.279-0.063-0.38s0.266-0.095 0.387 0.019c0.127 0.108 0.152 0.279 0.063 0.38zM4.14 25.26l-1.407-6.763 5.033 5.077c-0.089 0.127-0.146 0.273-0.152 0.437l-3.252 1.382c-0.070-0.057-0.146-0.101-0.222-0.133zM4.672 26.129c0.013-0.057 0.013-0.114 0.006-0.171l3.157-1.344c0.152 0.158 0.361 0.26 0.602 0.26 0.038 0 0.076-0.006 0.114-0.006l1.787 5.255-5.667-3.993zM11.106 30.914c-0.032 0.133-0.184 0.209-0.349 0.177-0.165-0.038-0.273-0.171-0.247-0.304s0.184-0.209 0.349-0.177c0.165 0.038 0.273 0.177 0.247 0.304zM10.985 30.020l-1.87-5.495c0.025-0.032 0.044-0.070 0.063-0.108h3.366c0.063 0.127 0.158 0.241 0.279 0.317l-1.838 5.286zM13.463 24.855c0.095-0.019 0.184-0.057 0.266-0.108l5.28 4.475-7.473 1.179 1.927-5.546zM19.010 31.161l-5.673-0.387 5.914-0.932c0.089 0.095 0.197 0.171 0.33 0.222l-0.133 0.767c-0.197 0.057-0.355 0.177-0.437 0.33zM19.758 31.738c-0.165 0.032-0.317-0.051-0.342-0.184s0.089-0.266 0.254-0.292c0.165-0.032 0.317 0.051 0.342 0.184 0.025 0.127-0.089 0.26-0.254 0.292zM20.246 30.952c-0.044-0.038-0.095-0.070-0.152-0.101l0.139-0.805c0.235-0.095 0.418-0.292 0.469-0.526l4.709-1.591-5.166 3.023zM26.451 26.902l-5.933 2.003c-0.076-0.076-0.165-0.146-0.273-0.19l-0.279-3.949c0.139-0.082 0.26-0.203 0.33-0.349h2.865c0.133 0.273 0.418 0.463 0.742 0.463 0.158 0 0.311-0.044 0.437-0.127l2.123 2.111c0 0.013-0.006 0.025-0.013 0.038zM27.389 27.263c-0.12 0.114-0.292 0.133-0.387 0.038s-0.076-0.266 0.044-0.387c0.12-0.114 0.292-0.133 0.387-0.038 0.095 0.101 0.076 0.273-0.044 0.387zM31.357 20.291c-0.057 0.127-0.19 0.197-0.292 0.146-0.108-0.044-0.146-0.184-0.089-0.311s0.19-0.19 0.292-0.146c0.108 0.044 0.146 0.184 0.089 0.311z"></path>
</svg>
