<svg version="1.1" xmlns="http://www.w3.org/2000/svg" viewBox="0 0 32 32">
<title>nmc</title>
<path d="M27.844 3.633c-1.247 0.947-1.674 2.447-1.674 2.447l-3.198 11.764-10.874-14.892c0 0-2.424-0.138-3.302 0.184s-2.055 1.178-2.547 3.056-6.249 22.903-6.249 22.903c0 0 2.793 0.096 3.671-0.389s1.755-1.016 2.285-2.874c0.364-1.272 3.163-11.729 3.163-11.729l10.898 14.992c0 0 2.621 0.076 3.498-0.319 1.051-0.473 1.951-1.628 2.297-2.944s6.188-22.91 6.188-22.91-2.909-0.236-4.156 0.711zM20.964 25.002l-10.775-14.808 0.8-3.263 10.928 15.054z"></path>
</svg>
