<svg version="1.1" xmlns="http://www.w3.org/2000/svg" viewBox="0 0 32 32">
<title>now</title>
<path d="M16 32c-8.837 0-16-7.163-16-16s7.163-16 16-16 16 7.163 16 16-7.163 16-16 16zM7.791 16.327v-2.908h0.031l2.147 2.908h1.244v-5.522h-1.531v2.862h-0.031l-2.131-2.862h-1.259v5.522zM14.886 10.709c-1.707 0-2.782 1.094-2.782 2.858s1.071 2.855 2.782 2.855c1.707 0 2.782-1.091 2.782-2.855s-1.075-2.858-2.782-2.858zM14.886 12.003c0.677 0 1.129 0.608 1.129 1.565 0 0.953-0.448 1.561-1.129 1.561s-1.129-0.608-1.129-1.561c0-0.957 0.452-1.565 1.129-1.565zM22.108 13.166h0.031l0.823 3.161h1.531l1.423-5.522h-1.676l-0.635 3.49h-0.031l-0.823-3.49h-1.255l-0.823 3.49h-0.031l-0.635-3.49h-1.676l1.423 5.522h1.531zM8.099 22.531v-2.469h0.848v-0.752h-2.643v0.752h0.848v2.469zM11.737 19.254c-0.996 0-1.623 0.638-1.623 1.667s0.625 1.665 1.623 1.665c0.996 0 1.623-0.636 1.623-1.665s-0.627-1.667-1.623-1.667zM11.737 20.008c0.395 0 0.658 0.355 0.658 0.913 0 0.556-0.261 0.911-0.658 0.911s-0.658-0.355-0.658-0.911c0-0.558 0.263-0.913 0.658-0.913zM15.752 22.531v-0.844l0.252-0.339 0.703 1.183h1.1l-1.109-1.79 1.060-1.431h-0.993l-0.996 1.366h-0.018v-1.366h-0.946v3.221zM21.381 21.778h-1.326v-0.518h1.243v-0.679h-1.243v-0.52h1.326v-0.752h-2.272v3.221h2.272zM23.793 22.531v-1.696h0.018l1.252 1.696h0.725v-3.221h-0.893v1.67h-0.018l-1.243-1.67h-0.734v3.221z"></path>
</svg>
