<svg version="1.1" xmlns="http://www.w3.org/2000/svg" viewBox="0 0 32 32">
<title>nvc</title>
<path d="M22.322 0c-5.184 0-9.386 1.471-9.386 3.287v2.916c0.502 1.043 4.047 2.37 9.386 2.37s8.883-1.327 9.385-2.37v-2.916c0-1.815-4.202-3.287-9.385-3.287zM3.043 25.923l-0.133-0.274v-0.326c-0.566 0.423-0.891 0.893-0.891 1.391v2.917c0.502 1.043 4.047 2.37 9.386 2.37s8.884-1.327 9.385-2.37v-1.514c-1.893 0.588-4.389 0.934-7.157 0.934-5.349 0-9.704-1.286-10.59-3.128z"></path>
<path d="M4.247 24.493v0.85c0.502 1.044 4.047 2.37 9.386 2.37s8.883-1.327 9.385-2.37v-2.916c0-0.208-0.061-0.411-0.167-0.608v0.455l-0.132 0.275c-0.887 1.841-5.241 3.127-10.59 3.127-3.138 0-5.928-0.445-7.882-1.183zM19.063 17.43v-2.916c0-1.816-4.202-3.287-9.385-3.287s-9.385 1.471-9.385 3.287v2.916c0.501 1.043 4.047 2.37 9.385 2.37s8.884-1.327 9.385-2.37z"></path>
<path d="M20.4 17.5v0.236l-0.132 0.274c-0.886 1.841-5.241 3.127-10.59 3.127-2.658 0-5.071-0.318-6.934-0.864v1.695c0.502 1.043 4.047 2.37 9.386 2.37 5.338 0 8.883-1.327 9.385-2.37v-2.916c0-0.563-0.405-1.091-1.114-1.553zM12.936 8.010v2.080c2.835 0.348 5.394 1.169 6.646 2.511 0.911 0.084 1.825 0.125 2.74 0.124 5.338 0 8.883-1.328 9.385-2.37v-2.345c-1.958 1.253-5.687 1.9-9.385 1.9-3.699 0-7.428-0.647-9.386-1.9zM20.344 13.999c0.034 0.167 0.057 0.338 0.057 0.515v1.464c0.524 0.262 0.978 0.558 1.354 0.89 0.189 0.003 0.374 0.009 0.568 0.009 5.338 0 8.883-1.327 9.385-2.37v-2.344c-1.958 1.253-5.687 1.9-9.385 1.9-0.66-0-1.32-0.021-1.979-0.063zM22.851 19.053v0.857c0.447 0.32 0.807 0.678 1.064 1.074 4.441-0.231 7.343-1.392 7.793-2.327v-2.345c-1.891 1.21-5.433 1.853-9.005 1.896 0.094 0.268 0.148 0.547 0.148 0.844zM24.355 22.427v2.684c4.194-0.282 6.917-1.398 7.352-2.302v-2.345c-1.6 1.023-4.381 1.642-7.361 1.835 0.003 0.042 0.009 0.084 0.009 0.127zM22.127 27.614v1.973c0.065 0.001 0.13 0.004 0.196 0.004 5.183 0 9.385-1.471 9.385-3.287v-1.689c-1.691 1.082-4.705 1.712-7.878 1.863-0.389 0.419-0.967 0.801-1.702 1.135z"></path>
</svg>
