<svg version="1.1" xmlns="http://www.w3.org/2000/svg" viewBox="0 0 32 32">
<title>nxt</title>
<path d="M14.62 20.066h-2.932l-8.148-5.399h-2.174c-0.754 0-1.366-0.612-1.366-1.366s0.612-1.366 1.366-1.366h2.997l8.148 5.399h2.109c0.755 0 1.366 0.612 1.366 1.366s-0.612 1.366-1.366 1.366zM26.666 20.066h-4.328l-8.148-5.399h-2.174c-0.755 0-1.366-0.612-1.366-1.366s0.612-1.366 1.366-1.366h2.997l8.148 5.399h3.505c0.755 0 1.366 0.612 1.366 1.366s-0.612 1.366-1.366 1.366zM30.634 17.366c-0.754 0-1.366-0.612-1.366-1.366v-1.333h-6.648c-0.755 0-1.366-0.612-1.366-1.366s0.612-1.366 1.366-1.366h9.381v4.066c-0 0.755-0.612 1.366-1.366 1.366zM4.006 20.066h-2.64c-0.754 0-1.366-0.612-1.366-1.366s0.612-1.366 1.366-1.366h2.64c0.755 0 1.366 0.612 1.366 1.366s-0.612 1.366-1.366 1.366z"></path>
</svg>
