<svg version="1.1" xmlns="http://www.w3.org/2000/svg" viewBox="0 0 32 32">
<title>oax</title>
<path d="M13.222 19.649l-0.907 1.821h-2.010l5.459-10.943 3.641 7.295h-2.058l-1.63-3.166-1.63 3.22zM21.176 21.471h-2.010l-0.911-1.821h2.010z"></path>
<path d="M26.588 14.561l-1.151 1.488-4.313-5.469h2.349zM25.437 16.001l1.151 1.487-3.114 3.981h-2.35zM27.739 16.001l-1.151-1.488 3.114-3.981h2.298zM27.739 16.001l4.261 5.469h-2.297l-3.114-3.981zM9.342 12.114c1.043 1.019 1.615 2.429 1.578 3.888 0.013 1.455-0.555 2.855-1.578 3.888-1.052 1.106-2.349 1.581-3.881 1.581-1.454 0.022-2.855-0.549-3.881-1.581-1.039-1.023-1.61-2.43-1.578-3.888-0.020-1.137 0.333-2.25 1.006-3.166l1.339 1.341c-0.346 0.563-0.528 1.212-0.526 1.873 0.001 0.969 0.378 1.899 1.052 2.593 0.676 0.707 1.611 1.106 2.589 1.106s1.912-0.399 2.589-1.106c0.695-0.681 1.076-1.62 1.052-2.593-0.002-0.968-0.379-1.899-1.052-2.593-0.68-0.696-1.617-1.078-2.589-1.054-0.639-0.017-1.27 0.149-1.818 0.48l-1.339-1.341c0.915-0.674 2.025-1.028 3.16-1.007 1.455-0.033 2.858 0.539 3.877 1.579z"></path>
</svg>
