<svg version="1.1" xmlns="http://www.w3.org/2000/svg" viewBox="0 0 32 32">
<title>ok</title>
<path d="M15.202 10.915c-0.767-0.215-4.429-1.103-5.154-1.289-0.775-0.199-2.822-0.522-3.344 0.66s-1.902 4.48-2.378 5.683c-0.475 1.203 0.276 1.834 0.982 2.018s5.43 1.427 6.274 1.611c0.844 0.184 2.148 0.077 2.669-1.089s1.933-4.464 2.347-5.599-0.629-1.78-1.396-1.994zM13.082 13.576c-0.203 0.557-0.946 2.274-1.202 2.846s-0.657 0.606-1.070 0.516c-0.414-0.090-2.198-0.517-2.544-0.607s-0.704-0.312-0.471-0.903c0.233-0.59 0.964-2.297 1.22-2.876s0.85-0.516 1.23-0.418c0.356 0.091 2.047 0.502 2.423 0.608s0.617 0.277 0.414 0.834zM24 16.66l4.199-2.525-3.567-0.903-5.361 3.429 1.852-4.291-2.991-0.759-3.647 8.675 3.014 0.782 1.358-3.279c0 0 2.6 0.679 3.037 0.806s0.357 0.495 0.265 0.782c-0.092 0.288-1.058 2.566-1.058 2.566l2.957 0.737c0 0 1.162-2.784 1.473-3.613s0.173-1.128-0.104-1.542c-0.276-0.414-1.426-0.863-1.426-0.863z"></path>
<path d="M16-0c-8.837 0-16 7.163-16 16s7.163 16 16 16c8.836 0 16-7.163 16-16s-7.163-16-16-16zM16 28.595c-6.956 0-12.594-5.639-12.594-12.595s5.638-12.595 12.594-12.595c6.956 0 12.595 5.639 12.595 12.595s-5.639 12.595-12.595 12.595z"></path>
</svg>
