<svg version="1.1" xmlns="http://www.w3.org/2000/svg" viewBox="0 0 32 32">
<title>omni</title>
<path d="M6.503 1.42h-5.104v5.115c1.327-2.042 3.065-3.784 5.104-5.115zM30.511 6.398v-4.978h-5.014c1.993 1.301 3.699 2.995 5.014 4.978zM25.57 30.532h4.941v-4.93c-1.299 1.958-2.979 3.635-4.941 4.93zM1.399 25.465v5.067h5.031c-2.008-1.325-3.72-3.050-5.031-5.067z"></path>
<path d="M32 16c0-8.822-7.177-16-16-16s-16 7.178-16 16 7.178 16 16 16c8.823 0 16-7.177 16-16zM16 27.667c-6.433 0-11.667-5.234-11.667-11.667s5.234-11.667 11.667-11.667c6.433 0 11.667 5.234 11.667 11.667s-5.234 11.667-11.667 11.667z"></path>
</svg>
