<svg version="1.1" xmlns="http://www.w3.org/2000/svg" viewBox="0 0 32 32">
<title>part</title>
<path d="M15.080 0.282c1.029-0.449 1.763 0.502 2.396 1.138 1.133 0.963 2.21 1.993 3.232 3.073 0.586 0.64 0.348 1.813-0.448 2.169-0.612 0.335-1.36 0.083-1.83-0.383-1.232-1.184-2.411-2.427-3.692-3.558-0.793-0.651-0.632-2.063 0.342-2.439zM26.303 3.563c0.697-0.376 1.813-0.070 2.007 0.762 0.295 0.74-0.179 1.473-0.7 1.966-1.14 1.129-2.249 2.288-3.358 3.448-0.404 0.49-1.116 0.622-1.687 0.357-0.825-0.342-1.048-1.585-0.426-2.213 1.399-1.427 2.634-3.026 4.164-4.32zM4.020 3.794c0.726-0.439 1.625-0.148 2.162 0.449 1.208 1.223 2.455 2.405 3.677 3.609 0.809 0.75 0.245 2.337-0.884 2.342-0.944 0.146-1.445-0.791-2.077-1.303-1.109-0.92-2.123-1.944-3.128-2.975-0.569-0.587-0.399-1.665 0.249-2.121zM4.957 11.023c1.218-0.47 2.406 1.068 1.646 2.129-0.898 1.175-2.068 2.118-3.048 3.228-0.579 0.597-1.118 1.514-2.082 1.398-1.128-0.044-1.695-1.616-0.874-2.378 1.482-1.422 2.658-3.221 4.357-4.376zM29.646 14.426c0.838-0.548 2.102 0.075 2.128 1.087 0.123 0.951-0.818 1.454-1.336 2.092-0.913 1.101-1.915 2.128-2.948 3.116-0.755 0.716-2.167 0.213-2.302-0.823-0.177-1.070 0.825-1.735 1.457-2.42 1.046-0.973 1.929-2.121 3.001-3.053zM8.133 21.951c0.813-0.488 2.048 0.092 2.067 1.083 0.15 0.956-0.792 1.463-1.307 2.102-0.91 1.104-1.925 2.116-2.949 3.116-0.666 0.675-2.084 0.349-2.273-0.619-0.322-0.934 0.47-1.689 1.072-2.277 1.169-1.097 2.186-2.351 3.389-3.405zM22.59 21.915c0.45-0.155 1.022-0.167 1.402 0.158 1.409 1.342 2.907 2.59 4.231 4.021 0.409 0.415 0.445 1.112 0.174 1.611-0.382 0.898-1.695 0.92-2.331 0.284-1.285-1.216-2.52-2.492-3.813-3.703-0.782-0.609-0.598-2.019 0.337-2.371zM11.742 25.347c0.67-0.364 1.457-0.019 1.939 0.493 1.215 1.209 2.43 2.417 3.692 3.577 0.83 0.791 0.268 2.395-0.901 2.408-0.944 0.112-1.435-0.827-2.069-1.342-1.101-0.915-2.123-1.922-3.111-2.959-0.596-0.638-0.354-1.825 0.45-2.177zM9.587 1.503c0 0.766-0.62 1.388-1.384 1.388s-1.384-0.621-1.384-1.388c0-0.766 0.62-1.388 1.384-1.388s1.384 0.621 1.384 1.388zM13.621 5.193c0 0.766-0.62 1.388-1.384 1.388s-1.384-0.621-1.384-1.388c0-0.766 0.62-1.388 1.384-1.388s1.384 0.622 1.384 1.388zM2.815 8.583c0 0.767-0.62 1.388-1.384 1.388s-1.384-0.621-1.384-1.388c0-0.766 0.62-1.387 1.384-1.387s1.384 0.621 1.384 1.387zM24.785 1.393c0 0.766-0.619 1.387-1.384 1.387s-1.384-0.621-1.384-1.387c0-0.766 0.62-1.388 1.384-1.388s1.384 0.621 1.384 1.388zM31.953 8.235c0 0.766-0.62 1.388-1.384 1.388s-1.384-0.622-1.384-1.388c0-0.766 0.62-1.388 1.384-1.388s1.384 0.622 1.384 1.388zM28.171 12.222c0 0.766-0.62 1.387-1.384 1.387s-1.384-0.621-1.384-1.387c0-0.766 0.62-1.387 1.384-1.387s1.384 0.621 1.384 1.387zM31.947 23.428c0 0.766-0.62 1.387-1.384 1.387s-1.384-0.621-1.384-1.387c0-0.766 0.62-1.388 1.384-1.388s1.384 0.621 1.384 1.388zM21.153 26.812c0 0.766-0.62 1.388-1.384 1.388s-1.384-0.621-1.384-1.388c0-0.766 0.62-1.388 1.384-1.388s1.384 0.622 1.384 1.388zM25.135 30.607c0 0.766-0.62 1.388-1.384 1.388s-1.384-0.621-1.384-1.388c0-0.766 0.62-1.388 1.384-1.388s1.384 0.622 1.384 1.388zM9.978 30.607c0 0.766-0.62 1.387-1.384 1.387s-1.384-0.621-1.384-1.387c0-0.766 0.62-1.388 1.384-1.388s1.384 0.621 1.384 1.388zM6.602 19.74c0 0.766-0.62 1.387-1.384 1.387s-1.384-0.621-1.384-1.387c0-0.766 0.62-1.388 1.384-1.388s1.384 0.621 1.384 1.388zM2.815 23.772c0 0.766-0.62 1.388-1.384 1.388s-1.384-0.621-1.384-1.388c0-0.766 0.62-1.387 1.384-1.387s1.384 0.621 1.384 1.387z"></path>
</svg>
