<svg version="1.1" xmlns="http://www.w3.org/2000/svg" viewBox="0 0 32 32">
<title>powr</title>
<path d="M28.306 17.859l2.014-0.937-1.786 1.787zM29.2 23.621l-3.7 0.991 0.726-2.709 1.983-1.983zM23.737 28.769l-1.503-2.631 2.379-0.638zM20.515 27.615l1.755 1.223-2.349-0.629zM16 31.242l-2.709-2.709 2.709-0.726 2.709 0.726-2.709 2.709zM8.867 29.069l1.493-2.579 1.719 1.719zM7.387 25.5l0.851 0.228-0.185 2.257zM2.8 23.621l0.991-3.7 1.983 1.983 0.726 2.709zM1.059 16.302l3.034 0.067-0.627 2.34zM3.713 14.214l-2.117 0.948 1.87-1.87zM2.8 8.379l3.7-0.991-0.726 2.709-1.983 1.983-0.992-3.7zM8.258 3.252l1.441 2.629-2.312 0.619 0.87-3.248zM11.456 4.415l-1.735-1.255 2.358 0.632zM16 0.758l2.709 2.709-2.709 0.726-2.709-0.726zM23.148 2.927l-1.481 2.61-1.746-1.746zM24.612 6.5l-0.88-0.236 0.176-2.393zM29.2 8.379l-0.991 3.7-1.983-1.983-0.726-2.709 3.7 0.991zM27.871 16.235l2.399 0.018-2.129 0.99zM27.38 17.597l0.103-0.385 0.080 0.299zM27.168 18.388l0.56-0.26 0.293 1.094-1.47 1.47zM25.338 22.792l-0.538 2.009-2.009 0.538zM21.823 25.419l-2.052-3.592 6.655-3.095-0.762 2.846-3.84 3.84zM21.686 26.444l1.16 2.030-1.879-1.31 0.72-0.72zM20.255 26.668l0.437-0.117-0.248 0.248zM19.462 26.88l0.53 0.37-0.771 0.771-2.009-0.538 2.249-0.603zM14.787 27.483l-2.009 0.538-1.47-1.47 3.479 0.932zM10.782 25.76l2.033-3.513 5.973 4.164-2.789 0.747zM8.923 25.053l0.285 0.285-0.302-0.081zM8.341 24.471l-0.051 0.621-1.090-0.292-0.538-2.009 1.68 1.68zM5.449 20.691l-1.47-1.47 0.538-2.009 0.932 3.479zM4.946 16.387l4.051 0.089-0.588 7.175-2.072-2.072zM4.123 15.741l-2.178-0.048 1.933-0.865zM4.592 14.508l-0.075 0.279-0.059-0.219 0.134-0.060zM4.801 13.727l-0.508 0.227-0.315-1.175 1.47-1.47-0.648 2.418zM6.662 9.209l0.538-2.009 2.009-0.538zM10.116 6.641l2.072 3.779-6.649 2.976 0.797-2.975zM10.264 5.606l-1.162-2.119 1.904 1.377-0.742 0.742zM11.678 5.35l-0.37 0.099 0.213-0.213zM12.459 5.141l-0.489-0.354 0.808-0.808 2.009 0.538zM17.212 4.517l2.009-0.538 1.47 1.47-3.479-0.932zM21.261 6.252l-2.115 3.727-6.032-4.364 2.885-0.773 5.261 1.41zM23.055 6.925l-0.263-0.263 0.277 0.074zM23.641 7.511l0.045-0.61 1.114 0.299 0.538 2.009zM26.551 11.309l1.47 1.47-0.538 2.009-0.932-3.479zM27.051 15.601l-4.001-0.030 0.53-7.233 2.083 2.083zM18.759 20.057l1.93-3.458 1.533 2.483c0.056 0.090 0.155 0.149 0.267 0.149 0.165 0 0.301-0.128 0.313-0.29l0-0.001 0.201-2.742 4.093 0.031-0.459 1.713-7.179 3.338zM17.591 22.15l0.811-1.453 0.486 0.85zM13.865 20.434l4.004-0.070-1.299 2.326c-0.025 0.044-0.040 0.097-0.040 0.153 0 0.173 0.14 0.314 0.314 0.314 0.048 0 0.094-0.011 0.134-0.030l-0.002 0.001 2.223-1.034 2.085 3.649-1.703 0.456-6.45-4.497 0.734-1.268zM11.375 20.477l1.758-0.031-0.518 0.895-1.24-0.864zM11.205 16.525l1.994 3.293-2.804 0.049c-0.171 0.003-0.308 0.142-0.308 0.314 0 0.106 0.053 0.2 0.133 0.257l0.001 0.001 2.078 1.449-2.073 3.582-1.236-1.236 0.635-7.743 1.58 0.035zM9.811 14.223l1.009 1.666-1.143-0.025zM13.136 12.148c0.047 0.084 0.129 0.144 0.226 0.159l0.002 0-1.942 3.364-1.576-2.602c-0.056-0.091-0.155-0.151-0.268-0.151-0.164 0-0.299 0.126-0.313 0.287l-0 0.001-0.217 2.644-4.141-0.091 0.424-1.581 7.161-3.206zM18.179 11.683h-3.731l1.287-2.229c0.026-0.045 0.042-0.099 0.042-0.157 0-0.173-0.14-0.314-0.314-0.314-0.046 0-0.091 0.010-0.13 0.028l0.002-0.001-2.572 1.152-2.129-3.883 1.7-0.455 6.501 4.704zM20.431 11.683h-1.53l0.445-0.785zM22.375 16.193l-0.127 1.735-1.077-1.744zM20.782 15.554l-2.002-3.243h2.621c0.010 0 0.019-0.001 0.029-0.002 0.003-0 0.007-0.001 0.010-0.001 0.018-0.002 0.033-0.005 0.049-0.010l-0.002 0.001c0.004-0.001 0.007-0.002 0.011-0.003 0.008-0.002 0.015-0.005 0.023-0.008 0.004-0.001 0.007-0.003 0.010-0.005 0.006-0.003 0.011-0.005 0.017-0.008l0.010-0.006c0.015-0.008 0.027-0.017 0.039-0.026l-0.001 0.001 0.007-0.006c0.007-0.006 0.014-0.012 0.020-0.018l0.001-0.001c0.006-0.006 0.012-0.012 0.017-0.019l0.006-0.007c0.009-0.011 0.018-0.024 0.025-0.037l0.001-0.002c0.002-0.003 0.004-0.007 0.006-0.010s0.004-0.008 0.007-0.014l0.001-0.002c0.002-0.003 0.003-0.007 0.005-0.010 0.003-0.008 0.006-0.016 0.009-0.024l0-0.001c0.001-0.004 0.002-0.008 0.003-0.012 0.001-0.005 0.003-0.011 0.004-0.016 0.002-0.008 0.004-0.018 0.005-0.028l0-0.002c0-0.003 0.001-0.007 0.001-0.010 0.001-0.009 0.001-0.017 0.001-0.026 0-0.001 0-0.002 0-0.002v-0.001c0-0.010-0.001-0.019-0.002-0.029l-0.001-0.009c-0.002-0.012-0.003-0.022-0.006-0.032l0 0.002c-0.002-0.008-0.003-0.013-0.005-0.018l0.001 0.002c-0.001-0.004-0.002-0.008-0.003-0.011-0.003-0.010-0.006-0.018-0.010-0.026l0.001 0.002c-0.001-0.003-0.003-0.007-0.005-0.010-0.005-0.011-0.009-0.019-0.014-0.027l0.001 0.001c-0.009-0.015-0.017-0.028-0.027-0.040l0 0.001c-0.002-0.002-0.003-0.004-0.005-0.006-0.006-0.008-0.012-0.014-0.019-0.021l0 0-0-0c-0.006-0.006-0.013-0.012-0.019-0.018l-0-0c-0.003-0.002-0.005-0.004-0.008-0.006s-0.006-0.005-0.010-0.008l-1.927-1.394 2.148-3.785 1.188 1.188-0.573 7.814-1.639-0.012zM13.597 11.683l-0.531-0.968 1.641-0.735-0.983 1.703zM18.223 19.73l-4.298 0.075-2.132-3.521 2.294-3.973h3.956l2.27 3.677zM23.115 6.099l-0.908-0.243 1.063-1.873zM8.854 25.893l0.975 0.261-1.16 2.005 0.186-2.266zM30.872 15.63l-2.959-0.023 0.621-2.316 2.339 2.339zM32 16c0-0.049-0.012-0.097-0.033-0.14-0.027-0.089-0.090-0.159-0.171-0.196l-0.002-0.001-3.072-3.072 1.166-4.353c0.007-0.024 0.011-0.052 0.011-0.081 0-0.144-0.098-0.266-0.23-0.303l-0.002-0.001-4.353-1.166-1.166-4.353c-0.037-0.135-0.159-0.233-0.303-0.233-0.029 0-0.057 0.004-0.083 0.011l0.002-0.001-4.353 1.167-3.187-3.187c-0.057-0.057-0.135-0.092-0.222-0.092s-0.165 0.035-0.222 0.092l-3.187 3.187-4.353-1.166c-0.002-0.001-0.004-0.001-0.006-0.001-0.005-0.001-0.010-0.002-0.015-0.003-0.002-0-0.004-0.001-0.006-0.001-0.003-0.001-0.007-0.001-0.010-0.002s-0.008-0.001-0.011-0.001c-0.002-0-0.005-0.001-0.008-0.001l-0.001-0c-0.003-0-0.006-0.001-0.009-0.001s-0.006-0-0.009-0c-0.002-0-0.004-0-0.006-0s-0.004 0-0.006 0h0c-0.002 0-0.005 0-0.008 0s-0.005 0.001-0.008 0.001-0.011 0.001-0.016 0.001l0.002-0-0.004 0c-0.004 0.001-0.007 0.001-0.011 0.002s-0.009 0.001-0.013 0.002c-0.001 0-0.003 0.001-0.004 0.001-0.004 0.001-0.008 0.002-0.011 0.003l-0.006 0.002c-0.006 0.002-0.009 0.003-0.012 0.004l0.002-0.001h-0c-0.006 0.002-0.009 0.003-0.012 0.004l0.002-0.001c-0.004 0.001-0.008 0.003-0.012 0.004l-0.007 0.003c-0.009 0.004-0.016 0.007-0.023 0.011l0.002-0.001-0.004 0.002-0.003 0.002-0.006 0.003c-0.004 0.003-0.009 0.005-0.013 0.008-0.003 0.002-0.005 0.003-0.008 0.005s-0.003 0.002-0.004 0.003l0.001-0.001c-0.004 0.003-0.008 0.006-0.012 0.009s-0.006 0.005-0.009 0.007l-0.002 0.002-0.001 0.001c-0.003 0.003-0.006 0.006-0.009 0.009s-0.007 0.006-0.010 0.010c-0.002 0.002-0.004 0.005-0.007 0.008-0.004 0.004-0.008 0.009-0.011 0.013-0 0-0.001 0.001-0.002 0.002l-0 0c-0.002 0.003-0.004 0.006-0.006 0.009-0.003 0.004-0.006 0.008-0.009 0.012-0.001 0.001-0.002 0.002-0.002 0.003-0.002 0.003-0.003 0.006-0.005 0.009-0.003 0.004-0.005 0.009-0.007 0.013-0.001 0.002-0.002 0.003-0.003 0.005s-0.002 0.005-0.003 0.007c-0.001 0.003-0.003 0.007-0.005 0.012l-0.001 0.002c-0.001 0.002-0.002 0.005-0.003 0.007l-0.002 0.006c-0.002 0.005-0.003 0.009-0.005 0.014-0.001 0.003-0.002 0.007-0.003 0.010-0 0.001-0.001 0.002-0.001 0.003l-1.166 4.353-4.353 1.166c-0.135 0.037-0.233 0.159-0.233 0.303 0 0.029 0.004 0.057 0.011 0.083l-0.001-0.002 1.166 4.353-3.187 3.187c-0.057 0.057-0.092 0.135-0.092 0.222s0.035 0.165 0.092 0.222l3.187 3.187-1.166 4.353c-0.007 0.024-0.011 0.052-0.011 0.081 0 0.144 0.098 0.266 0.23 0.303l0.002 0 4.353 1.166 1.166 4.353c0.037 0.135 0.159 0.233 0.303 0.233 0.029 0 0.057-0.004 0.083-0.011l-0.002 0 4.353-1.166 3.187 3.187c0.061 0.061 0.142 0.092 0.222 0.092s0.161-0.031 0.222-0.092l3.187-3.187 4.353 1.166c0.024 0.007 0.052 0.011 0.081 0.011 0.144 0 0.266-0.098 0.303-0.23l0.001-0.002 1.166-4.353 4.353-1.166c0.135-0.037 0.233-0.159 0.233-0.303 0-0.029-0.004-0.057-0.011-0.083l0.001 0.002-1.166-4.353 3.187-3.187c0.057-0.057 0.092-0.135 0.092-0.222 0 0 0-0 0-0v0z"></path>
</svg>
