<svg version="1.1" xmlns="http://www.w3.org/2000/svg" viewBox="0 0 32 32">
<title>pyn</title>
<path d="M2.344 13.667l-2.344 2.332 2.345 2.332 2.332-2.331zM16 27.388l-6.815-6.814-2.288 2.287 9.103 9.054 9.102-9.054-2.287-2.287zM16 4.612l6.815 6.813 2.287-2.287-9.102-9.053-9.103 9.053 2.288 2.287zM29.657 18.332l2.343-2.332-2.344-2.332-2.332 2.331zM21.529 18.341v-0.799h-1.482v-0.129c0-0.91-0.764-1.651-1.704-1.651s-1.704 0.741-1.704 1.651v0.129h-0.351v-0.621l2.037-3.128c0.173-0.257 0.293-0.457 0.364-0.599 0.067-0.146 0.102-0.293 0.102-0.435 0-0.178-0.067-0.333-0.204-0.471-0.142-0.133-0.315-0.204-0.524-0.204-0.133 0-0.244 0.027-0.337 0.075s-0.177 0.115-0.253 0.209c-0.076 0.088-0.146 0.186-0.209 0.288-0.004 0.013-0.013 0.022-0.018 0.036l-0.031 0.049c-0.053 0.084-0.111 0.186-0.182 0.297v0.004l-1.54 2.472-0.315-0.51-0.026-0.044-1.078-1.753-0.102-0.164c-0.044-0.067-0.084-0.133-0.12-0.191 0.169 0.009 0.319 0.026 0.457 0.053 0.351 0.062 0.604 0.173 0.755 0.328 0.231 0.244 0.346 0.564 0.346 0.954 0 0.289-0.058 0.528-0.173 0.719l0.004 0.004 0.022 0.031 0.049 0.080 1.495-2.423c-0.107-0.164-0.235-0.315-0.386-0.448-0.262-0.235-0.577-0.4-0.941-0.501-0.364-0.107-0.887-0.16-1.571-0.16h-2.303c-0.395 0-0.683 0.089-0.865 0.257s-0.27 0.448-0.27 0.843v6.833c0 0.355 0.080 0.626 0.248 0.808 0.164 0.182 0.382 0.275 0.653 0.275 0.257 0 0.47-0.093 0.639-0.28 0.169-0.182 0.257-0.457 0.257-0.817v-2.507h1.642c0.098 0 0.191 0 0.284-0.004l-0.843-1.349h-1.083v-2.392c0 0.009 0.004 0.018 0.009 0.027s0.009 0.018 0.013 0.022c0.071 0.155 0.191 0.364 0.36 0.63l1.105 1.717 0.848 1.313 0.005 0.004 0.031 0.049v0.621h-2.045v0.799h2.045v0.506h-2.045v0.799h2.050c0.018 0.271 0.093 0.475 0.222 0.617 0.151 0.164 0.351 0.249 0.595 0.249s0.439-0.085 0.595-0.253c0.133-0.142 0.209-0.346 0.231-0.612h0.355v0.861h1.372v-0.861h0.67v0.861h1.367v-0.861h1.482v-0.799h-1.482v-0.506h1.482zM16.639 18.846h-0.351v-0.506h0.351v0.506zM18.68 18.846h-0.67v-0.506h0.67v0.506zM18.68 17.542h-0.67v-0.115c0-0.195 0.146-0.355 0.333-0.355s0.337 0.16 0.337 0.355v0.115z"></path>
</svg>
