<svg version="1.1" xmlns="http://www.w3.org/2000/svg" viewBox="0 0 32 32">
<title>qcn</title>
<path d="M31.096 12.246h-10.697l-0.084-0.25-0.15-0.351c-0.219-0.703-0.447-1.404-0.683-2.102-0.237-0.701-0.476-1.402-0.716-2.102-0.289-0.934-0.594-2.008-0.916-3.22s-0.639-2.286-0.95-3.22c-0.044-0.222-0.15-0.4-0.317-0.534s-0.361-0.2-0.583-0.2-0.416 0.067-0.583 0.2c-0.166 0.133-0.261 0.3-0.283 0.5l-0.033 0.033c-0.311 0.934-0.622 2.013-0.933 3.237s-0.622 2.303-0.933 3.237l-1.166 3.504c-0.089 0.223-0.167 0.428-0.233 0.617s-0.133 0.395-0.2 0.617h-10.73c-0.467 0-0.756 0.267-0.867 0.801s0.022 0.923 0.4 1.168c1.355 0.912 2.711 1.819 4.066 2.719s2.71 1.796 4.066 2.686c-0.733 1.824-1.461 3.548-2.183 5.172s-1.45 3.37-2.183 5.239c-0.155 0.423-0.089 0.84 0.2 1.251s0.644 0.462 1.066 0.15l10.431-7.674c0.222 0.111 0.422 0.222 0.6 0.334s0.344 0.234 0.5 0.367l-0.033-0.033 9.597 7.14c0.422 0.312 0.778 0.261 1.066-0.15s0.356-0.829 0.2-1.251c-0.378-0.956-0.744-1.868-1.1-2.736-0.372-0.854-0.739-1.711-1.1-2.569-0.357-0.85-0.724-1.695-1.1-2.536-0.363-0.887-0.719-1.777-1.067-2.669 1.353-0.888 2.697-1.789 4.032-2.703 1.343-0.919 2.698-1.82 4.066-2.703 0.378-0.267 0.511-0.662 0.4-1.184s-0.4-0.784-0.866-0.784zM20.565 12.579v0.033zM11.435 12.746c-0.022 0.067-0.033 0.095-0.033 0.084s0.011-0.039 0.033-0.084zM16.466 21.555c-0.066-0.044-0.139-0.078-0.216-0.1s-0.161-0.033-0.25-0.033-0.172 0.011-0.25 0.033c-0.077 0.022-0.15 0.055-0.216 0.1l-8.398 6.173c0.556-1.335 1.117-2.641 1.683-3.921s1.128-2.641 1.683-4.087c0.044-0.067 0.078-0.145 0.1-0.234s0.033-0.178 0.033-0.267c0-0.178-0.044-0.345-0.133-0.501s-0.2-0.289-0.333-0.4c-1.985-1.318-3.973-2.63-5.965-3.937h7.998c0.222 0 0.411-0.223 0.567-0.667s0.267-0.779 0.333-1.001c0.489-1.424 0.972-2.853 1.449-4.288s0.95-2.92 1.416-4.454c0.489 1.535 0.972 3.020 1.449 4.454s0.961 2.864 1.45 4.288c0.067 0.222 0.178 0.556 0.333 1.001s0.344 0.667 0.567 0.667h7.998l-5.932 3.937c-0.133 0.089-0.244 0.206-0.333 0.35s-0.133 0.306-0.133 0.484c0 0.045 0.006 0.095 0.017 0.15s0.028 0.105 0.050 0.15c0 0.044 0.006 0.089 0.017 0.134 0.012 0.046 0.028 0.091 0.050 0.134 0.555 1.468 1.116 2.847 1.683 4.137s1.127 2.602 1.683 3.937z"></path>
</svg>
