<svg version="1.1" xmlns="http://www.w3.org/2000/svg" viewBox="0 0 32 32">
<title>rcn</title>
<path d="M13.614 2.147c1.237-0.234 2.504-0.207 3.755-0.144 1.443 0.172 2.888 0.48 4.215 1.085 2.647 1.113 4.917 3.079 6.433 5.514 0.572 0.846 0.955 1.796 1.342 2.736 0.357-0.579 0.678-1.181 0.988-1.787 0.134-0.285 0.415-0.507 0.742-0.492 0.44-0.047 0.872 0.312 0.909 0.753 0.036 0.355-0.184 0.662-0.328 0.969-0.453 0.933-1.040 1.792-1.646 2.63-0.112 0.122-0.065 0.29-0.051 0.438 0.675 4.046-0.61 8.352-3.346 11.399-1.556 1.774-3.57 3.134-5.785 3.947-2.557 0.909-5.373 1.113-8.018 0.478-3.833-0.844-7.226-3.412-9.155-6.82-0.421-0.69-0.69-1.457-1.023-2.19-0.363 0.568-0.672 1.167-0.982 1.764-0.145 0.294-0.432 0.498-0.77 0.524l-0.003 0c-0.554 0.001-1.057-0.606-0.834-1.145 0.477-1.115 1.13-2.146 1.861-3.11 0.157-0.168 0.135-0.404 0.106-0.613-0.264-1.773-0.199-3.6 0.234-5.341 1.12-4.912 5.133-9.016 10-10.293 0.45-0.109 0.901-0.222 1.359-0.3h-0.001zM10.179 5.118c-2.579 1.377-4.654 3.681-5.732 6.401-0.621 1.644-0.939 3.412-0.842 5.171 0.286-0.22 0.54-0.441 0.78-0.676l-0.001 0.001c1.447-1.312 3.142-2.328 4.914-3.139 3.292-1.52 6.916-2.175 10.518-2.352-1.218-1.283-2.538-2.466-3.756-3.749 0.384-0.428 0.799-0.826 1.216-1.221 0.472 0.435 0.909 0.906 1.372 1.35 1.497 1.515 3.041 2.985 4.515 4.521-1.571 1.593-3.183 3.144-4.754 4.736-0.127 0.122-0.263 0.239-0.404 0.348l-0.012 0.009c-0.396-0.405-0.856-0.76-1.173-1.234 0.966-1.029 2.064-1.931 2.992-2.995-1.661 0.023-3.314 0.262-4.94 0.589-1.313 0.24-2.576 0.69-3.836 1.12-2.642 1.005-5.079 2.608-6.936 4.75-0.111 0.111-0.095 0.275-0.065 0.414 0.219 0.957 0.633 1.853 1.088 2.718 1.498 2.746 4.086 4.867 7.061 5.824 1.739 0.544 3.596 0.753 5.406 0.498 2.519-0.32 4.928-1.436 6.796-3.155 2.713-2.429 4.235-6.131 4-9.766-0.285 0.226-0.542 0.484-0.81 0.729-1.744 1.533-3.794 2.769-6.039 3.602l-0.134 0.044c-2.939 1.107-6.068 1.682-9.203 1.771 0.274 0.363 0.612 0.669 0.93 0.992 0.938 0.928 1.864 1.869 2.816 2.781-0.367 0.44-0.794 0.822-1.199 1.224-0.405-0.335-0.757-0.726-1.133-1.092-1.418-1.397-2.82-2.81-4.233-4.211-0.192-0.185-0.38-0.376-0.538-0.591 0.612-0.669 1.315-1.244 1.941-1.899 1.076-1.056 2.124-2.144 3.213-3.188 0.407 0.402 0.835 0.787 1.198 1.232-0.969 1.019-2 1.978-2.981 2.986 1.076 0.054 2.139-0.135 3.204-0.237 0.773-0.083 1.53-0.261 2.29-0.421 3.906-0.915 7.71-2.801 10.331-5.906-1.005-4.41-4.694-8.039-9.086-9.066-2.925-0.756-6.114-0.325-8.774 1.087z"></path>
</svg>
