<svg version="1.1" xmlns="http://www.w3.org/2000/svg" viewBox="0 0 32 32">
<title>rdd</title>
<path d="M23.577 8.042c1.044 1.044 1.891 2.187 2.497 3.076h0.169c3.174 0 5.756-2.427 5.756-5.432s-2.568-5.432-5.756-5.432c-3.104 0-5.644 2.328-5.743 5.234 0.832 0.593 1.975 1.453 3.076 2.554zM9.834 30.759c1.044 0.395 2.13 0.677 3.259 0.832l-1.242-2.61zM17.439 9.115l-0.846-7.817c-0.438-0.042-0.889-0.056-1.355-0.056-5.319 0-9.989 2.723-12.727 6.843l2.399 4.995zM12.049 27.993l6.801-6.011-1.34-12.247-12.332 3.908z"></path>
<path d="M29.884 12.205c-0.099-0.31-0.198-0.635-0.311-0.945-0.466 0.254-0.959 0.466-1.481 0.607 0.127 0.254 0.226 0.452 0.282 0.593 0.085 0.183 0.014 0.395-0.155 0.508l-1.016 0.706c-0.070 0.056-0.155 0.070-0.24 0.070-0.028 0-0.056 0-0.099-0.014-0.113-0.028-0.211-0.099-0.282-0.198-0.48-0.846-1.82-3.005-3.697-4.882-1.891-1.891-3.88-3.161-4.642-3.612-0.183-0.099-0.254-0.325-0.183-0.508l0.381-1.030c0.042-0.113 0.127-0.197 0.24-0.254 0.113-0.042 0.226-0.042 0.339 0 0.197 0.084 0.466 0.211 0.804 0.409 0.183-0.522 0.437-1.002 0.748-1.453-1.072-0.395-2.187-0.677-3.358-0.832l2.187 20.12zM12.318 28.557l1.495 3.118c0.48 0.042 0.96 0.070 1.439 0.070 1.594 0 3.132-0.24 4.586-0.705l-0.903-8.339zM19.471 22.222l0.931 8.621c5.884-2.116 10.088-7.746 10.088-14.349 0-1.256-0.155-2.483-0.438-3.64zM2.144 8.691c-1.058 1.778-1.764 3.781-2.032 5.926l4.219-1.34zM4.6 13.827l-4.543 1.439c-0.028 0.409-0.056 0.818-0.056 1.228 0 6.279 3.795 11.668 9.214 14.010l2.356-2.088z"></path>
</svg>
