<svg version="1.1" xmlns="http://www.w3.org/2000/svg" viewBox="0 0 32 32">
<title>strat</title>
<path d="M31.373 16.005c-0.455-0.272-1.068-0.251-1.64 0.056-0.095 0.051-13.156 7.323-13.666 7.633-0.094 0.057-0.141 0.086-0.338-0.021-0.214-0.117-13.308-7.433-13.59-7.588-0.125-0.069-0.291-0.191-0.291-0.461v-2.183c3.326 1.865 12.589 7.060 13.062 7.325 0.308 0.172 0.655 0.264 1.005 0.264 0.361 0 0.726-0.097 1.057-0.281 2.734-1.516 13.88-7.698 14.217-7.884 0.505-0.28 0.816-0.784 0.811-1.315-0.004-0.5-0.284-0.946-0.749-1.194-0.27-0.144-7.661-4.244-14.487-8.034-0.276-0.153-0.564-0.23-0.856-0.23-0.27 0-0.536 0.069-0.771 0.201-4.815 2.7-9.629 5.4-14.444 8.1-0.434 0.243-0.694 0.69-0.693 1.195 0 0.002 0 0.003 0 0.005h-0v4.031c0 0.886 0.455 1.644 1.248 2.080 0.277 0.153 13.374 7.47 13.597 7.591 0.936 0.511 1.704 0.27 2.183-0.021 0.304-0.183 10.733-6.010 13.124-7.334v2.025c0 0.025 0 0.1-0.357 0.324-0.463 0.286-13.007 7.341-13.6 7.662-0.254 0.138-0.285 0.119-0.389 0.059-0.451-0.259-14.154-7.956-14.737-8.284l-0.905 1.612c0.143 0.080 14.278 8.020 14.722 8.275 0.374 0.215 0.723 0.294 1.039 0.294 0.463 0 0.856-0.17 1.152-0.331 0.103-0.056 13.188-7.398 13.704-7.723 0.334-0.21 1.221-0.77 1.221-1.889v-2.792c-0-0.504-0.228-0.93-0.627-1.168zM15.925 3.97c2.907 1.614 11.237 6.237 13.743 7.624-2.437 1.351-11.211 6.217-13.593 7.538-0.099 0.055-0.182 0.065-0.261 0.021-0.494-0.278-10.603-5.947-13.482-7.561 2.631-1.476 11.491-6.444 13.593-7.623z"></path>
</svg>
