<svg version="1.1" xmlns="http://www.w3.org/2000/svg" viewBox="0 0 32 32">
<title>tkn</title>
<path d="M19.998 13.535h8.862v-5.73h-8.862v-7.795l-7.096 2.765v19.689c0 1.088 0.178 2.132 0.533 3.131s0.849 1.905 1.482 2.715c0.633 0.811 1.382 1.505 2.249 2.082s1.81 0.999 2.832 1.266c0.4 0.111 0.799 0.194 1.199 0.25s0.822 0.083 1.266 0.083c0.711 0 1.644-0.116 2.798-0.35s2.243-0.616 3.265-1.149l-2.199-5.43c-0.333 0.244-0.7 0.428-1.1 0.55s-0.833 0.183-1.299 0.183c-0.999 0-1.871-0.3-2.615-0.899s-1.182-1.344-1.316-2.232zM9.537 10.936c0 0.977-0.311 1.81-0.933 2.499s-1.377 1.033-2.265 1.033c-0.866 0-1.616-0.344-2.249-1.033s-0.95-1.521-0.95-2.499 0.316-1.81 0.95-2.499c0.633-0.689 1.382-1.033 2.249-1.033 0.889 0 1.644 0.344 2.265 1.033s0.933 1.521 0.933 2.499z"></path>
</svg>
