<svg version="1.1" xmlns="http://www.w3.org/2000/svg" viewBox="0 0 32 32">
<title>trig</title>
<path d="M17.407 14.171c0-0.777-0.63-1.408-1.407-1.408s-1.408 0.63-1.408 1.408c0 0.516 0.283 0.992 0.737 1.238l-0.401 3.047h2.144l-0.401-3.047c0.454-0.246 0.737-0.721 0.737-1.238zM16 8.075c-1.418 0-2.571 1.191-2.571 2.654v0.377h5.142v-0.377c0-1.463-1.154-2.654-2.571-2.654z"></path>
<path d="M28.667 2.643c0 0-1.036-0.374-1.827-1.022s-1.53-1.621-1.53-1.621h-18.62c0 0-0.738 0.974-1.53 1.621s-1.827 1.022-1.827 1.022c0 0-2.168 7.58-1.17 12.713s2.571 8.653 6.484 12.222c3.223 2.945 7.353 4.422 7.353 4.422s4.131-1.478 7.353-4.422c3.914-3.568 5.487-7.089 6.484-12.222s-1.171-12.713-1.171-12.713zM22.175 18.785c0 0.856-0.694 1.55-1.55 1.55h-9.25c-0.856 0-1.55-0.694-1.55-1.55v-6.538c0-0.631 0.512-1.143 1.143-1.143h0.85v-0.377c0-2.352 1.876-4.265 4.183-4.265s4.183 1.913 4.183 4.265v0.377h0.85c0.631 0 1.143 0.512 1.143 1.143z"></path>
</svg>
