<svg version="1.1" xmlns="http://www.w3.org/2000/svg" viewBox="0 0 32 32">
<title>trx</title>
<path d="M29.315 8.373c-1.301-0.909-2.691-1.877-4.051-2.839-0.163-0.126-0.34-0.229-0.532-0.303l-0.015-0.008c-3.637-0.872-7.334-1.774-10.913-2.646l-9.729-2.366c-0.081-0.030-0.17-0.052-0.259-0.074-0.296-0.081-0.628-0.17-0.991-0.126-0.096 0.015-0.192 0.052-0.281 0.103l-0.089 0.074c-0.111 0.118-0.2 0.259-0.259 0.414l-0.022 0.059v0.274l0.015 0.052c2.055 5.751 4.163 11.577 6.188 17.225 1.56 4.339 3.186 8.842 4.769 13.255 0.111 0.311 0.399 0.518 0.724 0.525l0.074 0.008h0.022c0.296 0 0.577-0.163 0.725-0.414l5.959-8.679 4.347-6.343c0.599-0.865 1.19-1.73 1.782-2.595 0.976-1.427 1.989-2.905 2.987-4.339l0.052-0.074v-0.088c0.022-0.266 0.029-0.806-0.414-1.094zM22.432 11.537c-1.397 0.732-2.824 1.486-4.259 2.225l2.506-2.691c1.050-1.131 2.137-2.292 3.201-3.43l0.022-0.022c0.103-0.126 0.207-0.244 0.325-0.355 0.081-0.081 0.17-0.163 0.259-0.266 0.554 0.384 1.116 0.776 1.656 1.161 0.392 0.281 0.791 0.554 1.198 0.835-1.656 0.843-3.305 1.7-4.909 2.543zM15.549 14.716c-2.144-2.595-4.332-5.234-6.447-7.784l-2.891-3.475c-0.229-0.259-0.436-0.525-0.651-0.784-0.133-0.17-0.274-0.34-0.421-0.51 0.872 0.222 1.752 0.436 2.617 0.636 0.761 0.185 1.545 0.369 2.322 0.562l13.086 3.186c-1.545 1.545-3.002 3.112-4.414 4.628-1.4 1.577-2.467 2.758-3.201 3.541zM15.216 23.424c0.067-0.636 0.133-1.294 0.207-1.915 0.103-0.998 0.214-2.040 0.303-3.053l0.029-0.178c0.074-0.651 0.148-1.316 0.192-1.988 0.111-0.044 0.229-0.103 0.34-0.163 1.73-0.909 3.475-1.811 5.212-2.721 1.737-0.902 3.519-1.833 5.286-2.757-1.345 2.203-2.957 4.554-4.525 6.846-1.338 1.959-2.721 3.985-4.103 5.973-0.54 0.798-1.109 1.611-1.641 2.388-0.606 0.872-1.22 1.767-1.819 2.661 0.074-0.902 0.163-1.811 0.259-2.698 0.096-0.783 0.185-1.597 0.259-2.395zM4.193 3.124c2.026 2.447 4.073 4.916 6.062 7.304 1.028 1.242 2.063 2.469 3.090 3.718 0.207 0.229 0.414 0.481 0.599 0.717 0.259 0.311 0.517 0.636 0.791 0.939-0.088 0.776-0.163 1.56-0.244 2.306-0.059 0.525-0.103 1.057-0.17 1.59-0.022 0.34-0.067 0.68-0.103 1.013-0.052 0.458-0.17 1.493-0.17 1.493-0.14 1.575-0.31 3.105-0.466 4.591-0.067 0.621-0.126 1.249-0.192 1.878-0.037-0.111-0.081-0.222-0.126-0.325-0.111-0.303-0.222-0.621-0.325-0.924l-0.806-2.233c-2.55-7.089-5.094-14.172-7.644-21.254-0.103-0.274-0.207-0.547-0.296-0.813z"></path>
</svg>
