<svg version="1.1" xmlns="http://www.w3.org/2000/svg" viewBox="0 0 32 32">
<title>ukg</title>
<path d="M20.84 14.924c-0.006-0.174-0.063-0.342-0.163-0.484-0.152-0.216-0.46-0.457-1.047-0.457 0 0-0.351 0-0.403-0.436-0.001-0.006-0.001-0.013-0.001-0.020 0-0.056 0.025-0.106 0.064-0.14l0-0 9.214-7.606-16.403 6.319h-12.101l9.143 6.857s1.882-2.017 4.706-1.748c0 0-0.269 2.286 2.555 3.093l1.045 0.929c0.109 0.096 0.203 0.206 0.281 0.326l0.004 0.006 1.090 1.697h4.034l-1.086-3.044c-0.158-0.425-0.295-0.93-0.385-1.452l-0.008-0.053c-0.186-1.086-0.497-3.001-0.538-3.788zM19.899 16.941l-1.479-0.672c0.106-0.334 0.167-0.718 0.167-1.116 0-0.175-0.012-0.348-0.035-0.517l0.002 0.020s1.613 0.672 1.345 2.286z"></path>
<path d="M25.277 30.79l-9.681-6.992-9.681 7.126 3.080-9.611c0.518-1.725 2.11-2.903 3.911-2.893 0 0 0.807 1.748 2.286 2.555 0 0 1.479 0.807 1.882 2.151l1.345 1.345h4.84l2.017 6.319zM21.109 13.311l1.345-1.21h9.546l-9.412 6.588s-0.672-2.823-0.672-4.303 0-0.269-0.807-1.076zM15.597 1.076l-3.092 9.681 5.781-2.286-2.689-7.395z"></path>
</svg>
