<svg version="1.1" xmlns="http://www.w3.org/2000/svg" viewBox="0 0 32 32">
<title>und</title>
<path d="M16 21.777l-6.866-10.366 0.539-1.018h10.483l0.55 1.062-4.707 6.748-3.879-5.824h5.359v0.439h-4.539l3.067 4.606 4.186-6.002-0.305-0.589h-9.952l-0.294 0.554 6.357 9.597 6.358-9.547-1.288-2.585h-12.359l-1.354 2.731 7.704 11.568h1.877l7.704-11.568-2.322-4.712h-14.838l-2.408 4.857 8.927 13.404h3.999l8.926-13.404-3.4-6.839h-17.274l-3.463 6.984 10.15 15.24h6.121l10.149-15.24-4.441-8.966h-19.745l-4.518 9.111 11.372 17.076h8.244l11.372-17.076-4.578-9.234 0.393-0.195 4.691 9.461-11.643 17.483h-8.714l-11.643-17.483 4.752-9.583h20.29l4.675 9.437-10.42 15.647h-6.592l-10.421-15.647 3.697-7.456h17.818l3.634 7.31-9.197 13.811h-4.47l-9.198-13.811 2.642-5.329h15.384l2.555 5.184-7.975 11.975h-2.347l-7.975-11.975 1.588-3.202h12.903l1.523 3.056-6.865 10.309z"></path>
</svg>
