<svg version="1.1" xmlns="http://www.w3.org/2000/svg" viewBox="0 0 32 32">
<title>vior</title>
<path d="M21.051 10.308h-2.644l-2.407 6.42-2.407-6.42h-2.644l5.051 12.274z"></path>
<path d="M3.655 21.047c0-5.875 4.874-12.276 12.387-12.276 4.267-0.008 8.239 2.178 10.514 5.789 0.439-1.202 0.663-2.471 0.662-3.75 0-4.593-2.841-8.54-6.874-10.211-1.414-0.398-2.875-0.598-4.344-0.597-8.836 0-16 7.163-16 16 0 5.279 2.558 9.961 6.5 12.875-1.777-2.125-2.846-4.853-2.846-7.828z"></path>
<path d="M25.996 3.507c1.527 2.041 2.432 4.566 2.432 7.301 0 6.783-5.849 12.276-12.387 12.276-4.267 0.008-8.238-2.178-10.514-5.787-0.439 1.201-0.663 2.47-0.663 3.749 0 5.153 3.576 9.494 8.399 10.719 0.903 0.156 1.819 0.234 2.736 0.234 8.837 0 16-7.164 16-16 0-5.055-2.344-9.561-6.004-12.493z"></path>
</svg>
