<svg version="1.1" xmlns="http://www.w3.org/2000/svg" viewBox="0 0 32 32">
<title>viu</title>
<path d="M24.996 17.876c-2.516 0-4.78-1.538-5.71-3.877l-2.199-5.538c-1.28-3.14 0.231-6.726 3.371-8.006s6.726 0.231 8.006 3.371c0.016 0.032 0.027 0.064 0.038 0.102l2.199 5.533c1.253 3.156-0.296 6.726-3.452 7.979-0.715 0.29-1.484 0.435-2.253 0.435zM14.77 32c-2.516 0-4.78-1.538-5.71-3.877l-7.802-19.662c-1.194-3.178 0.419-6.715 3.597-7.909 3.092-1.156 6.543 0.333 7.823 3.377l7.807 19.657c1.247 3.156-0.296 6.726-3.452 7.979-0.726 0.285-1.489 0.436-2.264 0.436z"></path>
</svg>
