<svg version="1.1" xmlns="http://www.w3.org/2000/svg" viewBox="0 0 32 32">
<title>xbs</title>
<path d="M24.985 7.015c1.050 0.407 2.035 0.887 2.936 1.438 0.43 0.262 0.846 0.545 1.247 0.849-0.083-1.886-0.709-3.471-1.854-4.616-1.13-1.129-2.718-1.764-4.613-1.85 0.303 0.4 0.585 0.815 0.846 1.243 0.551 0.901 1.032 1.886 1.438 2.936zM20.573 1.951c-1.391-1.273-2.954-1.951-4.572-1.951s-3.182 0.678-4.573 1.951c1.489 0.2 3.033 0.656 4.573 1.338 1.541-0.682 3.084-1.139 4.572-1.338zM7.015 7.015c0.407-1.050 0.887-2.035 1.438-2.936 0.261-0.428 0.543-0.843 0.846-1.243-1.895 0.086-3.484 0.721-4.613 1.85-1.145 1.145-1.771 2.73-1.854 4.616 0.401-0.304 0.817-0.587 1.247-0.849 0.902-0.551 1.886-1.031 2.936-1.438zM24.217 24.216c0.268-0.745 0.496-1.505 0.68-2.275-0.455 0.528-0.93 1.040-1.422 1.533s-1.006 0.968-1.535 1.423c0.771-0.185 1.531-0.412 2.277-0.681zM13.938 26.494c0.667 0.407 1.356 0.778 2.062 1.111 0.707-0.334 1.395-0.705 2.062-1.111-0.679 0.050-1.367 0.076-2.062 0.076s-1.383-0.026-2.062-0.076zM11.427 30.049c1.391 1.273 2.954 1.951 4.573 1.951s3.181-0.678 4.573-1.951c-1.488-0.2-3.032-0.656-4.573-1.338-1.541 0.682-3.084 1.139-4.573 1.338zM24.985 24.985c-0.407 1.050-0.887 2.035-1.438 2.936-0.261 0.428-0.543 0.843-0.846 1.242 1.895-0.086 3.483-0.72 4.613-1.85 1.145-1.145 1.771-2.731 1.854-4.617-0.401 0.304-0.817 0.588-1.247 0.849-0.902 0.551-1.886 1.031-2.936 1.438zM2.234 12.907c-0.119-0.489-0.212-0.983-0.281-1.482-1.274 1.392-1.953 2.956-1.953 4.575s0.679 3.183 1.953 4.575c0.069-0.498 0.163-0.993 0.281-1.482 0.248-1.027 0.604-2.063 1.060-3.093-0.455-1.030-0.811-2.066-1.059-3.093zM30.047 11.425c-0.069 0.498-0.163 0.993-0.281 1.482-0.248 1.027-0.605 2.063-1.059 3.093 0.455 1.030 0.811 2.066 1.059 3.093 0.122 0.505 0.215 0.999 0.281 1.482 1.274-1.392 1.953-2.956 1.953-4.575s-0.679-3.183-1.953-4.575zM7.784 24.216c0.746 0.269 1.506 0.496 2.277 0.681-1.059-0.91-2.047-1.898-2.957-2.956 0.185 0.77 0.412 1.53 0.681 2.275zM7.015 24.985c-1.050-0.407-2.035-0.887-2.936-1.438-0.429-0.262-0.846-0.545-1.247-0.849 0.083 1.886 0.709 3.471 1.854 4.617 1.129 1.129 2.718 1.764 4.613 1.85-0.303-0.4-0.585-0.814-0.846-1.242-0.551-0.902-1.031-1.886-1.438-2.936zM4.38 16c0.337 0.717 0.714 1.415 1.128 2.090-0.052-0.695-0.078-1.393-0.078-2.090 0-0.704 0.026-1.402 0.078-2.090-0.414 0.675-0.791 1.373-1.128 2.090zM29.147 10.554c-0.516-0.443-1.097-0.864-1.741-1.257-0.621-0.379-1.284-0.722-1.982-1.031 0.351 1.11 0.626 2.28 0.817 3.491 0.721 0.993 1.355 2.014 1.891 3.047 0.276-0.712 0.502-1.424 0.673-2.131 0.177-0.734 0.291-1.442 0.342-2.12zM25.423 23.733c0.698-0.308 1.362-0.651 1.982-1.031 0.644-0.394 1.225-0.815 1.741-1.257-0.051-0.678-0.165-1.386-0.342-2.12-0.171-0.706-0.396-1.418-0.673-2.13-0.536 1.034-1.17 2.055-1.891 3.047-0.192 1.212-0.466 2.382-0.818 3.492zM27.62 16c-0.337-0.717-0.714-1.415-1.128-2.090 0.052 0.688 0.078 1.386 0.078 2.090s-0.026 1.402-0.078 2.091c0.414-0.675 0.791-1.373 1.128-2.091zM20.245 5.759c1.211 0.192 2.38 0.466 3.489 0.818-0.308-0.699-0.651-1.362-1.030-1.982-0.393-0.643-0.813-1.224-1.255-1.739-1.353 0.101-2.787 0.451-4.235 1.017 1.025 0.534 2.041 1.165 3.032 1.886zM11.756 26.241c-1.211-0.192-2.38-0.466-3.489-0.817 0.308 0.698 0.651 1.362 1.030 1.982 0.393 0.643 0.813 1.223 1.255 1.738 1.353-0.101 2.786-0.451 4.236-1.017-1.025-0.534-2.041-1.165-3.033-1.886zM8.267 6.577c1.109-0.352 2.278-0.625 3.489-0.818 0.991-0.721 2.008-1.352 3.033-1.886-1.449-0.566-2.883-0.916-4.236-1.017-0.442 0.514-0.862 1.095-1.255 1.738-0.379 0.621-0.722 1.284-1.030 1.982zM10.060 7.103c-0.771 0.185-1.531 0.412-2.276 0.68-0.269 0.745-0.496 1.505-0.681 2.275 0.455-0.529 0.929-1.040 1.423-1.533s1.005-0.968 1.534-1.423zM6.577 8.266c-0.699 0.308-1.362 0.652-1.982 1.031-0.644 0.394-1.226 0.814-1.741 1.257 0.051 0.678 0.165 1.386 0.342 2.12 0.171 0.707 0.397 1.419 0.673 2.13 0.536-1.034 1.169-2.055 1.89-3.047 0.192-1.212 0.466-2.381 0.818-3.491zM2.854 21.445c0.515 0.443 1.097 0.864 1.741 1.257 0.62 0.38 1.284 0.723 1.982 1.031-0.352-1.11-0.626-2.28-0.818-3.492-0.721-0.992-1.354-2.013-1.891-3.047-0.276 0.712-0.502 1.424-0.673 2.13-0.177 0.734-0.291 1.443-0.342 2.12zM24.897 10.059c-0.19-0.786-0.416-1.546-0.681-2.275-0.746-0.269-1.506-0.496-2.277-0.681 0.529 0.455 1.041 0.93 1.535 1.423 0.498 0.498 0.973 1.010 1.423 1.533zM16 4.394c-0.707 0.334-1.395 0.705-2.063 1.111 1.373-0.102 2.752-0.102 4.125 0-0.667-0.407-1.356-0.778-2.062-1.111zM23.733 25.424c-1.109 0.351-2.278 0.625-3.489 0.817-0.991 0.721-2.007 1.352-3.032 1.886 1.449 0.566 2.882 0.916 4.235 1.017 0.442-0.515 0.862-1.095 1.255-1.738 0.379-0.62 0.723-1.284 1.031-1.982zM20.944 18.162c0-0.956-0.39-1.823-1.020-2.449 0.488-0.575 0.756-1.305 0.755-2.059 0-1.761-1.432-3.193-3.193-3.193h-5.504c-0.591 0-1.071 0.479-1.071 1.071v9.023c0 0.592 0.48 1.072 1.071 1.072h5.504c0.048 0 0.095-0.005 0.142-0.011 1.841-0.075 3.315-1.595 3.315-3.454zM13.054 12.603h4.432c0.579 0 1.051 0.471 1.051 1.051s-0.472 1.050-1.051 1.050h-4.432zM17.487 19.477c-0.040 0-0.080 0.003-0.119 0.007h-4.313v-2.637h4.432c0.725 0 1.315 0.59 1.315 1.315s-0.59 1.315-1.315 1.315z"></path>
</svg>
