<svg version="1.1" xmlns="http://www.w3.org/2000/svg" viewBox="0 0 32 32">
<title>xcp</title>
<path d="M27.279 6.075h-6.517l-11.31 11.311h-2.92l-2.099-2.099v-2.663l2.106-2.105h2.755l1.477 1.472c0.099 0.105 0.237 0.164 0.381 0.164 0.151-0 0.296-0.066 0.395-0.181l2.364-2.36c0.204-0.204 0.206-0.534 0.005-0.741v-0.001l-2.786-2.786h-6.428l-4.702 4.702v6.335l4.696 4.696h6.593l11.31-11.31h2.844l2.124 2.124v2.708l-2.061 2.061h-3.198l-1.221-1.221h-0.001c-0.203-0.206-0.534-0.211-0.742-0.009h-0.002l-2.767 2.767v6.459c0 0.291 0.236 0.528 0.528 0.528h3.375c0.29-0.001 0.525-0.235 0.527-0.524l0.004-2.657 0.002-0.002c0.001-0.501 0.407-0.906 0.908-0.907h4.425l4.659-4.659v-6.38z"></path>
</svg>
