<svg version="1.1" xmlns="http://www.w3.org/2000/svg" viewBox="0 0 32 32">
<title>xdn</title>
<path d="M3.9 14.567h2.833v2.833h-2.833zM21.233 13.867c-0.222-0.644-0.572-1.216-1.050-1.716s-1.039-0.872-1.683-1.117c-0.378-0.156-0.761-0.267-1.15-0.333s-0.783-0.1-1.183-0.1h-4.067v10.833h4.067c0.378 0 0.75-0.028 1.117-0.083s0.717-0.15 1.050-0.283c0.333-0.133 0.645-0.295 0.933-0.483s0.557-0.406 0.8-0.65c0.222-0.222 0.428-0.478 0.617-0.767s0.35-0.6 0.483-0.933 0.228-0.689 0.283-1.067c0.056-0.378 0.083-0.767 0.083-1.167 0.045-0.378 0.039-0.739-0.017-1.083s-0.15-0.694-0.283-1.050zM18.867 17.233c-0.044 0.178-0.117 0.355-0.216 0.533s-0.206 0.333-0.317 0.467c-0.133 0.133-0.267 0.261-0.4 0.383s-0.3 0.228-0.5 0.317c-0.178 0.089-0.372 0.156-0.583 0.2s-0.428 0.066-0.65 0.066h-1.533v-6.466h1.533c0.222 0 0.434 0.017 0.633 0.050s0.4 0.094 0.6 0.184c0.2 0.066 0.367 0.156 0.5 0.267s0.267 0.233 0.4 0.367c0.133 0.156 0.244 0.317 0.333 0.483s0.156 0.339 0.2 0.517c0.089 0.222 0.15 0.444 0.184 0.667s0.050 0.444 0.050 0.667c-0.022 0.244-0.050 0.472-0.083 0.683s-0.083 0.417-0.15 0.617zM7.8 10.667h2.8v2.833h-2.8zM7.8 14.567h2.8v2.833h-2.8zM7.8 18.467h2.8v2.8h-2.8zM3.9 10.667h2.833v2.833h-2.833zM0 10.667h3.2v2.833h-3.2zM32 21.5h-0.867l-7.4-9.767 0.067 9.767h-0.867v-11h0.867l7.4 9.767v-9.7h0.8z"></path>
</svg>
