<svg version="1.1" xmlns="http://www.w3.org/2000/svg" viewBox="0 0 32 32">
<title>xns</title>
<path d="M15.024 14.918l-2.973-0.010-9.129-9.159c0 0 2.733 0 2.983 0.010 0.591 0.601 5.065 5.085 9.119 9.159zM21.84 21.755l-1.481 1.481-5.825-5.846 2.973 0.010c2.462 2.472 4.334 4.354 4.334 4.354zM26.215 8.712l4.344 4.354-4.404 4.364v-0.020l-5.785-5.805 2.873-2.913 3.003 0.010z"></path>
<path d="M30.559 13.066l-1.461 1.461-5.815-5.835 2.963 0.010-0.030 0.010zM11.621 23.226l-5.835 5.815-2.903-0.010 7.287-7.257zM20.289 29.062c0 0 2.452 0 2.923 0.010l8.788-8.758-2.913 0.030-8.748 8.718zM17.416 17.411l4.344-4.414-1.391-1.391-5.835 5.795 2.883 0.010z"></path>
<path d="M26.175 17.421l2.913 2.933-8.748 8.708-20.339-20.409 2.923-2.903 17.436 17.486 5.795-5.805z"></path>
<path d="M14.544 17.401l7.287-7.247-1.441-1.451-2.923-0.010-6.456 6.406z"></path>
<path d="M21.83 10.154l-1.461 1.451-2.903-2.913v-0.010l2.923 0.020zM31.98 14.538l-2.913 2.903h0.050l-2.963-0.010 2.923-2.903z"></path>
<path d="M20.384 5.832l2.914-2.904 2.904 2.914-2.914 2.904z"></path>
</svg>
