<svg version="1.1" xmlns="http://www.w3.org/2000/svg" viewBox="0 0 32 32">
<title>yec</title>
<path d="M31.657 16.747c-0.594-1.083-1.781-2.305-4.121-2.026l-5.379 0.664v-5.937c0-1.083-0.873-1.956-1.956-1.956h-1.711c-0.524 0-1.013 0.175-1.362 0.489-0.279-0.803-1.048-1.397-1.956-1.397h-1.397c-0.908 0-1.642 0.559-1.956 1.362-0.349-0.279-0.803-0.489-1.292-0.489h-1.502c-1.118 0-2.061 0.908-2.061 2.061v0.873l-2.096-5.414c-0.349-1.292-1.711-2.096-3.039-1.711-0.629 0.175-1.188 0.594-1.502 1.153s-0.419 1.257-0.244 1.886l2.445 8.836c0.105 0.978 1.467 13.726 9.535 13.691h0.035c8.627 0 10.303-4.645 10.617-5.868l7.998-2.619c0.454-0.105 0.838-0.419 1.048-0.908 0.349-0.803 0.314-1.991-0.105-2.689zM18.49 8.33h1.711c0.594 0 1.083 0.489 1.083 1.083v7.16c0 0.733-0.594 1.327-1.327 1.327h-1.397c-0.733 0-1.327-0.594-1.327-1.327v-6.985c0-0.002-0-0.003-0-0.005 0-0.691 0.561-1.252 1.252-1.252 0.002 0 0.004 0 0.006 0h-0zM12.553 8.679c0-0.664 0.559-1.222 1.222-1.222h1.397c0.664 0 1.222 0.559 1.222 1.222v8.277c0 0.001 0 0.003 0 0.004 0 0.519-0.42 0.939-0.939 0.939-0.001 0-0.003 0-0.004 0h-1.781c-0.594 0-1.083-0.489-1.083-1.083v-8.138h-0.035zM7.838 9.517c0-0.629 0.524-1.188 1.188-1.188h1.467c0.629 0 1.187 0.524 1.187 1.188v6.706c0 0.454-0.349 0.803-0.803 0.803h-1.991c-0.559 0-1.048-0.454-1.048-1.048v-6.461zM30.959 19.087c-0.105 0.244-0.279 0.384-0.454 0.419l-8.557 2.794-0.035 0.279c0 0.070-0.733 5.379-9.779 5.413h-0.035c-7.404 0-8.662-12.818-8.662-12.957l-2.48-8.941c-0.105-0.419-0.070-0.838 0.175-1.222 0.21-0.384 0.559-0.629 0.978-0.733 0.873-0.244 1.746 0.279 1.956 1.118l2.724 7.020c0.035 0.105 0.105 0.175 0.21 0.21v3.493c0 1.048 0.838 1.921 1.921 1.921h1.991c0.349 0 0.698-0.105 0.943-0.314 0.314 0.698 0.978 1.188 1.781 1.188h1.781c0.629 0 1.153-0.314 1.467-0.768 0.419 0.454 1.013 0.768 1.676 0.768h1.397c1.222 0 2.2-0.978 2.2-2.2v-0.349l5.483-0.664c1.502-0.175 2.584 0.384 3.283 1.607 0.244 0.489 0.279 1.362 0.035 1.921z"></path>
</svg>
