<svg version="1.1" xmlns="http://www.w3.org/2000/svg" viewBox="0 0 32 32">
<title>ath</title>
<path d="M15.16 2.279c-1.242 0-2.46 0.106-3.644 0.309l0.127-0.018c8.311 5.187 13.935 14.275 14.313 24.701 0.13-1.143 0.2-2.305 0.2-3.483 0-8.344-3.361-15.901-8.801-21.397-0.658-0.071-1.422-0.112-2.195-0.112-0 0-0 0-0.001 0h0zM25.572 4.998c1.85 3.928 2.887 8.316 2.887 12.946 0 4.055-0.796 7.924-2.236 11.461 0.535-2.258 0.819-4.613 0.819-7.034 0-7.448-2.679-14.27-7.123-19.557 2.008 0.459 3.906 1.202 5.653 2.185zM2.877 6.182c-1.070 0.763-2.010 1.568-2.874 2.447l-0.003 0.003c8.95 1.041 16.714 5.965 21.562 13.046-2.98-8.009-10.058-14.021-18.685-15.495zM31.708 10.186c-1.082-1.332-2.281-2.499-3.602-3.515l-0.050-0.037c1.402 3.497 2.174 7.313 2.174 11.31 0 4.176-0.842 8.155-2.365 11.777 2.628-4.499 4.136-9.733 4.136-15.319 0-1.431-0.101-2.838-0.292-4.216zM5.021 4.846c1.438-0.799 3.104-1.464 4.857-1.91l0.146-0.032c7.674 4.168 13.133 11.898 14.155 20.972-3.056-8.957-10.175-16.032-19.158-19.030z"></path>
</svg>
