<svg version="1.1" xmlns="http://www.w3.org/2000/svg" viewBox="0 0 32 32">
<title>atom</title>
<path d="M19.9 9.438l-10.337 10.322c-0.113-0.212-0.235-0.478-0.342-0.751l-0.019-0.056c-0.361-0.938-0.541-1.933-0.541-2.984s0.181-2.046 0.542-2.984c0.361-0.938 0.862-1.752 1.502-2.443s1.409-1.237 2.307-1.639c0.898-0.402 1.884-0.603 2.957-0.603s2.065 0.206 2.973 0.619c0.374 0.17 0.689 0.343 0.989 0.537l-0.030-0.018zM18.988 23.097c-0.898 0.402-1.884 0.603-2.957 0.603s-2.065-0.206-2.973-0.618c-0.337-0.154-0.657-0.326-0.958-0.519l10.336-10.321c0.114 0.213 0.235 0.478 0.342 0.751l0.019 0.055c0.361 0.938 0.541 1.933 0.541 2.984s-0.18 2.046-0.541 2.984c-0.361 0.938-0.862 1.752-1.502 2.442s-1.409 1.237-2.307 1.639zM20.552 26.298c1.383-0.598 2.581-1.407 3.592-2.428s1.796-2.211 2.353-3.571c0.558-1.36 0.837-2.804 0.837-4.329s-0.279-2.969-0.837-4.33c-0.33-0.807-0.737-1.552-1.22-2.236l6.723-6.713-2.671-2.667-6.743 6.734c-0.605-0.412-1.263-0.768-1.971-1.069-1.383-0.587-2.911-0.881-4.583-0.881s-3.2 0.299-4.583 0.897c-1.383 0.598-2.581 1.407-3.592 2.427s-1.796 2.211-2.354 3.572c-0.557 1.361-0.836 2.804-0.836 4.329s0.279 2.968 0.836 4.329c0.331 0.807 0.738 1.552 1.221 2.237l-6.723 6.713 2.671 2.668 6.743-6.733c0.605 0.412 1.263 0.768 1.971 1.069 1.383 0.587 2.911 0.881 4.583 0.881s3.2-0.299 4.583-0.897z"></path>
</svg>
