<svg version="1.1" xmlns="http://www.w3.org/2000/svg" viewBox="0 0 32 32">
<title>aya</title>
<path d="M9.946 4.783h0.083c-0.065 0.217-0.949 0.77-1.162 0.938-0.851 0.669-1.668 1.422-2.311 2.308-1.428 1.969-2.545 4.463-2.546 7.891-0 0.837 0.038 1.594 0.194 2.294 0.244 1.093 0.606 2.035 0.996 2.957 0.303 0.717 0.644 1.364 1.051 1.962l0.318 0.461 1.37-2.856c0.832-1.698 1.561-3.475 2.477-5.107 0.349-0.621 0.623-1.282 0.969-1.89 0.112-0.197 0.237-0.62 0.457-0.692v0.058c-0.304 1.093-0.771 2.106-1.176 3.13l-1.771 4.674c-0.497 1.26-0.951 2.524-1.453 3.751-0.237 0.579-0.436 1.208-0.761 1.702h-0.055c-0.596-0.529-1.026-1.257-1.467-1.947-0.932-1.461-1.518-2.85-1.951-4.876l-0.208-1.645-0.028-0.822c-0.103-0.673 0.012-1.866 0.125-2.452 0.165-0.855 0.344-1.643 0.623-2.38 0.95-2.511 2.426-4.708 4.344-6.217 0.593-0.467 1.24-0.811 1.882-1.241zM22.329 4.927c1.103 0.55 1.953 1.343 2.767 2.193 1.935 2.018 3.087 3.885 3.777 7.227 0.098 0.472 0.097 1.011 0.18 1.529l0.014 0.62v1.197c-0.1 0.637-0.076 1.271-0.207 1.861-0.248 1.111-0.552 2.082-0.941 3-0.467 1.103-1.095 2.056-1.757 2.957-0.182 0.248-0.434 0.717-0.761 0.793-0.593-0.901-0.963-2.067-1.384-3.13-0.744-1.88-1.426-3.813-2.172-5.713l-1.093-2.871c-0.2-0.524-0.518-1.12-0.581-1.731h0.042l1.439 2.798 3.791 7.891 0.069-0.058 0.373-0.476 0.387-0.635c0.6-1.062 1.065-2.311 1.439-3.578 0.168-0.57 0.197-1.208 0.304-1.846 0.174-1.029 0.020-2.497-0.166-3.361-0.613-2.856-1.557-4.42-3.030-6.333-0.471-0.612-1.107-1.191-1.702-1.673-0.263-0.221-0.526-0.442-0.789-0.664zM11.103 27.217l1.096 0.013c0.058 0.195-0.204 0.791-0.271 0.993-0.237 0.784-0.475 1.568-0.712 2.352-0.057 0.174-0.239 1.014-0.342 1.072h-1.324c-0.005-0.026-0.010-0.052-0.014-0.078 0.365-1.037 0.731-2.073 1.096-3.11 0.11-0.321 0.251-1.034 0.47-1.242zM19.573 27.217l1.096 0.013c0.058 0.195-0.204 0.791-0.27 0.993-0.237 0.784-0.474 1.568-0.712 2.352-0.057 0.174-0.239 1.014-0.342 1.072h-1.324c-0.005-0.026-0.010-0.052-0.014-0.078 0.365-1.037 0.731-2.073 1.096-3.11 0.11-0.321 0.251-1.034 0.47-1.242zM12.498 27.282c0.187 0.163 0.325 0.87 0.427 1.137l1.125 3.215-0.043 0.013h-1.295c-0.075-0.043-0.264-0.744-0.299-0.876-0.292 0.003-0.698 0.043-0.94-0.026 0.001-0.13 0.191-0.776 0.256-0.81l0.427-0.013v-0.039c-0.062-0.146-0.248-0.668-0.213-0.836 0.185-0.588 0.37-1.176 0.555-1.764zM13.822 27.282l1.253 0.013c0.18 0.084 0.515 0.834 0.641 1.032 0.042 0.066 0.133 0.187 0.1 0.301-0.095 0.17-0.19 0.34-0.285 0.51l-0.299 0.562c-0.071 0.021-0.31-0.456-0.356-0.536l-0.811-1.385c-0.071-0.126-0.292-0.366-0.242-0.497zM16.811 27.282c0.331-0.003 1.138-0.075 1.381 0.026-0.484 0.875-0.968 1.751-1.452 2.627v0.327c0 0.351 0.087 1.135-0.043 1.385-0.37 0.046-0.995 0.064-1.338-0.013-0.005-0.239-0.009-0.479-0.014-0.719v-0.863c0.266-0.514 0.531-1.028 0.797-1.542 0.161-0.335 0.402-1.005 0.669-1.229zM20.968 27.282c0.187 0.163 0.325 0.87 0.427 1.137l1.125 3.215-0.043 0.013h-1.295c-0.075-0.043-0.264-0.744-0.299-0.876-0.292 0.003-0.698 0.043-0.939-0.026 0.001-0.13 0.191-0.776 0.256-0.81l0.427-0.013v-0.039c-0.062-0.146-0.248-0.668-0.213-0.836 0.185-0.588 0.37-1.176 0.555-1.764z"></path>
<path d="M15.391 0.316c1.346-0.019 2.582 0.039 3.678 0.306 6.2 1.508 10.454 5.58 12.275 11.597 0.229 0.755 0.34 1.563 0.493 2.401 0.289 1.574 0.164 3.728-0.155 5.137-0.125 0.553-0.187 1.073-0.352 1.586-0.784 2.426-1.73 4.226-3.086 6.024-0.447 0.593-0.942 1.189-1.508 1.659-0.36 0.299-0.684 0.655-1.057 0.946-0.506 0.395-1.041 0.722-1.593 1.077-0.275 0.177-0.612 0.504-0.944 0.582l-0.705-1.615-1.311-3.492h-10.288l-1.409 3.74c-0.113 0.296-0.355 1.212-0.564 1.353-0.421-0.144-0.748-0.407-1.085-0.64-0.698-0.481-1.345-1-2.001-1.513-2.754-2.152-4.51-5.344-5.44-9.385-0.454-1.975-0.463-4.86 0.042-6.795 0.53-2.027 1.189-3.761 2.142-5.326 1.913-3.141 4.827-5.627 8.583-6.854 0.886-0.289 1.821-0.455 2.819-0.655l1.466-0.131zM15.785 2.455l-0.86 0.044c-0.594 0.103-1.179 0.113-1.733 0.247-1.927 0.469-3.589 1.109-4.975 2.124-2.556 1.872-4.524 4.355-5.567 7.799-0.219 0.722-0.317 1.498-0.465 2.299-0.201 1.090-0.171 2.787 0.028 3.841 0.119 0.63 0.159 1.206 0.324 1.775 0.562 1.94 1.316 3.5 2.354 4.918 0.48 0.655 1.153 1.55 1.832 1.979h0.042c0.888-2.289 1.776-4.579 2.664-6.868 1.357-3.56 2.715-7.12 4.073-10.681l1.748-4.467 0.719-1.717h0.056c0.405 0.636 0.626 1.474 0.916 2.226 0.456 1.198 0.911 2.396 1.367 3.594 1.508 3.914 3.016 7.828 4.524 11.743l1.677 4.351 0.493 1.266c0.070 0.176 0.106 0.423 0.225 0.553 0.174-0.062 0.265-0.213 0.395-0.32 0.622-0.517 1.146-1.208 1.621-1.877 0.994-1.4 1.727-2.973 2.241-4.889 0.134-0.497 0.168-0.986 0.268-1.528 0.177-0.962 0.252-2.566 0.070-3.609-0.14-0.806-0.212-1.587-0.423-2.314-0.425-1.47-0.952-2.848-1.719-3.972-0.332-0.486-0.717-0.925-1.071-1.382-0.368-0.475-0.796-0.958-1.254-1.339-0.577-0.479-1.102-1.021-1.719-1.47-1.88-1.368-4.648-2.331-7.85-2.328zM15.983 13.354c-0.972 2.178-1.768 4.478-2.664 6.737l-0.634 1.702c-0.063 0.161-0.261 0.487-0.197 0.684 0.121 0.222 1.19 0.204 1.578 0.204h3.143l1.142-0.015c0.401-0.063 0.985 0.075 1.156-0.218-0.020-0.215-0.131-0.38-0.197-0.553l-0.55-1.455c-0.592-1.557-1.184-3.114-1.776-4.671-0.233-0.586-0.456-1.166-0.691-1.732-0.091-0.219-0.156-0.524-0.31-0.684z"></path>
</svg>
