<svg version="1.1" xmlns="http://www.w3.org/2000/svg" viewBox="0 0 32 32">
<title>banx</title>
<path d="M26.208 20.023l1.671-2.724 1.534 2.724h2.587l-2.885-4.293 2.645-3.88h-2.427l-1.453 2.541-1.374-2.541h-2.507l2.667 3.88-2.907 4.293zM12.446 11.85h-2.164l-3.056 8.173h2.186l0.515-1.465h2.85l0.504 1.465h2.221zM10.42 16.978l0.927-2.861h0.023l0.904 2.861zM5.701 15.547c0.641-0.32 1.076-0.915 1.076-1.648 0-1.706-1.545-2.072-2.953-2.049h-3.823v8.173h3.926c1.752 0 3.182-0.596 3.182-2.541 0-0.927-0.538-1.682-1.408-1.935zM2.129 13.498h1.648c0.447 0 0.87 0.194 0.87 0.79 0 0.583-0.504 0.779-0.87 0.779h-1.648zM3.835 18.318h-1.705v-1.877h1.705c0.642 0 1.145 0.24 1.145 0.961 0 0.675-0.47 0.916-1.145 0.916zM21.122 16.887l-2.839-5.037h-2.186v8.173h2.004v-5.094h0.023l2.839 5.094h2.186v-8.173h-2.003v5.037zM3.997 21.117c-0.068 0-0.122 0.055-0.122 0.122v2.941c0 0.068 0.055 0.122 0.122 0.122h1.776c0.068 0 0.122-0.055 0.122-0.122v-2.941c0-0.068-0.055-0.122-0.122-0.122zM5.774 10.883c0.067 0 0.122-0.055 0.122-0.122v-2.941c0-0.068-0.055-0.122-0.122-0.122h-1.777c-0.033 0-0.064 0.013-0.086 0.036s-0.036 0.054-0.036 0.087v2.941c0 0.067 0.055 0.122 0.122 0.122zM1.899 10.883c0.067 0 0.122-0.055 0.122-0.122v-2.941c0-0.033-0.013-0.064-0.036-0.087s-0.054-0.036-0.086-0.036h-1.777c-0.033-0-0.064 0.013-0.087 0.036s-0.036 0.054-0.036 0.087v2.941c0 0.067 0.054 0.122 0.122 0.122zM0.122 21.117c-0.033 0-0.064 0.013-0.086 0.036s-0.036 0.054-0.036 0.086v2.941c0 0.068 0.054 0.122 0.122 0.122h1.776c0.068 0 0.122-0.055 0.122-0.122v-2.941c0-0.033-0.013-0.064-0.036-0.086s-0.054-0.036-0.086-0.036z"></path>
</svg>
