<svg version="1.1" xmlns="http://www.w3.org/2000/svg" viewBox="0 0 32 32">
<title>brk</title>
<path d="M31.526 12.124l-1.66 0.958c0 0-1.144-1.214-2.477-3.523s-1.813-3.907-1.813-3.907l1.713-0.989c-1.883-1.875-4.229-3.284-6.853-4.039v2.061c0 0-1.624 0.384-4.29 0.384s-4.29-0.384-4.29-0.384v-2.142c-2.692 0.72-5.103 2.123-7.038 4.014l1.898 1.096c0 0-0.48 1.598-1.813 3.907s-2.477 3.523-2.477 3.523l-1.917-1.107c-0.34 1.314-0.511 2.667-0.511 4.024 0 1.421 0.186 2.799 0.534 4.111l1.894-1.093c0 0 1.144 1.215 2.477 3.523s1.813 3.907 1.813 3.907l-1.834 1.059c1.924 1.859 4.312 3.239 6.974 3.951v-2.042c0 0 1.624-0.384 4.29-0.384s4.29 0.384 4.29 0.384v1.961c2.594-0.747 4.917-2.133 6.789-3.976l-1.649-0.952c0 0 0.48-1.598 1.813-3.907s2.477-3.523 2.477-3.523l1.638 0.946c0.33-1.295 0.496-2.627 0.495-3.963 0.001-1.306-0.159-2.608-0.474-3.875zM16 28.405c-6.851 0-12.405-5.554-12.405-12.405s5.554-12.405 12.405-12.405 12.405 5.554 12.405 12.405c0 6.851-5.554 12.405-12.405 12.405z"></path>
<path d="M11.854 15.905c0.307-0.037 1.050-0.571 1.080-1.559 0.025-1.252-0.519-2.234-2.119-2.234h-2.448v8.164h2.418c0.884 0 2.234-0.479 2.443-1.989s-0.589-2.161-1.375-2.382zM9.812 13.544h0.77c0.597 0 0.921 0.245 0.921 0.945s-0.561 0.901-0.929 0.901h-0.761zM10.717 18.823h-0.905v-2.12h0.915c0.71 0 1.094 0.282 1.094 1.086s-0.666 1.034-1.104 1.034zM18.639 14.657c0-1.907-1.146-2.545-2.275-2.545h-2.546v8.164h1.473v-2.959c0.177 0 0.733-0.001 0.768-0.001l1.264 2.96h1.627l-1.47-3.292c0.716-0.387 1.159-1.129 1.159-2.327zM15.954 15.868h-0.663v-2.324h0.745c0.532 0 1.17 0.196 1.17 1.17s-0.753 1.154-1.252 1.154zM24.549 12.112h-1.628l-1.956 3.292v-3.292h-1.451v8.164h1.45v-2.16l0.717-1.202 1.622 3.361h1.601l-2.305-4.898z"></path>
</svg>
