<svg version="1.1" xmlns="http://www.w3.org/2000/svg" viewBox="0 0 32 32">
<title>btm</title>
<path d="M10.518 9.071l3.116 3.117-8.682 8.737 1.28 4.842 3.283 0.89 4.118 4.118-1.224 1.224-9.795-2.615-2.615-9.795 10.518-10.518zM29.385 29.385l-9.795 2.615-10.518-10.518 3.117-3.116 8.737 8.682 4.842-1.28 0.89-3.283 4.118-4.118 1.224 1.224zM25.767 6.233l-3.283-0.891-4.118-4.118 1.224-1.224 9.795 2.615 2.615 9.795-10.518 10.518-3.116-3.117 8.682-8.737zM5.343 9.517l-4.118 4.118-1.224-1.224 2.615-9.795 9.795-2.615 10.518 10.518-3.117 3.117-8.737-8.682-4.842 1.28z"></path>
</svg>
