<svg version="1.1" xmlns="http://www.w3.org/2000/svg" viewBox="0 0 32 32">
<title>bts</title>
<path d="M13.003 20.061l-6.894-6.895v8.286h6.354c0.065-0.491 0.262-0.966 0.54-1.392zM12.463 22.813h-6.354c0.147 2.244 1.048 4.258 2.407 5.847l4.487-4.537c-0.278-0.376-0.475-0.835-0.54-1.31zM22.485 14.641c-1.589-1.392-3.603-2.293-5.847-2.408v6.354c0.508 0.082 0.966 0.279 1.36 0.541zM19.046 24.057l4.487 4.487c1.359-1.589 2.211-3.57 2.358-5.765h-6.387c-0.082 0.459-0.229 0.884-0.458 1.278zM19.505 21.453h6.354c-0.147-2.243-1.048-4.258-2.407-5.846l-4.488 4.504c0.279 0.377 0.459 0.852 0.541 1.343zM9.482 29.593c1.588 1.392 3.603 2.293 5.846 2.407v-6.354c-0.508-0.082-0.967-0.278-1.359-0.54zM16.638 25.646v6.354c2.244-0.148 4.258-1.048 5.847-2.44l-4.454-4.454c-0.426 0.262-0.884 0.459-1.392 0.54zM6.109 11.12c1.703 1.703 7.042 7.091 7.942 7.976 0.393-0.23 0.819-0.426 1.245-0.508v-10.383l-9.171-8.205c-0.016 0-0.016 10.809-0.016 11.12z"></path>
</svg>
