<svg version="1.1" xmlns="http://www.w3.org/2000/svg" viewBox="0 0 32 32">
<title>busd</title>
<path d="M26.008 9.976c-0.168 0.181-0.319 0.355-0.47 0.511-4.553 4.555-9.106 9.109-13.661 13.663-0.533 0.533-1.082 1.058-1.594 1.606-0.278 0.302-0.453 0.263-0.725-0.014-1.089-1.116-2.192-2.219-3.308-3.308-0.302-0.293-0.316-0.482-0.009-0.789 5.131-5.115 10.254-10.237 15.369-15.367 0.26-0.26 0.437-0.329 0.728-0.030 1.124 1.153 2.267 2.282 3.408 3.423 0.095 0.085 0.16 0.184 0.263 0.305zM32 15.951c-0.053 0.275-0.266 0.402-0.417 0.553-3.112 3.123-6.226 6.239-9.342 9.348-1.94 1.94-3.891 3.87-5.812 5.83-0.372 0.379-0.579 0.381-0.944 0-1.023-1.076-2.081-2.116-3.146-3.154-0.323-0.314-0.417-0.506-0.039-0.883 5.105-5.078 10.197-10.165 15.275-15.263 0.348-0.349 0.544-0.36 0.889 0 1.046 1.090 2.129 2.143 3.196 3.211 0.121 0.107 0.227 0.239 0.342 0.357zM9.897 14.024c-0.118-0.103-0.231-0.189-0.332-0.289-1.123-1.12-2.238-2.247-3.37-3.358-0.248-0.243-0.277-0.41-0.014-0.669 3.176-3.163 6.345-6.333 9.507-9.508 0.24-0.242 0.391-0.209 0.614 0.015 1.131 1.147 2.271 2.287 3.418 3.418 0.225 0.222 0.249 0.378 0.011 0.615-3.176 3.162-6.349 6.33-9.521 9.502-0.086 0.088-0.181 0.162-0.313 0.274zM3.831 12.096c0.224 0 0.302 0.144 0.405 0.245 1.124 1.118 2.238 2.246 3.37 3.356 0.251 0.246 0.274 0.411 0.009 0.671-1.133 1.108-2.254 2.23-3.362 3.364-0.29 0.302-0.464 0.246-0.728-0.023-1.092-1.116-2.196-2.219-3.311-3.309-0.284-0.277-0.286-0.453 0-0.725 1.115-1.090 2.203-2.202 3.314-3.303 0.098-0.098 0.219-0.198 0.304-0.275z"></path>
</svg>
