<svg version="1.1" xmlns="http://www.w3.org/2000/svg" viewBox="0 0 32 32">
<title>cvc</title>
<path d="M15.964 28c-1.647 0-3.205-0.311-4.674-0.933-1.447-0.644-2.715-1.511-3.806-2.6s-1.947-2.356-2.571-3.8c-0.646-1.467-0.968-3.022-0.968-4.667s0.323-3.2 0.968-4.667c0.623-1.444 1.48-2.711 2.571-3.8s2.359-1.956 3.806-2.6c1.469-0.622 3.027-0.933 4.674-0.933 1.358 0 2.649 0.211 3.873 0.633s2.337 1.011 3.338 1.767c1.002 0.756 1.87 1.655 2.604 2.7 0.735 1.023 1.291 2.145 1.669 3.367h4.14c-0.401-1.778-1.091-3.433-2.070-4.967-0.957-1.511-2.126-2.822-3.506-3.933s-2.915-1.989-4.607-2.633c-1.714-0.622-3.528-0.933-5.442-0.933-2.203 0-4.273 0.422-6.21 1.267-1.959 0.822-3.656 1.956-5.091 3.4s-2.576 3.144-3.422 5.1c-0.823 1.933-1.235 4.011-1.235 6.233s0.423 4.3 1.269 6.233c0.823 1.933 1.959 3.628 3.405 5.083s3.138 2.595 5.074 3.417c1.936 0.844 4.006 1.267 6.21 1.267 1.914 0 3.728-0.311 5.442-0.933 1.714-0.644 3.255-1.522 4.624-2.633s2.543-2.422 3.522-3.933c0.957-1.533 1.636-3.189 2.037-4.967h-4.14c-0.378 1.222-0.935 2.344-1.669 3.367-0.734 1.044-1.602 1.944-2.604 2.7s-2.114 1.345-3.338 1.767c-1.224 0.422-2.515 0.634-3.873 0.634zM17.566 21.866v-4.633c0.623-0.289 1.13-0.733 1.519-1.333s0.584-1.278 0.584-2.034c0-1.044-0.362-1.928-1.085-2.65s-1.608-1.083-2.654-1.083-1.931 0.361-2.654 1.083c-0.723 0.722-1.085 1.605-1.085 2.65 0 0.756 0.195 1.433 0.585 2.034s0.884 1.044 1.486 1.333v4.633z"></path>
</svg>
