<svg version="1.1" xmlns="http://www.w3.org/2000/svg" viewBox="0 0 32 32">
<title>dgx</title>
<path d="M9.206 11.769h4.416v1.438h-4.416z"></path>
<path d="M16 0c-8.836 0-16 7.164-16 16s7.164 16 16 16c8.837 0 16-7.163 16-16s-7.163-16-16-16zM16.497 7.148h7.702v1.54h-6.059v4.518h4.416v-1.438h-3.081v-1.54h4.724v4.518h-7.702zM7.739 7.231h4.824v1.852h-4.824zM7.563 10.229h6.059v-3.081h1.746v7.599h-7.805zM24.413 25.511h-3.493l-4.908-3.371-4.909 3.371h-3.493l6.655-4.57-6.655-4.57h3.493l4.908 3.37 4.909-3.37h3.493l-6.655 4.57z"></path>
</svg>
