<svg version="1.1" xmlns="http://www.w3.org/2000/svg" viewBox="0 0 32 32">
<title>dmd</title>
<path d="M6.157 12.057l-5.913 1.142c-0.163 0.925-0.245 1.862-0.245 2.801 0 1 0.093 1.979 0.268 2.928l5.889 1.029zM16 14.68l3.698-7.333h-7.396zM7.346 12.302v7.396l7.334-3.698zM24.246 11.175l-3.422-3.422-3.481 6.903zM10.278 6.969l-5.516-2.205 2.197 5.523zM27.236 4.762l-5.523 2.198 3.318 3.318zM24.653 19.698v-7.396l-7.333 3.698zM27.238 27.236l-2.198-5.523-3.318 3.318zM21.108 5.921l5.27-2.097c-1.803-1.538-3.951-2.683-6.313-3.302zM32 16c0-1-0.093-1.979-0.268-2.928l-5.889-1.029v7.9l5.913-1.142c0.163-0.925 0.245-1.862 0.245-2.801zM26.072 10.877l5.374 0.938c-0.626-2.316-1.758-4.423-3.271-6.197zM10.287 25.040l-3.318-3.318-2.205 5.516zM26.080 21.109l2.097 5.27c1.538-1.803 2.683-3.951 3.302-6.313zM26.381 28.175l-5.258-2.102-0.939 5.374c2.316-0.626 4.423-1.758 6.196-3.271zM24.246 20.825l-6.903-3.481 3.481 6.903zM12.043 6.157h7.9l-1.142-5.913c-0.925-0.163-1.862-0.245-2.801-0.245-1 0-1.979 0.093-2.928 0.268zM19.956 25.843h-7.9l1.142 5.912c0.925 0.163 1.862 0.245 2.801 0.245 1 0 1.978-0.093 2.928-0.268zM16 17.321l-3.698 7.333h7.396zM5.619 3.826l5.258 2.102 0.939-5.374c-2.316 0.626-4.423 1.758-6.196 3.272zM7.754 11.176l6.903 3.481-3.481-6.903zM5.92 10.892l-2.097-5.27c-1.538 1.803-2.683 3.952-3.302 6.313zM7.754 20.825l3.422 3.422 3.481-6.904zM10.891 26.080l-5.27 2.097c1.803 1.538 3.951 2.683 6.313 3.302zM5.928 21.123l-5.374-0.938c0.626 2.316 1.758 4.423 3.272 6.196z"></path>
</svg>
