<svg version="1.1" xmlns="http://www.w3.org/2000/svg" viewBox="0 0 32 32">
<title>ebst</title>
<path d="M8.622 16.835c-0.020-0.276-0.030-0.554-0.030-0.835 0-0.247 0.008-0.493 0.023-0.736h-4.072l-4.543-3.633h9.446c1.738-4.261 5.941-7.267 10.85-7.267 6.464 0 11.704 5.21 11.704 11.636s-5.24 11.636-11.704 11.636c-4.872 0-9.048-2.959-10.81-7.168h-9.486l4.543-3.633zM26.963 16.216c0-1.206-0.163-2.259-0.491-3.159s-0.78-1.652-1.36-2.255-1.267-1.058-2.061-1.364c-0.795-0.306-1.659-0.459-2.594-0.459-1.010 0-1.949 0.172-2.818 0.515s-1.622 0.826-2.257 1.447c-0.636 0.622-1.136 1.373-1.5 2.255s-0.547 1.86-0.547 2.937c0 1.095 0.182 2.074 0.547 2.937s0.869 1.591 1.514 2.185c0.645 0.594 1.407 1.053 2.286 1.378s1.841 0.487 2.889 0.487c2.524 0 4.45-0.891 5.777-2.672l-2.244-1.782c-0.374 0.538-0.851 0.96-1.43 1.266s-1.29 0.459-2.131 0.459c-0.486 0-0.954-0.084-1.402-0.25s-0.851-0.394-1.206-0.682c-0.355-0.288-0.64-0.631-0.855-1.030s-0.341-0.84-0.379-1.322h10.236c0.019-0.148 0.028-0.297 0.028-0.445zM23.598 14.713h-6.899c0.075-0.946 0.463-1.721 1.164-2.324s1.556-0.905 2.566-0.905c0.542 0 1.014 0.088 1.416 0.264s0.734 0.413 0.996 0.71c0.262 0.297 0.453 0.64 0.575 1.030s0.182 0.798 0.182 1.225z"></path>
</svg>
