<svg version="1.1" xmlns="http://www.w3.org/2000/svg" viewBox="0 0 32 32">
<title>enj</title>
<path d="M16 0c8.837 0 16 7.163 16 16s-7.163 16-16 16-16-7.163-16-16 7.163-16 16-16zM22.513 7.809l-10.085 0.002c-0.226 0.025-0.451 0.045-0.677 0.065-0.698 0.063-1.418 0.129-2.131 0.287-2.723 0.605-4.023 2.045-4.346 4.811-0.032 0.278-0.061 0.558-0.090 0.84l-0.041 0.397-0.002 4.24 0.002 0.050c0.020 0.165 0.038 0.327 0.056 0.492 0.041 0.368 0.084 0.752 0.147 1.129 0.413 2.447 1.691 3.764 4.141 4.271 0.993 0.21 2.014 0.327 3.032 0.352 1.603 0.029 3.217 0.043 4.831 0.043s3.228-0.014 4.84-0.038c0.727-0.014 1.58-0.063 2.416-0.332 0.144-0.050 0.269-0.11 0.385-0.183l-0.008 0.005c0.42-0.26 0.713-0.668 0.826-1.149s0.032-0.978-0.233-1.402c-0.401-0.63-1.072-0.645-1.415-0.646h-2.29c-2.626 0.002-5.342 0.005-8.010-0.014-0.847-0.005-1.842-0.047-2.811-0.318-0.725-0.203-1.147-0.632-1.325-1.341-0.091-0.402-0.152-0.872-0.171-1.353l-0-0.015-0.002-0.027c-0.002-0.020-0.002-0.043-0.005-0.063h14.435c0.233 0.005 0.467-0.011 0.709-0.050 0.691-0.133 1.093-0.562 1.131-1.203 0.005-0.075 0.011-0.147 0.018-0.221 0.047-0.546 0.113-1.294-0.659-1.788-0.24-0.145-0.529-0.23-0.839-0.23-0 0-0.001 0-0.001 0h-14.46c-0.121-0-0.239-0.001-0.323-0.007 0.002-0.097 0.014-0.237 0.025-0.377 0.124-1.576 0.639-2.133 2.201-2.391 0.45-0.081 0.97-0.13 1.501-0.135l0.005-0c3.513-0.007 7.026-0.016 10.53-0.027 0.28 0.007 0.564-0.014 0.829-0.056 0.591-0.077 1.054-0.544 1.122-1.117 0.221-1.309-0.275-2.036-1.565-2.287-0.391-0.077-0.783-0.117-1.163-0.156-0.169-0.016-0.339-0.034-0.506-0.054l-0.025-0.002z"></path>
</svg>
