<svg version="1.1" xmlns="http://www.w3.org/2000/svg" viewBox="0 0 32 32">
<title>eos</title>
<path d="M27.796 24.925l-3.882-14.908c-0.026-0.099-0.071-0.191-0.133-0.273l-7.16-9.436c-0.147-0.194-0.376-0.307-0.619-0.308s-0.473 0.112-0.621 0.304l-7.247 9.436c-0.064 0.083-0.11 0.179-0.136 0.281l-3.796 14.907c-0.087 0.341 0.068 0.698 0.377 0.868l11.043 6.106c0.235 0.13 0.521 0.13 0.756 0l11.043-6.106c0.31-0.171 0.465-0.53 0.376-0.872zM25.033 20.49l-2.959-4.675 0.987-2.898zM16.779 3.088l5.512 7.264-1.286 3.775-4.226-6.676zM16 9.128l4.36 6.888-2.838 8.328-3.072-0-2.85-8.265zM15.221 3.066v4.385l-4.271 6.746-1.325-3.844zM8.866 12.925l1.019 2.956-2.964 4.683zM10.534 17.763l2.27 6.581h-6.436zM7.964 25.894h5.375l1.266 3.672zM15.996 28.825l-1.011-2.93h2.009zM17.386 29.572l1.253-3.677h5.398zM19.167 24.344l2.262-6.639 4.202 6.639z"></path>
</svg>
