<svg version="1.1" xmlns="http://www.w3.org/2000/svg" viewBox="0 0 32 32">
<title>erd</title>
<path d="M10.976 6.754c1.644-1.072 3.464-1.612 5.462-1.616 1.972-0.004 3.794 0.54 5.467 1.628l3.504-3.504c-2.725-2.092-5.714-3.138-8.968-3.135-3.272 0.003-6.259 1.047-8.963 3.129l3.498 3.498zM6.591 21.785c-1.111-1.687-1.668-3.511-1.664-5.472 0.004-1.987 0.557-3.809 1.652-5.468l-3.494-3.494c-2.053 2.675-3.081 5.663-3.084 8.964-0.003 3.271 1.030 6.259 3.095 8.966l3.496-3.496zM21.934 25.263c-1.663 1.12-3.483 1.689-5.46 1.703-2.008 0.013-3.85-0.552-5.526-1.691l-3.479 3.48c2.706 2.104 5.714 3.144 9.025 3.118 3.279-0.026 6.253-1.067 8.924-3.125l-3.484-3.485zM25.38 10.844c1.121 1.694 1.673 3.55 1.649 5.569-0.023 1.947-0.577 3.74-1.656 5.379l3.497 3.497c2.059-2.681 3.103-5.654 3.129-8.92 0.026-3.311-1.015-6.32-3.118-9.025l-3.501 3.5zM2.806 3.418c-0.093-0.095-0.151-0.224-0.151-0.368s0.058-0.273 0.151-0.368l-0 0c0.095-0.094 0.226-0.152 0.37-0.152s0.275 0.058 0.37 0.152l-0-0c0.093 0.095 0.15 0.224 0.15 0.367s-0.057 0.273-0.15 0.367l0-0c-0.094 0.094-0.224 0.151-0.367 0.151-0.001 0-0.003 0-0.004-0h0c-0.002 0-0.005 0-0.008 0-0.142 0-0.27-0.058-0.363-0.151l-0-0v0.001zM4.281 4.892c-0.093-0.092-0.151-0.22-0.151-0.361 0-0.003 0-0.006 0-0.009v0c0.002-0.286 0.234-0.516 0.52-0.516 0.143 0 0.272 0.058 0.366 0.151l-0-0c0.097 0.093 0.157 0.223 0.157 0.367s-0.060 0.275-0.157 0.367l-0 0c-0.091 0.093-0.218 0.151-0.358 0.151-0.002 0-0.005-0-0.007-0h0c-0.003 0-0.007 0-0.011 0-0.141 0-0.268-0.058-0.359-0.151l-0-0v-0.001zM5.756 6.367c-0.093-0.093-0.151-0.221-0.151-0.363 0-0.003 0-0.005 0-0.008v0c0-0 0-0.001 0-0.002 0-0.287 0.233-0.52 0.52-0.52 0.143 0 0.272 0.058 0.366 0.151l-0-0c0.096 0.094 0.156 0.225 0.156 0.37 0 0.072-0.015 0.142-0.042 0.204l0.001-0.003c-0.028 0.066-0.067 0.122-0.116 0.169l-0 0c-0.094 0.094-0.224 0.152-0.368 0.152s-0.274-0.058-0.368-0.152v0 0.001zM7.231 7.842c-0.097-0.094-0.156-0.225-0.156-0.37s0.060-0.276 0.156-0.37l0-0c0.094-0.093 0.223-0.151 0.366-0.151 0.18 0 0.339 0.091 0.432 0.23l0.001 0.002c0.054 0.081 0.087 0.18 0.087 0.287 0 0.001 0 0.001 0 0.002v-0c0 0.136-0.047 0.266-0.151 0.37-0.094 0.093-0.224 0.151-0.368 0.151s-0.273-0.058-0.368-0.151l0 0v-0.001zM8.701 9.317c-0.092-0.096-0.15-0.226-0.151-0.37v-0c0-0.135 0.052-0.266 0.151-0.37 0.095-0.094 0.226-0.152 0.37-0.152s0.275 0.058 0.37 0.152l-0-0c0.099 0.105 0.151 0.235 0.151 0.37 0 0.13-0.052 0.266-0.151 0.37-0.096 0.093-0.226 0.15-0.37 0.151h-0c-0.13 0-0.266-0.052-0.37-0.151h0.001zM10.176 10.787c-0.093-0.094-0.151-0.224-0.151-0.367 0-0.072 0.015-0.141 0.041-0.204l-0.001 0.003c0.081-0.19 0.266-0.32 0.481-0.32h0c0 0 0 0 0 0 0.215 0 0.4 0.131 0.479 0.317l0.001 0.003c0.025 0.059 0.040 0.128 0.040 0.201 0 0.143-0.058 0.272-0.151 0.367l0-0c-0.094 0.096-0.225 0.156-0.37 0.156s-0.276-0.060-0.37-0.156l-0-0zM11.651 12.262c-0.093-0.094-0.15-0.224-0.15-0.367s0.057-0.273 0.151-0.367l-0 0c0.095-0.094 0.226-0.153 0.37-0.153s0.275 0.058 0.37 0.153l-0-0c0.093 0.094 0.151 0.224 0.151 0.368 0 0.18-0.091 0.339-0.23 0.433l-0.002 0.001c-0.081 0.055-0.181 0.088-0.289 0.088h-0c-0 0-0 0-0 0-0.145 0-0.276-0.060-0.37-0.156l-0-0zM13.126 13.737c-0.094-0.094-0.151-0.224-0.151-0.367s0.058-0.273 0.151-0.367l-0 0c0.095-0.094 0.226-0.152 0.37-0.152s0.275 0.058 0.37 0.152l-0-0c0.093 0.094 0.15 0.224 0.15 0.367s-0.057 0.273-0.151 0.367l0-0c-0.094 0.094-0.224 0.151-0.367 0.151-0.001 0-0.002 0-0.003-0h0c-0.003 0-0.007 0-0.010 0-0.069 0-0.134-0.014-0.194-0.039l0.003 0.001c-0.066-0.027-0.123-0.066-0.169-0.114l-0-0zM14.601 15.212c-0.093-0.093-0.151-0.221-0.151-0.363 0-0.003 0-0.005 0-0.008v0c0-0.001-0-0.002-0-0.004 0-0.143 0.058-0.273 0.151-0.367l-0 0c0.095-0.094 0.226-0.153 0.37-0.153s0.275 0.058 0.37 0.153l-0-0c0.099 0.104 0.151 0.24 0.151 0.37 0 0.136-0.052 0.266-0.151 0.37-0.096 0.092-0.226 0.15-0.37 0.151h-0c-0 0-0.001 0-0.002 0-0.144 0-0.274-0.058-0.369-0.151l0 0zM16.076 16.687c-0.093-0.093-0.151-0.221-0.151-0.363 0-0.003 0-0.005 0-0.008v0c0-0.286 0.232-0.518 0.518-0.518s0.518 0.232 0.518 0.518v0c0 0.136-0.047 0.266-0.151 0.37-0.094 0.093-0.224 0.151-0.367 0.151s-0.273-0.058-0.367-0.151l0 0h-0.001zM17.551 18.156c-0.096-0.092-0.156-0.222-0.156-0.365v-0c0-0.145 0.060-0.276 0.156-0.37l0-0c0.094-0.094 0.224-0.152 0.367-0.152 0.287 0 0.52 0.233 0.52 0.52 0 0.144-0.058 0.274-0.152 0.368v0c-0.104 0.105-0.234 0.156-0.37 0.156-0.13 0-0.265-0.051-0.364-0.156zM19.025 19.631c-0.096-0.093-0.156-0.223-0.156-0.367v-0c0-0.144 0.060-0.274 0.156-0.367l0-0c0.094-0.094 0.224-0.152 0.368-0.152 0.287 0 0.52 0.233 0.52 0.52 0 0.144-0.058 0.274-0.152 0.368v0c-0.094 0.096-0.225 0.156-0.37 0.156-0 0-0 0-0.001 0h0c-0.13 0-0.266-0.052-0.365-0.156v-0.001zM20.496 21.106c-0.093-0.094-0.151-0.224-0.151-0.367s0.058-0.273 0.151-0.367l-0 0c0.095-0.094 0.226-0.152 0.37-0.152s0.275 0.058 0.37 0.152l-0-0c0.094 0.094 0.152 0.224 0.152 0.367s-0.058 0.273-0.152 0.367l0-0c-0.093 0.094-0.221 0.151-0.363 0.151-0.002 0-0.005-0-0.007-0h0c-0.002 0-0.005 0-0.007 0-0.142 0-0.27-0.058-0.363-0.151l-0-0zM21.97 22.581c-0.093-0.095-0.15-0.224-0.15-0.367s0.057-0.273 0.15-0.367l-0 0c0.095-0.094 0.226-0.153 0.37-0.153s0.275 0.058 0.37 0.153l-0-0c0.093 0.094 0.151 0.224 0.151 0.367s-0.058 0.273-0.151 0.367l0-0c-0.094 0.094-0.224 0.152-0.367 0.152-0.001 0-0.002 0-0.003 0h0c-0.002 0-0.004 0-0.007 0-0.142 0-0.271-0.058-0.364-0.151l-0-0v-0.001zM23.446 24.056c-0.093-0.091-0.151-0.219-0.151-0.359 0-0.004 0-0.008 0-0.012l-0 0.001c0-0 0-0.001 0-0.002 0-0.215 0.13-0.399 0.316-0.478l0.003-0.001c0.059-0.025 0.128-0.040 0.2-0.040 0.143 0 0.273 0.058 0.366 0.151l-0-0c0.104 0.105 0.156 0.24 0.156 0.37 0 0.136-0.052 0.272-0.156 0.37-0.094 0.093-0.224 0.151-0.368 0.151s-0.273-0.058-0.368-0.151l0 0zM24.92 25.531c-0.093-0.093-0.151-0.221-0.151-0.363 0-0.002 0-0.005 0-0.007v0c0-0.138 0.055-0.27 0.152-0.367 0.094-0.094 0.224-0.152 0.367-0.152s0.273 0.058 0.367 0.152v0c0.094 0.094 0.152 0.224 0.152 0.367 0 0 0 0 0 0v0c0 0.002 0 0.004 0 0.006 0 0.142-0.058 0.271-0.151 0.364l-0 0c-0.094 0.093-0.224 0.151-0.367 0.151s-0.273-0.058-0.367-0.151l-0.001-0.001zM26.39 27.006c-0.092-0.096-0.149-0.226-0.151-0.37v-0c0-0.135 0.052-0.265 0.151-0.37 0.095-0.094 0.226-0.153 0.37-0.153s0.275 0.058 0.37 0.153l-0-0c0.093 0.093 0.151 0.222 0.151 0.364 0 0.002-0 0.005-0 0.007v-0c0 0.13-0.047 0.266-0.151 0.37-0.095 0.094-0.226 0.152-0.37 0.152s-0.275-0.058-0.37-0.152l0 0v-0.001zM27.865 28.482c-0.092-0.096-0.149-0.226-0.151-0.37v-0c0-0.136 0.052-0.266 0.151-0.37 0.095-0.094 0.226-0.153 0.37-0.153s0.275 0.058 0.37 0.153l-0-0c0.093 0.096 0.15 0.226 0.151 0.37v0c0 0.13-0.052 0.266-0.151 0.37-0.096 0.093-0.226 0.151-0.37 0.151h-0c-0.144-0.002-0.274-0.059-0.37-0.152l0 0zM29.34 29.951c-0.093-0.094-0.151-0.224-0.151-0.367s0.058-0.273 0.151-0.367l-0 0c0.095-0.094 0.226-0.153 0.37-0.153s0.275 0.058 0.37 0.153l-0-0c0.094 0.094 0.152 0.225 0.152 0.368 0 0.18-0.091 0.34-0.231 0.434l-0.002 0.001c-0.081 0.055-0.182 0.088-0.29 0.088h-0c-0.145-0.001-0.276-0.061-0.37-0.157l-0-0z"></path>
<path d="M29.341 3.417c-0.093-0.094-0.151-0.224-0.151-0.367s0.057-0.273 0.151-0.367l-0 0c0.095-0.094 0.226-0.152 0.37-0.152s0.275 0.058 0.37 0.152l-0-0c0.093 0.094 0.151 0.224 0.151 0.367s-0.058 0.273-0.151 0.367l0-0c-0.094 0.097-0.225 0.157-0.37 0.157-0.073 0-0.142-0.015-0.205-0.042l0.003 0.001c-0.066-0.028-0.122-0.068-0.169-0.116l-0-0h0.001zM27.871 4.892c-0.096-0.094-0.156-0.225-0.157-0.37v-0c0-0.13 0.052-0.266 0.156-0.365 0.094-0.094 0.224-0.152 0.367-0.152 0.287 0 0.52 0.233 0.52 0.52v0c0 0 0 0 0 0 0 0.215-0.131 0.4-0.317 0.479l-0.003 0.001c-0.059 0.025-0.127 0.040-0.199 0.040-0.143 0-0.273-0.058-0.367-0.152v0l0.001-0.001zM26.396 6.367c-0.097-0.094-0.157-0.225-0.157-0.37 0-0.073 0.015-0.142 0.042-0.204l-0.001 0.003c0.028-0.066 0.067-0.122 0.116-0.169l0-0c0.094-0.094 0.224-0.153 0.368-0.153 0.287 0 0.519 0.232 0.519 0.519 0 0.001 0 0.003-0 0.004v-0c0 0.135-0.048 0.266-0.152 0.37-0.095 0.093-0.224 0.15-0.367 0.15s-0.273-0.057-0.367-0.15l0 0h-0.001zM24.921 7.842c-0.093-0.096-0.15-0.226-0.151-0.37v-0c0-0 0-0.001 0-0.002 0-0.287 0.233-0.52 0.52-0.52 0.143 0 0.272 0.058 0.366 0.151l-0-0c0.104 0.105 0.156 0.235 0.156 0.37-0.002 0.287-0.234 0.519-0.521 0.522h-0c-0.001 0-0.001 0-0.002 0-0.144 0-0.274-0.058-0.368-0.151l0 0h0.001zM23.446 9.317c-0.092-0.096-0.149-0.226-0.151-0.369v-0c0-0.135 0.052-0.266 0.151-0.37 0.095-0.094 0.226-0.153 0.37-0.153s0.275 0.058 0.37 0.153l-0-0c0.093 0.096 0.15 0.226 0.151 0.37v0c0 0.13-0.052 0.266-0.151 0.37-0.096 0.093-0.226 0.15-0.37 0.151h-0c-0.144-0-0.274-0.058-0.37-0.151l0 0v-0.001zM21.971 10.787c-0.094-0.094-0.152-0.224-0.152-0.368 0-0.072 0.015-0.141 0.041-0.204l-0.001 0.003c0.081-0.19 0.266-0.321 0.482-0.321 0.288 0 0.522 0.234 0.522 0.522 0 0.144-0.058 0.274-0.152 0.368l0-0c-0.094 0.096-0.225 0.156-0.37 0.156s-0.276-0.060-0.37-0.156l-0-0h0.001zM20.496 12.262c-0.093-0.094-0.151-0.224-0.151-0.367s0.057-0.273 0.151-0.367l-0 0c0.095-0.094 0.226-0.152 0.37-0.152s0.275 0.058 0.37 0.152l-0-0c0.093 0.094 0.151 0.224 0.151 0.367s-0.058 0.273-0.151 0.367l0-0c-0.093 0.093-0.221 0.151-0.363 0.151-0.003 0-0.005-0-0.008-0h0c-0.001 0-0.003 0-0.004 0-0.143 0-0.272-0.058-0.366-0.151l0 0zM19.026 13.737c-0.096-0.093-0.156-0.223-0.156-0.367 0-0 0-0 0-0v0c0-0 0-0 0-0 0-0.144 0.060-0.274 0.156-0.367l0-0c0.093-0.096 0.223-0.156 0.367-0.156 0.072 0 0.141 0.015 0.203 0.042l-0.003-0.001c0.065 0.028 0.121 0.067 0.167 0.115l0 0c0.105 0.098 0.152 0.234 0.152 0.364 0 0.003 0 0.007 0 0.010 0 0.141-0.058 0.269-0.151 0.36l-0 0c-0.091 0.094-0.219 0.151-0.36 0.151-0.004 0-0.008-0-0.011-0l0.001 0c-0.13 0-0.266-0.047-0.364-0.151zM17.551 15.211c-0.096-0.094-0.155-0.225-0.156-0.37v-0c0-0.13 0.052-0.266 0.156-0.37 0.094-0.094 0.224-0.153 0.368-0.153 0.286 0 0.518 0.232 0.518 0.518 0 0.002 0 0.003-0 0.005v-0c0 0.136-0.047 0.266-0.151 0.37-0.095 0.093-0.224 0.15-0.367 0.15s-0.273-0.057-0.367-0.15l0 0v-0.001zM16.076 16.687c-0.093-0.093-0.151-0.221-0.151-0.363 0-0.003 0-0.005 0-0.008v0c0-0.286 0.232-0.518 0.518-0.518s0.518 0.232 0.518 0.518v0c0 0.136-0.047 0.266-0.151 0.37-0.094 0.093-0.224 0.151-0.367 0.151s-0.273-0.058-0.367-0.151l0 0h-0.001zM14.601 18.156c-0.094-0.094-0.152-0.224-0.152-0.367s0.058-0.273 0.152-0.367l-0 0c0.094-0.094 0.224-0.152 0.367-0.152s0.273 0.058 0.367 0.152l-0-0c0.105 0.104 0.157 0.234 0.157 0.37 0 0.13-0.052 0.266-0.157 0.364-0.092 0.096-0.221 0.156-0.364 0.157h-0c-0.136 0-0.266-0.052-0.37-0.156v-0.001zM13.127 19.632c-0.094-0.094-0.152-0.224-0.152-0.368s0.058-0.274 0.152-0.368v0c0.095-0.094 0.226-0.152 0.37-0.152s0.275 0.058 0.37 0.152l-0-0c0.094 0.094 0.152 0.225 0.152 0.368 0 0.18-0.091 0.34-0.23 0.434l-0.002 0.001c-0.081 0.055-0.182 0.088-0.29 0.088h-0c-0 0-0 0-0 0-0.145 0-0.276-0.060-0.37-0.156l-0-0h0.001zM11.651 21.106c-0.093-0.095-0.15-0.224-0.15-0.367s0.057-0.273 0.15-0.367l-0 0c0.095-0.094 0.226-0.152 0.37-0.152s0.275 0.058 0.37 0.152l-0-0c0.094 0.094 0.151 0.224 0.151 0.367s-0.058 0.273-0.151 0.367l0-0c-0.093 0.093-0.221 0.151-0.363 0.151-0.003 0-0.005-0-0.008-0h0c-0.002 0-0.005 0-0.007 0-0.142 0-0.27-0.058-0.363-0.151l-0-0h0.001zM10.181 22.581c-0.096-0.093-0.156-0.223-0.156-0.367 0-0.001 0-0.002 0-0.003v0c0-0.13 0.052-0.266 0.156-0.37 0.095-0.092 0.225-0.148 0.367-0.148s0.272 0.057 0.368 0.149l-0-0c0.099 0.105 0.151 0.24 0.151 0.37 0 0.135-0.052 0.271-0.151 0.37-0.093 0.093-0.221 0.151-0.363 0.151-0.003 0-0.005-0-0.008-0h0c-0.002 0-0.004 0-0.006 0-0.14 0-0.267-0.058-0.358-0.151l-0.001-0.001zM8.707 24.056c-0.096-0.093-0.156-0.223-0.156-0.367 0-0.001 0-0.003 0-0.004v0c0-0.13 0.052-0.265 0.156-0.37 0.095-0.092 0.225-0.148 0.367-0.148s0.272 0.057 0.368 0.149l-0-0c0.094 0.094 0.151 0.224 0.151 0.367 0 0.001 0 0.003-0 0.004v-0c0 0.003 0 0.006 0 0.010 0 0.141-0.058 0.269-0.151 0.36l-0 0c-0.095 0.093-0.224 0.15-0.367 0.15s-0.273-0.057-0.367-0.15l0 0v-0.001zM7.232 25.532c-0.094-0.093-0.151-0.221-0.151-0.364 0-0.002 0-0.005 0-0.007v0c-0-0.001-0-0.003-0-0.005 0-0.286 0.232-0.519 0.519-0.519 0.036 0 0.071 0.004 0.104 0.011l-0.003-0.001c0.105 0.021 0.196 0.072 0.266 0.143l0 0c0.096 0.094 0.156 0.225 0.156 0.37s-0.060 0.276-0.156 0.37l-0 0c-0.094 0.093-0.224 0.151-0.368 0.151s-0.273-0.058-0.368-0.151l0 0h0.001zM5.756 27.006c-0.094-0.094-0.151-0.224-0.151-0.367 0-0.001 0-0.002 0-0.003v0c-0-0.002-0-0.004-0-0.006 0-0.142 0.058-0.271 0.151-0.364l0-0c0.095-0.094 0.226-0.153 0.37-0.153s0.275 0.058 0.37 0.153l-0-0c0.099 0.104 0.151 0.235 0.151 0.37 0 0.13-0.052 0.266-0.151 0.37-0.096 0.092-0.226 0.149-0.37 0.151h-0c-0 0-0.001 0-0.001 0-0.144 0-0.274-0.058-0.369-0.151l0 0h0.001zM4.281 28.481c-0.092-0.096-0.149-0.226-0.151-0.369v-0c0-0.136 0.052-0.271 0.151-0.37 0.095-0.094 0.226-0.153 0.37-0.153s0.275 0.058 0.37 0.153l-0-0c0.099 0.099 0.151 0.235 0.151 0.37 0 0.13-0.052 0.266-0.151 0.37-0.096 0.093-0.226 0.151-0.37 0.151h-0c-0.144-0.001-0.275-0.058-0.37-0.151l0 0v-0.001zM2.806 29.951c-0.094-0.094-0.152-0.224-0.152-0.367s0.058-0.273 0.152-0.367l0-0c0.095-0.094 0.226-0.153 0.37-0.153s0.275 0.058 0.37 0.153l-0-0c0.094 0.094 0.151 0.224 0.151 0.367s-0.058 0.273-0.151 0.367l0-0c-0.094 0.097-0.225 0.157-0.37 0.157-0 0-0 0-0 0h0c-0.145-0-0.276-0.060-0.37-0.157l-0-0zM29.017 26.452c1.343 0 2.431 1.089 2.431 2.431s-1.089 2.431-2.431 2.431v0c-1.343 0-2.431-1.089-2.431-2.431s1.089-2.431 2.431-2.431v0z"></path>
<path d="M3.898 26.452c0.012-0 0.026-0 0.039-0 0.665 0 1.267 0.267 1.706 0.699l-0-0c0.448 0.441 0.726 1.055 0.726 1.733 0 0.339-0.069 0.662-0.195 0.956l0.006-0.016c-0.257 0.603-0.732 1.071-1.324 1.312l-0.016 0.006c-0.267 0.11-0.578 0.174-0.903 0.174-1.343 0-2.432-1.089-2.432-2.431 0-0 0-0 0-0v0c0-1.329 1.066-2.409 2.39-2.431l0.002-0zM29.040 1.329c1.343 0 2.432 1.089 2.432 2.432 0 0.336-0.068 0.655-0.191 0.946l0.006-0.016c-0.375 0.889-1.239 1.501-2.246 1.501-0 0-0 0-0 0h0c-1.335-0.010-2.414-1.095-2.414-2.432s1.079-2.422 2.413-2.432h0.001zM3.898 1.329c1.343 0 2.432 1.089 2.432 2.432s-1.089 2.432-2.432 2.432v0c-1.343 0-2.432-1.089-2.432-2.432s1.089-2.432 2.432-2.432v0z"></path>
</svg>
