<svg version="1.1" xmlns="http://www.w3.org/2000/svg" viewBox="0 0 32 32">
<title>ethplo</title>
<path d="M16 23.503v8.497l-9.943-14.282zM16 5.127c-1.085 0.922-1.211 2.286-1.645 2.286-0.542 0-0.542-0.723-0.542-0.723-0.452 0.615-0.398 3.435-0.362 4.285 0 0.253-0.072 0.506-0.235 0.705-0.108 0.145-0.271 0.253-0.488 0.253-0.542 0-0.723-0.723-0.723-0.723-0.542 0.181-0.904 3.073-1.446 3.073s-0.362-0.723-0.362-0.723c-0.426 0.533-0.698 1.065-0.871 1.576l-3.269 1.497 9.943-16.633v5.127zM9.618 18.893l-3.562-2.079 3.18-1.383c-0.447 1.695 0.184 3.101 0.382 3.462zM16.181 23.503l9.763-5.785-9.763 14.282v-8.497zM17.379 21.88c0.019-0.052 0.051-0.119 0.067-0.185 1.012-2.766-0.343-4.484-1.265-5.279v0.034c-0.006-0.010-0.012-0.021-0.017-0.033l-0.001-0.002c0-0.325 0.036-10.811 0.036-11.191 0-0.343 0.741-0.579 1.049-0.705-0.633 1.718-0.759 4.014 0.542 5.478 0.199 0.217 0.38 0.344 0.669 0.289 0.94-0.235 0.289-1.175-0.127-1.591 0.434 0.036 0.886 0.199 1.247 0.452 0.922 0.615 0.994 1.627 0.85 2.64-0.090 0.723-0.271 1.428-0.416 2.133-0.090 0.452-0.289 1.193 0.036 1.591 0.362 0.434 0.958 0.289 1.121-0.217 0.108-0.344 0.018-0.669 0.072-0.994 0.072-0.615 0.398-0.181 0.615 0.127 0.362 0.542 0.669 1.067 0.669 1.754 0 1.031-0.452 2.296-1.012 3.146-0.217 0.343-0.687 0.524-1.049 0.723-1.023 0.61-2.064 1.22-3.087 1.83zM16 16.271v6.328l-2.658-1.537c-0.054-0.524 0.108-1.464 1.392-2.621 1.229-1.121 0.723-2.531 0.723-2.531s0.235 0.127 0.542 0.362z"></path>
</svg>
