<svg version="1.1" xmlns="http://www.w3.org/2000/svg" viewBox="0 0 32 32">
<title>eur</title>
<path d="M18.845 32c-6.533 0-11.6-4.578-13.778-10.267h-4.533l1.555-3.822h1.956c-0.085-0.64-0.133-1.381-0.134-2.133v-0h-3.067l1.556-3.822h1.956c1.466-6.311 6.711-11.956 14.756-11.956 5.6 0 9.956 2.8 11.956 6.889l-5.6 3.911c-1.289-3.333-4.222-4.311-6.533-4.311-3.645 0-5.955 2.445-6.978 5.467h10.089l-1.556 3.822h-9.156c0 0.845 0.045 1.511 0.134 2.133h9.244l-1.555 3.822h-6.311c1.333 2.267 3.467 3.778 6.178 3.778 2.4 0 5.289-1.2 6.444-4.355l6 3.511c-1.866 4.666-7.644 7.333-12.622 7.333z"></path>
</svg>
