<svg version="1.1" xmlns="http://www.w3.org/2000/svg" viewBox="0 0 32 32">
<title>fct</title>
<path d="M5.098 15.739c8.953 0 13.386-7.396 13.386-7.396l0.562 0.13-0.303-5.493-3.217 4.401 0.427 0.184c0 0-3.784 5.623-10.704 5.623-3.208 0-4.473-1.825-4.964-3.45-0.168 0.875-0.263 1.762-0.285 2.653 0.554 1.784 1.94 3.349 5.098 3.349z"></path>
<path d="M3.692 19.437c4.26 1.016 10.142-0.713 14.078-4.152s5.233-6.574 5.233-6.574l0.562 0.13-0.303-5.493-3.217 4.401 0.427 0.184c0 0-1.644 3.612-6.055 6.509s-8.509 3.002-10.428 2.651c-1.695-0.311-3.014-1.484-3.905-2.573 0.102 0.97 0.29 1.915 0.555 2.826 0.724 0.961 1.711 1.772 3.052 2.092z"></path>
<path d="M18.765 19.566c3.525-2.227 6.055-6.076 6.055-6.076l0.433 0.151-0.281-5.579-3.217 4.492 0.492 0.222c0 0-1.514 2.66-5.882 5.276s-7.225 3.397-10.704 3.028c-2.061-0.219-3.561-1.315-4.572-2.412 0.33 0.848 0.73 1.667 1.197 2.448 1.040 1.119 2.379 2.040 4.045 2.234 4.801 0.562 8.91-1.557 12.434-3.785z"></path>
<path d="M21.203 22.367c3.633-2.547 6.147-6.114 6.147-6.114l0.633 0.276-0.276-5.58-3.26 4.379 0.568 0.211c0 0-2.595 3.341-5.725 5.417s-6.698 3.617-10.316 3.617c-2.096 0-3.872-0.647-5.249-1.422 0.621 0.748 1.307 1.439 2.050 2.065 1.206 0.69 2.523 1.174 3.848 1.174 4.606 0 7.947-1.476 11.58-4.022z"></path>
<path d="M31.719 9.749l-3.201 4.411 0.736 0.303c0 0-1.622 4.045-5.428 7.331-2.899 2.504-7.655 5.32-12.045 5.32-1.642 0-3.156-0.317-4.421-0.722 0.915 0.598 1.889 1.102 2.906 1.503 0.925 0.25 1.879 0.408 2.812 0.408 2.768 0 6.358-1.103 11.072-4.498 4.714-3.396 7.18-8.715 7.18-8.715l0.671 0.151z"></path>
<path d="M26.491 22.821c0 0-1.443 2.076-6.504 4.396-2.744 1.258-5.415 1.48-7.287 1.42 1.273 0.282 2.576 0.408 3.88 0.378 1.264-0.122 2.632-0.407 4.024-0.955 3.861-1.521 6.844-4.72 6.844-4.72l0.243 0.146 0.113-2.222-1.573 1.378z"></path>
</svg>
