<svg version="1.1" xmlns="http://www.w3.org/2000/svg" viewBox="0 0 32 32">
<title>ftm</title>
<path d="M17.854 11.027l5.839-3.374v6.742l-5.839-3.368zM23.692 25.415l-7.693 4.446-7.692-4.441v-7.82l7.692 4.441 7.693-4.441v7.815zM8.308 7.657l5.839 3.371-5.839 3.371v-6.742zM16.926 12.63l5.839 3.368-5.839 3.371v-6.738zM15.075 19.368l-5.835-3.368 5.835-3.369v6.738zM22.77 6.047l-6.772 3.912-6.772-3.909 6.773-3.911 6.771 3.909zM6.456 5.51v20.98l9.544 5.511 9.545-5.515v-20.975l-9.545-5.51-9.544 5.51z"></path>
</svg>
