<svg version="1.1" xmlns="http://www.w3.org/2000/svg" viewBox="0 0 32 32">
<title>gbg</title>
<path d="M4.516 13.433h1.399l3.266-0.15c2.177-0.1 3.421-0.272 3.732-0.517 1.244-0.267 2.188-0.667 2.833-1.2 0.8-0.6 1.444-1.344 1.933-2.233s0.733-1.867 0.733-2.933c0-1.778-0.628-3.289-1.883-4.534s-2.76-1.867-4.516-1.867-3.26 0.622-4.516 1.867c-1.255 1.244-1.883 2.756-1.883 4.534 0 0.955 0.194 1.844 0.583 2.667s0.905 1.533 1.549 2.133zM11.914 1.333c0.711 0 1.4 0.15 2.066 0.45s1.222 0.728 1.666 1.284l-0.533 0.433c-0.4-0.467-0.878-0.833-1.433-1.1s-1.144-0.4-1.766-0.4c-0.444 0-0.878 0.067-1.3 0.2s-0.811 0.333-1.166 0.6l-0.4-0.534c0.422-0.311 0.872-0.544 1.35-0.7s0.983-0.233 1.516-0.233zM29.609 20.567c-0.555-0.756-1.299-1.222-2.233-1.4s-1.877-0.211-2.832-0.1c-0.955 0.111-1.833 0.311-2.633 0.6-0.778 0.289-1.3 0.522-1.566 0.7l0.5-0.833c0.355-0.555 0.744-1.278 1.166-2.167s0.822-1.889 1.2-3c0.378-1.133 0.589-2.278 0.633-3.433 0.089-2.111-0.083-3.972-0.517-5.583s-1.361-2.972-2.783-4.083l0.133 1.433-0.2 3.434c-0.133 2.289-0.622 3.656-1.466 4.1-0.733 1.422-1.944 2.589-3.632 3.5-1.688 0.933-3.366 1.455-5.032 1.567-1.688 0.111-3.205 0.050-4.549-0.184s-2.438-0.517-3.283-0.85l-1.266-0.533 0.3 0.833c0.178 0.533 0.6 1.161 1.267 1.883s1.644 1.439 2.933 2.15c1.288 0.711 3.021 1.244 5.199 1.6l-0.083 2.050-1.616 4.15c-1.077 2.767-2.272 3.617-3.582 2.55s-2.783-1.439-4.416-1.117l0.933 2.133 5.132 2.033c2.777-0.089 4.893-0.611 6.348-1.567l2.183-1.433 6.798-4.2 1.283-0.633 2.583-0.6c0.911 0.022 1.6 0.378 2.066 1.067s0.833 1.589 1.1 2.7c-0.022-0.044 0.244-0.8 0.8-2.267s0.267-2.967-0.867-4.5z"></path>
</svg>
