<svg version="1.1" xmlns="http://www.w3.org/2000/svg" viewBox="0 0 32 32">
<title>gbp</title>
<path d="M27.387 22.422c-0.136-0.144-0.311-0.216-0.523-0.216h-3.682c-0.212 0-0.387 0.072-0.523 0.216s-0.204 0.314-0.204 0.511v4.114h-9.409v-8.614h6.932c0.197 0 0.367-0.072 0.511-0.216s0.216-0.314 0.216-0.511v-2.978c0-0.212-0.072-0.386-0.216-0.523s-0.314-0.204-0.511-0.204h-6.932v-4.887c0-1.151 0.394-2.083 1.182-2.795s1.826-1.068 3.114-1.068c0.682 0 1.387 0.136 2.114 0.409s1.25 0.515 1.568 0.727c0.318 0.212 0.516 0.356 0.591 0.432 0.151 0.136 0.326 0.189 0.523 0.159 0.197-0.015 0.363-0.106 0.5-0.273l2.341-2.887c0.122-0.151 0.174-0.322 0.159-0.511s-0.091-0.345-0.227-0.466c-2.272-1.894-4.81-2.841-7.613-2.841-2.894 0-5.277 0.841-7.148 2.523s-2.807 3.818-2.807 6.409v5.068h-2.159c-0.212 0-0.386 0.068-0.523 0.204s-0.205 0.31-0.205 0.523v2.977c0 0.197 0.068 0.367 0.205 0.511s0.311 0.216 0.523 0.216h2.159v8.704h-2.205c-0.197 0-0.367 0.072-0.511 0.216s-0.216 0.315-0.216 0.511v3.409c0 0.212 0.068 0.386 0.204 0.523s0.311 0.204 0.523 0.204h21.728c0.212 0 0.387-0.068 0.523-0.204s0.204-0.311 0.204-0.523v-8.341c0-0.196-0.068-0.367-0.204-0.511z"></path>
</svg>
