<svg version="1.1" xmlns="http://www.w3.org/2000/svg" viewBox="0 0 32 32">
<title>hmq</title>
<path d="M25.849 10.868c-0.622-0.622-1.311-1.199-2.066-1.732-0.733-0.511-1.516-0.944-2.35-1.3s-1.705-0.633-2.616-0.833c-0.911-0.178-1.855-0.267-2.833-0.267s-1.922 0.089-2.833 0.267c-0.911 0.2-1.783 0.478-2.616 0.833s-1.616 0.789-2.35 1.3c-0.755 0.533-1.444 1.111-2.066 1.732v-10.863h-3.9v31.99h3.966v-11.463c-0.022-1.355 0.222-2.632 0.733-3.832s1.211-2.244 2.1-3.132c0.889-0.888 1.933-1.599 3.133-2.132 1.2-0.511 2.478-0.766 3.833-0.766s2.633 0.255 3.833 0.766c1.2 0.533 2.244 1.244 3.133 2.132s1.6 1.933 2.133 3.132c0.511 1.2 0.766 2.477 0.766 3.832v11.463h3.933v-11.463c0-0.933-0.1-1.844-0.3-2.732-0.178-0.888-0.439-1.738-0.783-2.549s-0.75-1.583-1.217-2.316c-0.489-0.733-1.033-1.422-1.633-2.066z"></path>
</svg>
