<svg version="1.1" xmlns="http://www.w3.org/2000/svg" viewBox="0 0 32 32">
<title>ioc</title>
<path d="M12.538 11.056v20.567c1.137 0.251 2.298 0.377 3.462 0.377 1.189 0 2.347-0.131 3.462-0.377v-20.567c0 0-1.338-0.813-3.462-0.813s-3.462 0.813-3.462 0.813zM0 16c0 6.999 4.494 12.947 10.754 15.119v-6.155c-3.075-1.803-5.141-5.141-5.141-8.963s2.066-7.16 5.141-8.964v-6.155c-6.26 2.172-10.754 8.12-10.754 15.12zM21.246 0.881v6.155c3.075 1.804 5.141 5.141 5.141 8.964s-2.066 7.16-5.141 8.963v6.155c6.26-2.172 10.754-8.12 10.754-15.119s-4.494-12.948-10.754-15.12zM12.538 0.377v5.83c1.083-0.383 2.248-0.593 3.462-0.593s2.379 0.21 3.462 0.593v-5.83c-1.137-0.251-2.298-0.377-3.462-0.377-1.189 0-2.348 0.131-3.462 0.377z"></path>
</svg>
