<svg version="1.1" xmlns="http://www.w3.org/2000/svg" viewBox="0 0 32 32">
<title>kmd</title>
<path d="M0.015 15.985c-0.017 8.828 7.126 15.998 15.954 16.015s15.998-7.126 16.015-15.954v-0.122c-0.006-1.299-0.165-2.558-0.46-3.763l0.023 0.11c-0.186-0.761-0.862-1.317-1.668-1.317-0.947 0-1.714 0.768-1.714 1.714 0 0.141 0.017 0.278 0.049 0.409l-0.002-0.012c1.309 5.468-1.174 11.14-6.080 13.887s-11.040 1.899-15.017-2.076c-3.977-3.975-4.828-10.108-2.085-15.015s8.414-7.395 13.883-6.088c0.921 0.219 1.846-0.349 2.065-1.27s-0.349-1.846-1.27-2.065c-1.114-0.277-2.393-0.436-3.709-0.436-8.827 0-15.983 7.156-15.983 15.983 0 0.001 0 0.001 0 0.002v-0z"></path>
<path d="M24.079 4.293c-0.023 0.022-0.038 0.048-0.060 0.071-0.377 0.399-0.625 0.922-0.678 1.502l-0.001 0.010v0.272c0 0.063-0.014 0.124-0.020 0.186-0.237 2.32-2.18 4.115-4.542 4.115-0.37 0-0.729-0.044-1.073-0.127l0.031 0.006c-0.115-0.025-0.229-0.057-0.342-0.094-0.418-0.106-0.898-0.167-1.392-0.167-1.55 0-2.96 0.6-4.011 1.58l0.003-0.003c-0.058 0.054-0.122 0.101-0.179 0.158-2.31 2.31-2.31 6.055 0 8.364s6.055 2.31 8.364 0c0.238-0.242 0.456-0.506 0.65-0.787l0.013-0.020c0.666-0.944 1.065-2.118 1.065-3.385 0-0.486-0.059-0.957-0.169-1.409l0.008 0.040c-0.034-0.107-0.061-0.213-0.087-0.322 0-0.016-0.009-0.031-0.014-0.048-0.074-0.308-0.117-0.662-0.117-1.027 0-2.388 1.832-4.347 4.167-4.55l0.017-0.001c0.034 0 0.067-0.009 0.101-0.011 0.096 0 0.193-0.011 0.289-0.011h0.023c0.591-0.054 1.143-0.314 1.562-0.735 0.096-0.1 0.185-0.208 0.266-0.323l0.006-0.009c0.764-1.080 0.574-2.564-0.436-3.418s-2.506-0.792-3.443 0.142z"></path>
</svg>
