<svg version="1.1" xmlns="http://www.w3.org/2000/svg" viewBox="0 0 32 32">
<title>kore</title>
<path d="M16 0c-8.837 0-16 7.164-16 15.999s7.163 16.001 16 16.001c8.836 0 16-7.164 16-16s-7.163-15.999-15.999-15.999zM25.143 16c0 2.932-1.385 5.536-3.531 7.209l-1.050-1.666c1.599-1.317 2.622-3.309 2.622-5.543 0-2.395-1.176-4.511-2.978-5.816l1.343-1.442c2.183 1.671 3.594 4.298 3.594 7.258zM18.69 11.811c1.379 0.885 2.295 2.428 2.295 4.188 0 1.45-0.62 2.753-1.608 3.663l-3.229-5.122zM21.087 3.723l-7.729 8.174 1.096-8.108h-3.695c1.608-0.692 3.38-1.076 5.242-1.076 1.802 0 3.519 0.36 5.086 1.010zM7.898 20.235c-0.686-1.306-1.043-2.76-1.041-4.236 0-2.406 0.934-4.593 2.454-6.225zM2.713 16c0-5.21 3-9.716 7.365-11.893l-0.258 1.911c-3.338 2.071-5.561 5.766-5.561 9.982 0 3.082 1.192 5.882 3.135 7.976l-0.259 1.918c-2.713-2.433-4.421-5.964-4.421-9.894zM8.657 27.073h2.65l1.388-10.268 0.113 0.014 6.465 10.254h4.070c-2.104 1.398-4.627 2.214-7.343 2.214s-5.239-0.816-7.343-2.214zM23.832 26.731l-0.827-1.312c2.874-2.14 4.737-5.561 4.737-9.42 0-3.711-1.723-7.018-4.412-9.17l1.057-1.134c2.99 2.436 4.9 6.146 4.9 10.304 0 4.409-2.148 8.314-5.455 10.731z"></path>
</svg>
