<svg version="1.1" xmlns="http://www.w3.org/2000/svg" viewBox="0 0 32 32">
<title>ldoge</title>
<path d="M29.925 13.735c0.559-0.975 0.103-1.347 0.103-1.347s0.436-2.239-0.456-2.239c0-0.497-1.326-2.259-1.451-1.368 0 0-2.508-1.99-5.182-0.518s-2.488 4.187-2.488 4.187-1.969 0.041-2.695-0.083c-0.725-0.124-2.156-0.85-2.156-0.85s1.327-1.036 0.954-2.529c0.933 0.104-0.788-2.052-0.995-2.384 0 0 0.601-5.949-0.954-6.488s-3.337 3.006-3.482 3.006-0.836-0.359-1.817-0.415c-0.981-0.055-1.948 0.262-1.948 0.262s-2.004-3.469-3.372-2.909c-1.368 0.56-0.967 5.811-0.926 6.544 0 0-1.285 1.43-1.264 1.907s0.29 0.58 0.29 0.58-0.125 0.891 0.041 1.306c0.166 0.414 2.239 2.322 2.384 2.695s-0.104 4.311 0.249 6.426 1.306 3.731 1.679 6.405c0.373 2.674-0.208 5.369 0 5.555s2.322 0.187 2.612 0 0.539-2.612 0.56-4.021c0.021-1.409 0-3.441 0-3.441s1.513 0.124 1.7 0.497c0.187 0.373 0.166 2.405 0.104 3.752s-0.497 3.234-0.353 3.462c0.145 0.228 2.094 0.477 2.571 0s1.244-7.856 1.368-8.001c0.124-0.145 3.151-2.156 3.151-2.156s0.041 1.14 0.373 1.617c0.332 0.477 2.425 2.301 2.467 2.798s-2.073 3.959-1.845 4.104c0.228 0.145 2.715 0.373 3.192 0.083s1.285-2.239 1.471-3.026c0.187-0.788 0.394-2.55 0.394-2.55s2.363 1.182 2.487 1.492c0.125 0.311 0.021 2.259-0.249 3.047s-1.099 2.239-0.912 2.363c0.187 0.125 3.026 0.249 3.254 0.062s1.12-5.244 0.892-6.882-1.078-1.43-1.161-2.135c-0.083-0.705 0.187-4.27 0.021-5.327s-0.643-1.368-0.643-1.575c0-0.207 1.472-0.933 2.032-1.907zM6.405 8.622c-0.61 0-1.106-0.774-1.106-1.727s0.495-1.727 1.106-1.727c0.61 0 1.106 0.774 1.106 1.727s-0.495 1.727-1.106 1.727zM8.388 13.912c-0.746 0-1.202-0.912-1.067-1.689 0.767 0.031 1.019-0.394 1.019-0.394 0.307 0.508 1.147 0.363 1.209 0.373 0 0.715-0.414 1.71-1.161 1.71zM8.34 11.283c-0.668 0-1.209-0.337-1.209-0.753s0.541-0.753 1.209-0.753c0.668 0 1.209 0.337 1.209 0.753s-0.541 0.753-1.209 0.753zM11.187 8.622c-0.61 0-1.106-0.774-1.106-1.727s0.495-1.727 1.106-1.727c0.61 0 1.106 0.774 1.106 1.727s-0.495 1.727-1.106 1.727z"></path>
</svg>
