<svg version="1.1" xmlns="http://www.w3.org/2000/svg" viewBox="0 0 32 32">
<title>lst</title>
<path d="M15.24 0.002c-0.037 0.003-0.182 0.012-0.324 0.021-0.562 0.035-1.259 0.122-1.834 0.228-2.93 0.54-5.628 1.88-7.852 3.898-0.3 0.272-0.902 0.877-1.156 1.162-2.24 2.511-3.613 5.581-3.983 8.914-0.072 0.634-0.082 0.856-0.082 1.758 0 0.88 0.006 1.021 0.068 1.64 0.263 2.63 1.18 5.155 2.671 7.353 0.841 1.241 1.859 2.362 3.020 3.33 2.084 1.736 4.588 2.917 7.243 3.415 1.975 0.372 3.999 0.372 5.975 0 4.163-0.783 7.869-3.218 10.262-6.746 1.644-2.424 2.578-5.213 2.733-8.161 0.022-0.432 0.009-1.639-0.022-2.031-0.237-2.933-1.196-5.617-2.852-7.98-0.791-1.128-1.796-2.221-2.858-3.105-2.43-2.024-5.375-3.279-8.486-3.617-0.615-0.066-0.828-0.076-1.655-0.081-0.441-0.001-0.831-0.001-0.868 0.001zM17.079 1.294c2.208 0.178 4.205 0.775 6.082 1.822 2.362 1.316 4.336 3.279 5.67 5.636 0.175 0.31 0.513 0.984 0.647 1.287 0.605 1.381 0.999 2.842 1.162 4.31 0.103 0.93 0.116 1.974 0.037 2.912-0.254 2.998-1.434 5.856-3.377 8.178-1.846 2.208-4.289 3.826-7.029 4.657-0.943 0.287-1.947 0.482-2.927 0.571-0.866 0.079-1.825 0.079-2.692 0-2.845-0.257-5.563-1.347-7.803-3.129-3.19-2.536-5.189-6.251-5.531-10.277-0.079-0.94-0.066-1.987 0.037-2.912 0.244-2.189 0.975-4.286 2.143-6.156 1.321-2.114 3.164-3.867 5.336-5.078 1.908-1.063 4.049-1.694 6.2-1.828 0.141-0.009 0.294-0.018 0.338-0.021 0.213-0.013 1.44 0.006 1.706 0.026z"></path>
<path d="M15.475 2.431c-0.060 0.003-0.253 0.015-0.427 0.026-1.737 0.124-3.376 0.565-5.067 1.365-1.739 0.822-3.217 2.021-4.558 3.693-0.925 1.155-1.64 2.414-2.158 3.798-0.593 1.591-0.874 3.423-0.793 5.169 0.124 2.634 0.85 4.858 2.306 7.052 1.449 2.186 3.457 3.851 5.894 4.891 1.414 0.605 2.805 0.934 4.413 1.049 0.338 0.024 1.359 0.024 1.706 0 1.299-0.090 2.395-0.299 3.496-0.666 0.582-0.194 1.086-0.404 1.703-0.713 1.571-0.787 2.845-1.73 3.908-2.895 1.19-1.302 2.049-2.639 2.643-4.117 0.837-2.075 1.15-4.202 0.941-6.379-0.24-2.511-1.128-4.817-2.636-6.84-0.794-1.066-1.411-1.705-2.42-2.506-1.278-1.016-2.726-1.806-4.188-2.286-1.124-0.368-2.243-0.574-3.457-0.635-0.259-0.013-1.027-0.016-1.309-0.004zM24.713 6.954c-0.237 0.737-0.337 1.081-0.378 1.299-0.046 0.244-0.038 0.974 0.010 1.052 0.015 0.024 0.14-0.053 0.375-0.228 0.207-0.154 0.335-0.272 0.415-0.381 0.035-0.047 0.063-0.082 0.063-0.078s-0.022 0.071-0.050 0.146c-0.119 0.328-0.36 0.846-0.512 1.097-0.203 0.337-0.421 0.447-0.669 0.334-0.051-0.022-0.1-0.050-0.109-0.060-0.009-0.012-0.022-0.018-0.028-0.013-0.026 0.016-0.409-0.443-0.555-0.666-0.201-0.307-0.338-0.722-0.387-1.168-0.007-0.079-0.015-0.172-0.015-0.206l0.001-0.063 0.109 0.115c0.204 0.213 0.316 0.381 0.56 0.841l0.087 0.162 0.009-0.118c0.013-0.162 0.060-0.352 0.162-0.649 0.209-0.613 0.472-1.155 0.727-1.5 0.088-0.119 0.296-0.341 0.307-0.328 0.004 0.003-0.051 0.19-0.124 0.413zM21.249 9.446c0.191 0.026 0.402 0.078 0.635 0.154 0.384 0.124 0.622 0.224 1.408 0.582 0.61 0.279 0.891 0.4 1.172 0.503 0.174 0.063 0.475 0.156 0.609 0.185 0.037 0.007 0.004 0.022-0.213 0.094-0.659 0.219-1.086 0.462-1.415 0.808-0.318 0.335-0.485 0.719-0.557 1.29-0.031 0.24-0.024 0.947 0.016 1.559 0.047 0.697 0.051 1.659 0.010 1.993-0.099 0.802-0.29 1.472-0.615 2.145-0.187 0.39-0.407 0.752-0.656 1.081-0.413 0.546-0.994 1.077-1.539 1.406l-0.056 0.034 0.079-0.129c0.605-0.997 1.083-2.205 1.237-3.12 0.196-1.172-0.049-1.949-0.719-2.281-0.247-0.124-0.496-0.178-0.863-0.19-0.64-0.022-1.372 0.134-2.652 0.56-1.265 0.422-2.453 0.928-3.935 1.672-0.84 0.422-0.943 0.481-1.834 1.061-0.746 0.487-1.090 0.694-1.455 0.877-0.727 0.363-1.368 0.519-1.946 0.474-0.391-0.031-0.766-0.131-1.099-0.293-0.266-0.131-0.428-0.246-0.633-0.449-0.26-0.26-0.335-0.388-0.381-0.653-0.101-0.568 0.043-1.508 0.237-1.556 0.059-0.015 0.101 0.019 0.181 0.14 0.29 0.447 0.788 0.653 1.575 0.653 0.525 0 1.018-0.074 1.765-0.262 0.43-0.109 0.734-0.201 1.596-0.485 0.405-0.132 0.918-0.3 1.14-0.372 1.819-0.591 3.215-1.244 4.285-2.008 0.6-0.43 1.121-0.905 1.324-1.211 0.224-0.335 0.393-0.78 0.591-1.55 0.247-0.958 0.338-1.244 0.502-1.586 0.285-0.599 0.669-0.944 1.205-1.084 0.304-0.081 0.644-0.096 1-0.043zM8.709 9.437c2.889 0.157 5.866 1.252 7.781 2.856 0.234 0.197 0.375 0.335 0.463 0.454 0.294 0.4 0.26 0.759-0.109 1.149-0.221 0.232-0.5 0.425-0.965 0.659-0.837 0.424-1.828 0.758-3.805 1.278-0.646 0.171-1 0.269-1.093 0.304-0.028 0.012-0.028 0.010 0.001-0.040 0.125-0.212 0.377-0.663 0.372-0.668-0.003-0.001-0.344-0.031-0.758-0.063l-0.752-0.057-0.131-0.059c-0.243-0.106-0.412-0.246-0.488-0.402-0.053-0.109-0.054-0.288-0.004-0.412 0.082-0.201 0.306-0.466 0.563-0.666 0.302-0.234 0.743-0.479 1.015-0.562 0.079-0.025 0.144-0.050 0.144-0.057 0-0.006-0.010-0.009-0.022-0.003-0.037 0.013-0.328 0.051-0.521 0.068-0.325 0.026-0.877 0.034-1.208 0.016-0.891-0.049-1.403-0.19-1.575-0.431-0.029-0.040-0.029-0.044-0.007-0.078 0.072-0.109 0.544-0.252 1.34-0.403 0.171-0.032 0.557-0.103 0.861-0.156 0.625-0.11 0.925-0.171 1.063-0.213 0.091-0.028 0.143-0.063 0.118-0.078-0.022-0.013-0.182-0.038-0.743-0.113-1.658-0.221-2.351-0.419-2.351-0.671 0-0.118 0.224-0.274 0.49-0.343 0.25-0.065 0.496-0.088 1.037-0.103l0.388-0.009-0.212-0.087c-0.678-0.281-1.522-0.682-1.769-0.843-0.124-0.081-0.225-0.175-0.207-0.193 0.004-0.003 0.106-0.025 0.225-0.047 0.249-0.047 0.424-0.053 0.858-0.029zM24.357 11.886c-0.007 0.169-0.010 0.362-0.006 0.428 0.007 0.134 0.060 0.403 0.135 0.696 0.028 0.107 0.050 0.2 0.050 0.204 0 0.009-0.457-0.007-0.466-0.016-0.013-0.015-0.050-0.226-0.065-0.39-0.015-0.141-0.015-0.234 0-0.424 0.029-0.399 0.049-0.496 0.115-0.591 0.031-0.046 0.097-0.113 0.151-0.152 0.051-0.038 0.096-0.069 0.097-0.068s-0.003 0.141-0.012 0.312zM19.485 16.828c0.83 0.241 1.115 0.908 0.85 1.989-0.207 0.852-0.758 1.953-1.614 3.232-0.808 1.206-1.908 2.576-2.661 3.311-0.234 0.228-0.272 0.26-0.446 0.362-0.602 0.355-1.627 0.866-2.283 1.14-0.697 0.29-1.177 0.432-1.462 0.434-0.15 0.001-0.221-0.024-0.263-0.093-0.078-0.124 0.019-0.335 0.46-0.996 0.422-0.633 0.865-1.208 1.7-2.206 0.596-0.712 0.58-0.693 0.571-0.702s-0.265 0.227-0.746 0.685c-0.699 0.666-1.050 0.99-1.434 1.318-1.009 0.859-1.825 1.334-2.49 1.447-0.093 0.016-0.184 0.029-0.203 0.029-0.035 0-0.035-0.001 0.022-0.078 0.088-0.116 0.226-0.36 0.505-0.891 0.627-1.196 0.831-1.572 1.141-2.090 0.349-0.585 0.674-1.055 0.981-1.419 0.157-0.188 0.459-0.484 0.593-0.585 0.051-0.038 0.084-0.069 0.072-0.069s-0.107 0.032-0.21 0.071c-0.457 0.174-0.818 0.277-1.013 0.291-0.131 0.010-0.185-0.004-0.221-0.057-0.046-0.071 0.021-0.199 0.256-0.491 0.375-0.469 0.85-0.91 1.772-1.646 0.222-0.177 0.4-0.324 0.393-0.327-0.006-0.001-0.11 0.044-0.232 0.104-0.24 0.116-0.374 0.165-0.515 0.184l-0.093 0.013v-0.041c0-0.057 0.057-0.209 0.121-0.324 0.328-0.582 1.068-1.18 2.062-1.662 1.019-0.493 2.2-0.784 3.877-0.955 0.306-0.031 0.327-0.029 0.509 0.022zM12.353 19.001c-0.040 0.069-0.201 0.375-0.444 0.835-0.8 1.524-1.391 2.225-2 2.375-0.085 0.021-0.138 0.024-0.309 0.015-0.371-0.018-0.672 0.059-1.419 0.363-0.774 0.315-0.958 0.38-1.106 0.384-0.069 0.003-0.090-0.003-0.116-0.029-0.106-0.104 0.082-0.449 0.612-1.125 0.084-0.107 0.15-0.197 0.147-0.201-0.003-0.003-0.060 0.029-0.127 0.072-0.275 0.177-0.699 0.352-1.065 0.443-0.628 0.154-1.096 0.093-1.096-0.144 0-0.059 0.060-0.175 0.137-0.268 0.187-0.222 0.699-0.594 0.997-0.724 0.354-0.153 0.688-0.216 1.528-0.285 0.549-0.046 0.866-0.084 1.086-0.134 0.56-0.125 1.543-0.569 2.334-1.055 0.218-0.134 0.624-0.403 0.769-0.51 0.054-0.040 0.101-0.072 0.103-0.074 0.003 0-0.010 0.028-0.031 0.062z"></path>
</svg>
