<svg version="1.1" xmlns="http://www.w3.org/2000/svg" viewBox="0 0 32 32">
<title>lun</title>
<path d="M15.433 13.911v-3.594c-0.533-0.067-1.023-0.338-1.467-0.816s-0.667-1.048-0.667-1.714c0-0.732 0.261-1.342 0.784-1.83s1.128-0.732 1.817-0.732c0.733 0 1.356 0.249 1.867 0.749s0.767 1.104 0.767 1.814c0 0.599-0.206 1.137-0.617 1.614s-0.884 0.771-1.417 0.882v3.627c0.267 0.044 0.534 0.144 0.8 0.3s0.5 0.355 0.7 0.599l11.103-6.389c0.289-0.2 0.433-0.416 0.433-0.649s-0.145-0.449-0.433-0.649l-12.004-6.855c-0.311-0.178-0.683-0.266-1.117-0.266s-0.817 0.089-1.15 0.266l-12.003 6.855c-0.289 0.2-0.433 0.416-0.433 0.649s0.144 0.449 0.433 0.649l11.070 6.389c0.178-0.244 0.411-0.444 0.7-0.599s0.567-0.255 0.834-0.3zM13.933 18.004l-3.134 1.697c0.044 0.133 0.072 0.266 0.083 0.399s0.017 0.266 0.017 0.399c0 0.71-0.256 1.315-0.767 1.814s-1.111 0.749-1.8 0.749c-0.689 0-1.29-0.255-1.801-0.765s-0.767-1.109-0.767-1.797c0-0.71 0.256-1.314 0.767-1.814s1.111-0.749 1.801-0.749c0.422 0 0.817 0.1 1.183 0.3s0.673 0.455 0.917 0.765l3.134-1.631c-0.044-0.133-0.083-0.277-0.117-0.433s-0.050-0.3-0.050-0.433c0-0.178 0.017-0.349 0.050-0.516s0.094-0.327 0.183-0.483l-10.903-6.356c-0.289-0.178-0.544-0.2-0.767-0.067s-0.334 0.366-0.334 0.699l0.033 13.445c0 0.333 0.106 0.688 0.317 1.065s0.483 0.655 0.817 0.832l11.636 6.722c0.289 0.178 0.545 0.2 0.767 0.067s0.334-0.366 0.334-0.699l-0.033-12.213c-0.334-0.067-0.628-0.189-0.884-0.366s-0.483-0.388-0.683-0.632zM29.204 9.152l-10.903 6.223c0.089 0.178 0.15 0.344 0.183 0.499s0.050 0.333 0.050 0.532c0 0.133-0.011 0.266-0.033 0.399l-0.067 0.399 3.134 1.697c0.244-0.311 0.545-0.555 0.9-0.732s0.733-0.266 1.134-0.266c0.711 0 1.317 0.25 1.817 0.749s0.75 1.093 0.75 1.78c0 0.732-0.256 1.342-0.767 1.831s-1.112 0.732-1.801 0.732-1.289-0.25-1.801-0.749c-0.511-0.499-0.767-1.104-0.767-1.814 0-0.133 0.011-0.272 0.033-0.416s0.067-0.285 0.133-0.416l-3.101-1.697c-0.178 0.266-0.411 0.488-0.7 0.665s-0.589 0.288-0.9 0.333l-0.067 12.18c0 0.355 0.111 0.599 0.334 0.732s0.489 0.111 0.8-0.067l11.636-6.722c0.289-0.178 0.545-0.455 0.767-0.832s0.334-0.743 0.334-1.098l0.067-13.412c-0.022-0.288-0.15-0.493-0.384-0.616s-0.494-0.094-0.784 0.083z"></path>
</svg>
