<svg version="1.1" xmlns="http://www.w3.org/2000/svg" viewBox="0 0 32 32">
<title>neu</title>
<path d="M31.761 14.521c-0.568-2.14-1.995-3.829-3.392-4.731s-3.61-1.368-3.61-1.368 0.030-1.034-0.334-1.922c-0.364-0.888-1.223-1.703-1.223-1.703s-1.776 0.582-2.723 2.14c-0.946 1.558-0.64 3.45-0.32 4.178s1.208 1.616 1.208 1.616c0 0 0.025 0.491-0.106 0.601s-1.627 0.786-3.865 0.939c-2.238 0.153-4.432 1.234-5.524 2.118s-2.5 2.871-2.5 2.871 0.677-1.779 2.5-3.57c1.823-1.791 3.472-2.369 4.258-4.837s0.677-4.859-0.612-6.856c-1.288-1.998-3.613-3.985-7.216-3.996s-5.885 2.304-6.54 3.111c-0.655 0.808-1.801 2.828-1.757 4.76s0.939 3.767 0.939 3.767c0 0-0.102-1.965 1.121-3.13s3.668-1.165 4.862 0.175c1.194 1.34 1.107 2.853 0.437 4.076s-3.057 2.999-4.047 6.376c-0.99 3.377-0.032 6.216 1.079 7.57s3.197 2.446 4.474 2.609c1.278 0.164 1.31 0.088 1.431-0.033s-0.175-0.502-0.306-1.004-0.185-0.873-0.185-0.873c0 0 0.611 1.911 2.282 3.090s3.559 1.507 4.771 1.507h11.464v-1.19c0-0.517-0.517-1.033-1.005-1.033s-4.832-0.008-5.080-0.008c-0.248 0-0.4-0.153-0.32-0.291s1.849-2.162 1.471-4.898c-0.378-2.737-1.878-4.262-3.697-5.27 0 0 1.529 0.408 2.926 1.834s1.732 2.518 1.892 3.334c0.16 0.815 0.117 2.242 0.248 2.285s1.208-2.242 1.237-4.178c0.029-1.936-0.699-4.629-0.64-4.658s1.499 0.83 3.217 0.946c1.718 0.116 3.115-0.277 3.115-0.277s0.64-1.936 0.073-4.076zM29.48 14.526c-0.002-0.527-0.429-0.954-0.956-0.954-0.528 0-0.956 0.428-0.956 0.956 0 0.184 0.055 0.355 0.145 0.501-0.609-0.219-1.044-0.799-1.044-1.483 0-0.87 0.706-1.576 1.576-1.576s1.576 0.706 1.576 1.576c0 0.356-0.12 0.701-0.342 0.979z"></path>
</svg>
