<svg version="1.1" xmlns="http://www.w3.org/2000/svg" viewBox="0 0 32 32">
<title>ngc</title>
<path d="M10.909 8.727l10.559-1.293-5.172-2.263s0.539-4.094-3.017-5.172l-0.323 1.293s2.155 0.539 1.939 3.987zM22.114 17.347l-3.986 0.215 3.556-9.482-10.828 1.562-0.97 10.451h2.37l-0.377 11.906 10.236-14.653zM13.71 27.744c0 0.208-0.169 0.377-0.377 0.377s-0.377-0.169-0.377-0.377v-2.801c0-0.208 0.169-0.377 0.377-0.377s0.377 0.169 0.377 0.377v2.801zM10.909 19.286l0.833-9.167c0.017-0.177 0.165-0.314 0.345-0.315h0.061c0 0 0 0 0 0 0.191 0 0.346 0.155 0.346 0.346 0 0.011-0 0.021-0.001 0.032l0-0.001-0.722 8.351h2.155l-0.099 5.082c-0.005 0.229-0.192 0.413-0.421 0.413-0 0-0 0-0 0h-0.018c-0.233-0.001-0.421-0.189-0.421-0.422 0-0.003 0-0.006 0-0.009v0l0.098-4.31h-2.155z"></path>
</svg>
