<svg version="1.1" xmlns="http://www.w3.org/2000/svg" viewBox="0 0 32 32">
<title>nmr</title>
<path d="M14.354 0.342c0.127-0.144 0.257-0.369 0.481-0.34 0.762 0.004 1.526-0.012 2.288 0.008 0.132 0.082 0.233 0.205 0.346 0.311-0.003 0.786-0.003 1.573 0 2.36-0.227 0.003-0.454 0.013-0.681-0.003-0.014-0.056-0.041-0.165-0.054-0.22 0-0.587 0.051-1.175 0.002-1.762-0.56 0.001-1.119 0.001-1.679 0-0.003 0.197-0.004 0.396-0.005 0.593-0.236 0-0.472 0-0.709-0.002 0.002-0.314-0.033-0.634 0.012-0.946zM12.454 1.302c0.258-0.010 0.515-0.010 0.774-0.004 0.004 1.088 0.008 2.175-0.003 3.262-0.246 0.005-0.492 0.005-0.737 0.004-0.082-1.083-0.016-2.175-0.034-3.262zM19.007 2.471c0.686-0.009 1.371-0.006 2.057-0.002 0.004 0.251 0.004 0.502 0.001 0.753-0.686 0.007-1.372 0.010-2.058-0.002-0.003-0.249-0.003-0.501 0.001-0.749zM14.847 2.841c0.277-0.006 0.554-0.005 0.83-0.005 0.265 0.515 0.597 0.996 0.812 1.536-0.254 0.012-0.509 0.012-0.763 0.013-0.302-0.51-0.593-1.025-0.88-1.543zM17.673 3.747c0.24-0.005 0.48-0.005 0.719-0.001 0.652 1.011 1.285 2.034 1.942 3.042-0.001 0.307 0.001 0.614-0.005 0.921-0.071-0.013-0.211-0.037-0.281-0.049-0.557-0.83-1.070-1.69-1.62-2.525-0.009 0.939 0.003 1.878-0.006 2.816-0.249 0.005-0.499 0.005-0.75 0-0.003-1.401-0.007-2.803 0.003-4.205zM20.648 4.316c0.255-0.005 0.511-0.005 0.766 0.002 0.002 0.24 0.002 0.482 0 0.722-0.255 0.006-0.511 0.006-0.765 0.002-0.002-0.241-0.002-0.483-0.001-0.726zM8.046 4.553c0.201-0.003 0.402-0.003 0.604-0.001 0.537-0.036 1.073-0.025 1.61 0.005 0.002 0.233 0.001 0.467-0.002 0.7-0.794 0.477-1.558 1.006-2.363 1.462-0.238-0.090-0.419-0.28-0.613-0.439 0.527-0.321 1.043-0.66 1.576-0.972-0.27-0.014-0.54-0.012-0.809-0.015-0.003-0.138-0.004-0.3-0.004-0.463 0-0.098 0.001-0.195 0.002-0.293l-0 0.015zM14.4 4.83c0.247-0.007 0.494-0.006 0.74 0 0.006 0.248 0.006 0.494 0.001 0.742-0.247 0.007-0.493 0.008-0.74 0.001-0.003-0.117-0.005-0.254-0.005-0.392 0-0.123 0.001-0.246 0.004-0.369l-0 0.018zM10.779 5.555c0.395 0.599 0.778 1.206 1.179 1.802 0.4-0.603 0.786-1.214 1.189-1.814 0 0.397 0.026 0.798-0.008 1.195-0.366 0.627-0.789 1.22-1.184 1.83-0.388-0.6-0.798-1.187-1.166-1.799-0.042-0.403-0.012-0.81-0.010-1.214zM21.718 5.656c1.186-0.005 2.372-0.005 3.558 0.001 0.001 0.24 0.001 0.482-0.001 0.722-1.185 0.003-2.371 0.003-3.558 0.001-0.001-0.241-0.001-0.483 0-0.724zM15.44 6.595c0.239-0.005 0.478-0.005 0.717-0.002 0.012 1.052-0.001 2.106 0.006 3.159-0.117 0.112-0.225 0.216-0.331 0.322l0.001-0.001c-0.822 0.009-1.644 0.001-2.465 0.005-0.108-0.104-0.219-0.203-0.317-0.315-0.042-0.322-0.011-0.651-0.012-0.975 0.102-0.001 0.223-0.001 0.344-0.001s0.242 0.001 0.363 0.002l-0.019-0c0.006 0.186 0.005 0.371 0.003 0.557 0.565 0.064 1.135 0.018 1.703 0.032 0.003-0.927-0.006-1.855 0.006-2.781zM26.907 9.706c-0.007-0.795-0.007-1.589 0-2.384 0.249-0.006 0.498-0.006 0.746 0 0.008 0.794 0.008 1.589-0.001 2.385-0.248 0.004-0.497 0.004-0.746-0.001zM23.365 7.922c0.469-0.004 0.941-0.077 1.408-0.002 0.306 0.997 0.568 2.009 0.872 3.008-0.24 0.002-0.482 0.002-0.722 0.002-0.229-0.775-0.425-1.558-0.662-2.332-0.132 0.002-0.264 0.004-0.396 0.005-0.197 0.78-0.433 1.549-0.636 2.326-0.242 0.001-0.484 0.001-0.726-0.001 0.298-0.999 0.578-2.003 0.863-3.006zM3.299 8.302c1.082-0.006 2.164-0.009 3.245 0.001 0.006 0.249 0.006 0.496 0.001 0.745-1.083 0.010-2.165 0.007-3.247 0.001-0.002-0.101-0.002-0.219-0.002-0.338 0-0.144 0.001-0.287 0.004-0.43l-0 0.021zM7.054 8.303c0.246-0.002 0.492-0.003 0.738-0.001 0.005 0.249 0.005 0.5 0 0.749-0.247 0.003-0.492 0.002-0.738-0.001-0.001-0.111-0.002-0.242-0.002-0.374s0.001-0.263 0.002-0.394l-0 0.020zM9.772 8.334c0.079-0.001 0.171-0.001 0.264-0.001 0.162 0 0.324 0.001 0.485 0.003l-0.025-0c0.007 0.578 0.004 1.157 0.004 1.735-0.245 0.002-0.49 0.003-0.734 0.001-0.003-0.579-0.010-1.158 0.005-1.738zM28.677 8.853c0.278-0.005 0.556-0.005 0.834-0.005 0.275 0.51 0.609 0.993 0.814 1.538-0.253 0.009-0.507 0.010-0.76 0.011-0.299-0.513-0.584-1.034-0.887-1.543zM17.731 9.471c0.241-0.002 0.481-0.002 0.722 0.001 0.005 0.792 0.002 1.584 0.002 2.376-0.242 0.002-0.483 0.003-0.726 0.003 0.001-0.793-0.001-1.586 0.002-2.38zM20.271 10.434c-0.003-0.248-0.002-0.496 0.001-0.745 0.243-0.004 0.487-0.004 0.731 0.003 0.001 0.248 0.002 0.495-0.002 0.743-0.243 0.001-0.487 0-0.73-0.001zM6.531 11.532c0.583-0.426 1.206-0.796 1.805-1.199 0.396 0.004 0.791-0.001 1.187 0.005-0.588 0.421-1.213 0.784-1.805 1.199 0.608 0.382 1.204 0.783 1.809 1.169-0.407 0.007-0.814 0.003-1.221 0.004-0.587-0.399-1.197-0.766-1.775-1.178zM26.908 10.841c0.118-0.003 0.257-0.005 0.396-0.005 0.124 0 0.248 0.001 0.372 0.004l-0.018-0c0.006 0.249 0.005 0.498-0.002 0.747-0.249 0.005-0.498 0.005-0.747-0.001-0.005-0.248-0.006-0.497-0.001-0.746zM1.298 10.943c1.246-0.007 2.493-0.010 3.741 0.002 0.003 0.236 0.003 0.472 0.004 0.709-0.557 0.365-1.114 0.732-1.687 1.070-0.242-0.088-0.425-0.289-0.632-0.436 0.308-0.195 0.622-0.383 0.921-0.592-0.782-0.004-1.564 0.005-2.347-0.005-0.004-0.249-0.003-0.499 0-0.749zM11.964 11.666c1.079 0.005 2.157-0.005 3.235 0.005 0.026 0.245 0.023 0.493-0.010 0.737-1.075 0.005-2.149 0.001-3.223 0.002-0.002-0.249-0.003-0.497-0.002-0.744zM15.904 11.671c0.097-0.002 0.211-0.004 0.325-0.004 0.159 0 0.317 0.003 0.475 0.008l-0.023-0.001c0.001 0.242 0.001 0.484-0.001 0.725-0.133 0.004-0.29 0.006-0.447 0.006-0.116 0-0.231-0.001-0.346-0.003l0.017 0c-0.001-0.114-0.002-0.249-0.002-0.384 0-0.122 0.001-0.244 0.002-0.366l-0 0.019zM19.297 12.714c-0.034-0.256 0.228-0.387 0.363-0.563 0.317 0.001 0.634-0.002 0.951 0.005 0.007 0.239 0.007 0.477 0.004 0.716-0.2 0.004-0.401 0.004-0.602 0.006v1.699c0.931 0.006 1.862-0.004 2.794 0.005 0.003 0.241 0.003 0.482-0.004 0.722-1.049 0.007-2.098 0.001-3.147 0.004-0.134-0.175-0.39-0.307-0.358-0.561-0.005-0.678-0.005-1.356-0.001-2.034zM22.828 12.488c0.257-0.009 0.515-0.009 0.773 0.001 0.003 0.246 0.002 0.492-0.001 0.737-0.258 0.009-0.514 0.009-0.772 0.001-0.001-0.11-0.002-0.24-0.002-0.37s0.001-0.26 0.002-0.389l-0 0.020zM25.282 12.488c1.085-0.015 2.169-0.005 3.255-0.005 0.002 0.25 0.002 0.502-0.001 0.752-1.084 0-2.168 0.009-3.253-0.005-0.004-0.248-0.004-0.495-0.001-0.742zM10.25 13.354c0.608-0.001 1.215 0 1.823-0.001 0.005 0.253 0.005 0.505-0.001 0.758-0.607 0.001-1.214 0.001-1.821 0-0.011-0.253-0.011-0.506-0.002-0.757zM14.26 13.354c0.954-0.001 1.908 0.001 2.862-0.002 0.347-0.054 0.694 0.306 0.65 0.648-0.002 0.701-0.002 1.403-0.001 2.105-0.122 0.132-0.245 0.262-0.368 0.393-0.316 0-0.631 0.001-0.947-0.004-0.003-0.241-0.003-0.481-0.001-0.721 0.197-0.003 0.395-0.005 0.593-0.007 0.001-0.552-0.001-1.104 0.002-1.656-0.927-0.083-1.861-0.014-2.79-0.038-0.002-0.239-0.002-0.479 0-0.718zM7.536 13.576c0.466-0.003 0.931-0.005 1.397 0.002 0.282 1.008 0.585 2.010 0.852 3.022-0.235 0-0.469 0-0.703 0.002-0.239-0.778-0.424-1.569-0.671-2.343-0.133 0.008-0.266 0.018-0.399 0.028-0.177 0.779-0.429 1.538-0.622 2.314-0.241-0.001-0.483-0.001-0.722-0.003 0.287-1.007 0.573-2.016 0.867-3.022zM27.871 14.486c0.812-0.008 1.626-0.016 2.437 0.003 0.205 0.126 0.436 0.331 0.391 0.601 0 0.578-0.004 1.157 0 1.735-0.007 0.278 0.005 0.555-0.003 0.833 0.013 0.227-0.049 0.45-0.036 0.677-0.231-0.001-0.463 0-0.694-0.003 0.003-1.043 0-2.087 0.002-3.131-0.567-0.015-1.134-0.004-1.701-0.008-0.001 0.194-0.001 0.388-0.005 0.582-0.238 0.004-0.477 0.005-0.716 0.004-0.005-0.32-0.004-0.64-0.003-0.96 0.107-0.107 0.213-0.216 0.319-0.326l0.008-0.008zM4.753 14.515h0.755c0.002 0.793 0 1.585 0.001 2.377h-0.758c0.004-0.792 0.001-1.585 0.003-2.377zM2.385 15.178c0.248-0.004 0.495 0.004 0.742 0.020 0.003 0.235 0.003 0.47 0 0.705-0.249 0.003-0.499 0.004-0.748-0.001-0.003-0.242-0.002-0.483 0.006-0.725zM11.252 19.523c-0.006-1.402-0.007-2.804-0.001-4.206 0.095-0.002 0.207-0.003 0.319-0.003 0.147 0 0.294 0.002 0.44 0.005l-0.022-0c0.578 0.931 1.173 1.853 1.763 2.777 0.255 0.329 0.102 0.769 0.143 1.152-0.086 0.001-0.171 0.002-0.256 0.004-0.531-0.843-1.085-1.671-1.593-2.527-0.092 0.93-0.016 1.869-0.046 2.803-0.25 0.003-0.499 0.003-0.748-0.004zM14.53 15.856c0.25-0.005 0.501-0.006 0.751-0.002 0.004 0.613 0.003 1.225 0.001 1.838-0.251 0.005-0.502 0.004-0.753-0.002-0.004-0.612-0.005-1.223 0.001-1.834zM19.068 16.676c0.245-0.002 0.491-0.003 0.737 0 0.002 0.111 0.003 0.243 0.003 0.374s-0.001 0.263-0.004 0.394l0-0.020c-0.246 0.001-0.491 0.001-0.737-0.001-0.003-0.248-0.003-0.498 0-0.747zM21.456 16.708c0.763-0.010 1.526-0.005 2.29-0.003 0.031 0.223 0.050 0.45 0.028 0.676-0.072 0.147-0.245 0.088-0.374 0.102-0.65-0.019-1.302 0.037-1.947-0.036-0.005-0.247-0.005-0.493 0.004-0.739zM24.534 16.814c0.246-0.004 0.494-0.020 0.739 0.018 0.024 0.861 0.010 1.725 0.005 2.587-0.248 0.005-0.497 0.004-0.745-0.001-0.004-0.387-0.006-0.844-0.006-1.302s0.002-0.915 0.007-1.372l-0.001 0.070zM17.731 17.324c0.241-0.002 0.481-0.001 0.722 0.001 0.003 0.248 0.004 0.496 0 0.746-0.241 0.004-0.481 0.004-0.722 0-0.002-0.248-0.002-0.498 0-0.747zM6.157 17.854c0.857-0.093 1.723-0.019 2.584-0.046 0.222-0.003 0.444 0.007 0.665 0.030 0.004 0.25 0.003 0.502 0.001 0.752-1.083-0.002-2.164 0.005-3.245-0.004-0.006-0.244-0.006-0.488-0.005-0.732zM1.299 18.407c0.118-0.115 0.236-0.23 0.354-0.345 0.313-0.002 0.626-0.003 0.939 0.004 0.004 0.237 0.004 0.474 0.002 0.711-0.195 0.005-0.389 0.005-0.583 0.007 0.005 0.564-0.003 1.129 0.005 1.693 0.922 0.003 1.844-0.006 2.767 0.005 0.005 0.233 0.005 0.465 0.003 0.698-0.229 0.001-0.458 0.002-0.686 0.002-0.818-0.008-1.638 0.014-2.456-0.010-0.136-0.078-0.274-0.205-0.336-0.35-0.022-0.805-0.003-1.61-0.007-2.415zM20.43 18.876c0.123-0.116 0.247-0.231 0.373-0.344 0.797 0.006 1.595 0.001 2.392 0.003 0.12 0.115 0.24 0.23 0.361 0.344 0.001 0.789 0.001 1.578 0.001 2.367-0.057 0.001-0.125 0.001-0.192 0.001-0.188 0-0.376-0.003-0.564-0.008l0.028 0.001c-0.001-0.664-0.005-1.326 0.003-1.99-0.56-0.001-1.117 0-1.675-0.001 0.001 0.202 0 0.404-0.005 0.606-0.239 0.004-0.479 0.004-0.717 0.003-0.008-0.327-0.006-0.654-0.005-0.981zM25.55 20.27c0.885-0.576 1.778-1.137 2.67-1.701 0.213 0.142 0.422 0.291 0.63 0.441-0.642 0.409-1.283 0.817-1.924 1.224 0.942 0.010 1.884-0.001 2.828 0.005 0.002 0.25 0.002 0.502-0.001 0.752-1.4 0.005-2.8 0.005-4.2 0.001-0.002-0.133-0.003-0.289-0.003-0.446 0-0.097 0-0.194 0.001-0.291l-0 0.015zM15.539 20.413c0.888-0.591 1.803-1.139 2.691-1.73 0.211 0.146 0.42 0.294 0.634 0.434-0.614 0.431-1.265 0.807-1.891 1.223 0.937 0.016 1.873-0.002 2.81 0.010 0.006 0.258 0.006 0.516-0.001 0.774-1.402 0.008-2.804 0.003-4.206 0.003-0.036-0.236-0.036-0.476-0.038-0.714zM6.324 19.775c0.39 0.596 0.78 1.191 1.165 1.789 0.413-0.59 0.783-1.209 1.193-1.803 0.008 0.402 0.002 0.804 0.005 1.205-0.408 0.597-0.781 1.218-1.2 1.807-0.388-0.592-0.764-1.191-1.168-1.772-0.004-0.409-0.008-0.818 0.005-1.226zM10.594 21.304c-0.009-0.255-0.010-0.51 0.005-0.764 0.245-0.003 0.492-0.002 0.737 0.018 0.005 0.248 0.005 0.497-0.001 0.746-0.246 0.002-0.493 0.003-0.74 0zM14.065 21.672c0.249-0.003 0.498-0.004 0.746-0.001 0.006 0.926 0 1.852 0.004 2.777-0.177 0.007-0.353 0.015-0.53 0.032-0.057-0.011-0.169-0.031-0.226-0.041 0.006-0.922-0.005-1.845 0.006-2.767zM19.208 22.252c0.469-0.009 0.938-0.003 1.406-0.005 0.288 1.008 0.576 2.016 0.864 3.023-0.242 0.001-0.484 0.001-0.726-0.005-0.206-0.77-0.429-1.536-0.638-2.305-0.131-0.008-0.262-0.014-0.393-0.020-0.216 0.777-0.432 1.554-0.648 2.331-0.242-0.001-0.483-0.001-0.725-0.004 0.295-1.003 0.588-2.006 0.859-3.015zM8.579 23.922c0.893-0.574 1.784-1.151 2.69-1.705 0.209 0.147 0.419 0.289 0.625 0.439-0.648 0.403-1.284 0.828-1.938 1.22 0.949 0.018 1.898-0.003 2.848 0.011 0.005 0.249 0.005 0.499-0.002 0.748-1.406 0.005-2.813 0.011-4.219-0.003-0.007-0.237-0.006-0.474-0.003-0.71zM15.956 22.4c0.018 0 0.039 0 0.061 0 0.254 0 0.505-0.017 0.75-0.051l-0.028 0.003c0.307 0.505 0.669 1.007 0.827 1.582-0.245 0.002-0.49 0.002-0.734 0.004-0.603-1.11-0.893-1.613-1.187-2.113l0.312 0.575zM26.295 22.708c0.256-0.008 0.513-0.008 0.769-0.003 0.001 0.245 0.001 0.49 0 0.736-0.257 0.006-0.512 0.006-0.768-0.005-0.002-0.117-0.003-0.254-0.003-0.392 0-0.118 0.001-0.237 0.003-0.355l-0 0.018zM24.409 24.667c0.31-0.498 0.641-0.981 0.952-1.478 0.009 0.369 0.015 0.738 0.005 1.108 0.009 0.139-0.092 0.246-0.157 0.358-0.343 0.507-0.672 1.024-1.009 1.534-0.405-0.604-0.797-1.215-1.198-1.823-0.002-0.404-0.005-0.808 0.005-1.212 0.393 0.589 0.765 1.193 1.167 1.777 0.114-0.048 0.165-0.17 0.234-0.264zM5.358 23.951c0.656-0.022 1.314-0.011 1.971-0.006 0.004 0.243 0.019 0.487-0.012 0.73-0.652 0.032-1.306 0.016-1.958 0.005-0.001-0.122-0.002-0.266-0.002-0.41 0-0.112 0-0.224 0.001-0.336l-0 0.017zM13.36 25.538c1.052-0.015 2.104-0.001 3.156-0.008 0.12 0.12 0.241 0.241 0.361 0.363-0.005 0.804-0.003 1.609-0.002 2.414-0.097 0.101-0.199 0.209-0.3 0.319l-0.013 0.015c-0.337 0.007-0.674 0.008-1.011-0.002 0.005-0.228-0.025-0.46 0.030-0.683 0.19-0.020 0.382-0.013 0.574-0.015 0.002-0.563 0-1.126 0.001-1.689-0.932-0.005-1.865 0.012-2.796-0.009-0.003-0.236-0.002-0.471 0.001-0.707zM8.304 25.805c0.246-0.004 0.492-0.003 0.738 0.002 0.004 0.246 0.004 0.492 0.001 0.739-0.248 0.004-0.494 0.004-0.74 0.001-0.003-0.248-0.003-0.495 0.001-0.742zM21.324 26.203c0.279-0.235 0.532 0.157 0.77 0.271 0 0.022 0.001 0.066 0.001 0.088-0.623 0.401-1.26 0.781-1.869 1.203l0.353-0.003c0.188 0 0.376 0.002 0.564 0.006 0.002 0.246 0.002 0.492-0.002 0.738-0.767 0.011-1.533 0.008-2.3 0.002-0.015-0.232-0.018-0.465-0.020-0.696 0.818-0.561 1.672-1.066 2.501-1.61zM9.687 26.886c0.995-0.004 1.991-0.009 2.986 0.003 0.002 0.245 0.002 0.49 0 0.736-0.996 0.015-1.991 0.008-2.987 0.004-0.005-0.248-0.004-0.495 0.001-0.742zM12.339 28.776c0.28-0.003 0.561-0.004 0.841 0.002 0.259 0.516 0.604 0.991 0.804 1.537-0.251 0.014-0.502 0.014-0.753 0.015-0.307-0.512-0.594-1.037-0.892-1.554zM17.309 29.561c0.245-0.002 0.49 0.002 0.734 0.018 0.005 0.245 0.003 0.491-0.028 0.735-0.234 0.001-0.467 0.001-0.7 0-0.009-0.252-0.009-0.502-0.005-0.753zM15.602 31.997c0.001-0.572-0.013-1.144 0.009-1.716 0.247 0.001 0.494 0.014 0.74 0.036 0.003 0.56 0.003 1.12 0 1.68-0.107 0.002-0.233 0.003-0.359 0.003-0.137 0-0.274-0.001-0.41-0.004l0.021 0z"></path>
</svg>
