<svg version="1.1" xmlns="http://www.w3.org/2000/svg" viewBox="0 0 32 32">
<title>pax</title>
<path d="M30.688 13.164c1.426 2.086 1.817 4.542 0.536 7.138-0.831 1.685-1.961 2.181-3.455 2.837-1.023 0.449-2.218 0.974-3.604 2.006-1.766 1.206-2.927 2.294-3.891 3.196-1.763 1.65-2.863 2.679-5.786 2.679-1.95 0-4.911-1.245-7.090-3.929-2.002-0.084-3.872-0.67-5.438-1.936-3.109-2.962-1.899-6.183-0.591-9.662 0.319-0.849 0.644-1.713 0.913-2.592 0.302-0.987 0.466-2.002 0.625-2.992 0.436-2.707 0.841-5.227 3.968-6.459 1.155-0.455 2.469-0.588 3.86-0.471 1.493-1.429 3.258-2.207 5.109-1.951 1.677 0.232 2.209 0.586 3.019 1.123 0.701 0.465 1.609 1.067 3.645 1.848 1.709 0.526 3.153 0.726 4.338 0.89 1.71 0.237 2.881 0.399 3.531 1.358 1.309 1.93 1.224 4.384 0.312 6.917zM23.51 16c0-3.844-2.378-8.49-7.371-8.49-4.64 0-8.956 3.801-8.956 8.49s3.603 8.49 8.242 8.49c4.64 0 8.084-3.364 8.084-8.49z"></path>
</svg>
