<svg version="1.1" xmlns="http://www.w3.org/2000/svg" viewBox="0 0 32 32">
<title>pay</title>
<path d="M31.9 16.468c-0.022 0.067-0.050 0.117-0.083 0.15s-0.083 0.061-0.15 0.083l-8.467 9.351-7.2-7.748-7.2 7.748-8.467-9.351c-0.067-0.022-0.117-0.056-0.15-0.1-0.032-0.042-0.060-0.087-0.083-0.134-0.022-0.067-0.044-0.139-0.067-0.217s-0.033-0.161-0.033-0.25 0.011-0.172 0.033-0.25c0.022-0.078 0.044-0.151 0.067-0.217s0.050-0.117 0.083-0.15c0.033-0.033 0.083-0.061 0.15-0.083l8.467-9.284 7.2 7.748 7.2-7.815 8.467 9.318c0.067 0.022 0.117 0.056 0.15 0.1s0.061 0.078 0.083 0.1c0.044 0.089 0.072 0.167 0.083 0.234s0.017 0.145 0.017 0.234c0 0.111-0.011 0.211-0.033 0.3s-0.044 0.167-0.067 0.234zM8.867 10.489l-4.4 4.809-0.2 0.234c-0.045 0.067-0.083 0.139-0.117 0.217s-0.050 0.161-0.050 0.25 0.017 0.172 0.050 0.25c0.033 0.078 0.072 0.151 0.117 0.217l0.2 0.234 4.4 4.809 5.066-5.511zM27.733 15.532l-0.2-0.234-4.4-4.809-5.066 5.511 5.066 5.444 4.4-4.809 0.2-0.2c0.041-0.082 0.080-0.166 0.117-0.251 0.033-0.078 0.050-0.161 0.050-0.25-0.022-0.044-0.044-0.106-0.066-0.184s-0.056-0.151-0.1-0.217z"></path>
</svg>
