<svg version="1.1" xmlns="http://www.w3.org/2000/svg" viewBox="0 0 32 32">
<title>qrk</title>
<path d="M16.002 0c-8.838 0-16.002 7.162-16.002 15.998s7.163 16.002 16.002 16.002c8.834 0 15.998-7.166 15.998-16.002s-7.164-15.998-15.998-15.998zM16.002 29.781c-7.613 0-13.782-6.173-13.782-13.783s6.17-13.779 13.782-13.779c7.609 0 13.78 6.169 13.78 13.779s-6.171 13.783-13.78 13.783z"></path>
<path d="M25.906 10.28c-1.146-1.987-3.687-2.668-5.676-1.521-0.451 0.261-0.831 0.596-1.142 0.978-0-0.001-0.001-0.001-0.002-0.001-0.681 0.974-1.809 1.613-3.086 1.613-1.279 0-2.407-0.639-3.087-1.613-0.001 0-0.003 0.001-0.004 0.002-0.31-0.382-0.69-0.717-1.142-0.977-1.987-1.147-4.528-0.467-5.675 1.521-1.147 1.986-0.466 4.527 1.521 5.675 0.427 0.246 0.88 0.401 1.339 0.484 1.213 0.081 2.363 0.747 3.014 1.879 0.638 1.109 0.646 2.407 0.14 3.484 0.004 0.003 0.008 0.007 0.012 0.009-0.174 0.458-0.274 0.954-0.274 1.473 0 2.294 1.86 4.155 4.155 4.155s4.154-1.86 4.154-4.155c0-0.493-0.092-0.963-0.25-1.403-0.535-1.091-0.535-2.42 0.121-3.549 0.64-1.105 1.757-1.76 2.94-1.862 0.001-0.005 0.002-0.010 0.003-0.016 0.486-0.078 0.966-0.239 1.419-0.5 1.986-1.148 2.667-3.689 1.521-5.675zM16.001 19.089c-1.707 0-3.089-1.383-3.089-3.089s1.383-3.088 3.089-3.088c1.705 0 3.089 1.383 3.089 3.088s-1.384 3.089-3.089 3.089z"></path>
</svg>
