<svg version="1.1" xmlns="http://www.w3.org/2000/svg" viewBox="0 0 32 32">
<title>qtum</title>
<path d="M30.355 26.111c0.446 0 0.832 0.158 1.157 0.472s0.488 0.703 0.488 1.166c0 0.445-0.162 0.829-0.488 1.153s-0.711 0.486-1.157 0.486c-0.464 0-0.855-0.162-1.17-0.486s-0.474-0.708-0.474-1.153c0-0.148 0.018-0.296 0.056-0.444s0.093-0.278 0.167-0.389l-2.871-2.472-5.881 4.222c0.037 0.074 0.060 0.144 0.069 0.208s0.014 0.134 0.014 0.208c0 0.315-0.111 0.583-0.335 0.805s-0.483 0.333-0.781 0.333c-0.279 0-0.52-0.079-0.725-0.236s-0.335-0.366-0.39-0.625h-6.244c-0.056 0.259-0.186 0.468-0.39 0.625s-0.437 0.236-0.697 0.236c-0.316 0-0.586-0.111-0.808-0.333s-0.335-0.491-0.335-0.805c0-0.074 0.009-0.144 0.028-0.208s0.037-0.135 0.056-0.208l-5.157-3.695c-0.097 0.077-0.205 0.137-0.32 0.181-0.121 0.046-0.255 0.069-0.404 0.069-0.316 0-0.586-0.111-0.808-0.333s-0.335-0.491-0.335-0.805c0-0.204 0.051-0.389 0.153-0.556 0.098-0.163 0.238-0.297 0.404-0.389l-1.979-6.028h-0.056c-0.316 0-0.586-0.111-0.808-0.333s-0.335-0.49-0.335-0.806c0-0.315 0.111-0.583 0.335-0.806s0.492-0.333 0.808-0.333h0.084l1.951-5.972h-0.028c-0.149-0.093-0.274-0.222-0.376-0.389s-0.153-0.352-0.153-0.556c0-0.315 0.111-0.583 0.335-0.806s0.493-0.333 0.808-0.333c0.149 0 0.284 0.023 0.404 0.070s0.228 0.115 0.321 0.208l5.157-3.722c-0.018-0.055-0.037-0.12-0.056-0.195-0.018-0.072-0.028-0.147-0.028-0.222 0-0.315 0.111-0.583 0.335-0.805s0.492-0.333 0.808-0.333c0.26 0 0.493 0.084 0.697 0.25s0.335 0.37 0.39 0.611h6.244c0.056-0.259 0.186-0.468 0.39-0.625s0.446-0.236 0.725-0.236c0.297 0 0.557 0.111 0.781 0.333s0.335 0.491 0.335 0.805c0 0.074-0.005 0.148-0.014 0.222-0.008 0.069-0.031 0.136-0.070 0.195l5.157 3.722c0.094-0.093 0.209-0.165 0.335-0.208 0.125-0.046 0.257-0.069 0.39-0.070 0.316 0 0.586 0.111 0.808 0.333s0.335 0.491 0.335 0.806c0 0.204-0.051 0.389-0.153 0.556s-0.227 0.297-0.376 0.389l1.951 6h0.084c0.297 0 0.558 0.111 0.781 0.333s0.335 0.49 0.335 0.806-0.111 0.583-0.335 0.805c-0.223 0.222-0.483 0.333-0.781 0.333h-0.084l-2.23 6.861 2.899 2.5c0.143-0.126 0.308-0.225 0.488-0.292 0.177-0.065 0.367-0.097 0.571-0.097zM26.258 9.361l-0.362 5.528c0.186 0.074 0.348 0.181 0.488 0.319s0.227 0.31 0.264 0.514h0.948c0.037-0.148 0.097-0.278 0.181-0.389s0.191-0.204 0.32-0.278l-1.84-5.694zM25.728 9l-0.028-0.027c-0.093-0.018-0.186-0.065-0.279-0.139-0.088-0.069-0.171-0.143-0.251-0.222l-1.896 0.806c0 0.037 0.005 0.074 0.014 0.111s0.014 0.065 0.014 0.083c0.001 0.164-0.038 0.326-0.111 0.472-0.074 0.148-0.167 0.269-0.279 0.361l2.342 4.444c0.018-0.018 0.033-0.028 0.042-0.028h0.042l0.39-5.861zM19.345 14.889l2.091-4.417c-0.11-0.090-0.204-0.199-0.279-0.319-0.075-0.123-0.123-0.26-0.139-0.403l-5.045-0.639c-0.037 0.074-0.079 0.144-0.126 0.208s-0.098 0.125-0.153 0.181l3.122 5.417c0.056-0.018 0.112-0.033 0.167-0.042s0.111-0.014 0.167-0.014c0.037 0 0.075 0.005 0.111 0.014s0.065 0.014 0.084 0.014zM21.937 10.722l-2.063 4.417c0.091 0.072 0.167 0.162 0.223 0.264s0.102 0.208 0.139 0.319h4.209c0.018-0.111 0.056-0.218 0.111-0.319s0.132-0.192 0.223-0.264l-2.342-4.444c-0.056 0.018-0.107 0.033-0.153 0.042s-0.088 0.014-0.126 0.014c-0.038 0-0.075-0.005-0.111-0.014s-0.074-0.014-0.111-0.014zM18.341 15.194l-3.122-5.417c-0.056 0-0.107 0.005-0.153 0.014-0.051 0.010-0.102 0.014-0.153 0.014-0.056 0-0.107-0.004-0.153-0.014-0.041-0.009-0.083-0.013-0.126-0.014l-3.15 5.417c0.075 0.074 0.139 0.153 0.195 0.236s0.093 0.181 0.112 0.292h6.244c0.037-0.111 0.079-0.208 0.126-0.292 0.049-0.087 0.11-0.166 0.181-0.236zM11.010 14.917l3.122-5.417c-0.056-0.056-0.107-0.116-0.153-0.181-0.051-0.073-0.093-0.153-0.125-0.236l-5.046 0.667c-0.017 0.143-0.064 0.28-0.139 0.403-0.075 0.121-0.169 0.229-0.279 0.319l2.091 4.417c0.037 0 0.075-0.005 0.111-0.014s0.075-0.014 0.112-0.014c0.056 0 0.107 0.005 0.153 0.014 0.052 0.011 0.103 0.025 0.153 0.042zM9.979 15.139l-2.063-4.417c-0.037 0-0.074 0.005-0.111 0.014s-0.074 0.014-0.112 0.014c-0.056 0-0.107-0.005-0.153-0.014-0.042-0.009-0.084-0.013-0.126-0.014l-2.342 4.444c0.089 0.069 0.164 0.154 0.223 0.25 0.056 0.093 0.102 0.195 0.139 0.306h4.181c0.018-0.13 0.060-0.241 0.126-0.333 0.067-0.094 0.146-0.178 0.237-0.25zM5.436 16.278c-0.035 0.107-0.082 0.209-0.139 0.306-0.059 0.096-0.135 0.18-0.223 0.25l2.342 4.472c0.039-0.019 0.082-0.029 0.126-0.028h0.348l2.091-4.417c-0.090-0.072-0.17-0.156-0.237-0.25-0.065-0.093-0.116-0.204-0.153-0.333zM10.481 17.111l-2.091 4.417c0.11 0.090 0.204 0.199 0.279 0.319s0.121 0.255 0.139 0.403l5.046 0.639c0.037-0.074 0.079-0.148 0.125-0.222 0.044-0.071 0.095-0.136 0.153-0.195l-3.122-5.389c-0.037 0.018-0.084 0.032-0.14 0.041s-0.111 0.014-0.167 0.014c-0.037 0-0.075-0.005-0.112-0.014-0.036-0.009-0.074-0.014-0.111-0.014zM11.484 16.805l3.122 5.389v0.028c0.056-0.018 0.107-0.032 0.153-0.042 0.051-0.010 0.102-0.014 0.153-0.014 0.056 0 0.111 0.005 0.167 0.014s0.102 0.014 0.14 0.014l3.122-5.389c-0.073-0.072-0.138-0.152-0.195-0.237-0.056-0.083-0.093-0.18-0.112-0.292h-6.244c-0.018 0.111-0.056 0.208-0.111 0.292s-0.121 0.162-0.195 0.236zM19.345 17.112c-0.028 0.002-0.056 0.006-0.084 0.013-0.046 0.010-0.093 0.015-0.14 0.014-0.056 0-0.107-0.005-0.153-0.014-0.052-0.011-0.103-0.025-0.153-0.042l-3.094 5.389c0.056 0.056 0.102 0.12 0.139 0.195l0.112 0.222 5.073-0.639c0.018-0.148 0.060-0.282 0.126-0.403 0.067-0.123 0.157-0.231 0.265-0.319zM19.847 16.861l2.091 4.417h0.349c0.046 0 0.088 0.009 0.125 0.028l2.397-4.5c-0.091-0.055-0.168-0.131-0.223-0.222-0.058-0.097-0.104-0.199-0.139-0.306h-4.209c-0.037 0.13-0.088 0.241-0.153 0.333-0.067 0.094-0.146 0.178-0.237 0.25zM24.947 8.084c-0.001-0.024-0.006-0.047-0.013-0.070-0.010-0.031-0.014-0.064-0.014-0.097 0-0.075 0.010-0.149 0.028-0.222 0.019-0.074 0.037-0.139 0.056-0.195l-5.129-3.722c-0.018 0-0.028 0.005-0.028 0.014v0.014l2.114 4.684c0.028-0.011 0.058-0.017 0.088-0.017h0.111c0.186 0 0.353 0.042 0.502 0.125 0.148 0.083 0.28 0.191 0.39 0.319zM18.704 3.972l-2.899 4c0.056 0.074 0.107 0.157 0.153 0.25s0.070 0.195 0.070 0.306l5.073 0.667c0.037-0.093 0.084-0.181 0.139-0.264 0.058-0.085 0.134-0.156 0.223-0.208l-2.118-4.694c-0.037 0-0.075 0.005-0.112 0.014-0.036 0.009-0.074 0.014-0.111 0.014-0.071 0-0.141-0.009-0.209-0.028-0.065-0.018-0.135-0.037-0.209-0.055zM11.791 3.194c-0.018 0.093-0.046 0.171-0.084 0.236s-0.084 0.134-0.139 0.208l2.927 3.972v0.027c0.056-0.037 0.121-0.060 0.195-0.069s0.149-0.014 0.223-0.014 0.144 0.005 0.209 0.014c0.062 0.008 0.122 0.022 0.181 0.042l2.955-3.972c-0.053-0.070-0.1-0.144-0.139-0.222-0.036-0.071-0.064-0.145-0.084-0.222zM10.704 4.055c-0.037 0-0.075-0.005-0.112-0.014-0.027-0.008-0.055-0.013-0.084-0.014l-2.118 4.694c0.075 0.056 0.14 0.125 0.195 0.208s0.102 0.171 0.139 0.264l5.073-0.667c0.017-0.104 0.045-0.207 0.084-0.306 0.038-0.094 0.095-0.179 0.167-0.25l-2.927-4c-0.056 0.018-0.121 0.037-0.195 0.055-0.073 0.018-0.148 0.028-0.223 0.028zM9.979 3.778l-5.157 3.722c0.019 0.056 0.037 0.116 0.056 0.181s0.028 0.135 0.028 0.208v0.111c0 0.037-0.009 0.065-0.028 0.083l1.923 0.833c0.093-0.129 0.218-0.236 0.377-0.319s0.336-0.127 0.515-0.125h0.098c0.028 0 0.060 0.009 0.098 0.028l2.118-4.694c-0.018 0-0.028-0.005-0.028-0.014zM4.655 8.611c-0.056 0.074-0.13 0.144-0.223 0.208-0.094 0.065-0.197 0.117-0.307 0.153l0.418 5.917h0.056l2.341-4.444c-0.129-0.091-0.23-0.216-0.293-0.361-0.065-0.148-0.098-0.296-0.098-0.444v-0.111c0-0.037 0.009-0.074 0.028-0.111zM3.596 22.639l0.39-5.556h-0.028c-0.169-0.075-0.32-0.184-0.446-0.319-0.129-0.138-0.225-0.305-0.279-0.486h-1.003c-0.037 0.148-0.097 0.278-0.181 0.389s-0.19 0.204-0.32 0.278l1.867 5.694zM3.233 15.722c0.054-0.182 0.149-0.348 0.279-0.486s0.288-0.245 0.474-0.319l-0.39-5.556-1.84 5.667c0.112 0.074 0.214 0.171 0.307 0.292 0.091 0.116 0.149 0.256 0.167 0.403h1.004zM4.125 23.028c0.112 0.037 0.209 0.084 0.293 0.139s0.162 0.129 0.237 0.222l1.923-0.805c-0.018-0.037-0.028-0.069-0.028-0.097v-0.097c-0.001-0.162 0.033-0.323 0.098-0.472 0.063-0.145 0.164-0.27 0.293-0.361l-2.341-4.444h-0.056zM4.888 23.912c0.012 0.029 0.017 0.059 0.017 0.088v0.111c0 0.075-0.009 0.149-0.028 0.222-0.018 0.074-0.037 0.139-0.056 0.195l5.157 3.694 0.027-0.028-2.118-4.694c-0.037 0.018-0.074 0.028-0.112 0.028h-0.111c-0.186 0-0.353-0.042-0.502-0.125s-0.28-0.191-0.39-0.319zM10.508 27.972c0.028-0.002 0.056-0.006 0.084-0.013 0.037-0.009 0.075-0.014 0.111-0.014 0.075 0 0.149 0.009 0.223 0.028s0.139 0.037 0.195 0.055l2.425-3.333 0.502-0.667c-0.074-0.093-0.13-0.185-0.167-0.278-0.039-0.098-0.067-0.201-0.084-0.306l-5.073-0.639c-0.037 0.093-0.084 0.181-0.14 0.264-0.052 0.080-0.119 0.15-0.195 0.208zM15.338 24.344c-0.068 0.031-0.135 0.051-0.203 0.059-0.148 0.018-0.298 0.018-0.446 0-0.069-0.008-0.136-0.031-0.195-0.069l-2.927 4.028c0.059 0.060 0.106 0.131 0.14 0.208 0.037 0.083 0.065 0.162 0.084 0.236h6.244c0.018-0.074 0.047-0.148 0.084-0.222s0.084-0.148 0.14-0.222zM19.345 27.972l0.056-0.167 2.035-4.528c-0.071-0.069-0.136-0.144-0.195-0.222-0.057-0.077-0.104-0.161-0.139-0.25l-5.073 0.639c0 0.111-0.023 0.213-0.069 0.306-0.051 0.099-0.111 0.192-0.181 0.278l2.927 4c0.074-0.018 0.144-0.037 0.209-0.055s0.135-0.028 0.209-0.028c0.037 0 0.074 0.005 0.111 0.014s0.075 0.014 0.111 0.014zM19.875 28.222l5.63-4.083-2.453-1.056v0.028c-0.108 0.127-0.241 0.231-0.39 0.305s-0.316 0.111-0.502 0.111h-0.111c-0.037 0-0.065-0.009-0.084-0.028l-2.063 4.556-0.056 0.139v0.028zM23.275 22.584l2.481 1.083-0.418-6.584h-0.056l-2.369 4.472c0.111 0.111 0.204 0.236 0.279 0.375s0.111 0.292 0.111 0.458c0 0.037-0.005 0.069-0.014 0.097-0.010 0.031-0.014 0.064-0.014 0.097zM25.895 17.055l0.362 5.583 1.84-5.694c-0.125-0.069-0.234-0.164-0.321-0.278-0.084-0.111-0.144-0.241-0.181-0.389h-0.976c-0.037 0.185-0.121 0.343-0.251 0.472s-0.288 0.232-0.474 0.306z"></path>
</svg>
