<svg version="1.1" xmlns="http://www.w3.org/2000/svg" viewBox="0 0 32 32">
<title>rads</title>
<path d="M24.693 14.614c4.035 0 7.307-3.271 7.307-7.307s-3.271-7.307-7.307-7.307-7.307 3.271-7.307 7.307c0 5.566-4.512 10.079-10.079 10.079-4.036 0-7.307 3.272-7.307 7.307s3.271 7.307 7.307 7.307c4.036 0 7.307-3.271 7.307-7.307 0-5.566 4.513-10.079 10.079-10.079zM24.693 5.104c1.217 0 2.203 0.986 2.203 2.203s-0.986 2.203-2.203 2.203c-1.217 0-2.203-0.986-2.203-2.203s0.986-2.203 2.203-2.203zM7.307 26.896c-1.217 0-2.203-0.986-2.203-2.203s0.986-2.203 2.203-2.203c1.217 0 2.203 0.986 2.203 2.203s-0.986 2.203-2.203 2.203z"></path>
<path d="M24.693 17.386c-4.035 0-7.307 3.271-7.307 7.307s3.271 7.307 7.307 7.307c4.036 0 7.307-3.271 7.307-7.307s-3.271-7.307-7.307-7.307zM24.693 26.896c-1.217 0-2.203-0.986-2.203-2.203s0.986-2.203 2.203-2.203c1.217 0 2.203 0.986 2.203 2.203s-0.986 2.203-2.203 2.203zM7.307 14.614c4.036 0 7.307-3.271 7.307-7.307s-3.271-7.307-7.307-7.307c-4.035 0-7.307 3.271-7.307 7.307s3.271 7.307 7.307 7.307zM7.307 5.104c1.217 0 2.203 0.986 2.203 2.203s-0.986 2.203-2.203 2.203c-1.217 0-2.203-0.986-2.203-2.203s0.986-2.203 2.203-2.203z"></path>
</svg>
