<svg version="1.1" xmlns="http://www.w3.org/2000/svg" viewBox="0 0 32 32">
<title>rep</title>
<path d="M28.97 23.179l-12.275-21.998c0.186-0.334 0.108-0.754-0.187-0.999s-0.721-0.244-1.016 0c-0.294 0.244-0.373 0.664-0.187 0.999l-12.275 21.998c-0.207 0.371-0.086 0.839 0.274 1.063l12.275 7.637c0.258 0.16 0.583 0.16 0.841 0l12.275-7.637c0.36-0.224 0.481-0.692 0.274-1.063zM19.784 16.792c0.273 0.414 0.453 1.187 0.613 1.868 0.155 0.661 0.301 1.285 0.555 1.747 0.552 1.003 1.385 1.497 1.479 1.55 0.025 0.014 0.051 0.027 0.077 0.039l3.923 1.781-9.473 5.894v-3.364c0-0.014-0.001-0.033-0.001-0.047-0.012-0.269 0.048-0.629 0.104-0.711 0.097-0.087 0.476-0.322 0.78-0.511 0.881-0.547 2.089-1.298 2.851-2.165 0.113-0.128 0.212-0.264 0.311-0.4-0.376-0.336-0.814-0.816-1.164-1.453-0.030-0.056-0.053-0.117-0.081-0.174-0.132 0.279-0.295 0.533-0.5 0.766-0.575 0.655-1.644 1.319-2.424 1.803-0.478 0.297-0.824 0.512-1.046 0.711-0.752 0.674-0.752 1.895-0.739 2.202v3.344l-9.477-5.897 3.048-1.383c0.010-0.004 0.025-0.011 0.035-0.016 0.121-0.060 0.512-0.217 0.857-0.217 0.31 0 1.205 0.407 1.853 0.912 0.98 0.765 1.849 1.299 2.626 1.625 0.167-0.529 0.455-1.077 0.949-1.519 0.041-0.037 0.088-0.072 0.133-0.109-0.513-0.159-1.321-0.558-2.533-1.503-0.583-0.455-1.967-1.316-3.027-1.316-0.813 0-1.538 0.333-1.696 0.411l-2.085 0.946 9.317-16.696v6.534c0 0.014 0.001 0.033 0.001 0.047 0.012 0.269-0.048 0.629-0.104 0.71-0.097 0.088-0.476 0.323-0.78 0.511-0.881 0.547-2.089 1.298-2.851 2.165-0.992 1.129-1.336 2.417-1.43 4.12 0.661 0.072 1.322 0.32 1.888 0.6 0.048-1.792 0.316-2.707 0.977-3.46 0.575-0.655 1.644-1.319 2.424-1.803 0.479-0.297 0.824-0.512 1.046-0.711 0.752-0.674 0.752-1.895 0.738-2.202v-6.512l9.316 16.695-2.917-1.324c-0.105-0.070-0.478-0.34-0.729-0.797-0.128-0.233-0.256-0.779-0.369-1.262-0.196-0.836-0.418-1.784-0.877-2.483-0.608-0.925-1.581-2.099-3.362-2.698-0.166 0.533-0.455 1.086-0.952 1.531-0.052 0.047-0.11 0.091-0.167 0.137 1.541 0.343 2.324 1.227 2.886 2.080z"></path>
</svg>
