<svg version="1.1" xmlns="http://www.w3.org/2000/svg" viewBox="0 0 32 32">
<title>sbtc</title>
<path d="M1.896 23.562c-1.21-2.252-1.896-4.827-1.896-7.562 0-8.837 7.163-16 16-16 5.292 0 9.983 2.569 12.896 6.527l-12.896 0c-0.027-0-0.053-0-0.080-0-5.188 0-9.393 4.205-9.393 9.393 0 3.15 1.55 5.938 3.93 7.642h-8.561zM2.989 25.313l13.011-0c5.151-0.043 9.313-4.232 9.313-9.393 0-3.15-1.55-5.938-3.93-7.642h8.633c1.264 2.289 1.983 4.921 1.983 7.721 0 8.837-7.163 16-16 16-5.362 0-10.108-2.638-13.011-6.687z"></path>
<path d="M16 23.562c-4.22 0-7.642-3.421-7.642-7.642s3.421-7.642 7.642-7.642 7.642 3.421 7.642 7.642c0 4.221-3.421 7.642-7.642 7.642zM12.816 12.498v6.952h3.749c0.18 0 0.546-0.032 1.097-0.095 0.414-0.047 0.724-0.123 0.93-0.228 0.331-0.168 0.593-0.395 0.784-0.683s0.286-0.612 0.286-0.972c0-0.443-0.134-0.81-0.403-1.102s-0.314-0.329-0.859-0.619c0.375-0.114 0.58-0.269 0.774-0.465 0.292-0.294 0.438-0.646 0.438-1.058 0-0.49-0.204-0.901-0.613-1.233s-0.995-0.498-1.759-0.498h-4.424z"></path>
</svg>
