<svg version="1.1" xmlns="http://www.w3.org/2000/svg" viewBox="0 0 32 32">
<title>scot</title>
<path d="M25.308 13.146h-8.703l-0.468-0.234c-1.157-0.583-1.915-0.934-1.915-1.712 0-0.818 0.838-1.246 1.915-1.246 1.277 0 2.474 0.739 3.672 1.908l3.273-3.231c-1.716-2.218-4.23-3.426-6.984-3.426-4.071 0-6.865 2.725-6.865 5.956 0 0.704 0.136 1.362 0.384 1.985h-2.924v2.365h4.647c0.46 0.413 0.999 0.806 1.61 1.182h-6.257v2.365h10.659c0.726 0.491 1.14 0.992 1.14 1.602 0 0.934-1.038 1.674-2.355 1.674-1.397 0-3.193-1.012-4.43-2.413l-3.272 3.503c1.836 2.334 4.35 3.542 7.423 3.542 4.63 0 7.623-2.764 7.623-6.462 0-0.521-0.073-0.993-0.179-1.446h2.008v-2.365h-3.211c-0.363-0.419-0.814-0.807-1.314-1.182h4.524z"></path>
<path d="M16 0c-8.822 0-16 7.178-16 16s7.178 16 16 16 16-7.178 16-16c0-8.822-7.178-16-16-16zM16 28.78c-7.047 0-12.78-5.732-12.78-12.78s5.733-12.78 12.78-12.78c7.047 0 12.78 5.733 12.78 12.78s-5.733 12.78-12.78 12.78z"></path>
</svg>
