<svg version="1.1" xmlns="http://www.w3.org/2000/svg" viewBox="0 0 32 32">
<title>sjcx</title>
<path d="M4.502 21.774c-0.153 0-0.303 0.041-0.436 0.118-0.202 0.117-0.346 0.305-0.406 0.531s-0.029 0.461 0.088 0.662c0.157 0.27 0.445 0.436 0.757 0.436 0.153 0 0.304-0.041 0.436-0.118 0.417-0.242 0.559-0.776 0.318-1.193-0.157-0.27-0.445-0.436-0.758-0.436zM16.86 2.732c-0.001-0.482-0.391-0.873-0.873-0.873-0.482 0.001-0.873 0.391-0.873 0.873s0.391 0.873 0.873 0.873c0.482-0 0.873-0.391 0.873-0.873zM27.529 10.327c0.151 0 0.298-0.039 0.429-0.114 0.202-0.113 0.35-0.303 0.411-0.527 0.062-0.223 0.033-0.462-0.082-0.663-0.156-0.273-0.446-0.443-0.761-0.443-0.31 0.001-0.597 0.166-0.753 0.435s-0.158 0.599-0.005 0.869c0.156 0.274 0.446 0.443 0.761 0.443zM4.907 8.648c-0.132-0.076-0.281-0.115-0.432-0.115-0.313 0-0.603 0.167-0.76 0.439-0.116 0.201-0.146 0.44-0.085 0.663 0.060 0.224 0.207 0.414 0.409 0.529 0.132 0.076 0.281 0.115 0.432 0.116 0.314-0 0.603-0.168 0.76-0.44 0.239-0.419 0.094-0.952-0.324-1.192zM27.884 21.938c-0.133-0.078-0.284-0.12-0.439-0.12-0.311 0.001-0.598 0.166-0.756 0.433-0.243 0.415-0.102 0.951 0.314 1.195 0.133 0.078 0.285 0.119 0.439 0.119 0.311-0 0.598-0.165 0.756-0.433 0.118-0.2 0.15-0.438 0.091-0.662s-0.204-0.415-0.405-0.532zM15.111 29.268c0 0.233 0.091 0.453 0.255 0.617s0.384 0.256 0.617 0.256h0c0.482-0 0.873-0.391 0.873-0.873s-0.391-0.874-0.873-0.874-0.873 0.391-0.873 0.873z"></path>
<path d="M28.821 20.333c-0.105-0.060-0.214-0.114-0.326-0.16v-8.169c0.131-0.049 0.258-0.107 0.38-0.175 1.312-0.745 1.773-2.412 1.028-3.724s-2.412-1.773-3.724-1.028c-0.098 0.056-0.191 0.119-0.28 0.184l-7.209-4.162c0.016-0.121 0.027-0.243 0.027-0.368 0-1.509-1.223-2.732-2.732-2.732s-2.732 1.223-2.732 2.732c0 0.125 0.011 0.247 0.028 0.368l-7.159 4.133c-0.094-0.072-0.192-0.138-0.293-0.197-1.309-0.75-2.979-0.296-3.728 1.013s-0.296 2.978 1.013 3.728c0.118 0.068 0.24 0.123 0.364 0.171v8.171c-0.117 0.048-0.232 0.1-0.344 0.165-1.305 0.756-1.752 2.427-0.995 3.733s2.427 1.752 3.733 0.995c0.12-0.069 0.23-0.149 0.336-0.233l7.078 4.086c-0.020 0.132-0.033 0.266-0.033 0.404-0 1.508 1.223 2.732 2.731 2.732s2.732-1.222 2.732-2.731c0-0.137-0.013-0.27-0.032-0.401l7.036-4.062c0.108 0.089 0.223 0.172 0.348 0.245 1.302 0.761 2.975 0.322 3.736-0.981s0.322-2.976-0.981-3.736zM29.242 23.742c-0.375 0.639-1.059 1.031-1.8 1.033-0.368 0-0.73-0.098-1.049-0.284-0.81-0.473-1.181-1.412-0.975-2.281l-3.31-1.933c-0.669 0.676-1.596 1.096-2.619 1.096-0.471 0.001-0.937-0.089-1.374-0.264-0.494 0.159-1.008 0.245-1.526 0.254l-0.001 5.915c0.854 0.26 1.478 1.055 1.477 1.993 0 1.148-0.934 2.082-2.082 2.082-0.553 0.002-1.083-0.218-1.473-0.61-0.392-0.39-0.612-0.92-0.61-1.473 0-0.938 0.624-1.732 1.478-1.992l0.001-6.029c-0.453-0.096-0.891-0.252-1.302-0.464-0.283 0.056-0.571 0.084-0.86 0.083-1.042 0-2-0.364-2.757-0.969l-3.932 2.276c0.203 0.87-0.172 1.807-0.984 2.277-0.317 0.183-0.676 0.28-1.042 0.28-0.743-0.001-1.43-0.397-1.804-1.039-0.278-0.477-0.354-1.046-0.21-1.58 0.141-0.534 0.49-0.99 0.969-1.266 0.316-0.183 0.676-0.28 1.042-0.281 0.533 0 1.039 0.209 1.42 0.563l3.689-2.135c-0.512-0.722-0.816-1.602-0.816-2.552 0-1.218 0.496-2.321 1.294-3.122l-4.19-2.4c-0.382 0.359-0.89 0.57-1.427 0.57-0.361 0-0.719-0.095-1.033-0.276-0.482-0.276-0.829-0.724-0.975-1.261s-0.074-1.098 0.202-1.581c0.372-0.647 1.062-1.047 1.809-1.048 0.361 0 0.718 0.095 1.033 0.275 0.814 0.466 1.193 1.402 0.994 2.272l4.648 2.662c0.607-0.325 1.282-0.502 1.97-0.517 0.656-0.543 1.433-0.915 2.261-1.093v-6.2c-0.854-0.26-1.478-1.054-1.478-1.992 0-1.148 0.934-2.082 2.082-2.082s2.082 0.934 2.082 2.082c0 0.938-0.624 1.732-1.478 1.992v6.082c1.591 0.031 3.016 0.758 3.966 1.906l4.938-2.802c-0.195-0.871 0.188-1.805 1.004-2.268 0.313-0.178 0.666-0.271 1.026-0.272 0.75 0.001 1.442 0.403 1.813 1.055 0.274 0.48 0.344 1.050 0.196 1.582-0.145 0.533-0.498 0.986-0.98 1.257-0.313 0.178-0.666 0.271-1.026 0.271-0.541 0-1.051-0.213-1.433-0.575l-4.88 2.768c0.145 0.289 0.262 0.591 0.351 0.903 1.010 0.686 1.615 1.829 1.613 3.050 0 0.574-0.136 1.117-0.371 1.602l3.224 1.883c0.38-0.351 0.884-0.558 1.414-0.558 0.368 0 0.73 0.098 1.049 0.285 0.478 0.277 0.825 0.734 0.964 1.269 0.142 0.534 0.064 1.103-0.216 1.579z"></path>
<path d="M20.137 15.708c-0.011-0.107-0.027-0.214-0.048-0.32-0.014-0.074-0.033-0.147-0.052-0.22-0.007-0.026-0.012-0.053-0.020-0.080-0.026-0.092-0.056-0.183-0.090-0.273l-0.004-0.011c-0.178-0.476-0.452-0.911-0.807-1.276-0.080-0.082-0.163-0.16-0.25-0.234-0.003-0.003-0.006-0.006-0.009-0.008-0.084-0.071-0.171-0.139-0.262-0.202-0.005-0.004-0.011-0.008-0.016-0.011-0.089-0.062-0.18-0.12-0.274-0.173-0.007-0.004-0.014-0.008-0.021-0.012-0.094-0.053-0.19-0.102-0.289-0.146l-0.023-0.010c-0.1-0.044-0.202-0.084-0.305-0.12-0.007-0.002-0.014-0.005-0.021-0.007-0.107-0.036-0.214-0.066-0.324-0.092l-0.016-0.004c-0.116-0.026-0.234-0.047-0.352-0.062-0.155-0.021-0.312-0.033-0.469-0.034-0.46 0-0.898 0.089-1.304 0.244-0.033 0.013-0.066 0.027-0.099 0.040-0.094 0.039-0.185 0.081-0.275 0.128-0.048 0.025-0.096 0.050-0.143 0.076-0.108 0.063-0.213 0.131-0.314 0.204-0.030 0.021-0.061 0.042-0.091 0.065-0.106 0.082-0.208 0.169-0.305 0.262-0.081 0.077-0.159 0.157-0.233 0.241-0.166-0.031-0.334-0.047-0.503-0.047-0.049 0-0.097 0.005-0.146 0.007-0.652 0.033-1.272 0.293-1.753 0.735-0.002 0.002-0.004 0.004-0.007 0.006-0.238 0.219-0.436 0.477-0.586 0.762-0.005 0.009-0.009 0.019-0.014 0.028-0.041 0.081-0.078 0.164-0.111 0.248-0.010 0.026-0.019 0.052-0.029 0.080-0.025 0.070-0.048 0.142-0.067 0.214-0.009 0.033-0.018 0.065-0.025 0.097-0.017 0.073-0.030 0.147-0.041 0.221-0.005 0.032-0.011 0.062-0.015 0.095-0.012 0.106-0.019 0.213-0.020 0.32 0 0.091 0.005 0.179 0.014 0.267 0.003 0.032 0.008 0.062 0.012 0.094 0.007 0.055 0.015 0.11 0.025 0.164 0.008 0.039 0.016 0.077 0.025 0.115 0.020 0.087 0.045 0.173 0.073 0.258 0.012 0.035 0.024 0.069 0.037 0.102 0.018 0.048 0.036 0.095 0.057 0.141 0.009 0.020 0.019 0.039 0.029 0.059 0.281 0.593 0.76 1.070 1.354 1.348 0.091 0.043 0.185 0.081 0.281 0.113 0.087 0.030 0.176 0.055 0.267 0.076 0.010 0.002 0.020 0.006 0.030 0.008 0.083 0.018 0.167 0.033 0.253 0.044 0.017 0.002 0.034 0.006 0.052 0.008 0.1 0.011 0.202 0.017 0.306 0.017 0.387 0 0.756-0.078 1.092-0.22 0.080 0.059 0.161 0.114 0.245 0.166 0.009 0.006 0.019 0.010 0.027 0.016 0.077 0.047 0.156 0.091 0.236 0.133 0.002 0.001 0.005 0.002 0.007 0.004 0.514 0.264 1.082 0.401 1.659 0.401 0.33 0 0.649-0.047 0.953-0.128 0.007-0.002 0.013-0.005 0.021-0.006 0.127-0.035 0.253-0.075 0.374-0.123 0.131-0.051 0.258-0.109 0.382-0.176 0.364 0.285 0.813 0.439 1.275 0.439 0.116-0.001 0.231-0.011 0.345-0.031 0.089-0.014 0.177-0.034 0.264-0.060 0.088-0.027 0.174-0.061 0.258-0.1 0.015-0.007 0.029-0.014 0.043-0.021 0.081-0.039 0.159-0.083 0.234-0.132 0-0 0.001-0.001 0.002-0.001 0.348-0.23 0.619-0.56 0.777-0.946 0 0 0-0 0-0 0.050-0.121 0.088-0.248 0.114-0.379 0.003-0.012 0.004-0.025 0.006-0.037 0.009-0.053 0.019-0.108 0.024-0.163 0.007-0.068 0.011-0.137 0.011-0.208 0-0.921-0.6-1.702-1.43-1.974z"></path>
</svg>
