<svg version="1.1" xmlns="http://www.w3.org/2000/svg" viewBox="0 0 32 32">
<title>srn</title>
<path d="M15.675 12.337c0.445 0.178 0.89 0.089 1.246 0 0.267 0.89 0.712 1.691 1.157 2.047-0.267 2.225-1.157 3.026-2.047 3.026-1.246 0-1.869-2.581-1.869-3.026 0.356-0.178 1.157-0.712 1.513-2.047zM14.251 20.169c0.178 0.712 0.712 2.492 1.869 2.492 0.801 0 1.691-0.979 1.869-2.403-0.623-0.356-0.89-1.157-1.157-2.403-0.356 0.089-0.89 0.178-1.246 0-0.445 1.157-0.801 1.869-1.335 2.314zM7.131 22.928c0.445 0.712 1.335 1.869 2.314 1.424 0.267-0.089 0.356-0.801 0.267-1.424-0.712-0.445-1.157-1.246-1.691-2.492-0.178 0.089-0.445 0.089-0.712 0 0.178 1.335 0.178 2.047-0.178 2.492zM3.393 20.525c0.356 1.958 0.445 2.136 0.356 2.403 0.623 1.157 1.246 1.691 2.047 1.602 0.267 0 0.089-0.712-0.267-1.424 0 0-1.068-0.89-1.691-2.492-0.178-0.089-0.267-0.089-0.445-0.089zM0.989 20.525c0.89 3.738 2.581 3.56 2.492 3.382-0.356-0.623-0.712-0.89-1.068-1.157-0.801-0.801-1.424-2.492-1.424-2.225zM11.848 22.928c0.445 1.602 1.691 1.602 2.136 1.424 0.623-0.089 0.89-0.623 0.979-1.602-0.801-0.534-1.068-1.691-1.246-2.492-0.267 0.089-0.712 0.089-1.068 0-0.089 1.246-0.178 2.225-0.801 2.67zM4.194 20.169c0.356 0.89 1.424 2.581 2.225 2.581 0.356 0 0.534-0.623 0.356-2.492-0.534-0.356-0.979-1.068-1.246-2.225-0.178 0.089-0.534 0.089-0.801 0-0.089 0.979-0.178 1.691-0.534 2.136zM1.435 20.169c0.267 0.712 0.89 2.225 1.691 2.492 0.356 0.178 0.356-0.356-0.089-2.403 0 0-0.623-0.534-1.068-2.225h-0.356c-0.089 0.801-0.178 1.958-0.178 2.136zM8.555 20.169c0.089 0.356 0.979 2.136 2.047 2.403 1.246 0.267 1.335-1.335 1.335-2.314-0.623-0.356-1.068-1.068-1.335-2.225-0.267 0.089-0.712 0.178-1.157 0-0.178 1.157-0.445 1.78-0.89 2.136zM7.754 19.902c0.534 0 0.979-0.801 1.157-2.314-0.445-0.445-0.979-1.246-1.068-3.115-0.267 0.089-0.534 0.089-0.712 0-0.267 1.691-0.534 2.67-1.068 3.204 0 0.534 0.623 2.225 1.691 2.225zM2.236 17.677c0.445 1.78 0.89 2.225 1.246 2.225 0.801 0 0.623-1.335 0.712-2.314-0.267-0.356-0.801-1.246-0.801-3.115h-0.445c-0.534 2.759-0.534 2.848-0.712 3.204zM0.456 14.562c-0.178-0.089-1.068 3.649 0.267 5.251 0.178 0.178 0.178-2.047 0.178-2.047-0.356-0.801-0.178-3.115-0.445-3.204zM11.136 17.677c0.089 0.267 0.623 2.225 2.047 2.225 0.89 0 1.602-0.979 1.78-2.403-0.712-0.712-1.068-1.691-1.246-3.026-0.267 0.089-0.712 0.089-1.068 0-0.534 1.78-0.89 2.759-1.513 3.204zM3.838 14.206c0.089 1.602 0.445 3.204 1.157 3.204 0.801 0 1.157-1.78 1.424-3.293-0.267-0.178-0.623-0.712-0.623-1.869-0.178 0.178-0.534 0.178-0.712 0-0.089 0.178-0.534 1.691-1.246 1.958zM1.613 17.499c0.445 0 0.89-3.293 0.89-3.293-0.178-0.267-0.356-0.801-0.267-1.958-0.089 0.089-0.267 0-0.356 0-0.356 1.157-0.89 1.958-0.89 1.958-0.178 0.979 0 3.293 0.623 3.293zM8.377 14.206c0.089 1.068 0.623 3.204 1.691 3.204 1.157 0 1.691-1.602 1.958-3.204-0.623-0.356-0.89-0.979-1.068-1.958-0.445 0.089-0.801 0.089-1.157-0.089-0.356 0.89-1.068 1.869-1.424 2.047zM9.178 11.803c-0.267-0.356-0.623-0.979-0.445-2.314h-0.623c-0.445 0.89-0.979 1.958-1.691 2.492 0 0.178 0.089 2.047 0.979 2.047 0.712 0 1.246-0.801 1.78-2.225zM4.817 9.578h-0.356c0 0.089-1.157 2.136-1.691 2.492-0.178 0.89-0.178 1.958 0.356 2.047 0.534 0 0.89-0.445 1.602-2.225-0.178-0.445-0.356-1.068 0.089-2.314zM2.236 9.667c-1.335 0.89-2.047 4.094-1.691 4.183 0.089 0.089 1.157-1.424 1.068-2.314-0.089-0.623 0.89-1.958 0.623-1.869zM14.874 11.803c-0.356-0.356-0.801-0.979-0.979-2.314-0.267 0.089-0.712 0.089-0.979 0-0.267 0.801-0.712 1.869-1.602 2.492 0.178 0.89 0.623 1.958 1.424 2.047 1.513 0 1.869-1.246 2.136-2.225zM2.769 9.4c-0.89 1.335-0.89 2.492-0.534 2.492 0.445 0 1.691-2.225 1.958-2.67-0.089-0.445 0.89-1.335 0.534-1.424-0.623 0-1.78 1.513-1.958 1.602zM24.664 20.436c-0.267 0.089-0.534 0.089-0.712 0-0.356 1.157-0.89 2.047-1.691 2.492-0.089 0.623-0.089 1.335 0.267 1.424 0.979 0.356 1.958-0.712 2.314-1.424-0.267-0.445-0.267-1.157-0.178-2.492zM28.224 20.436c-0.623 1.602-1.691 2.492-1.691 2.492-0.445 0.801-0.623 1.424-0.267 1.424 0.801 0 1.424-0.445 2.047-1.602-0.089-0.267 0-0.445 0.356-2.403-0.178 0.178-0.356 0.178-0.445 0.089zM29.648 22.75c-0.356 0.356-0.712 0.534-0.979 1.157-0.089 0.178 1.602 0.356 2.492-3.382-0.178-0.267-0.712 1.424-1.513 2.225zM19.413 20.436c-0.356 0.089-0.712 0.089-1.068 0-0.178 0.801-0.534 1.869-1.246 2.492 0.178 0.89 0.356 1.424 0.979 1.602 0.445 0.089 1.691 0.089 2.136-1.424-0.534-0.623-0.801-1.602-0.801-2.67zM27.423 17.944c-0.356 0.178-0.623 0.089-0.801 0-0.267 0.979-0.712 1.869-1.246 2.225-0.178 1.869 0 2.492 0.356 2.492 0.712 0 1.869-1.691 2.225-2.581-0.445-0.356-0.534-1.068-0.534-2.136zM30.627 18.122h-0.356c-0.445 1.602-1.068 2.225-1.068 2.225-0.445 1.958-0.534 2.492-0.089 2.403 0.712-0.267 1.335-1.78 1.691-2.492-0.178-0.267-0.178-1.424-0.178-2.136zM22.706 17.944c-0.445 0.178-0.89 0.089-1.157 0-0.267 1.068-0.712 1.869-1.335 2.225 0 0.89 0.089 2.581 1.335 2.314 0.979-0.178 1.958-1.958 2.047-2.403-0.534-0.267-0.712-0.89-0.89-2.136zM26.088 17.677c-0.445-0.534-0.712-1.602-1.068-3.204-0.267 0.089-0.445 0.089-0.712 0-0.089 1.869-0.623 2.759-1.068 3.115 0.178 1.424 0.623 2.314 1.157 2.314 0.89 0 1.602-1.691 1.691-2.225zM29.203 14.473c-0.178 0-0.267 0.089-0.445 0 0 1.869-0.445 2.759-0.801 3.115 0.089 0.89-0.089 2.314 0.712 2.314 0.356 0 0.801-0.534 1.246-2.225-0.178-0.356-0.267-0.445-0.712-3.204zM31.072 17.677s0 2.225 0.178 2.047c1.335-1.424 0.534-5.34 0.267-5.251-0.178 0.178 0 2.492-0.445 3.204zM19.68 14.473c-0.445 0.089-0.89 0.089-1.068 0-0.178 1.335-0.623 2.314-1.246 3.026 0.267 1.335 0.801 2.492 1.78 2.403 1.246 0 1.958-1.958 2.047-2.225-0.801-0.445-1.246-1.424-1.513-3.204zM27.067 12.248c-0.267 0.178-0.534 0.178-0.801 0.089 0 1.068-0.356 1.691-0.623 1.958 0.267 1.602 0.623 3.293 1.424 3.293 0.712 0 1.157-1.691 1.157-3.204-0.623-0.445-1.157-1.958-1.157-2.136zM31.072 14.206s-0.445-0.801-0.801-1.958c-0.089 0.089-0.267 0.089-0.356 0 0.089 0.979-0.089 1.602-0.267 1.869 0 0 0.445 3.293 0.89 3.293 0.445 0.089 0.623-2.225 0.534-3.204zM22.35 12.248c-0.356 0.178-0.801 0.178-1.157 0.089-0.089 0.89-0.445 1.602-0.979 1.958 0.267 1.691 0.623 3.293 1.958 3.204 0.979 0 1.602-2.136 1.691-3.204-0.534-0.267-1.157-1.246-1.513-2.047zM24.575 13.939c0.89 0 0.979-1.78 0.979-2.047-0.623-0.445-1.157-1.424-1.691-2.403-0.178 0.089-0.356 0.089-0.623 0 0.178 1.246-0.089 1.958-0.445 2.314 0.623 1.424 1.157 2.225 1.78 2.136zM27.423 11.803c0.623 1.78 0.979 2.225 1.424 2.225 0.534-0.089 0.534-1.068 0.356-2.047-0.445-0.267-1.691-2.403-1.691-2.492h-0.356c0.534 1.335 0.356 1.958 0.267 2.314zM30.449 11.536c-0.089 0.801 0.89 2.403 0.979 2.314 0.267-0.089-0.267-3.293-1.691-4.183-0.089-0.089 0.801 1.246 0.712 1.869zM19.146 13.939c0.89-0.089 1.335-0.979 1.424-2.047-0.712-0.534-1.157-1.602-1.424-2.403-0.267 0.089-0.712 0.089-0.979 0-0.089 1.246-0.534 2.047-0.979 2.314 0.267 0.979 0.623 2.225 1.958 2.136zM27.423 7.798c-0.356 0 0.623 0.979 0.534 1.424 0.267 0.445 1.424 2.67 1.958 2.67 0.356 0 0.356-1.068-0.623-2.492-0.089-0.089-1.424-1.602-1.869-1.602zM7.665 8.065s0.178-0.445-0.089-0.534c-0.445 0-1.691 1.691-2.225 1.958-0.089 0.178-0.801 2.225 0.089 2.403 0.801 0.089 1.691-1.424 2.225-2.492-0.267-0.267-0.178-0.801 0-1.335zM11.848 7.976c0-0.089 0-0.534-0.445-0.534-0.534 0-1.246 1.691-2.047 1.958-0.178 0.979 0 2.314 0.801 2.403 1.157 0.089 1.869-1.335 2.225-2.403-0.445-0.267-0.534-0.89-0.534-1.424zM24.486 9.4c0.534 0.979 1.335 2.581 2.225 2.492 0.89-0.178 0.178-2.225 0.089-2.403-0.534-0.267-1.78-1.958-2.225-1.958-0.267 0-0.089 0.445-0.089 0.534 0.178 0.534 0.178 1.068 0 1.335zM19.769 9.4c0.356 0.979 0.979 2.581 2.225 2.403 0.89-0.089 1.068-1.246 0.801-2.403-0.712-0.267-1.602-2.047-2.047-1.958-0.445 0-0.445 0.445-0.445 0.534-0.089 0.534-0.178 1.157-0.534 1.424zM16.031 7.442c-0.979 0-0.623 1.602-1.691 2.047 0.089 0.801 0.356 2.403 1.602 2.403 1.424 0 1.691-1.958 1.691-2.403-0.712-0.356-0.712-2.047-1.602-2.047z"></path>
</svg>
