<svg version="1.1" xmlns="http://www.w3.org/2000/svg" viewBox="0 0 32 32">
<title>start</title>
<path d="M20.717 10.409c-0.071-0.061-0.199-0.135-0.385-0.225s-0.411-0.17-0.674-0.244c-0.264-0.073-0.557-0.133-0.878-0.181-0.054-0.008-0.112-0.011-0.167-0.018l0.099-1.39c0.009-0.157-0.045-0.31-0.149-0.427s-0.251-0.188-0.408-0.196c-0.324-0.019-0.605 0.231-0.624 0.557l-0.1 1.414c-0.318 0.011-0.636 0.043-0.95 0.095l0.103-1.442c0.018-0.326-0.231-0.605-0.557-0.623s-0.605 0.231-0.624 0.557l-0.131 1.83c-0.471 0.179-0.888 0.403-1.248 0.676-0.457 0.348-0.814 0.763-1.071 1.247s-0.385 1.013-0.385 1.587c0 0.413 0.064 0.777 0.193 1.089s0.298 0.588 0.509 0.827c0.211 0.239 0.452 0.45 0.718 0.626s0.539 0.343 0.819 0.497c0.27 0.149 0.543 0.293 0.819 0.431 0.268 0.133 0.507 0.275 0.717 0.425s0.38 0.314 0.509 0.492c0.129 0.179 0.193 0.385 0.193 0.621 0 0.261-0.056 0.501-0.166 0.721s-0.273 0.413-0.487 0.578c-0.214 0.166-0.481 0.296-0.798 0.392s-0.688 0.143-1.108 0.143c-0.478 0-0.889-0.051-1.232-0.153s-0.639-0.211-0.889-0.329c-0.25-0.118-0.459-0.226-0.626-0.325s-0.313-0.149-0.433-0.149c-0.072 0-0.138 0.033-0.198 0.096s-0.116 0.147-0.166 0.249c-0.051 0.102-0.094 0.215-0.129 0.339-0.035 0.12-0.065 0.241-0.091 0.363-0.025 0.117-0.044 0.227-0.059 0.329s-0.021 0.179-0.021 0.229c0 0.192 0.050 0.335 0.15 0.43s0.253 0.196 0.46 0.301 0.463 0.205 0.766 0.301c0.222 0.070 0.476 0.13 0.746 0.184l-0.104 1.46c-0.009 0.165 0.051 0.327 0.166 0.445s0.275 0.184 0.441 0.179c0.307-0.008 0.556-0.251 0.573-0.557l0.099-1.383c0.135 0.006 0.267 0.015 0.409 0.015 0.182 0 0.359-0.008 0.534-0.018l-0.094 1.318c-0.018 0.214 0.082 0.421 0.261 0.54s0.408 0.132 0.599 0.034c0.191-0.098 0.313-0.292 0.32-0.507l0.11-1.539c0.205-0.042 0.408-0.094 0.609-0.154 0.703-0.216 1.302-0.515 1.799-0.893s0.88-0.824 1.152-1.338c0.271-0.513 0.407-1.068 0.407-1.667 0-0.401-0.064-0.757-0.193-1.065s-0.3-0.583-0.514-0.821c-0.216-0.241-0.463-0.454-0.734-0.632s-0.549-0.346-0.835-0.501c-0.277-0.15-0.556-0.296-0.836-0.439-0.275-0.14-0.519-0.285-0.733-0.435s-0.386-0.312-0.514-0.487c-0.128-0.176-0.192-0.378-0.192-0.607 0-0.197 0.041-0.393 0.123-0.588s0.209-0.37 0.38-0.525c0.171-0.156 0.391-0.282 0.659-0.378s0.594-0.143 0.98-0.143c0.371 0 0.703 0.040 0.996 0.119s0.548 0.166 0.766 0.259c0.218 0.092 0.401 0.178 0.551 0.258s0.275 0.119 0.375 0.119c0.064 0 0.124-0.032 0.181-0.095s0.109-0.145 0.156-0.244c0.046-0.099 0.085-0.207 0.117-0.325 0.060-0.218 0.103-0.44 0.129-0.664 0.010-0.096 0.016-0.169 0.016-0.22 0-0.102-0.016-0.186-0.048-0.254s-0.083-0.13-0.155-0.19z"></path>
<path d="M16 0c-8.837 0-16 7.164-16 16s7.164 16 16 16 16-7.163 16-16c0-8.836-7.163-16-16-16zM16 28.14c-6.705 0-12.14-5.436-12.14-12.14s5.435-12.141 12.14-12.141c6.706 0 12.14 5.436 12.14 12.141s-5.435 12.14-12.14 12.14z"></path>
</svg>
