<svg version="1.1" xmlns="http://www.w3.org/2000/svg" viewBox="0 0 32 32">
<title>stx</title>
<path d="M31.987 12.571v-0.624c-2.126 0-3.88 1.648-4.040 3.761-0.146-2.113-1.9-3.748-4.027-3.761v0.625c1.887 0 3.429 1.528 3.429 3.429s-1.528 3.429-3.429 3.429v0.625c2.126 0 3.88-1.648 4.040-3.761 0.146 2.113 1.914 3.761 4.040 3.761v-0.625c-1.887 0-3.429-1.528-3.429-3.429s1.528-3.428 3.415-3.428h-0zM10.326 20.053v-0.465l-0.013-3.588h-0.598v4.053h0.611zM18.432 11.947c-2.233 0-4.053 1.821-4.053 4.053s1.821 4.053 4.053 4.053c2.233 0 4.053-1.821 4.053-4.053s-1.807-4.053-4.053-4.053zM18.432 19.428c-1.887 0-3.429-1.541-3.429-3.428s1.528-3.429 3.429-3.429c1.887 0 3.429 1.528 3.429 3.429s-1.528 3.429-3.429 3.429zM7.482 11.947c-2.233 0-4.053 1.821-4.053 4.053 0 1.887-1.542 3.428-3.429 3.428v0.625c2.233 0 4.053-1.821 4.053-4.053 0-1.887 1.542-3.429 3.429-3.429h5.209v-0.625h-5.209z"></path>
</svg>
