<svg version="1.1" xmlns="http://www.w3.org/2000/svg" viewBox="0 0 32 32">
<title>sys</title>
<path d="M17.427 22.188v-4.233c0.603-0.425 1-1.123 1-1.918 0-1.296-1.051-2.348-2.348-2.348s-2.347 1.052-2.347 2.348c0 0.775 0.38 1.458 0.96 1.885v4.435l-2.473 3.172c0 0 1.934 0.868 3.861 0.868s3.873-0.815 3.873-0.815z"></path>
<path d="M16 0c-8.837 0-16 7.163-16 16s7.163 16 16 16 16-7.164 16-16c-0-8.837-7.164-16-16-16zM16.085 3.109c0.462 0.001 0.836 0.375 0.837 0.837s-0.375 0.836-0.837 0.837c-0.461 0-0.836-0.376-0.836-0.837s0.375-0.837 0.836-0.837zM16 30.928c-8.245 0-14.929-6.683-14.929-14.928 0-7.684 5.805-14.008 13.268-14.834v0.511c-0.345 0.064-0.608 0.366-0.608 0.729 0.001 0.411 0.333 0.743 0.744 0.744 0.411-0.001 0.743-0.333 0.743-0.744 0-0.364-0.263-0.665-0.608-0.729v-0.538c0.413-0.038 0.832-0.059 1.254-0.063v1.677c-0.564 0.105-0.994 0.599-0.994 1.193 0 0.67 0.545 1.215 1.215 1.215s1.216-0.545 1.216-1.215c0-0.594-0.43-1.088-0.994-1.193v-1.673c0.418 0.008 0.833 0.029 1.241 0.071v0.526c-0.345 0.064-0.608 0.366-0.608 0.729 0 0.41 0.333 0.744 0.744 0.744s0.743-0.334 0.743-0.744c0-0.364-0.263-0.665-0.608-0.729v-0.491c7.387 0.898 13.11 7.185 13.11 14.814 0 8.245-6.683 14.928-14.929 14.928zM14.474 1.894c0.277 0.008 0.498 0.235 0.498 0.512s-0.221 0.504-0.498 0.512c-0.283-0-0.512-0.23-0.512-0.512s0.229-0.511 0.512-0.512zM17.683 1.894c0.277 0.008 0.498 0.235 0.498 0.512s-0.221 0.504-0.498 0.512c-0.283-0-0.512-0.23-0.512-0.512s0.229-0.511 0.512-0.512z"></path>
<path d="M14.7 12.786h0c0.436-0.185 0.905-0.28 1.378-0.28 0.478 0 0.933 0.096 1.348 0.268v-2.506l4.617-6.879c-0.894-0.429-1.842-0.763-2.829-0.995l-3.166 4.718-3.179-4.737c-0.979 0.223-1.931 0.552-2.839 0.981l4.67 6.958z"></path>
<path d="M13.731 18.671c-0.725-0.647-1.184-1.586-1.184-2.633 0-0.437 0.083-0.854 0.229-1.241h-7.943c0 0 0.217-2.131 0.947-3.847s2.703-3.137 2.703-3.137l2.367 3.314v1.934h2.881v-2.407l-4.7-6.773c-4.19 2.415-7.014 6.936-7.014 12.12 0 0.473 0.024 0.94 0.070 1.401h8.802v3.63l-2.644 3.196c0 0-1.25-1.263-2.012-2.433s-1.289-3.209-1.289-3.209h-2.685c0.738 3.949 3.135 7.315 6.442 9.343l5.029-6.245zM29.911 17.401c0.046-0.46 0.070-0.928 0.070-1.4 0-5.137-2.772-9.625-6.9-12.054l-4.655 6.708v2.407h2.881v-1.933l2.367-3.314c0 0 1.973 1.42 2.703 3.137s0.947 3.847 0.947 3.847h-7.943c0.15 0.397 0.228 0.817 0.228 1.241 0 1.048-0.459 1.986-1.184 2.633v3.011l4.974 6.179c3.253-2.035 5.608-5.369 6.339-9.276h-2.526c0 0-0.527 2.038-1.289 3.209s-2.012 2.433-2.012 2.433l-2.644-3.196v-3.631zM18.284 27.576h1.716v-0.932c-0.558 0.221-1.132 0.403-1.716 0.545zM16.189 27.576h1.715v-0.302c-0.539 0.111-1.122 0.189-1.715 0.197zM16.189 27.955h1.715v0.871h-1.715zM18.284 27.955h1.716v0.871h-1.716zM20.378 26.486v1.090h1.111l-0.919-1.178c0 0-0.070 0.034-0.192 0.088zM20.378 27.955v0.871h1.187c0.222-0.096 0.442-0.198 0.66-0.306l-0.441-0.565zM9.75 28.506c0.225 0.113 0.453 0.219 0.684 0.319h1.187v-0.871h-1.418zM14.095 27.576h1.716v-0.11c-0.59-0.021-1.175-0.107-1.716-0.223zM18.284 29.791c0.579-0.095 1.152-0.226 1.716-0.393v-0.195h-1.716zM10.514 27.576h1.107v-1.117c-0.047-0.020-0.093-0.040-0.139-0.061zM16.189 29.976c0.574-0.008 1.147-0.051 1.715-0.128v-0.644h-1.715zM12 27.955h1.716v0.871h-1.716zM14.095 27.955h1.716v0.871h-1.716zM14.095 29.847c0.562 0.077 1.134 0.121 1.716 0.128v-0.772h-1.716zM12 27.576h1.716v-0.42c-0.583-0.145-1.156-0.326-1.716-0.543zM12 29.397c0.563 0.167 1.136 0.299 1.716 0.394v-0.587h-1.716z"></path>
</svg>
