<svg version="1.1" xmlns="http://www.w3.org/2000/svg" viewBox="0 0 32 32">
<title>time</title>
<path d="M29.854 26.954h-27.614c-0.602 0-1.125-0.223-1.571-0.67s-0.669-0.971-0.669-1.574v-17.42c0-0.625 0.223-1.156 0.669-1.591s0.969-0.653 1.571-0.653h27.514c0.602 0 1.126 0.218 1.572 0.653s0.669 0.966 0.669 1.591v17.353c0.044 0.647-0.151 1.195-0.585 1.641s-0.953 0.67-1.555 0.67zM1.438 24.643c0 0.223 0.084 0.413 0.251 0.569s0.351 0.235 0.551 0.235h2.207c-0.245-0.692-0.624-1.307-1.137-1.843s-1.136-0.916-1.872-1.139zM2.24 6.486c-0.201 0-0.384 0.078-0.551 0.235s-0.251 0.346-0.251 0.569v2.177c0.691-0.223 1.304-0.597 1.839-1.122s0.925-1.145 1.17-1.859zM30.657 7.29c0-0.223-0.084-0.413-0.251-0.569s-0.351-0.235-0.552-0.235h-2.206c0.245 0.692 0.624 1.307 1.136 1.843s1.137 0.916 1.872 1.139zM30.657 10.975c-1.092-0.268-2.050-0.81-2.875-1.625s-1.371-1.77-1.638-2.864h-20.159c-0.268 1.094-0.808 2.049-1.622 2.864s-1.766 1.357-2.858 1.625v9.983c1.092 0.268 2.045 0.81 2.858 1.625s1.354 1.77 1.622 2.864h20.159c0.268-1.094 0.813-2.049 1.638-2.864s1.783-1.357 2.875-1.625zM30.657 22.499c-0.691 0.246-1.304 0.625-1.839 1.139s-0.925 1.139-1.17 1.876h2.206c0.201 0 0.384-0.084 0.552-0.251s0.251-0.352 0.251-0.553zM16.047 23.203c-1.003 0-1.939-0.19-2.808-0.57-0.891-0.38-1.66-0.893-2.307-1.541s-1.159-1.418-1.538-2.312c-0.379-0.871-0.568-1.809-0.568-2.814s0.189-1.943 0.568-2.814c0.379-0.893 0.892-1.664 1.538-2.312s1.415-1.161 2.307-1.541c0.869-0.38 1.805-0.57 2.808-0.57s1.939 0.19 2.808 0.57c0.892 0.38 1.661 0.893 2.307 1.541s1.159 1.418 1.538 2.312c0.379 0.871 0.568 1.809 0.568 2.814s-0.189 1.943-0.568 2.814c-0.379 0.893-0.891 1.664-1.538 2.312s-1.415 1.161-2.307 1.541c-0.869 0.38-1.805 0.57-2.808 0.57zM16.047 10.070c-1.627 0-3.014 0.575-4.162 1.725s-1.722 2.54-1.722 4.171c0 1.631 0.574 3.021 1.722 4.171s2.535 1.725 4.162 1.725c1.627 0 3.015-0.575 4.162-1.725s1.722-2.54 1.722-4.171c0-1.63-0.574-3.021-1.722-4.171s-2.535-1.725-4.162-1.725zM19.323 16.402h-2.741v2.847c0 0.179-0.067 0.335-0.201 0.469s-0.301 0.201-0.501 0.201c-0.178 0-0.34-0.067-0.485-0.201s-0.218-0.29-0.218-0.469v-3.484c0-0.201 0.072-0.368 0.218-0.502s0.306-0.201 0.485-0.201h3.377c0.178 0 0.34 0.067 0.485 0.201s0.217 0.301 0.217 0.502c0.022 0.179-0.033 0.33-0.167 0.452s-0.29 0.184-0.468 0.184z"></path>
</svg>
