<svg version="1.1" xmlns="http://www.w3.org/2000/svg" viewBox="0 0 32 32">
<title>unity</title>
<path d="M30.392 11.329v9.345c1.020-1.415 1.608-2.997 1.608-4.672s-0.588-3.259-1.608-4.672zM20.366 11.37c1.352 1.28 5.294 6.169 7.745 9.251v-11.632c-2.934-2.285-7.267-3.739-12.111-3.739-2.266 0-4.416 0.321-6.37 0.891 3.696 0.194 7.218 1.895 10.735 5.229z"></path>
<path d="M18.798 13.024c-3.297-3.123-6.525-4.641-9.87-4.641-4.25 0-5.372 1.562-5.372 2.388-0.006 0.822-0.011 1.568 0.591 2.178 0.635 0.638 2.192 1.398 6.002 1.398 3.348 0 5.77 0.76 7.201 2.26 0.98 1.027 1.443 2.317 1.371 3.835 0 1.19-1.153 5.179-6.376 6.014 1.175 0.185 2.395 0.293 3.655 0.293 4.502 0 8.564-1.253 11.471-3.265-2.828-3.586-7.341-9.197-8.674-10.46z"></path>
<path d="M10.32 24.34c5.788 0 6.118-3.855 6.122-3.895 0.019-0.434 0.065-1.42-0.74-2.264-0.97-1.015-2.89-1.553-5.552-1.553-3.741 0-6.234-0.677-7.618-2.072-0.918-0.924-1.166-1.972-1.232-2.797-0.833 1.302-1.3 2.735-1.3 4.243 0 1.912 0.752 3.704 2.056 5.261 1.859 1.762 4.649 3.077 8.264 3.077z"></path>
</svg>
