<svg version="1.1" xmlns="http://www.w3.org/2000/svg" viewBox="0 0 32 32">
<title>usdc</title>
<path d="M28.576 11.032h-4.657c-0.050 0-0.1 0.025-0.125 0.075s-0.025 0.1 0 0.174c1.693 1.768 2.64 4.059 2.64 6.475 0.025 2.54-0.971 4.956-2.764 6.773-1.843 1.868-4.308 2.889-6.923 2.889h-11.829c-0.050 0 0.050 0 0 0h-1.469c-0.399 0-0.722 0.324-0.722 0.722v3.113c0 0.398 0.324 0.722 0.722 0.722h1.37c0.075 0 0.149 0.025 0.249 0.025h11.63c3.835 0 7.446-1.519 10.16-4.258 2.69-2.689 4.134-6.226 4.134-9.936-0.050-2.216-0.548-4.283-1.469-6.151-0.174-0.423-0.548-0.622-0.946-0.622zM28.501 0.025h-1.32c-0.1 0 0.1 0 0 0l-11.879-0.025c-3.835 0-7.446 1.519-10.16 4.258-2.69 2.69-4.134 6.226-4.134 9.936 0.050 2.216 0.548 4.283 1.469 6.151 0.174 0.349 0.548 0.573 0.946 0.573h4.657c0.050 0 0.1-0.025 0.125-0.075s0.025-0.1 0-0.174c-1.693-1.768-2.64-4.059-2.64-6.475-0.025-2.54 0.946-4.956 2.764-6.774 1.843-1.868 4.308-2.889 6.923-2.889h13.223c0.398 0 0.722-0.324 0.722-0.722v-3.063c0.025-0.398-0.299-0.722-0.697-0.722z"></path>
</svg>
