<svg version="1.1" xmlns="http://www.w3.org/2000/svg" viewBox="0 0 32 32">
<title>xai</title>
<path d="M6.195 1.075l1.991 1.991-1.991 1.992-1.991-1.991zM18.035 2.259l-1.991-1.991-7.32 7.32 1.992 1.991zM15.070 13.932l11.94-11.94-1.991-1.992-11.942 11.941zM30.925 6.196l-1.992 1.991-1.992-1.991 1.991-1.991zM22.422 10.716l7.319 7.319 1.992-1.991-7.32-7.32zM20.058 13.078l-1.991 1.992 11.941 11.941 1.992-1.991zM25.805 30.922l-1.992-1.992 1.991-1.992 1.992 1.991zM13.965 29.741l1.991 1.991 7.32-7.32-1.992-1.991zM16.93 18.068l-11.941 11.94 1.991 1.992 11.942-11.941zM1.076 25.804l1.991-1.992 1.992 1.991-1.991 1.992zM9.578 21.284l-7.319-7.319-1.992 1.991 7.32 7.321zM13.932 16.93l-11.941-11.941-1.992 1.991 11.941 11.942z"></path>
</svg>
