<svg version="1.1" xmlns="http://www.w3.org/2000/svg" viewBox="0 0 32 32">
<title>xaur</title>
<path d="M24.1 17.7v1.6h3.267v1.867h2.233v7.2h2.4v0.967h-9.767v-0.967h4.1v-5.8h-2.233v-1.6h-3.233v-0.967h-3.466c0.133 0.289 0.278 0.506 0.433 0.65s0.311 0.25 0.467 0.317c-0.022-0.022-0.039-0.056-0.050-0.1s-0.017-0.088-0.017-0.133c0-0.156 0.061-0.289 0.183-0.4s0.261-0.167 0.417-0.167c0.156 0 0.289 0.056 0.4 0.167s0.167 0.244 0.167 0.4c0 0.178-0.056 0.322-0.167 0.433s-0.244 0.167-0.4 0.167h-0.067c-0.111 0-0.355-0.056-0.733-0.167s-0.7-0.478-0.966-1.1l-1.267 3.033c0-0.067-0.167-0.511-0.5-1.333s-0.567-1.389-0.7-1.7c-0.267 0.622-0.589 0.989-0.966 1.1s-0.622 0.167-0.733 0.167h-0.034c-0.178 0-0.322-0.056-0.433-0.167s-0.167-0.256-0.167-0.433c0-0.156 0.056-0.289 0.167-0.4s0.256-0.167 0.433-0.167c0.156 0 0.289 0.056 0.4 0.167s0.167 0.244 0.167 0.4v0.15l-0.033 0.083c0.133-0.067 0.283-0.173 0.45-0.317s0.317-0.361 0.45-0.65h-3.267v0.967h-3.233v1.6h-2.267v5.8h4.133v0.967h-9.667v-0.967h2.4v-7.2h2.233v-1.867h3.267v-1.6h2.966v-0.833l-2.133-0.933c0.044 0 0.3-0.083 0.767-0.25s0.922-0.35 1.367-0.55v-0.833h-2.966v-1.6h-3.267v-1.867h-2.233v-7.2h-2.4v-0.967h9.767v0.967h-4.1v5.8h2.233v1.6h3.233v0.967h3.267c-0.133-0.311-0.284-0.544-0.45-0.7s-0.316-0.256-0.45-0.3c0.022 0.022 0.033 0.056 0.033 0.1v0.1c0 0.156-0.055 0.295-0.167 0.417s-0.244 0.184-0.4 0.184-0.295-0.061-0.417-0.184c-0.122-0.122-0.184-0.261-0.184-0.417s0.061-0.294 0.184-0.417c0.122-0.122 0.261-0.183 0.417-0.183h0.033c0.111 0 0.35 0.056 0.717 0.167s0.705 0.467 1.017 1.067l1.2-2.967c0 0.045 0.178 0.511 0.534 1.4s0.577 1.467 0.667 1.733c0.267-0.667 0.589-1.061 0.966-1.183s0.633-0.172 0.767-0.15h0.067c0.156 0 0.295 0.056 0.417 0.167s0.183 0.256 0.183 0.433c0 0.156-0.061 0.289-0.183 0.4s-0.261 0.167-0.417 0.167-0.294-0.056-0.417-0.167c-0.122-0.111-0.183-0.244-0.183-0.4 0-0.067 0.006-0.117 0.017-0.15s0.028-0.061 0.050-0.083c-0.156 0.067-0.311 0.173-0.467 0.317s-0.3 0.383-0.433 0.717h3.467v-0.967h3.233v-1.6h2.267v-5.833h-4.133v-1h9.667v0.967h-2.4v7.2h-2.233v1.867h-3.267v1.6h-3.133v0.833l2.033 0.867c-0.044 0-0.289 0.083-0.733 0.25s-0.878 0.328-1.3 0.483v0.933h3.133zM20.267 15.9h-0.2l-0.1-0.034c-0.067-0.022-0.078-0.044-0.034-0.066-0.042-0.063-0.086-0.124-0.133-0.184l-0.067-0.083-0.067 0.083-0.133 0.184-0.066 0.033h-0.8c0.422-0.156 0.689-0.278 0.8-0.367s0.167-0.156 0.167-0.2v-0.067c-0.267-0.244-0.434-0.383-0.5-0.417s-0.111-0.050-0.133-0.050c-0.044 0-0.067 0.006-0.067 0.017v0.017c0 0.156-0.117 0.333-0.35 0.534s-0.417 0.344-0.55 0.433l-0.7-0.7 0.367-0.966-0.333 0.167-0.566 0.267-0.8-0.8-0.8 0.8-0.966-0.367 0.15 0.333 0.283 0.566-0.8 0.8c-0.133-0.111-0.316-0.256-0.55-0.433s-0.35-0.356-0.35-0.534c0-0.022-0.006-0.033-0.017-0.033h-0.050l-0.117 0.033c-0.077 0.022-0.25 0.167-0.517 0.434v0.066c0 0.022 0.056 0.078 0.167 0.167s0.378 0.222 0.8 0.4h-0.8l-0.033-0.017-0.034-0.017c-0.042-0.063-0.086-0.124-0.133-0.183l-0.067-0.083-0.067 0.083-0.167 0.183-0.1 0.1h-0.2c-0.133 0.022-0.239 0.044-0.317 0.067l-0.117 0.033 0.117 0.034 0.317 0.066h0.2c0.022 0 0.044 0.011 0.067 0.034s0.033 0.056 0.033 0.1c0.067 0.044 0.122 0.1 0.167 0.167l0.067 0.1 0.067-0.1 0.133-0.167 0.034-0.033 0.033-0.034h0.8c-0.422 0.156-0.689 0.278-0.8 0.367s-0.167 0.167-0.167 0.233v0.034c0.267 0.244 0.433 0.389 0.5 0.433s0.111 0.067 0.133 0.067c0.022 0 0.039-0.011 0.050-0.034l0.017-0.033c0-0.156 0.117-0.333 0.35-0.533s0.417-0.344 0.55-0.434l0.7 0.7c-0.089 0.178-0.178 0.372-0.267 0.583s-0.145 0.317-0.167 0.317l0.966-0.367 0.8 0.8 0.833-0.867 0.8 0.4-0.3-0.867 0.7-0.7c0.133 0.111 0.317 0.261 0.55 0.45s0.35 0.361 0.35 0.517v0.050l0.033 0.017c0.045 0 0.089-0.017 0.133-0.050s0.222-0.183 0.533-0.45v-0.034c0-0.044-0.055-0.111-0.167-0.2s-0.378-0.222-0.8-0.4h0.8l0.017 0.034 0.017 0.033c0.067 0.044 0.122 0.1 0.167 0.167l0.067 0.1 0.066-0.1 0.133-0.167c0.022-0.044 0.039-0.067 0.050-0.067s0.028-0.022 0.050-0.067h0.233c0.133-0.022 0.239-0.044 0.317-0.066l0.117-0.034-0.083-0.083z"></path>
</svg>
