<svg version="1.1" xmlns="http://www.w3.org/2000/svg" viewBox="0 0 32 32">
<title>zen</title>
<path d="M23.972 15.977c-1.6-0.337-7.009-1.264-12.756 1.664-4.855 2.476-7.247 6.322-8.092 7.855-4.79-6.553-3.969-15.648 1.759-21.102 5.459-5.201 14.055-5.841 20.388-1.408-1.355 0.88-2.714 1.758-4.069 2.638-0.861-0.437-2.263-1.021-4.069-1.202-3.594-0.362-6.292 1.108-7.153 1.623-0.732 0.44-4.254 2.663-5.353 7.196-0.742 3.063 0.006 5.592 0.376 6.628 0.511-0.625 1.049-1.185 1.628-1.698l0.015-0.013c0.412-0.364 0.862-0.716 1.332-1.042l0.048-0.032c-0.106-0.834-0.229-2.747 0.795-4.739 1.283-2.494 4.010-4.424 7.228-4.396 3.534 0.031 6.286 2.416 7.356 4.995 0.504 1.208 0.579 2.32 0.567 3.031z"></path>
<path d="M9.369 20.485c1.258-0.98 3.090-2.12 5.481-2.813 2.185-0.634 3.985-0.649 4.958-0.653 1.662-0.003 3.055 0.209 4.069 0.422-0.113 0.615-0.635 3.060-2.927 4.855-2.075 1.627-4.304 1.705-4.98 1.701-0.714 0-2.085-0.090-3.581-0.843-1.681-0.846-2.62-2.070-3.021-2.669zM15.723 31.962c1.928 0.031 4.987-0.265 8.123-2.036 2.047-1.155 3.428-2.541 4.257-3.512 0.861-1.002 3.813-4.68 3.894-10.209 0.072-4.914-2.163-8.37-2.98-9.519-0.88 1.346-1.756 2.694-2.636 4.040 2.266 4.461 1.399 9.903-2.144 13.44-3.547 3.54-9.015 4.408-13.492 2.139-1.377 0.896-2.755 1.789-4.132 2.685 1.24 0.868 4.501 2.9 9.109 2.972z"></path>
</svg>
