<svg version="1.1" xmlns="http://www.w3.org/2000/svg" viewBox="0 0 32 32">
<title>zrx</title>
<path d="M21.756 7.2l-0.1 0.050-0.067 0.050c0.043 0.021 0.083 0.050 0.117 0.084l0.084 0.083c0.756 0.511 1.424 1.094 2.002 1.75s1.068 1.383 1.468 2.183c0.022 0.089 0.033 0.161 0.033 0.216s-0.022 0.117-0.067 0.183l-1.602 1.6c-0.172 0.15-0.339 0.305-0.501 0.466l-0.467 0.467 7.208 9.6c0.022-0.022 0.033-0.039 0.033-0.050v-0.050c0.534-0.933 0.968-1.894 1.301-2.883s0.567-2.017 0.701-3.084c0.024-0.194 0.046-0.388 0.067-0.583 0.022-0.211 0.033-0.406 0.033-0.583v-1.5c0-0.022-0.011-0.050-0.033-0.084s-0.033-0.072-0.033-0.117c-0.023-0.244-0.045-0.494-0.067-0.75-0.022-0.251-0.055-0.502-0.1-0.75-0.156-0.978-0.389-1.911-0.701-2.8-0.289-0.889-0.662-1.733-1.118-2.533s-0.984-1.567-1.585-2.3c-0.578-0.733-1.235-1.422-1.969-2.067-0.067-0.067-0.122-0.1-0.167-0.1s-0.1 0.033-0.167 0.1c-0.667 0.578-1.368 1.15-2.102 1.717s-1.468 1.128-2.202 1.683zM24.626 21.7c-0.512 0.778-1.107 1.461-1.785 2.050s-1.44 1.083-2.286 1.483c-0.045 0.022-0.095 0.033-0.15 0.033s-0.106-0.033-0.15-0.1c-0.223-0.2-0.451-0.411-0.684-0.634s-0.451-0.433-0.651-0.633l-1.301-1.3-2.336 1.8c-0.801 0.6-1.596 1.205-2.386 1.817-0.791 0.612-1.586 1.217-2.386 1.817-0.779 0.6-1.569 1.211-2.369 1.833l0.050 0.050 0.050 0.017c0.934 0.533 1.897 0.961 2.886 1.283s2.019 0.55 3.087 0.683c0.178 0.022 0.373 0.039 0.584 0.050 0.217 0.011 0.434 0.028 0.651 0.050h1.368c0.044 0 0.078-0.011 0.1-0.033s0.067-0.033 0.134-0.033c0.183-0.023 0.366-0.040 0.551-0.050 0.189-0.011 0.361-0.028 0.517-0.050 1.624-0.2 3.165-0.628 4.621-1.283s2.798-1.539 4.021-2.65c0.267-0.244 0.534-0.506 0.801-0.784s0.534-0.55 0.801-0.817c-0.623-0.8-1.229-1.6-1.819-2.4s-1.196-1.6-1.819-2.4c0 0.044-0.011 0.083-0.034 0.116s-0.044 0.061-0.067 0.084zM10.544 24.633l-0.1-0.050-0.067-0.050c-0.779-0.511-1.463-1.105-2.052-1.783s-1.085-1.439-1.485-2.283c-0.022-0.067-0.033-0.122-0.033-0.167s0.033-0.089 0.1-0.133c0.334-0.356 0.667-0.706 1.001-1.050s0.679-0.694 1.034-1.050c0.045-0.044 0.095-0.1 0.15-0.166s0.128-0.134 0.217-0.2c-0.601-0.8-1.19-1.611-1.769-2.433-1.154-1.64-2.333-3.263-3.537-4.867l-1.735-2.467c-0.044 0.044-0.067 0.078-0.067 0.1s-0.022 0.033-0.067 0.033c-0.556 0.978-1.007 2.011-1.351 3.1s-0.562 2.2-0.651 3.333c0 0.133-0.011 0.267-0.033 0.4s-0.056 0.267-0.1 0.4v1.4c0.044 0.022 0.067 0.055 0.067 0.1v0.1c0.023 0.333 0.050 0.655 0.084 0.966s0.072 0.634 0.117 0.967c0.334 1.6 0.862 3.1 1.585 4.5s1.663 2.689 2.82 3.867c0.181 0.18 0.364 0.358 0.551 0.533s0.369 0.353 0.55 0.533c0.801-0.622 1.602-1.228 2.403-1.817s1.601-1.172 2.402-1.75c-0.022-0.022-0.033-0.039-0.033-0.050zM3.804 5.767c0.579 0.801 1.174 1.59 1.785 2.367s1.206 1.566 1.785 2.367c0.021-0.043 0.050-0.083 0.084-0.117l0.083-0.084c0.534-0.778 1.134-1.461 1.802-2.050s1.424-1.083 2.269-1.483c0.067-0.022 0.122-0.033 0.167-0.033s0.089 0.033 0.133 0.1c0.4 0.4 0.801 0.789 1.201 1.167l1.201 1.133c0.022 0.022 0.050 0.044 0.083 0.067s0.061 0.044 0.084 0.067c0.779-0.6 1.568-1.189 2.369-1.767 0.779-0.6 1.563-1.2 2.352-1.8s1.585-1.189 2.386-1.767l2.402-1.8c-1.624-0.956-3.359-1.589-5.205-1.9-1.824-0.311-3.637-0.311-5.439 0s-3.526 0.933-5.172 1.867c-1.668 0.911-3.126 2.133-4.371 3.667z"></path>
</svg>
